<svg id="Layer_1" data-name="Layer 1" xmlns="http://www.w3.org/2000/svg" viewBox="0 0 204.95 110.82"><defs><style>.cls-1{fill:#161616;}.cls-2{font-size:28.18px;fill:#ffb434;font-family:ArialRoundedMTBold, Arial Rounded MT Bold;}.cls-3{fill:none;}</style></defs><path class="cls-1" d="M207.89,49.7c-1.17-.07-2.35-.12-3.52-.18a5.28,5.28,0,0,0-.89,0,38.33,38.33,0,0,1-5.67.16c-1.3,0-2.59-.21-3.89-.33-.63,0-1.26-.11-1.88-.19a7.9,7.9,0,0,1-.9-.2c0-.33,0-.61,0-.89a.79.79,0,0,0-.41-.85,7.37,7.37,0,0,0-1.29-.47c-.36-.09-.73-.1-1.14-.16a6.35,6.35,0,0,1-.07-.8,1,1,0,0,0-.73-1A7.83,7.83,0,0,0,186,44.4c-.49-.06-.81-.25-.88-.74-.15-1.12-1-1.37-1.89-1.51-1.24-.17-2.48-.37-3.8-.58.06-.32.1-.56.16-.78s.23-.73.3-1.1a1.72,1.72,0,0,0-1.29-2.15,6.08,6.08,0,0,0-1.61-.23c-.45,0-.92.11-1.34-.12a1.65,1.65,0,0,1-.22-1.23,1.31,1.31,0,0,0-1-1.32,3.65,3.65,0,0,0-1.61-.19c-.67,0-1.34,0-2,0a3,3,0,0,1-.63-.2c0-.33.06-.61.07-.9,0-1.27-.56-1.87-1.85-1.82a13.94,13.94,0,0,0-2.46.5c-.32.07-.63.19-1,.31,0-.29,0-.49,0-.69a17.15,17.15,0,0,0,.06-1.76,1.77,1.77,0,0,0-1.46-1.81,8.38,8.38,0,0,1-1.81-.49c-.22-.12-.57,0-.86.05s-.77.36-1.27.14c0-.22,0-.46,0-.7a12.69,12.69,0,0,0,0-1.51,1.58,1.58,0,0,0-1.35-1.46,5.62,5.62,0,0,0-2.38,0c-.4.08-.79.32-1.31.11v-.57a12.75,12.75,0,0,0,0-1.51,1.2,1.2,0,0,0-1.26-1.3,5.37,5.37,0,0,0-1.49.13,10.67,10.67,0,0,0-1.27.4,3.06,3.06,0,0,1-.19-.63c0-.33,0-.67.06-1,0-.8-.17-1.09-1-1.12a18.93,18.93,0,0,0-2.07.11c-.09-.2-.2-.41-.28-.64a9.75,9.75,0,0,0-.31-1.09,1.29,1.29,0,0,0-1.62-.85,6.11,6.11,0,0,0-1.06.38c-.63.25-1.25.51-1.88.75a3.41,3.41,0,0,1-.68.1c0-.33.05-.57.05-.81a5.24,5.24,0,0,0-.08-1.12,1.61,1.61,0,0,0-1.84-1.34c-.33,0-.65.1-1,.16-.12-.26-.23-.48-.34-.7a1,1,0,0,0-1.32-.67,10.55,10.55,0,0,0-1.41.55c-.38.15-.7.48-1.24.4-.05-.26-.09-.53-.14-.8-.11-.62-.2-1.24-.34-1.85a1.08,1.08,0,0,0-1-.81,3,3,0,0,0-1.72.28c-.46.2-.9.46-1.35.69l-.73.33c-.08-.28-.13-.47-.19-.66a9.87,9.87,0,0,0-.27-1c-.27-.67-.52-.83-1.26-.79a9.89,9.89,0,0,0-1.11.15,1.9,1.9,0,0,0-2.42-.33c-.35.14-.68.35-1,.51s-.52.22-.75.32c-.4-.31-.39-.71-.5-1.06-.45-1.43-1-1.68-2.34-.94-.54.31-1,.72-1.55,1.08-.19.14-.4.27-.68.45-.16-.47-.28-.86-.43-1.24-.48-1.2-.85-1.42-2.11-1.14a5.48,5.48,0,0,0-1.41.54c-.66.36-1.28.8-1.92,1.21l-.69.4c-.2-.45-.35-.83-.55-1.19-.41-.75-.72-.76-1.32-.61a3.56,3.56,0,0,0-1.65.87,16.25,16.25,0,0,1-2,1.65c-.1-.24-.19-.42-.25-.6s-.1-.41-.17-.61c-.55-1.52-1.11-1.63-2.5-1a9,9,0,0,0-1.61,1.27,1.73,1.73,0,0,1-.31-.3c-.45-.72-1-.55-1.51-.21s-.88.62-1.28.91c-.52-.25-.57-.71-.79-1.06-.66-1.05-.87-1.15-2.2-.79a3.58,3.58,0,0,0-1.27.8c-.6.51-1.15,1.1-1.73,1.65-.14.14-.3.27-.47.41-.4-.24-.46-.64-.63-1C89.55,8.27,89.06,8,87.6,9a9,9,0,0,0-1.12,1.18l-.49.53a8.6,8.6,0,0,1-.6-.63,2.42,2.42,0,0,0-1.31-1,3.37,3.37,0,0,0-1.5,1.23c-.66.87-1.32,1.74-2,2.6-.2.26-.43.49-.7.79-.69-.62-1.07-1.51-2.08-1.75a2.78,2.78,0,0,0-1.66,1.53c-.39.84-.76,1.69-1.13,2.53l-.34.79c-.48.09-.61-.29-.84-.51-1-1-1.36-1-2.39.05a6.87,6.87,0,0,0-1.26,1.72c-.34.68-.72,1.33-1.08,2a.9.9,0,0,1-.16.14l-1.87-.49A3.92,3.92,0,0,0,66,21.29c-.41,1.15-.8,2.3-1.2,3.45-.14.4-.25.8-.41,1.28-.45-.15-.83-.28-1.22-.39a.74.74,0,0,0-1,.38,2.53,2.53,0,0,0-.26,1.46c0,1.3,0,2.61,0,3.91a6.93,6.93,0,0,1-.25,1.49,3.21,3.21,0,0,1-.43.81,9,9,0,0,1-.82-.4c-.46-.29-.9-.62-1.35-.92a1.14,1.14,0,0,0-1.31,0,2.84,2.84,0,0,0-1.08,1.2c-.19.38-.35.77-.51,1.15a1,1,0,0,1-.35.15.83.83,0,0,0-.78.71c-.11.44-.21.88-.29,1.25a1.38,1.38,0,0,1-1.19,0,1.14,1.14,0,0,0-1.35.66,3,3,0,0,0-.37,2,1.74,1.74,0,0,1-.12,1.32c-.23.38,0,.82.1,1.22.2.65.39,1.29.58,1.93a4,4,0,0,1,.1.5c.07.41,0,.78-.46.9a.89.89,0,0,0-.66,1.17,9.76,9.76,0,0,0,.44,1.58A2.32,2.32,0,0,1,52,50.05a1.62,1.62,0,0,0,.12,1c.31,1,.7,2,1,3a11.08,11.08,0,0,1,.46,2.47A15.94,15.94,0,0,0,54,59.85a14.33,14.33,0,0,1,.32,1.61,1.13,1.13,0,0,1-.78,1.4,3.91,3.91,0,0,1-1.35.27,23.39,23.39,0,0,1-3,0q-3.7-.35-7.4-.81c-3.54-.46-7.09-1-10.62-1.48-2.74-.41-5.48-.88-8.21-1.37-3.48-.63-6.94-1.32-10.41-2a22.87,22.87,0,0,0-5-.44,7.09,7.09,0,0,0-1.13.11,1.43,1.43,0,0,0-1.25,1.38,5.81,5.81,0,0,0,0,1.25c0,.46.36.63.83.51a3.53,3.53,0,0,0,.7-.28,4.28,4.28,0,0,1,2.67-.47c2.93.31,5.81.93,8.71,1.39,3.28.52,6.57,1,9.86,1.47.25,0,.5,0,.75.09,1.78.28,3.56.58,5.35.84,2,.29,3.92.53,5.88.8,2.29.31,4.57.65,6.87.94,1.25.16,2.51.23,3.76.38a7.46,7.46,0,0,1,2.92.71,1.5,1.5,0,0,1,.83,1.3,9.19,9.19,0,0,1-.32,3c-.37,1.55-.73,3.11-1.2,4.64a11.24,11.24,0,0,1-3.23,5,3.78,3.78,0,0,0-1,1.25c-.3.69-.24.88.43,1.31l.2.15.16.2c0,.49-.07,1.07-.13,1.65a2.66,2.66,0,0,0,.41,1.8.68.68,0,0,0,.64.33c.37,0,.74-.09,1.06-.13A3.54,3.54,0,0,1,52,88a4.76,4.76,0,0,0,1.38,1.77,1,1,0,0,0,1.28.1,8.47,8.47,0,0,0,.92-.65c.2-.14.38-.31.61-.49L57.39,90a3.69,3.69,0,0,0,1.35.92A1.08,1.08,0,0,0,60,90.68a15.54,15.54,0,0,0,1-1.25c.23-.31.37-.68.75-.83a1.48,1.48,0,0,0,.82-1.06c.12-.4.21-.81.3-1.22.22-.94.43-1.88.65-2.82a3.38,3.38,0,0,1,.16-.48,1.24,1.24,0,0,1,2-.64,3.19,3.19,0,0,1,.83.92,7.9,7.9,0,0,1,1.1,3.84c.07,1.35,0,2.69,0,4A5.16,5.16,0,0,1,67,93.47c-.67,1.26-1.33,2.53-2,3.78a5.7,5.7,0,0,0-.71,2.14c-.08.68.1.93.74,1.08.09,0,.17,0,.25,0,.76.18.87.29,1,1.09.07.58.1,1.17.18,1.75s.15,1.09.27,1.62a4.07,4.07,0,0,0,1.08,2l1.21-.19a.74.74,0,0,1,.82.45c.16.34.27.7.41,1a2.5,2.5,0,0,0,1.2,1.38l1.13-.51c.65.22.71.78.87,1.23a2.94,2.94,0,0,0,1.47,1.65,1,1,0,0,0,1.18,0,9.34,9.34,0,0,0,.78-.63l.63-.48a3.38,3.38,0,0,1,.53.56c.39.61.72,1.24,1.11,1.84a3.1,3.1,0,0,0,1.47,1.41l1.06-.39c.26.3.48.6.74.86a15.27,15.27,0,0,0,1.38,1.29.67.67,0,0,0,1,0c.37-.33.69-.73,1-1.1.16-.17.31-.36.53-.61.82,1,1.38,2.15,2.62,2.49.63-.16.81-.76,1.23-1.08.32-.07.44.21.61.37A4.82,4.82,0,0,0,93,117.82c.8-.36,1-1.21,1.48-1.79.29.08.56.18.84.24a6.77,6.77,0,0,0,1,.15.93.93,0,0,0,.93-.52c.2-.37.4-.72.61-1.09a4.67,4.67,0,0,1,1.48.81,6.47,6.47,0,0,0,1.58.74c1.37.28,2,.12,2.44-1.58a11,11,0,0,0,.15-1.71,2.9,2.9,0,0,1,.61.14c1,.42,1.92.86,2.88,1.29a4.14,4.14,0,0,0,1.84.35,1.31,1.31,0,0,0,1.15-.66c.2-.36.36-.75.53-1.14s.22-.53.31-.74c.53-.23.89.09,1.27.2a1.08,1.08,0,0,0,1.27-.26,1.07,1.07,0,0,1,.91-.33,8.79,8.79,0,0,0,1.26-.07,1.94,1.94,0,0,0,1.77-2c0-.21,0-.43,0-.63s0-.41.08-.65c.3,0,.54,0,.78,0a8.47,8.47,0,0,0,3.25-.27c1.39-.37,2.05-.89,1.77-2.8a10.62,10.62,0,0,0-.71-2.15c-.1-.27-.28-.51-.41-.78-.43-.93-.33-1.27.5-1.93a4.33,4.33,0,0,0,.75-.67,1.8,1.8,0,0,0,.3-2,7.86,7.86,0,0,0-.64-1.08c-.14-.21-.33-.38-.49-.58-.78-1-.8-1.23-.17-2.36.06-.11.09-.24.15-.38A4.22,4.22,0,0,0,121,91.46c-.3-.24-.61-.46-.91-.69a1.61,1.61,0,0,1-.73-1.14c0-1-.77-1.44-1.45-1.92a2.52,2.52,0,0,0-.8-.36,18.15,18.15,0,0,1-3.92-2,8,8,0,0,1-1.15-.78,5.55,5.55,0,0,1-1-1.06c-.57-.83-1.09-1.7-1.58-2.58a5,5,0,0,1-.7-2.78,3.7,3.7,0,0,1,.16-.87.94.94,0,0,1,.71-.64,1.67,1.67,0,0,1,.38-.06,8.42,8.42,0,0,1,5.72,1.54c.69.55,1.39,1.09,2.09,1.62A4.35,4.35,0,0,1,119,81.27a26.41,26.41,0,0,0,4,5.19c.6.7,1.2,1.41,1.76,2.14a7.67,7.67,0,0,0,1.75,1.8,3.9,3.9,0,0,0,.42.2c.7-.08.87-.81,1.47-1.11a6.7,6.7,0,0,1,.59.36c.47.35.91.74,1.39,1.07a9.13,9.13,0,0,0,1.1.62,1.43,1.43,0,0,0,1.55,0,6.46,6.46,0,0,0,.82.65,3.89,3.89,0,0,0,1,.41.81.81,0,0,0,.88-.35c.24-.34.5-.66.79-1a3.72,3.72,0,0,1,.68.39c.25.23.43.52.68.75a4.92,4.92,0,0,0,.88.7.79.79,0,0,0,1.19-.29c.25-.38.47-.78.74-1.22a8.65,8.65,0,0,1,.87.2c.28.1.53.27.81.36,1.25.4,1.48.23,1.94-.69.09-.19.21-.36.33-.56a14,14,0,0,1,2.21.59,2.49,2.49,0,0,0,1.48.08,1.29,1.29,0,0,0,1-.91c.12-.44.26-.87.41-1.37.33,0,.62,0,.9,0,.74.1,1.49.28,2.24.33,1.79.13,2.47-.45,2.65-2.23,0-.42,0-.85.06-1.26s.27-.75.83-.73.92.1,1.38.13c.71,0,1.42.09,2.13.1a3.26,3.26,0,0,0,.87-.16A1.54,1.54,0,0,0,162,84.12c.06-.42.12-.84.2-1.25a.63.63,0,0,1,.62-.53c.37,0,.75,0,1.13,0a10.12,10.12,0,0,0,1.74-.24,1.47,1.47,0,0,0,1.21-1.44c0-1.66.5-1.58,1.76-1.58s1.73-.53,1.87-1.76c0-.13,0-.26,0-.38,0-.59.17-.9.91-.94a3,3,0,0,0,1-.21,1.36,1.36,0,0,0,1.09-1.37c0-.08,0-.16,0-.25a1.24,1.24,0,0,1,.94-1.2,5,5,0,0,0,1.05-.43,2.37,2.37,0,0,0,1.3-1.89c.13-1.28.33-1.42,1.59-1.37a8.72,8.72,0,0,0,1.25,0,2,2,0,0,0,1.92-1.83c0-.21.07-.42.11-.62a1.2,1.2,0,0,1,.11-.19l.76-.21a9.88,9.88,0,0,0,1.22-.3A1.79,1.79,0,0,0,185,64.38a3.15,3.15,0,0,0-.1-.75,1.18,1.18,0,0,1,.74-1.52c.67-.35,1.29-.79,2-1.14a2.7,2.7,0,0,0,1.55-1.87,1.08,1.08,0,0,1,.93-.9,11.07,11.07,0,0,0,1.11-.25,2.35,2.35,0,0,0,2-1.89c.1-.6.51-.87,1.09-1.07a59.82,59.82,0,0,1,10.56-2.41c.91-.15,1.81-.37,2.71-.6A6.13,6.13,0,0,0,210,50.54c.05,0,0-.14.09-.31A7,7,0,0,0,207.89,49.7ZM69.63,59.6a6.34,6.34,0,0,1-2.95-1.09,8.3,8.3,0,0,0-1.93-.9c-1.26-.33-2.56.32-3.72.9l-.42.21-.22-.44.42-.21c1.23-.62,2.63-1.33,4.07-1a9.49,9.49,0,0,1,2.05,1c1.52.86,3,1.67,4.39.24l.36.36A2.85,2.85,0,0,1,69.63,59.6Zm23.93,36,0,0s0,0,0,0h0c-.07,0,.06,0,0,0h-.06s0,0-.07,0h-.06s0,0,0,.06h0s0,0,0,0h0a.05.05,0,0,1,0,0h0l0,0h0v0s0,0,0,.06h0s0,0-.06,0h0s0,0,0,0h0s0,0,0,0h-.05s0,0-.06,0h0v0l0,0h-.06s0,0,0,0v0a.05.05,0,0,1,0,0h-.08v0s0,0,0,0h-.07s0,0,0,0h0v0s0,0,0,0h-.06s0,0,0,0,0,0,0,0h0v0s0,0,0,0l0,0h0v0s0,0,0,0h0l0,0s0,0,0,0h-.07v0s0,0,0,0h0l0,0v0a0,0,0,0,1,0,0h-.09s0,0,0,0l0,0,0,0v0l0,0h-.06l0,0,0,0a.08.08,0,0,1,0,0h0v0s0,0,0,0,0,0,0,0l0,0v0h0a0,0,0,0,1,0,0s0,0,0,0h0l0,0a.08.08,0,0,1,0,0,.08.08,0,0,0,0,0s0,0,0,0h0s0,0-.06-.07h0s0,0,0,0,0,0,0,0a.17.17,0,0,0,0,0h0s0,0,0,0l0,0,0-.07s0,0,0,0,0,0,0,0a0,0,0,0,1,0,0,.09.09,0,0,0,0,0s0,0,0,0h0a.06.06,0,0,1,0-.07,0,0,0,0,0,0,0s0,0,0,0,0,0,0,0a.33.33,0,0,0,0-.24s0-1.1,0-1.15l0,0c0-.1,0-.2,0-.3a0,0,0,0,0,0,0s0,0,0,0,0,0,0,0h0s0,0,0,0a.05.05,0,0,0,0,0,.16.16,0,0,0,0-.1,2.08,2.08,0,0,1,0-.25v0h0a0,0,0,0,1,0,0,.06.06,0,0,1,0,0s0,0,0,0h0a.11.11,0,0,0,0,0s0,0,0,0h.07l0,0s0,0,0,0h0s0,0,0,0h0s0,0,0,0a.05.05,0,0,1,0,0h0l0,0,0,0,0,0h0l0,0v0l0,0h.06s0,0,0,0l.05,0h0l0,0,0,0h0a0,0,0,0,1,0,0s0,0,.06,0,0,0,0,0,0,0,.07,0h0s0,0,.06,0v0l0,0s0,0,0,0v0l0,0h0s0,0,0,0v0H92s.06,0,.07,0,0,0,0,0h0s0,0,0,0h0s0,0,.06,0v0h0a0,0,0,0,1,0,0,0,0,0,0,1,0,0h0a.07.07,0,0,1,.07,0v0h.07a0,0,0,0,1,0,0v0h0s0,0,0,0h0s0,0,0,0,0,0,0,0a0,0,0,0,0,0,0h0s0,0,.06,0h0s0,0,0,0v0h.06a0,0,0,0,1,0,0v.06H93s0,0,0,0,0,0,0,0h0a.05.05,0,0,1,0,.07,0,0,0,0,0,0,0l.06,0h0s0,0,0,.06h0a.07.07,0,0,0,.06,0l0,0s0,0,0,0a0,0,0,0,0,0,0h0a.15.15,0,0,1,.06,0,0,0,0,0,1,0,0,0,0,0,0,1,0,0l0,0s0,1,.05,1l.08,0S93.51,95.53,93.56,95.56Zm49.63-61.67a35.36,35.36,0,0,0-4.56-3c-.91-.54-1.85-1.1-2.75-1.7l-.48-.32c-2.19-1.46-4.46-3-7.12-3.39s-5.21.58-7.76,1.53a34.06,34.06,0,0,1-3.94,1.28c-6.44,1.45-11.77,1.25-15.86-.59a34.9,34.9,0,0,1-3.53-1.94c-2.39-1.45-4.65-2.81-7.69-2.84a15.1,15.1,0,0,0-10.91,4.5l-.27-.25a15.53,15.53,0,0,1,11-4.62h.15c3.15,0,5.45,1.42,7.88,2.89a34.32,34.32,0,0,0,3.49,1.92c4,1.81,9.27,2,15.62.57a32,32,0,0,0,3.9-1.26c2.6-1,5.29-2,8-1.55s5,2,7.26,3.45l.48.32c.9.59,1.83,1.15,2.74,1.68a36.73,36.73,0,0,1,4.6,3.06Zm29.53,19.3,0,.06c-.07.12,0-.09,0,0l0,.12s0,0,0,.11a.14.14,0,0,0,0,.06,0,0,0,0,0,0,0h0s0,0,0,.07,0,0,0,0v0s0,0,0,0h0s0,0,0,0l0,.08a.31.31,0,0,0,0,.08s0,0,0,0h0s0,0,0,.07v0l0,0s0,0,0,.1h0v0h0s0,0,0,.06a.43.43,0,0,0,0,0l0,0a.29.29,0,0,1,0,.09l0,0v0s0,0,0,0a.2.2,0,0,1,0,.08.14.14,0,0,1,0,.06h0s0,0,0,0a.26.26,0,0,1,0,.08l0,0v0s0,0,0,.07,0,0,0,0l0,.05h0s0,0,0,.07l0,0,0,0h0s0,0,0,.07a.43.43,0,0,1,0,.07l0,0h0s0,0,0,.07a.08.08,0,0,1,0,0l0,0h0a.08.08,0,0,1,0,.06l0,0,0,0v0s0,0,0,.06l0,.06v0a.19.19,0,0,1,0,.07s0,0,0,0l0,.08v0a.11.11,0,0,1,0,.07l0,.05,0,0,0,0a.08.08,0,0,1,0,0,.2.2,0,0,1,0,.08l0,0v0s0,0,0,.07l0,0,0,0v.05a.06.06,0,0,1,0,0,.08.08,0,0,1,0,0l0,0v.06l-.05.07s0,0,0,0v0l0,.06,0,0,0,0,0,0v0h0a.36.36,0,0,1,0,.09l0,0h0v0a.28.28,0,0,1-.06.08s0,0,0,0a.11.11,0,0,0,0,.05l0,0a.87.87,0,0,1-.08.1v0a.28.28,0,0,1-.05.08l0,0,0,0,0,0v0s0,0,0,.07l0,0,0,0a.07.07,0,0,0,0,.05s0,0,0,.06h0l0,0h0l0,.07s0,0-.05,0,0,0,0,0h0a0,0,0,0,1,0,0c0-.06-.07-.07-.13,0l-.12.08,0,0c-.07,0-1.14,0-1.2,0h0v0s0,0,0-.09v0l0,0a0,0,0,0,0,0,0s0,0,0,0a.06.06,0,0,0,0,0,.39.39,0,0,1-.15,0h0v0h0s0,0,0,0a.12.12,0,0,1,0-.07v0s0,0,0,0v0a.1.1,0,0,1,0,0l0-.06h0v0s0,0,0,0v0s0,0,0-.06l0-.06s0,0,0,0v0l0,0,0-.05v0s0,0,0,0a.13.13,0,0,1,0-.05l0,0v0s0-.05,0-.07a.43.43,0,0,0,0-.05l0,0s0,0,0,0a.41.41,0,0,1,0-.08s0,0,0,0a.25.25,0,0,1,0-.07l0,0v0a0,0,0,0,1,0,0,.17.17,0,0,1,.06-.11l0,0a.43.43,0,0,1,0-.11v0a.2.2,0,0,1,.06-.11l0,0,0-.06a.11.11,0,0,1,0-.06l0,0a.08.08,0,0,1,0,0s0,0,0-.05,0-.07,0-.08l0,0v0l0-.05v0a.22.22,0,0,1,.08-.13l0,0v0a.19.19,0,0,1,0-.09h0a.25.25,0,0,0,0-.07c0-.06.05-.1.07-.1h0l0,0s0,0,0,0,0,0,0,0,0,0,0,0l0,0s0,0,0,0,0-.1.08-.11h0l0,0s0,0,0,0,0-.05,0-.05h0v0a.21.21,0,0,1,0-.07l0,0,0-.05,0,0h0l0,0a.12.12,0,0,1,.05-.09h0l0-.07s0-.06.06-.07h0l0-.05a.08.08,0,0,1,0,0,.1.1,0,0,1,0-.08h0l0,0,0-.09a.56.56,0,0,1,0-.08s0,0,0,0h0a.2.2,0,0,1,0-.08c0-.07.05-.08.07-.07s0,0,0,0l0-.1a.25.25,0,0,1,0-.07s0-.05.05,0h0a.31.31,0,0,0,.05-.1l0-.05s0,0,0,0h0s1,0,1-.06a.44.44,0,0,1,.08-.1s0,0,0,0v0s0,0,0,0l.06-.09.08-.13c0-.08-.07.18,0,.11l0,0,0,0Z" transform="translate(-5.1 -7)"/><text class="cls-2" transform="translate(75.49 56.99)">Home</text><path class="cls-3" d="M93.62,95.51l-.08,0s0-1-.05-1l0,0a0,0,0,0,0,0,0,0,0,0,0,0,0,0,.15.15,0,0,0-.06,0h0a0,0,0,0,1,0,0s0,0,0,0l0,0a.07.07,0,0,1-.06,0h0s0,0,0-.06h0l-.06,0a0,0,0,0,1,0,0,.05.05,0,0,0,0-.07h0s0,0,0,0,0,0,0,0h-.07v-.06a0,0,0,0,0,0,0h-.06v0s0,0,0,0h0s0,0-.06,0h0a0,0,0,0,1,0,0s0,0,0,0,0,0,0,0h0s0,0,0,0h0v0a0,0,0,0,0,0,0h-.07v0a.07.07,0,0,0-.07,0h0a0,0,0,0,0,0,0,0,0,0,0,0,0,0h0v0s0-.05-.06,0h0s0,0,0,0h0s0,0,0,0,0-.06-.07,0h-.1v0s0,0,0,0h0l0,0v0s0,0,0,0l0,0v0s0,0-.06,0h0s0,0-.07,0,0,0,0,0,0,0-.06,0a0,0,0,0,0,0,0h0l0,0,0,0h0l-.05,0s0,0,0,0h-.06l0,0v0l0,0h0l0,0,0,0,0,0h0a.05.05,0,0,0,0,0s0,0,0,0h0s0,0,0,0h0s0,0,0,0l0,0H90.7s0,0,0,0a.11.11,0,0,1,0,0h0s0,0,0,0a.06.06,0,0,0,0,0,0,0,0,0,0,0,0h0v0a2.08,2.08,0,0,0,0,.25.16.16,0,0,1,0,.1.05.05,0,0,1,0,0s0,0,0,0h0s0,0,0,0,0,0,0,0a0,0,0,0,1,0,0c0,.1,0,.2,0,.3l0,0s0,1.1,0,1.15a.33.33,0,0,1,0,.24s0,0,0,0,0,0,0,0a0,0,0,0,1,0,0,.06.06,0,0,0,0,.07h0s0,0,0,0a.09.09,0,0,1,0,0,0,0,0,0,0,0,0s0,0,0,0,0,0,0,0l0,.07,0,0s0,0,0,0h0a.17.17,0,0,1,0,0s0,0,0,0,0,0,0,0h0s0,.06.06.07h0s0,0,0,0a.08.08,0,0,1,0,0,.08.08,0,0,0,0,0l0,0h0s0,0,0,0a0,0,0,0,0,0,0h0v0l0,0s0,0,0,0,0,0,0,0v0h0a.08.08,0,0,0,0,0l0,0,0,0h.06l0,0v0l0,0,0,0s0,0,0,0h.09a0,0,0,0,0,0,0v0l0,0h0s0,0,0,0v0h.07s0,0,0,0l0,0h0s0,0,0,0v0h0l0,0s0,0,0,0v0h0s0,0,0,0,0,0,0,0h.06s0,0,0,0v0h0s0,0,0,0h.07s0,0,0,0v0h.08a.05.05,0,0,0,0,0v0s0,0,0,0h.06l0,0v0h0s0,0,.06,0h.05s0,0,0,0h0s0,0,0,0h0s0,0,.06,0h0s.05,0,0-.06v0h0l0,0h0a.05.05,0,0,0,0,0h0s0,0,0,0h0s0,0,0-.06h.06s0,0,.07,0h.06c.08,0,0,0,0,0h0s0,0,0,0l0,0S93.67,95.53,93.62,95.51Z" transform="translate(-5.1 -7)"/><path class="cls-3" d="M136.08,28.86l-.48-.32c-2.22-1.49-4.52-3-7.26-3.45s-5.35.58-8,1.55a32,32,0,0,1-3.9,1.26c-6.35,1.43-11.61,1.24-15.62-.57a34.32,34.32,0,0,1-3.49-1.92c-2.43-1.47-4.73-2.86-7.88-2.89h-.15a15.53,15.53,0,0,0-11,4.62l.27.25a15.1,15.1,0,0,1,10.91-4.5c3,0,5.3,1.39,7.69,2.84a34.9,34.9,0,0,0,3.53,1.94c4.09,1.84,9.42,2,15.86.59A34.06,34.06,0,0,0,120.52,27c2.55-.95,5.19-1.93,7.76-1.53s4.93,1.93,7.12,3.39l.48.32c.9.6,1.84,1.16,2.75,1.7a35.36,35.36,0,0,1,4.56,3l.23-.29a36.73,36.73,0,0,0-4.6-3.06C137.91,30,137,29.45,136.08,28.86Z" transform="translate(-5.1 -7)"/><path class="cls-3" d="M172.65,53.25c-.05.07.06-.19,0-.11l-.08.13-.06.09s0,0,0,0v0s0,0,0,0a.44.44,0,0,0-.08.1s-1,0-1,.06h0s0,0,0,0l0,.05a.31.31,0,0,1-.05.1h0s0,0-.05,0a.25.25,0,0,0,0,.07l0,.1s0,0,0,0,0,0-.07.07a.2.2,0,0,0,0,.08h0s0,0,0,0a.56.56,0,0,0,0,.08l0,.09,0,0h0a.1.1,0,0,0,0,.08.08.08,0,0,0,0,0l0,.05h0s0,0-.06.07l0,.07h0a.12.12,0,0,0-.05.09l0,0h0l0,0,0,.05,0,0a.21.21,0,0,0,0,.07v0h0s0,0,0,.05,0,0,0,0l0,0h0s-.06.06-.08.11,0,0,0,0l0,0s0,0,0,0,0,0,0,0,0,0,0,0l0,0h0s0,0-.07.1a.25.25,0,0,1,0,.07h0a.19.19,0,0,0,0,.09v0l0,0a.22.22,0,0,0-.08.13v0l0,.05v0l0,0s0,0,0,.08,0,0,0,.05a.08.08,0,0,0,0,0l0,0a.11.11,0,0,0,0,.06l0,.06,0,0a.2.2,0,0,0-.06.11v0a.43.43,0,0,0,0,.11l0,0a.17.17,0,0,0-.06.11,0,0,0,0,0,0,0v0l0,0a.25.25,0,0,0,0,.07s0,0,0,0a.41.41,0,0,0,0,.08s0,0,0,0l0,0a.43.43,0,0,1,0,.05s0,0,0,.07v0l0,0a.13.13,0,0,0,0,.05s0,0,0,0v0l0,.05,0,0v0s0,0,0,0l0,.06s0,0,0,.06v0s0,0,0,0v0h0l0,.06a.1.1,0,0,0,0,0v0s0,0,0,0v0a.12.12,0,0,0,0,.07s0,0,0,0h0v0h0a.39.39,0,0,0,.15,0,.06.06,0,0,1,0,0s0,0,0,0a0,0,0,0,1,0,0l0,0v0s0,.07,0,.09v0h0c.06,0,1.13,0,1.2,0l0,0,.12-.08c.06,0,.11,0,.13,0a0,0,0,0,0,0,0h0s0,0,0,0,0,0,.05,0l0-.07h0l0,0h0s0,0,0-.06a.07.07,0,0,1,0-.05l0,0,0,0s0,0,0-.07v0l0,0,0,0,0,0a.28.28,0,0,0,.05-.08v0a.87.87,0,0,0,.08-.1l0,0a.11.11,0,0,1,0-.05s0,0,0,0a.28.28,0,0,0,.06-.08v0h0l0,0a.36.36,0,0,0,0-.09h0v0l0,0,0,0,0,0,0-.06v0s0,0,0,0l.05-.07v-.06l0,0a.08.08,0,0,0,0,0,.06.06,0,0,0,0,0v-.05l0,0,0,0s0,0,0-.07v0l0,0a.2.2,0,0,0,0-.08.08.08,0,0,0,0,0l0,0,0,0,0-.05a.11.11,0,0,0,0-.07v0l0-.08s0,0,0,0a.19.19,0,0,0,0-.07v0l0-.06s0,0,0-.06v0l0,0,0,0a.08.08,0,0,0,0-.06h0l0,0a.08.08,0,0,0,0,0c0-.05,0-.06,0-.07h0l0,0a.43.43,0,0,0,0-.07s0-.06,0-.07h0l0,0,0,0s0,0,0-.07h0l0-.05s0,0,0,0,0-.06,0-.07v0l0,0a.26.26,0,0,0,0-.08s0,0,0,0h0a.14.14,0,0,0,0-.06.2.2,0,0,0,0-.08s0,0,0,0v0l0,0a.29.29,0,0,0,0-.09l0,0a.43.43,0,0,1,0,0s0-.06,0-.06h0v0h0c0-.07,0-.07,0-.1l0,0v0c0-.06,0-.08,0-.07h0s0,0,0,0a.31.31,0,0,1,0-.08l0-.08s0,0,0,0h0s0,0,0,0v0s0,0,0,0,0-.07,0-.07h0a0,0,0,0,1,0,0,.14.14,0,0,1,0-.06c0-.07,0-.08,0-.11l0-.12c.06-.12,0,.09,0,0l0-.06v0l0,0Z" transform="translate(-5.1 -7)"/></svg>