<svg id="Layer_1" data-name="Layer 1" xmlns="http://www.w3.org/2000/svg" viewBox="0 0 204.95 110.82"><defs><style>.cls-1{fill:#2a2a2a;}.cls-2{font-size:28.18px;fill:#f99c16;font-family:ArialRoundedMTBold, Arial Rounded MT Bold;}</style></defs><path class="cls-1" d="M210.06,74.59c-.05-.17,0-.27-.09-.32a6,6,0,0,0-2.49-1.43c-.9-.23-1.8-.45-2.71-.6a60.72,60.72,0,0,1-10.56-2.41c-.58-.21-1-.47-1.09-1.07a2.37,2.37,0,0,0-2-1.9c-.37-.1-.74-.17-1.11-.25a1.07,1.07,0,0,1-.93-.89,2.7,2.7,0,0,0-1.55-1.87c-.68-.35-1.3-.79-2-1.14a1.19,1.19,0,0,1-.74-1.53,3.07,3.07,0,0,0,.1-.74,1.8,1.8,0,0,0-1.17-1.78,12.07,12.07,0,0,0-1.22-.3l-.76-.2a1.2,1.2,0,0,1-.11-.19c0-.21-.08-.41-.11-.62a2,2,0,0,0-1.92-1.84,8.73,8.73,0,0,0-1.25,0c-1.26,0-1.46-.1-1.59-1.38a2.36,2.36,0,0,0-1.3-1.88,5,5,0,0,0-1.05-.43,1.24,1.24,0,0,1-.94-1.2c0-.09,0-.17,0-.26A1.37,1.37,0,0,0,172.43,49a3.65,3.65,0,0,0-1-.21c-.74,0-.9-.35-.91-.93,0-.13,0-.25,0-.38-.14-1.23-.65-1.76-1.87-1.76s-1.71.07-1.76-1.59a1.48,1.48,0,0,0-1.21-1.44,11.2,11.2,0,0,0-1.74-.23c-.38,0-.76,0-1.13,0a.63.63,0,0,1-.62-.53c-.08-.42-.14-.83-.2-1.25a1.54,1.54,0,0,0-1.18-1.33,3.26,3.26,0,0,0-.87-.16c-.71,0-1.42,0-2.13.1-.46,0-.92.12-1.38.13s-.78-.19-.83-.73,0-.84-.06-1.26c-.18-1.78-.86-2.37-2.65-2.24-.75.06-1.5.23-2.24.34-.28,0-.57,0-.9.05-.15-.5-.29-.93-.41-1.37a1.29,1.29,0,0,0-1-.91,2.49,2.49,0,0,0-1.48.08,14,14,0,0,1-2.21.58,5.33,5.33,0,0,1-.33-.55c-.46-.92-.69-1.1-1.94-.69-.28.09-.53.26-.81.35s-.55.13-.87.21c-.27-.44-.49-.84-.74-1.22a.79.79,0,0,0-1.19-.29,4.51,4.51,0,0,0-.88.7c-.25.23-.43.52-.68.75a3.75,3.75,0,0,1-.68.38c-.29-.38-.55-.7-.79-1a.8.8,0,0,0-.88-.35,3.86,3.86,0,0,0-1,.4,6.59,6.59,0,0,0-.82.66,1.39,1.39,0,0,0-1.55,0,9.06,9.06,0,0,0-1.1.61c-.48.34-.92.73-1.39,1.08-.2.14-.41.25-.59.36-.6-.31-.77-1-1.47-1.11a3.9,3.9,0,0,0-.42.2,7.48,7.48,0,0,0-1.75,1.8c-.56.73-1.16,1.44-1.76,2.14a26.41,26.41,0,0,0-4,5.19,4.35,4.35,0,0,1-1.29,1.54c-.7.53-1.4,1.07-2.09,1.62a8.47,8.47,0,0,1-5.72,1.54,1.67,1.67,0,0,1-.38-.06.94.94,0,0,1-.71-.65,3.53,3.53,0,0,1-.16-.86,5,5,0,0,1,.7-2.78c.49-.88,1-1.75,1.58-2.58a5.6,5.6,0,0,1,1-1.07,8.87,8.87,0,0,1,1.15-.77,17.71,17.71,0,0,1,3.92-2,2.76,2.76,0,0,0,.8-.36c.68-.49,1.4-.94,1.45-1.93a1.63,1.63,0,0,1,.73-1.14c.3-.23.61-.44.91-.68a4.26,4.26,0,0,0,1.45-2.14,3.77,3.77,0,0,0-.15-.38c-.63-1.13-.61-1.38.17-2.36.16-.2.35-.37.49-.58a7.86,7.86,0,0,0,.64-1.08,1.82,1.82,0,0,0-.3-2,5.35,5.35,0,0,0-.75-.67c-.83-.66-.93-1-.5-1.92a8.46,8.46,0,0,0,.41-.79,10.33,10.33,0,0,0,.71-2.14c.28-1.91-.38-2.43-1.77-2.8a8.67,8.67,0,0,0-3.25-.28,6.58,6.58,0,0,1-.78,0c0-.25-.07-.45-.08-.65s0-.42,0-.63a1.93,1.93,0,0,0-1.77-2,7.55,7.55,0,0,0-1.26-.07,1.07,1.07,0,0,1-.91-.34,1.08,1.08,0,0,0-1.27-.25c-.38.11-.74.43-1.27.2-.09-.22-.19-.49-.31-.75s-.33-.77-.53-1.13a1.31,1.31,0,0,0-1.15-.66,4,4,0,0,0-1.84.35l-2.88,1.29a2.9,2.9,0,0,1-.61.14A11,11,0,0,0,103.3,10c-.41-1.71-1.07-1.86-2.44-1.59a6.9,6.9,0,0,0-1.58.75A4.88,4.88,0,0,1,97.8,10l-.61-1.09a1,1,0,0,0-.93-.53,6.8,6.8,0,0,0-1,.16c-.28.06-.55.15-.84.24C93.9,8.21,93.75,7.36,93,7a4.73,4.73,0,0,0-2.12,1.24c-.17.16-.29.44-.61.37-.42-.32-.6-.93-1.23-1.09-1.24.35-1.8,1.51-2.62,2.5-.22-.26-.37-.44-.53-.61a13.51,13.51,0,0,0-1-1.1.66.66,0,0,0-1,0,16.73,16.73,0,0,0-1.38,1.28c-.26.27-.48.57-.74.87L80.61,10a3.2,3.2,0,0,0-1.47,1.41c-.39.61-.72,1.24-1.11,1.84a3.41,3.41,0,0,1-.53.57l-.63-.48c-.26-.21-.5-.45-.78-.64a1.06,1.06,0,0,0-1.18,0,2.93,2.93,0,0,0-1.47,1.64c-.16.46-.22,1-.87,1.23l-1.13-.5a2.45,2.45,0,0,0-1.2,1.37c-.14.35-.25.72-.41,1.06A.74.74,0,0,1,69,18L67.8,17.8a4.07,4.07,0,0,0-1.08,2c-.12.53-.2,1.07-.27,1.61s-.11,1.18-.18,1.76c-.09.8-.2.91-1,1.09l-.25,0c-.64.16-.82.41-.74,1.09A5.7,5.7,0,0,0,65,27.57c.68,1.25,1.34,2.52,2,3.78a5.16,5.16,0,0,1,.65,2.29c0,1.34.06,2.69,0,4a7.91,7.91,0,0,1-1.1,3.85,3.32,3.32,0,0,1-.83.92,1.24,1.24,0,0,1-2-.64,4.5,4.5,0,0,1-.16-.48c-.22-.94-.43-1.88-.65-2.82-.09-.41-.18-.82-.3-1.23a1.46,1.46,0,0,0-.82-1.05c-.38-.15-.52-.53-.75-.83a15.7,15.7,0,0,0-1-1.26,1.09,1.09,0,0,0-1.28-.21,3.79,3.79,0,0,0-1.35.91c-.37.4-.74.79-1.16,1.22-.23-.19-.41-.35-.61-.49a8.56,8.56,0,0,0-.92-.66,1.06,1.06,0,0,0-1.28.11A4.76,4.76,0,0,0,52,36.78a3.44,3.44,0,0,1-.77,1.37c-.32,0-.69-.09-1.06-.12a.69.69,0,0,0-.64.32,2.68,2.68,0,0,0-.41,1.81c.06.58.09,1.16.13,1.65a1.77,1.77,0,0,1-.16.19,1,1,0,0,1-.2.15c-.67.44-.73.63-.43,1.31a3.81,3.81,0,0,0,1,1.26,11.19,11.19,0,0,1,3.23,5c.47,1.52.83,3.09,1.2,4.64a9.19,9.19,0,0,1,.32,3,1.5,1.5,0,0,1-.83,1.3,7.64,7.64,0,0,1-2.92.71c-1.25.14-2.51.22-3.76.38-2.3.29-4.58.63-6.87.94-2,.27-3.92.51-5.88.8-1.79.26-3.57.56-5.35.84l-.75.09c-3.29.49-6.58.94-9.86,1.46-2.9.46-5.78,1.08-8.71,1.39a4.21,4.21,0,0,1-2.67-.46,3.53,3.53,0,0,0-.7-.28c-.47-.13-.78.05-.83.5a5.91,5.91,0,0,0,0,1.26,1.44,1.44,0,0,0,1.25,1.38,6.09,6.09,0,0,0,1.13.1,22.86,22.86,0,0,0,5-.43c3.47-.67,6.93-1.36,10.41-2Q27,64.64,31.15,64c3.53-.53,7.08-1,10.62-1.48,2.46-.32,4.93-.58,7.4-.82a25.34,25.34,0,0,1,3,0,4.17,4.17,0,0,1,1.35.28,1.13,1.13,0,0,1,.78,1.4A14.78,14.78,0,0,1,54,65a15.75,15.75,0,0,0-.49,3.36,11.08,11.08,0,0,1-.46,2.47c-.28,1-.67,2-1,3a1.65,1.65,0,0,0-.12,1,2.32,2.32,0,0,1-.17,1.93,9.93,9.93,0,0,0-.44,1.57c-.09.53,0,1,.66,1.18.45.12.53.49.46.9a4,4,0,0,1-.1.5c-.19.64-.38,1.28-.58,1.92-.13.41-.33.85-.1,1.22a1.77,1.77,0,0,1,.12,1.33,3,3,0,0,0,.37,2,1.15,1.15,0,0,0,1.35.66,1.32,1.32,0,0,1,1.19,0c.08.36.18.81.29,1.25a.81.81,0,0,0,.78.7,1.33,1.33,0,0,1,.35.16c.16.38.32.77.51,1.15a2.84,2.84,0,0,0,1.08,1.2,1.14,1.14,0,0,0,1.31,0c.45-.29.89-.62,1.35-.91.24-.15.51-.25.82-.41a3.43,3.43,0,0,1,.43.82,6.83,6.83,0,0,1,.25,1.49c0,1.3,0,2.6,0,3.91a2.56,2.56,0,0,0,.26,1.46.76.76,0,0,0,1,.38c.39-.11.77-.25,1.22-.39.16.48.27.88.41,1.27.4,1.16.79,2.31,1.2,3.46a3.92,3.92,0,0,0,1.09,1.56l1.87-.5c.1.09.14.11.16.15.36.66.74,1.32,1.08,2a6.64,6.64,0,0,0,1.26,1.71c1,1,1.36,1,2.39.06.23-.22.36-.6.84-.51.11.25.22.52.34.78.37.85.74,1.7,1.13,2.54a2.73,2.73,0,0,0,1.66,1.52c1-.23,1.39-1.12,2.08-1.74.27.3.5.53.7.79.68.86,1.34,1.73,2,2.6a3.43,3.43,0,0,0,1.5,1.23,2.42,2.42,0,0,0,1.31-1,8.6,8.6,0,0,1,.6-.63l.49.52a9.05,9.05,0,0,0,1.12,1.19c1.46,1.07,2,.77,2.58-.47.17-.32.23-.72.63-1,.17.14.33.27.47.41.58.55,1.13,1.13,1.73,1.65a3.73,3.73,0,0,0,1.27.8c1.33.36,1.54.26,2.2-.79.22-.35.27-.81.79-1.07.4.3.83.62,1.28.92s1.06.51,1.51-.21a1.81,1.81,0,0,1,.31-.31A9.12,9.12,0,0,0,102,117c1.39.64,2,.54,2.5-1,.07-.19.1-.4.17-.6s.15-.36.25-.61a17.25,17.25,0,0,1,2,1.66,3.66,3.66,0,0,0,1.65.87c.6.14.91.14,1.32-.61.2-.36.35-.75.55-1.2.28.17.49.28.69.41.64.41,1.26.84,1.92,1.21a5.48,5.48,0,0,0,1.41.54c1.26.28,1.63.06,2.11-1.14.15-.38.27-.77.43-1.25.28.19.49.32.68.46.52.36,1,.77,1.55,1.08,1.31.74,1.89.49,2.34-.94.11-.35.1-.76.5-1.06.23.1.5.2.75.32s.67.36,1,.51a1.91,1.91,0,0,0,2.42-.33c.36,0,.73.13,1.11.15.74,0,1-.12,1.26-.79a9.87,9.87,0,0,0,.27-1c.06-.19.11-.38.19-.66.29.13.51.22.73.33.45.23.89.48,1.35.69a3.07,3.07,0,0,0,1.72.28,1.08,1.08,0,0,0,1-.81c.14-.61.23-1.23.34-1.85.05-.27.09-.55.14-.81.54-.07.86.25,1.24.41a12,12,0,0,0,1.41.54,1,1,0,0,0,1.32-.66c.11-.22.22-.44.34-.7.37.06.69.13,1,.16a1.61,1.61,0,0,0,1.84-1.34,5.24,5.24,0,0,0,.08-1.12c0-.24,0-.48-.05-.81a3.41,3.41,0,0,1,.68.1c.63.23,1.25.5,1.88.75a7.07,7.07,0,0,0,1.06.38,1.29,1.29,0,0,0,1.62-.86,9.58,9.58,0,0,0,.31-1.08c.08-.23.19-.44.28-.64.74,0,1.41.14,2.07.11.82,0,1-.33,1-1.12,0-.34-.07-.67-.06-1a3.19,3.19,0,0,1,.19-.62,10.5,10.5,0,0,0,1.27.39,5.38,5.38,0,0,0,1.49.14,1.2,1.2,0,0,0,1.26-1.3,12.69,12.69,0,0,0,0-1.51v-.57a1.92,1.92,0,0,1,1.31.11,5.78,5.78,0,0,0,2.38,0,1.59,1.59,0,0,0,1.35-1.47,12.58,12.58,0,0,0,0-1.5c0-.24,0-.48,0-.7.5-.22.86.1,1.27.14s.64.16.86,0a7.37,7.37,0,0,1,1.81-.49A1.78,1.78,0,0,0,165,94.88a17.35,17.35,0,0,0-.06-1.76c0-.19,0-.39,0-.69a10.47,10.47,0,0,0,1,.32,13.07,13.07,0,0,0,2.46.49c1.29.06,1.89-.54,1.85-1.81,0-.29,0-.57-.07-.91a2.43,2.43,0,0,1,.63-.19,19.26,19.26,0,0,1,2,0,3.65,3.65,0,0,0,1.61-.19,1.31,1.31,0,0,0,1-1.32,1.64,1.64,0,0,1,.22-1.23c.42-.23.89-.08,1.34-.12a6.52,6.52,0,0,0,1.61-.23,1.72,1.72,0,0,0,1.29-2.15c-.07-.37-.2-.73-.3-1.1s-.1-.46-.16-.78c1.32-.21,2.56-.41,3.8-.59.93-.13,1.74-.39,1.89-1.5.07-.49.39-.68.88-.74a7.83,7.83,0,0,0,1.58-.35,1,1,0,0,0,.73-1.06,6.51,6.51,0,0,1,.07-.8,7.83,7.83,0,0,0,1.14-.16,6.61,6.61,0,0,0,1.29-.46.79.79,0,0,0,.41-.85c0-.28,0-.56,0-.9.34-.07.62-.16.9-.19.62-.08,1.25-.14,1.88-.2,1.3-.11,2.59-.32,3.89-.32a37,37,0,0,1,5.67.16,4.41,4.41,0,0,0,.89,0l3.52-.17A7,7,0,0,0,210.06,74.59ZM71.68,66.14l-.36.35c-1.43-1.43-2.87-.61-4.39.25a9,9,0,0,1-2.05,1c-1.44.38-2.84-.32-4.07-.94l-.42-.21.22-.45.42.21c1.16.58,2.46,1.24,3.72.91a8.73,8.73,0,0,0,1.93-.9,6.35,6.35,0,0,1,2.95-1.1A2.82,2.82,0,0,1,71.68,66.14ZM93.62,29.31s-.05,0-.08,0,0,1-.05,1l0,0a0,0,0,0,1,0,0s0,0,0,0a.15.15,0,0,1-.06.05h0s0,0,0,0,0,0,0,0h0l-.06,0v0s0,.05,0,.06h-.1s0,0,0,0,0,.05,0,.06h0v0a0,0,0,0,1,0,0l0,0h-.07V31s0,0,0,0h-.06v0s0,0,0,0h0s0,0-.06,0h0v0s0,0,0,.05,0,0,0,0h0s0,0,0,0,0,0,0,0h0v0a0,0,0,0,1,0,0h-.07v.05a.06.06,0,0,1-.07,0h0s0,0,0,0,0,0,0,0h0v0s0,.05-.06,0h0s0,0,0,0h0s0,0,0,0,0,.05-.07,0h-.1v0s0,0,0,0l0,0h0s0,0,0,0l0,0v0a0,0,0,0,1-.06,0h-.09s0,0,0,0a0,0,0,0,1-.06,0s0,0,0,0h0l0,0,0,0h0l-.05,0s0,0,0,0a0,0,0,0,1,0,0l0,0,0,0h0l0,0h0l0,0,0,0,0,0h0s0,0,0,0a.43.43,0,0,1,0-.05l0,0s0,0,0,0h0s0,0,0,0l0,0H90.7s0,0,0,0a.09.09,0,0,0,0-.05h0s0,0,0,0a.08.08,0,0,1,0,0s0,0,0,0h0v0a2.08,2.08,0,0,1,0-.25.21.21,0,0,0,0-.11s0,0,0,0h0l0,0h0s0,0,0,0,0,0,0,0,0,0,0,0a2.43,2.43,0,0,0,0-.3l0,0c0-.05,0-1.1,0-1.15a.33.33,0,0,0,0-.24.17.17,0,0,1,0-.05,0,0,0,0,1,0,0s0,0,0,0a.06.06,0,0,1,0-.07h0v0a.11.11,0,0,0,0-.05,0,0,0,0,1,0,0,0,0,0,0,1,0,0s0,0,0,0l0-.06s0,0,0,0,0,0,0,0h0s0,0,0,0l0,0s0,0,0,0,0,0,0,0h0s0-.06.06-.07h0s0,0,0,0l0,0a.08.08,0,0,1,0-.05l0,0h0a0,0,0,0,0,0,0s0,0,0,0h0s0,0,0,0h0s0,0,0,0v0s0,0,0,0,0,0,0,0l0,0h0s0,0,0,0l0,0v0l0,0,0,0s0,0,0,0h.09a0,0,0,0,1,0,0v0l0,0h0s0,0,0,0v0h.07s0,0,0,0l0,0h0s0,0,0,0v0h0l0,0s0,0,0,0v0h0s0,0,0,0,0,0,0,0h.06s0,0,0,0v.05h0s0,0,0,0h.07s0,0,0,0v0h.08s0,0,0,0v0h.09s0,0,0,0v0h0s0,0,.06,0h.05s0,0,0,0h0s0,0,0,0h0s0,0,.06,0h0s.05,0,0,.06h0a0,0,0,0,0,0,0h0l0,0s0,0,0,0h0s0,0,0,0h0s0,0,0,.06v0h.06s0,0,.07,0h.06c.08,0,0,0,0,0h0a.14.14,0,0,1,0,.06l0,0S93.67,29.29,93.62,29.31Zm49.8,61.9a35.66,35.66,0,0,1-4.6,3.06c-.91.54-1.84,1.1-2.74,1.69l-.48.32c-2.22,1.49-4.52,3-7.26,3.45s-5.35-.58-8-1.55a32,32,0,0,0-3.9-1.26c-6.35-1.44-11.61-1.25-15.62.56a36.38,36.38,0,0,0-3.49,1.92c-2.43,1.47-4.73,2.86-7.88,2.9h-.15a15.53,15.53,0,0,1-11-4.62l.27-.26a15.07,15.07,0,0,0,10.91,4.51c3,0,5.3-1.4,7.69-2.84a34.9,34.9,0,0,1,3.53-1.94c4.09-1.84,9.42-2,15.86-.59a30.6,30.6,0,0,1,3.94,1.28c2.55.94,5.19,1.92,7.76,1.53s4.93-1.93,7.12-3.4l.48-.32c.9-.6,1.84-1.15,2.75-1.69a36.43,36.43,0,0,0,4.56-3Zm29.3-19.56,0,0,0-.05c-.05-.08.06.19,0,.11l-.08-.13-.06-.09s0,0,0,0v0s0,0,0,0a.52.52,0,0,1-.08-.11s-1,0-1-.06h0s0,0,0,0l0-.06a.47.47,0,0,0-.05-.1h0s0,0-.05,0l0-.07,0-.1s0,0,0,0,0,0-.07-.07a.2.2,0,0,1,0-.08h0s0,0,0,0a.56.56,0,0,1,0-.08l0-.09,0,0h0s0,0,0,0,0,0,0-.07a.08.08,0,0,1,0,0l0,0h0s0,0-.06-.07l0-.07h0a.12.12,0,0,1-.05-.1l0,0h0a.07.07,0,0,1,0,0l0,0s0,0,0,0a.43.43,0,0,1,0-.07v0h0s0,0,0,0,0,0,0-.06l0,0h0s-.06-.06-.08-.11a.43.43,0,0,0,0,0l0,0v0s0,0,0,0,0,0,0,0l0,0h0s0,0-.07-.1a.19.19,0,0,0,0-.07h0a.26.26,0,0,1,0-.09v0s0,0,0,0-.06-.05-.08-.12v-.06l0,0v0l0,0a.28.28,0,0,1,0-.08.43.43,0,0,0,0,0,.09.09,0,0,1,0,0l0,0a.11.11,0,0,1,0-.06l0-.07,0,0a.14.14,0,0,1-.06-.1v0l0-.11,0,0a.17.17,0,0,1-.06-.11s0,0,0,0v0l0,0a.24.24,0,0,1,0-.08,0,0,0,0,1,0,0,.41.41,0,0,1,0-.08s0,0,0,0l0-.05a.43.43,0,0,0,0,0,.15.15,0,0,0,0-.07v0l0,0s0,0,0,0,0,0,0,0v0l0,0,0,0s0,0,0,0l0,0,0,0s0,0,0-.06v0a.06.06,0,0,1,0,0v0l0,0a.11.11,0,0,1,0,0s0,0,0,0,0,0,0,0v0a.17.17,0,0,1,0-.08s0,0,0,0h0v-.05h0a.39.39,0,0,1,.15,0,0,0,0,0,0,0,0s0,0,0,0a0,0,0,0,0,0,0l0,0v0s0-.06,0-.09a0,0,0,0,0,0,0h0c.06,0,1.13,0,1.2,0l0,0,.12.08c.06,0,.11,0,.13,0a0,0,0,0,1,0,0s0,0,0,0h0s0,0,.05,0l0,.07h.07s0,0,0,.06a.07.07,0,0,0,0,0l0,0,0,0s0,0,0,.07v0l0,0,0,0,0,0a.36.36,0,0,1,.05.09v0a.29.29,0,0,1,.08.1l0,0a.13.13,0,0,0,0,0s0,0,0,0a.28.28,0,0,1,.06.08v0h0l0,0a.59.59,0,0,1,0,.08v0l0,0,0,.06,0,0a.39.39,0,0,1,0,.06v0l0,0,.05.07v0l0,0a.08.08,0,0,1,0,0,.06.06,0,0,1,0,0v0l0,0,0,.05s0,0,0,.07v0l0,.05a.2.2,0,0,1,0,.08,0,0,0,0,1,0,0l0,0,0,0,0,0a.1.1,0,0,1,0,.06v0l0,.08s0,0,0,0a.41.41,0,0,1,0,.07v0l0,.06s0,.05,0,.06h0l0,0,0,.06a.06.06,0,0,1,0,0v0l0,0a.08.08,0,0,1,0,0s0,.06,0,.07h0l0,0a.43.43,0,0,1,0,.07s0,.06,0,.06h0l0,0,0,0s0,.05,0,.07h0l0,0s0,0,0,0,0,.06,0,.07h0l0,0a.36.36,0,0,1,0,.07s0,0,0,0h0a.17.17,0,0,1,0,0,.36.36,0,0,1,0,.09s0,0,0,0v0l0,0a.29.29,0,0,1,0,.09l0,0a.43.43,0,0,0,0,0s0,.06,0,.06h0a.13.13,0,0,0,0,0h0c0,.06,0,.06,0,.09l0,0v0c0,.07,0,.08,0,.08h0s0,0,0,0a.19.19,0,0,0,0,.07l0,.09s0,0,0,0h0s0,0,0,0v0l0,.05s0,.06,0,.06h0a0,0,0,0,0,0,0,.14.14,0,0,0,0,.06c0,.06,0,.08,0,.11l0,.12c.06.12,0-.09,0,0l0,.06Z" transform="translate(-5.1 -7)"/><text class="cls-2" transform="translate(77.49 71.99)">Home</text></svg>