<svg id="Layer_1" data-name="Layer 1" xmlns="http://www.w3.org/2000/svg" xmlns:xlink="http://www.w3.org/1999/xlink" viewBox="0 0 410.67 504.58"><defs><style>.cls-1{isolation:isolate;opacity:0.4;fill:url(#linear-gradient);}</style><linearGradient id="linear-gradient" x1="112.7" y1="310.07" x2="502.97" y2="185.71" gradientTransform="matrix(1, 0, 0, -1, -66.32, 545.13)" gradientUnits="userSpaceOnUse"><stop offset="0.01" stop-color="#fff"/><stop offset="0.08" stop-color="#fefefe" stop-opacity="0.98"/><stop offset="0.17" stop-color="#fdfdfd" stop-opacity="0.93"/><stop offset="0.27" stop-color="#fafafa" stop-opacity="0.84"/><stop offset="0.38" stop-color="#f6f6f6" stop-opacity="0.71"/><stop offset="0.48" stop-color="#f1f1f1" stop-opacity="0.68"/><stop offset="0.54" stop-color="#eee" stop-opacity="0.46"/><stop offset="0.59" stop-color="#f2f2f2" stop-opacity="0.57"/><stop offset="0.68" stop-color="#f6f6f6" stop-opacity="0.78"/><stop offset="0.77" stop-color="#fafafa" stop-opacity="0.84"/><stop offset="0.85" stop-color="#fdfdfd" stop-opacity="0.93"/><stop offset="0.93" stop-color="#fefefe" stop-opacity="0.98"/><stop offset="1" stop-color="#fff"/></linearGradient></defs><path class="cls-1" d="M14,446.9c1-8.18,5.67-16.28,10.49-23.54,58.26-88.05,160.83-245.6,223.16-330.3l.16-.22c17.08-23.21,31.53-33,59.6-35.8,17.1-1.65,34.28-1.65,51.23,1.47A205.36,205.36,0,0,1,383.88,65c5.74,1.83,14.55,5.27,18.41,10.51,3.18,4.29,11.16,0,14.43,3.52.12,8.2.82,5.45.79,13.66-.06,16.4-.31,57.87-.3,74.27v21.64c0,92.16,9.14,199.23,6.85,291.2-1.35,54.1-51,66.64-89.65,75.17-75.85,16.82-207-6.23-275.28-43.67C37.68,499.5,10.78,474.58,14,446.9Z" transform="translate(-13.75 -55.94)"/></svg>