<svg id="Layer_1" data-name="Layer 1" xmlns="http://www.w3.org/2000/svg" xmlns:xlink="http://www.w3.org/1999/xlink" viewBox="0 0 494.7 565.13"><defs><style>.cls-1{opacity:0.4;fill:url(#linear-gradient);}.cls-2{fill:#373737;}.cls-10,.cls-3{opacity:0.2;}.cls-4{fill:#020302;}.cls-5{fill:#f5f5f5;}.cls-6{fill:#fff;}.cls-7{fill:#f9f9f9;}.cls-8{fill:#375a64;}.cls-9{fill:#1a2e35;}</style><linearGradient id="linear-gradient" x1="94.74" y1="297.78" x2="449.21" y2="410.73" gradientUnits="userSpaceOnUse"><stop offset="0.01" stop-color="#fff"/><stop offset="0.08" stop-color="#fefefe" stop-opacity="0.98"/><stop offset="0.17" stop-color="#fdfdfd" stop-opacity="0.93"/><stop offset="0.27" stop-color="#fafafa" stop-opacity="0.84"/><stop offset="0.38" stop-color="#f6f6f6" stop-opacity="0.71"/><stop offset="0.48" stop-color="#f1f1f1" stop-opacity="0.56"/><stop offset="0.54" stop-color="#eee" stop-opacity="0.46"/><stop offset="0.59" stop-color="#f2f2f2" stop-opacity="0.57"/><stop offset="0.68" stop-color="#f6f6f6" stop-opacity="0.72"/><stop offset="0.77" stop-color="#fafafa" stop-opacity="0.84"/><stop offset="0.85" stop-color="#fdfdfd" stop-opacity="0.93"/><stop offset="0.93" stop-color="#fefefe" stop-opacity="0.98"/><stop offset="1" stop-color="#fff"/></linearGradient></defs><path class="cls-1" d="M66.56,486.22c.88-7.18,5.16-14.29,9.54-20.67,53-77.3,146.3-215.63,203-290l.14-.19c15.54-20.38,28.68-29,54.22-31.43,15.55-1.45,31.18-1.45,46.6,1.29A192.84,192.84,0,0,1,403,150.88c5.22,1.61,13.24,4.63,16.75,9.23,2.89,3.77,5.22,11,5.3,15.48.11,7.2,8.57-7.6,8.54-.4-.05,14.4-.28,50.81-.27,65.21q0,9.49,0,19c0,80.92,8.31,174.92,6.23,255.67-1.23,47.5-46.4,58.51-81.55,66-69,14.77-188.27-5.47-250.41-38.34C88.08,532.4,63.61,510.52,66.56,486.22Z" transform="translate(-66.32 -20.87)"/><path class="cls-2" d="M184,101.32c38.25,78.49,308.28,106.46,377,48.31Z" transform="translate(-66.32 -20.87)"/><path class="cls-3" d="M184,101.32c38.25,78.49,308.28,106.46,377,48.31Z" transform="translate(-66.32 -20.87)"/><path class="cls-4" d="M182.83,98.46c-13,31,382.21,84.12,377.81,50.76C573.66,118.22,178.43,65.1,182.83,98.46Z" transform="translate(-66.32 -20.87)"/><path class="cls-5" d="M287.16,101.75C298.21-8.62,471.49-8,460.3,115.71,460.3,115.71,398.34,147.18,287.16,101.75Z" transform="translate(-66.32 -20.87)"/><path class="cls-6" d="M344.28,34.37A110.31,110.31,0,0,0,300.21,82C302.54,63.22,325.72,38.16,344.28,34.37Z" transform="translate(-66.32 -20.87)"/><path class="cls-7" d="M546.76,145.3c-21,10.65-57.33,8.71-80,5.27C489.6,153,525.35,155,546.76,145.3Z" transform="translate(-66.32 -20.87)"/><path class="cls-6" d="M339.3,175.8c-8.21-7.19-13.05-21.07-11.1-31.8C327,153.62,332.38,169,339.3,175.8Z" transform="translate(-66.32 -20.87)"/><path class="cls-6" d="M337.09,155.4c-.49.21-1.11,1.75.15,1.66s.38-1.54-.15-1.66c1.23-.69,2.13,2.3.2,2.3C335.39,158,335.76,154.93,337.09,155.4Z" transform="translate(-66.32 -20.87)"/><path class="cls-6" d="M340.76,166.16c-.49.21-1.1,1.74.15,1.66s.38-1.54-.15-1.66c1.23-.69,2.13,2.29.2,2.3C339.07,168.79,339.44,165.69,340.76,166.16Z" transform="translate(-66.32 -20.87)"/><path class="cls-5" d="M183.42,97.71c30.26-3.43,73.91-1.69,103.79,4.15C257.13,97,213.8,95.26,183.42,97.71Z" transform="translate(-66.32 -20.87)"/><path class="cls-7" d="M454.05,157.17c-9.78-9.6-24.73-22.74-35.51-31.2A215.15,215.15,0,0,1,454.05,157.17Z" transform="translate(-66.32 -20.87)"/><path class="cls-7" d="M422.84,134.92c-2.31,3.68,4.32,2.1.6-.14,1.44-.64,2.58,2.71.4,3C421.76,138.5,421.26,135,422.84,134.92Z" transform="translate(-66.32 -20.87)"/><path class="cls-5" d="M266,101.31c-2.31,3.68,4.32,2.09.6-.15,1.44-.63,2.58,2.71.4,3C264.94,104.89,264.44,101.39,266,101.31Z" transform="translate(-66.32 -20.87)"/><path class="cls-5" d="M236.26,99.64c-2.31,3.69,4.32,2.1.6-.14,1.44-.64,2.58,2.71.4,3C235.18,103.23,234.68,99.73,236.26,99.64Z" transform="translate(-66.32 -20.87)"/><path class="cls-5" d="M202.15,98.69c-2.31,3.68,4.32,2.1.6-.14,1.44-.64,2.58,2.71.4,3C201.07,102.27,200.57,98.78,202.15,98.69Z" transform="translate(-66.32 -20.87)"/><path class="cls-7" d="M434.48,146.32c-2.31,3.68,4.32,2.1.6-.14,1.44-.64,2.58,2.71.4,3C433.4,149.9,432.9,146.4,434.48,146.32Z" transform="translate(-66.32 -20.87)"/><path class="cls-8" d="M376.11,30.75c24.36-7.72,43.65,21,28.35,41.69-7.32,11.37-11.13,11.67-11.95,18.23s-1.82,7.93,1.48,10.79c15.82.4,11,16.54,12.16,24.81A206.64,206.64,0,0,1,366,124l1.93-19.36c.76-6.3,15-1.48,11.75-7.74-4.35,2.75-15.56-.53-17.5-6.48-.64-2.81-2.65-12.35-2.18-12.76C348.81,65.72,356.62,34.86,376.11,30.75Z" transform="translate(-66.32 -20.87)"/><path class="cls-9" d="M393.49,55.8s-20.64-6.69-18,17.37C375.5,73.17,397.64,76.37,393.49,55.8Z" transform="translate(-66.32 -20.87)"/><path class="cls-9" d="M366.57,72.48s9.13-20.7-6.24-18.9C360.33,53.58,351.72,68.52,366.57,72.48Z" transform="translate(-66.32 -20.87)"/><path class="cls-8" d="M338,98.13c7.6,1.31,4.68,9.77,12.18,7.27-.42.06,2.72-8.72,4.75-7.91,0,0,4.2,0,4-2.37-2.78-3-4.72,3.09-8,.86-4-3.63,1.11-10.3-2.46-11.59-3.85.63,2,8-1.94,11.38-.65.68-3.9-1-5.29-4.88,0,0-.07-3.32-2.95-3.46a.71.71,0,0,0-.74.55c-1.05,3.63,5.23,3.56,4.95,9.13-2.64,2.14-7-3.56-8-2C334,96.57,335.79,98.19,338,98.13Z" transform="translate(-66.32 -20.87)"/><path class="cls-8" d="M350.21,104.76l3.73,17.32c-1.78-.29-5.34-1-7.1-1.41l-1.79-16Z" transform="translate(-66.32 -20.87)"/><g class="cls-10"><path class="cls-6" d="M396.4,37.4c3.68,0,4.37,5.2,1,6.35-5.35,1.66-5.82-7.45-.34-6.26" transform="translate(-66.32 -20.87)"/></g><path class="cls-8" d="M390.15,60.56a1.36,1.36,0,0,1,.65,2.59c-2.15.89-2.69-2.87-.37-2.58" transform="translate(-66.32 -20.87)"/><path class="cls-8" d="M389.49,65.65a.69.69,0,0,1,.33,1.31c-1.09.45-1.36-1.45-.19-1.31" transform="translate(-66.32 -20.87)"/><g class="cls-10"><path class="cls-6" d="M401.22,45.2a1.35,1.35,0,0,1,.6,2c-1.4,1.66-3.49-1.06-1.52-2" transform="translate(-66.32 -20.87)"/></g><path class="cls-9" d="M381.65,75.57c7.86,1.32,16.81-8.87,14.49-16.49C397.19,66.75,389.39,75.62,381.65,75.57Z" transform="translate(-66.32 -20.87)"/><path class="cls-9" d="M375.7,60c1.93-3.32,9.16-7.21,12.93-7C384.64,51.82,376.87,56,375.7,60Z" transform="translate(-66.32 -20.87)"/><path class="cls-9" d="M369.31,62.43c1.51-3-.21-11.26-4.81-10.53C368.82,52.41,369.56,59.26,369.31,62.43Z" transform="translate(-66.32 -20.87)"/><path class="cls-9" d="M359.25,70.06c-.37,1.66,5.68,4.76,6.8,3.5C364.35,73.6,360.19,71.43,359.25,70.06Z" transform="translate(-66.32 -20.87)"/><path class="cls-9" d="M371,82.33c1.36,1.79,5.44-.66,4.51-2.69A3.89,3.89,0,0,1,371,82.33Z" transform="translate(-66.32 -20.87)"/><path class="cls-9" d="M374.35,97.53c3.92,1.21,11.48-3.1,12.44-7.09C384.85,93.9,378.31,97.63,374.35,97.53Z" transform="translate(-66.32 -20.87)"/><path class="cls-9" d="M397.49,126.28c.41.32.67-12.18.25-11.87C397.34,114.08,397.08,126.58,397.49,126.28Z" transform="translate(-66.32 -20.87)"/><path class="cls-9" d="M384.83,121.45c.28.72,10.43,1.93,10.12-1.77C394.28,122.56,385.32,121.31,384.83,121.45Z" transform="translate(-66.32 -20.87)"/><path class="cls-9" d="M372.64,124.82c.38.3,1.5-10.19,1.07-10C373.33,114.55,372.2,125,372.64,124.82Z" transform="translate(-66.32 -20.87)"/><path class="cls-9" d="M373.4,116.83c-.59,1.34,4.56,4.5,5.48,3.36A11.37,11.37,0,0,1,373.4,116.83Z" transform="translate(-66.32 -20.87)"/><path class="cls-8" d="M362.8,29.21c2,.49,5.95,4.15,6.59,6C369.5,32.72,365.32,28.88,362.8,29.21Z" transform="translate(-66.32 -20.87)"/><path class="cls-8" d="M361.32,27.85c2.58-1.24,3.34,3.59.34,2.78-1.41-.44-1.43-3,.19-2.95" transform="translate(-66.32 -20.87)"/><path class="cls-8" d="M368.53,27.05c2,.49,6,4.16,6.59,6.05C375.23,30.56,371.05,26.72,368.53,27.05Z" transform="translate(-66.32 -20.87)"/><path class="cls-8" d="M367.05,25.69c2.58-1.24,3.34,3.59.34,2.79-1.41-.45-1.43-3,.19-3" transform="translate(-66.32 -20.87)"/></svg>