<svg width="2638" height="1710" viewBox="0 0 2638 1710" fill="none" xmlns="http://www.w3.org/2000/svg">
<g filter="url(#filter0_f_188_1634)">
<path d="M1218.95 665.373C1371.08 645.709 1601.61 588.106 1756.13 602.194C2113.86 634.809 2127.89 961.467 1816.44 1056.38C1629.05 1113.49 1247.84 1128.5 1047.36 1084.24C851.76 1041.05 775.969 1003.31 667.786 910.166C628.452 876.298 582.4 812.744 606.818 767.225C634.668 715.31 714.122 691.207 818.238 680.564C925.422 669.606 1030.15 689.778 1218.95 665.373Z" fill="#562408"/>
</g>
<g filter="url(#filter1_f_188_1634)">
<path d="M1301.73 777.152C1432.18 760.306 1502.3 661.954 1634.8 674.023C1941.54 701.963 1863.54 1017.25 1596.49 1098.56C1435.8 1147.48 1326.51 1173.89 1154.6 1135.98C986.878 1098.99 921.889 1066.66 829.125 986.858C795.397 957.845 755.908 903.399 776.847 864.405C800.727 819.931 868.856 799.283 958.133 790.165C1050.04 780.778 1139.84 798.058 1301.73 777.152Z" fill="#843700"/>
</g>
<g filter="url(#filter2_f_188_1634)">
<path d="M1404.59 841.849C1739.78 851.707 1998.27 883.942 1981.94 913.849C1965.62 943.755 1680.66 960.007 1345.47 950.149C1010.28 940.292 745.793 908.056 762.116 878.15C778.44 848.244 1069.4 831.991 1404.59 841.849Z" fill="#FFA800"/>
</g>
<defs>
<filter id="filter0_f_188_1634" x="0" y="0" width="2638" height="1710" filterUnits="userSpaceOnUse" color-interpolation-filters="sRGB">
<feFlood flood-opacity="0" result="BackgroundImageFix"/>
<feBlend mode="normal" in="SourceGraphic" in2="BackgroundImageFix" result="shape"/>
<feGaussianBlur stdDeviation="300" result="effect1_foregroundBlur_188_1634"/>
</filter>
<filter id="filter1_f_188_1634" x="551" y="453" width="1502" height="921" filterUnits="userSpaceOnUse" color-interpolation-filters="sRGB">
<feFlood flood-opacity="0" result="BackgroundImageFix"/>
<feBlend mode="normal" in="SourceGraphic" in2="BackgroundImageFix" result="shape"/>
<feGaussianBlur stdDeviation="110" result="effect1_foregroundBlur_188_1634"/>
</filter>
<filter id="filter2_f_188_1634" x="672.399" y="749.968" width="1399.28" height="292.063" filterUnits="userSpaceOnUse" color-interpolation-filters="sRGB">
<feFlood flood-opacity="0" result="BackgroundImageFix"/>
<feBlend mode="normal" in="SourceGraphic" in2="BackgroundImageFix" result="shape"/>
<feGaussianBlur stdDeviation="44.5" result="effect1_foregroundBlur_188_1634"/>
</filter>
</defs>
</svg>
