<svg width="710" height="228" viewBox="0 0 710 228" fill="none" xmlns="http://www.w3.org/2000/svg">
<g filter="url(#filter0_d_430_2072)">
<path d="M145.19 39.8924C152.251 37.6842 159.437 35.8977 166.71 34.5424C184.46 31.1724 202.78 29.5424 220.58 32.6724C238.38 35.8024 255.71 43.8624 267.58 57.4724C270.21 60.4724 272.68 63.8224 276.26 65.5924C280.66 67.7624 285.87 67.1324 290.68 68.0924C299.53 69.8424 306.57 77.0424 310.17 85.3024C313.77 93.5624 314.36 102.822 314.17 111.832C317.862 109.4 322.167 108.06 326.588 107.968C331.008 107.875 335.365 109.032 339.157 111.308C342.948 113.583 346.02 116.882 348.018 120.827C350.016 124.771 350.859 129.2 350.45 133.602C383.52 125.342 416.45 117.362 450.93 120.192C480.76 122.642 510.76 134.622 530.02 157.532C531.37 159.152 532.74 160.862 534.63 161.772C537.1 162.962 540 162.592 542.72 162.242C578.05 157.712 615.2 162.922 648.94 173.662C657.8 176.472 678.32 187.212 679.26 197.402C662.41 198.662 645.03 197.622 628.1 197.622H385.27C359.06 197.622 332.84 197.762 306.63 197.622C272.71 197.442 238.75 197.332 204.75 197.292H30C35.07 190.762 39.62 183.932 44.46 177.292C49.83 169.922 58.24 163.072 60.61 153.992C65.41 135.572 81.35 123.682 86.61 106.482C92.49 87.3824 93.01 72.6724 109.72 58.4824C120 49.8024 132.29 43.9724 145.19 39.8924Z" fill="#936120"/>
</g>
<defs>
<filter id="filter0_d_430_2072" x="0" y="0" width="709.26" height="227.026" filterUnits="userSpaceOnUse" color-interpolation-filters="sRGB">
<feFlood flood-opacity="0" result="BackgroundImageFix"/>
<feColorMatrix in="SourceAlpha" type="matrix" values="0 0 0 0 0 0 0 0 0 0 0 0 0 0 0 0 0 0 127 0" result="hardAlpha"/>
<feOffset dy="-1"/>
<feGaussianBlur stdDeviation="15"/>
<feComposite in2="hardAlpha" operator="out"/>
<feColorMatrix type="matrix" values="0 0 0 0 1 0 0 0 0 0.705882 0 0 0 0 0.203922 0 0 0 0.7 0"/>
<feBlend mode="normal" in2="BackgroundImageFix" result="effect1_dropShadow_430_2072"/>
<feBlend mode="normal" in="SourceGraphic" in2="effect1_dropShadow_430_2072" result="shape"/>
</filter>
</defs>
</svg>
