<svg width="1847" height="1533" viewBox="0 0 1847 1533" fill="none" xmlns="http://www.w3.org/2000/svg">
<g filter="url(#filter0_f_435_3084)">
<path d="M968.433 642.667C900 629.832 796.301 592.237 726.793 601.432C565.877 622.719 559.567 835.916 699.664 897.862C783.959 935.134 955.438 944.929 1045.62 916.043C1133.61 887.86 1167.7 863.229 1216.36 802.434C1234.06 780.33 1254.77 738.85 1243.79 709.142C1231.26 675.259 1195.52 659.527 1148.69 652.581C1100.47 645.43 1053.36 658.595 968.433 642.667Z" fill="#562408"/>
</g>
<g filter="url(#filter1_f_435_3084)">
<path d="M927.195 685.317C868.558 674.316 837.041 610.087 777.482 617.969C639.601 636.215 674.66 842.11 794.702 895.209C866.931 927.157 916.06 944.408 993.334 919.647C1068.72 895.49 1097.94 874.376 1139.63 822.265C1154.8 803.318 1172.55 767.763 1163.13 742.297C1152.4 713.254 1121.78 699.77 1081.65 693.815C1040.33 687.685 999.966 698.97 927.195 685.317Z" fill="#843700"/>
</g>
<g filter="url(#filter2_f_435_3084)">
<ellipse cx="161.883" cy="111.627" rx="161.883" ry="111.627" transform="matrix(-0.958986 0.283454 0.480111 0.877208 989.229 673.512)" fill="#FFA800"/>
</g>
<defs>
<filter id="filter0_f_435_3084" x="0" y="0" width="1846.86" height="1532.86" filterUnits="userSpaceOnUse" color-interpolation-filters="sRGB">
<feFlood flood-opacity="0" result="BackgroundImageFix"/>
<feBlend mode="normal" in="SourceGraphic" in2="BackgroundImageFix" result="shape"/>
<feGaussianBlur stdDeviation="300" result="effect1_foregroundBlur_435_3084"/>
</filter>
<filter id="filter1_f_435_3084" x="288.388" y="217.301" width="1277.37" height="1114.12" filterUnits="userSpaceOnUse" color-interpolation-filters="sRGB">
<feFlood flood-opacity="0" result="BackgroundImageFix"/>
<feBlend mode="normal" in="SourceGraphic" in2="BackgroundImageFix" result="shape"/>
<feGaussianBlur stdDeviation="200" result="effect1_foregroundBlur_435_3084"/>
</filter>
<filter id="filter2_f_435_3084" x="384.301" y="370.154" width="1006.56" height="894.327" filterUnits="userSpaceOnUse" color-interpolation-filters="sRGB">
<feFlood flood-opacity="0" result="BackgroundImageFix"/>
<feBlend mode="normal" in="SourceGraphic" in2="BackgroundImageFix" result="shape"/>
<feGaussianBlur stdDeviation="169.5" result="effect1_foregroundBlur_435_3084"/>
</filter>
</defs>
</svg>
