<svg width="2358" height="1797" viewBox="0 0 2358 1797" fill="none" xmlns="http://www.w3.org/2000/svg">
<g filter="url(#filter0_f_435_3334)">
<path d="M1259.87 676.84C1137.43 653.878 951.902 586.616 827.542 603.066C539.644 641.15 528.353 1022.59 779.005 1133.42C929.82 1200.1 1236.62 1217.63 1397.97 1165.95C1555.38 1115.52 1616.38 1071.45 1703.45 962.684C1735.1 923.137 1772.17 848.924 1752.51 795.772C1730.1 735.151 1666.15 707.006 1582.36 694.578C1496.1 681.783 1411.82 705.337 1259.87 676.84Z" fill="#562408"/>
</g>
<g filter="url(#filter1_f_435_3334)">
<path d="M1186.09 753.147C1081.18 733.464 1024.79 618.551 918.232 632.652C671.545 665.297 734.269 1033.67 949.041 1128.67C1078.27 1185.83 1166.17 1216.69 1304.42 1172.39C1439.3 1129.17 1491.57 1091.4 1566.17 998.164C1593.29 964.265 1625.05 900.653 1608.21 855.092C1589.01 803.129 1534.22 779.004 1462.42 768.351C1388.5 757.384 1316.28 777.574 1186.09 753.147Z" fill="#843700"/>
</g>
<g filter="url(#filter2_f_435_3334)">
<ellipse cx="289.628" cy="199.715" rx="289.628" ry="199.715" transform="matrix(-0.958986 0.283454 0.480111 0.877208 1297.07 732.024)" fill="#FFA800"/>
</g>
<defs>
<filter id="filter0_f_435_3334" x="0.693848" y="0.503906" width="2357.31" height="1795.53" filterUnits="userSpaceOnUse" color-interpolation-filters="sRGB">
<feFlood flood-opacity="0" result="BackgroundImageFix"/>
<feBlend mode="normal" in="SourceGraphic" in2="BackgroundImageFix" result="shape"/>
<feGaussianBlur stdDeviation="300" result="effect1_foregroundBlur_435_3334"/>
</filter>
<filter id="filter1_f_435_3334" x="358.832" y="231.457" width="1654.08" height="1361.99" filterUnits="userSpaceOnUse" color-interpolation-filters="sRGB">
<feFlood flood-opacity="0" result="BackgroundImageFix"/>
<feBlend mode="normal" in="SourceGraphic" in2="BackgroundImageFix" result="shape"/>
<feGaussianBlur stdDeviation="200" result="effect1_foregroundBlur_435_3334"/>
</filter>
<filter id="filter2_f_435_3334" x="482.294" y="456.793" width="1265.83" height="1065.04" filterUnits="userSpaceOnUse" color-interpolation-filters="sRGB">
<feFlood flood-opacity="0" result="BackgroundImageFix"/>
<feBlend mode="normal" in="SourceGraphic" in2="BackgroundImageFix" result="shape"/>
<feGaussianBlur stdDeviation="169.5" result="effect1_foregroundBlur_435_3334"/>
</filter>
</defs>
</svg>
