<svg width="1110" height="718" viewBox="0 0 1110 718" fill="none" xmlns="http://www.w3.org/2000/svg">
<g filter="url(#filter0_d_430_2118)">
<path d="M995.621 559.649C989.851 555.419 981.391 553.039 974.771 550.449C956.771 543.379 937.601 540.049 918.861 535.449C909.391 533.139 891.991 531.849 885.861 523.249C888.271 523.249 889.731 519.709 888.001 518.039C886.831 516.909 885.001 516.889 883.541 516.129C881.351 514.959 880.461 512.309 880.071 509.859C879.681 507.409 879.541 504.789 878.151 502.739C877.901 502.379 877.531 502.009 877.151 502.099C876.771 502.189 876.571 502.609 876.451 502.999C875.151 507.339 877.201 511.419 871.451 512.389C867.571 513.029 860.141 506.329 857.561 503.939C857.237 503.715 856.972 503.416 856.789 503.068C856.606 502.72 856.511 502.332 856.511 501.939C856.601 501.299 857.171 500.849 857.511 500.289C859.401 497.059 853.601 490.458 851.421 488.648C851.691 488.279 853.941 485.539 854.321 485.739C852.348 484.7 850.726 483.102 849.658 481.145C848.591 479.188 848.125 476.959 848.321 474.739C848.625 473.387 848.692 471.993 848.521 470.619C848.191 469.279 846.691 468.089 845.451 468.719C845.013 468.979 844.665 469.366 844.451 469.828C842.011 474.388 845.161 481.719 837.971 483.059C834.651 483.669 827.541 479.118 828.731 475.289C828.998 474.743 829.144 474.146 829.161 473.539C828.821 470.879 825.161 470.539 825.031 467.469C825.101 466.156 825.101 464.841 825.031 463.529C824.671 461.298 822.921 459.529 821.261 458.039C821.521 456.039 825.311 455.839 825.261 453.809C825.194 453.249 824.915 452.737 824.481 452.379C821.901 449.899 817.731 450.179 815.271 447.379C813.381 445.269 813.691 437.859 812.041 436.749C810.871 435.969 809.481 437.689 809.621 439.089C809.761 440.488 810.621 441.808 810.431 443.198C810.181 445.108 808.221 446.198 806.561 447.198C805.881 447.589 805.121 448.198 805.201 448.958C805.281 449.719 806.301 450.228 807.111 450.578C810.731 452.118 810.601 457.579 806.821 458.239C804.312 458.648 801.742 458.445 799.329 457.647C796.916 456.85 794.731 455.482 792.961 453.659C792.556 453.308 792.287 452.827 792.201 452.299C792.111 450.649 795.011 450.238 795.141 448.589C795.201 447.809 794.571 447.159 794.311 446.409C793.671 444.579 795.661 442.339 797.001 441.409C793.917 438.999 790.43 437.157 786.701 435.969L791.021 432.448C791.512 432.118 791.862 431.615 792.001 431.039C792.001 430.239 791.301 429.638 790.601 429.258C786.601 427.008 780.711 425.948 779.971 421.398C779.711 419.798 780.161 417.859 778.971 416.749C777.781 415.639 775.611 416.378 774.851 417.828C774.532 418.586 774.375 419.401 774.389 420.222C774.403 421.043 774.587 421.852 774.931 422.599C775.3 423.398 775.566 424.242 775.721 425.109C776.541 432.589 760.511 428.358 762.211 423.208C762.541 422.208 763.491 421.208 763.211 420.208C762.781 418.828 760.801 419.069 759.411 418.669C757.001 417.959 756.261 415.009 755.521 412.609C754.781 410.209 752.741 407.469 750.371 408.309C748.781 410.309 750.441 413.988 748.371 415.458C745.021 417.788 738.291 397.889 732.071 397.059C728.351 396.569 727.961 404.359 722.581 398.919C723.171 397.919 724.411 396.799 724.751 395.679C725.311 393.879 722.671 392.959 721.441 391.539C720.441 390.329 720.391 388.539 720.311 386.979C720.043 381.758 718.416 376.697 715.591 372.299C714.591 376.719 713.161 381.359 709.401 384.299C708.231 385.209 706.241 385.649 705.491 384.379C704.581 382.859 706.611 381.178 706.771 379.379C706.981 377.049 704.141 375.839 702.571 374.089C698.571 369.659 702.641 360.639 697.471 357.689L695.781 373.469C695.571 375.469 694.381 378.159 692.471 377.469C691.471 377.129 691.061 376.039 690.741 375.059C689.151 370.229 685.541 365.349 684.491 360.829C683.861 358.089 685.851 355.899 684.721 352.739C683.941 350.559 681.301 348.939 680.161 346.879C679.021 344.819 678.831 342.629 678.061 340.529C677.291 338.428 675.651 336.339 673.421 336.219C673.926 341.175 674.076 346.161 673.871 351.139C673.918 352.165 673.676 353.184 673.171 354.079C672.291 355.359 670.591 355.669 669.171 356.279C667.751 356.888 666.341 358.428 667.031 359.809C664.651 360.578 661.911 360.749 659.761 359.469C657.611 358.189 656.441 355.139 657.821 353.049C658.291 352.349 659.011 351.769 659.201 350.949C659.691 348.949 657.011 347.839 655.441 346.479C650.831 342.479 655.591 333.789 651.611 329.148C648.611 334.228 645.701 339.499 642.611 344.439C640.411 344.339 639.271 342.919 638.711 340.729C638.021 337.999 638.881 334.729 638.711 331.969C637.935 322.565 635.694 313.34 632.071 304.629C622.851 282.409 609.071 263.219 601.831 239.719C594.001 214.469 589.661 187.469 575.071 165.429C565.021 150.249 550.751 138.429 537.171 126.329C502.678 95.5176 428.503 20.2846 402.003 32.2846C375.503 44.2846 351.842 103.002 335.503 111.785C266.765 251.829 183.503 340.529 183.503 340.529C183.503 340.529 29.2229 477.949 30.0029 535.449C31.2829 628.889 30.0029 688.489 30.0029 688.489H379.861H834.201C854.771 679.167 875.798 670.886 897.201 663.679C903.841 661.479 931.233 661.615 954.503 651.785C976.115 642.648 994.868 623.412 1020.43 614.739C1027.9 612.199 1036.11 612.869 1043.69 610.739C1049.57 609.119 1054.4 605.739 1059.95 603.629C1065.67 601.499 1072.02 602.629 1077.95 600.629C1078.34 600.554 1078.71 600.397 1079.03 600.167C1079.35 599.938 1079.62 599.641 1079.82 599.299C1080.36 597.929 1078.7 596.779 1077.32 596.249C1057.31 588.571 1038.48 577.079 1018.35 572.889C1015.42 572.279 1013.07 570.409 1010.68 568.659C1006.3 565.486 1001.68 562.647 996.871 560.169" fill="#432612"/>
</g>
<defs>
<filter id="filter0_d_430_2118" x="0" y="0" width="1109.93" height="717.489" filterUnits="userSpaceOnUse" color-interpolation-filters="sRGB">
<feFlood flood-opacity="0" result="BackgroundImageFix"/>
<feColorMatrix in="SourceAlpha" type="matrix" values="0 0 0 0 0 0 0 0 0 0 0 0 0 0 0 0 0 0 127 0" result="hardAlpha"/>
<feOffset dy="-1"/>
<feGaussianBlur stdDeviation="15"/>
<feComposite in2="hardAlpha" operator="out"/>
<feColorMatrix type="matrix" values="0 0 0 0 1 0 0 0 0 0.705882 0 0 0 0 0.203922 0 0 0 0.7 0"/>
<feBlend mode="normal" in2="BackgroundImageFix" result="effect1_dropShadow_430_2118"/>
<feBlend mode="normal" in="SourceGraphic" in2="effect1_dropShadow_430_2118" result="shape"/>
</filter>
</defs>
</svg>
