<svg width="936" height="529" viewBox="0 0 936 529" fill="none" xmlns="http://www.w3.org/2000/svg">
<g filter="url(#filter0_d_430_2114)">
<path d="M905.5 487.19C905.5 422.072 793 324.016 793 324.016C793 324.016 752.643 251.517 729.774 208.665C706.906 165.812 619.298 139.008 601.53 106.033C583.761 73.0572 572.845 63.3196 555.245 46.6121L541.578 33.6138C540.349 32.4477 539.004 31.2277 537.327 31.0303C535.273 30.7791 533.408 32.1337 531.784 33.4254C499.338 59.3323 477.294 93.0704 441.098 114.51C433.924 118.744 426.489 122.646 420.337 128.226C396.839 149.139 392.123 167.032 373.909 168.737C355.695 170.441 331.485 200.137 318.773 212.683C269.856 260.883 225.727 317.731 186.833 374.467C186.095 375.724 185.087 376.803 183.882 377.624C180.005 379.858 174.778 378.559 170.587 380.838C166.702 382.949 164.714 386.294 161.946 389.51C154.221 396.585 142.772 400.812 133.715 405.908C124.11 411.291 112.03 417.651 104.954 426.119C98.1738 434.192 52.0617 468.335 42.5554 472.919C38.17 475.027 33.0312 476.274 30 480.095C38.8605 481.674 47.6852 483.36 56.1422 486.572C80.5057 495.829 144.832 479.302 169.686 487.19C189.181 493.563 217.759 482.093 232.938 491.765C264.81 512.075 744.04 487.19 905.5 487.19ZM323.436 226.031L329.714 221.376C332.787 216.025 337.278 211.626 342.691 208.665C335.946 223.992 325.36 237.318 311.957 247.354C314.253 239.523 318.163 232.26 323.436 226.031ZM333.848 250.736C330.411 260.916 324.971 270.304 317.849 278.348C316.952 279.343 314.558 278.294 315.84 277.953L309.006 277.451C314.814 266.53 323.379 257.32 333.848 250.736ZM264.533 301.913L271.403 290.251L276.21 285.676C277.433 281.92 279.455 278.473 282.138 275.574C284.822 272.675 288.101 270.392 291.752 268.884C289.737 275.969 286.279 282.561 281.595 288.245C276.911 293.929 271.102 298.583 264.533 301.913Z" fill="#593315"/>
</g>
<defs>
<filter id="filter0_d_430_2114" x="0" y="0" width="935.5" height="528.741" filterUnits="userSpaceOnUse" color-interpolation-filters="sRGB">
<feFlood flood-opacity="0" result="BackgroundImageFix"/>
<feColorMatrix in="SourceAlpha" type="matrix" values="0 0 0 0 0 0 0 0 0 0 0 0 0 0 0 0 0 0 127 0" result="hardAlpha"/>
<feOffset dy="-1"/>
<feGaussianBlur stdDeviation="15"/>
<feComposite in2="hardAlpha" operator="out"/>
<feColorMatrix type="matrix" values="0 0 0 0 1 0 0 0 0 0.705882 0 0 0 0 0.203922 0 0 0 0.7 0"/>
<feBlend mode="normal" in2="BackgroundImageFix" result="effect1_dropShadow_430_2114"/>
<feBlend mode="normal" in="SourceGraphic" in2="effect1_dropShadow_430_2114" result="shape"/>
</filter>
</defs>
</svg>
