<svg width="1148" height="621" viewBox="0 0 1148 621" fill="none" xmlns="http://www.w3.org/2000/svg">
<g filter="url(#filter0_d_430_2181)">
<path d="M830.88 587.739C843.57 587.539 880.26 592.303 920 590.509C959.74 588.715 1088 553.009 1097 545.509C1106 538.009 1112.5 536.009 1117.5 532.509C1109.5 521.009 939.94 501.106 924.74 498.026C898.46 492.706 877.83 471.656 852 464.466C831.76 458.816 808.56 462.016 789.28 453.666C778.09 448.826 768.86 440.466 758.5 434.046C744.92 425.626 731.44 423.416 717.03 418.336C706.93 414.766 698.39 407.906 688.31 404.336C678.45 400.826 604.44 402.336 595.82 395.836C590.82 392.076 587.91 384.956 590.6 379.296C591.6 377.196 593.54 375.296 595.86 375.296C598.18 375.296 600.28 377.236 601.66 379.296C603.04 381.356 604.21 383.606 606.28 384.916C608.35 386.226 611.7 385.866 612.5 383.556C613.03 382.046 612.27 380.426 611.5 379.026C607.842 372.287 603.585 365.891 598.78 359.916L605.19 359.366L598.67 347.766C596.81 344.476 594.92 341.066 594.47 337.306C594.11 334.236 594.75 331.126 594.56 328.046C593.93 317.716 584.27 308.816 586.05 298.626C582.65 297.216 579.05 300.626 577.86 304.076C576.67 307.526 576.69 311.506 574.74 314.636C572.93 317.546 569.74 319.236 567.05 321.376C564.36 323.516 561.95 326.776 562.75 330.106L568.69 330.686C570.2 335.636 562.6 341.126 565.85 345.156C566.42 345.866 567.27 346.386 567.53 347.246C567.666 348.09 567.488 348.955 567.03 349.676L558.53 367.576C557.67 369.396 556.32 371.516 554.31 371.346C551.46 371.106 547.4 362.526 545.72 360.416C541.48 355.083 537.036 349.919 532.39 344.926C523.105 334.95 513.051 325.718 502.32 317.316C500.795 316.288 499.498 314.957 498.51 313.406C495.7 308.176 496.05 299.686 497.18 294.156C497.255 293.304 497.665 292.516 498.32 291.966C498.889 291.666 499.553 291.602 500.17 291.786C502.7 292.426 504.03 295.116 505.25 297.426C506.47 299.736 508.46 302.236 511.06 301.956C511.17 305.446 514.52 307.816 517.52 309.606L525.52 314.416C525.08 306.755 522.88 299.299 519.09 292.626C517.68 290.418 516.43 288.113 515.35 285.726C514.13 282.726 513.76 279.316 512.35 276.356C516.96 276.986 518.61 282.686 521.8 286.076C521.986 286.325 522.225 286.529 522.5 286.672C522.776 286.816 523.08 286.896 523.39 286.906C523.808 286.786 524.213 286.625 524.6 286.426C527.2 285.616 527.99 291.186 530.71 290.976C531.334 288.386 531.407 285.693 530.923 283.072C530.438 280.452 529.409 277.963 527.9 275.766C526.53 273.766 524.76 272.056 523.81 269.856C523.07 268.126 522.81 266.136 521.69 264.656C515.2 256.386 506.5 254.186 502.98 242.996L515.36 250.196C515.991 250.654 516.75 250.902 517.53 250.906C519.7 250.666 519.63 247.466 518.85 245.426C515.413 236.478 510.616 228.113 504.63 220.626C499.9 214.716 494.1 208.426 494.63 200.876L503.2 208.766C504.82 202.766 500.65 196.906 497.49 191.536C493.64 184.986 491.01 177.536 490.97 169.966C490.97 165.966 491.63 161.806 490.38 157.966C489.13 154.126 484.92 150.846 481.22 152.406C478.39 153.586 477.22 156.986 477.05 160.046C476.88 163.106 477.53 166.216 476.94 169.226C475.75 175.316 470.13 179.316 465.37 183.316C460.61 187.316 456.02 193.176 457.86 199.176C460.467 198.668 463.007 197.863 465.43 196.776C466.297 196.792 467.15 196.992 467.932 197.365C468.715 197.738 469.408 198.274 469.966 198.937C470.524 199.6 470.934 200.375 471.167 201.21C471.401 202.045 471.453 202.92 471.32 203.776C470.78 206.366 468.58 208.246 466.44 209.776C460.87 213.819 454.799 217.123 448.38 219.606C444.38 221.136 440.22 222.406 436.91 225.086C433.6 227.766 431.39 232.386 432.96 236.346L439.26 233.596C438.72 237.196 443.81 238.966 447.33 237.986C454.25 236.066 462.21 234.276 453.59 242.766C448.93 247.356 439.82 249.826 438.33 256.936C441.815 257.554 445.392 257.418 448.82 256.536C448.37 260.346 448.42 265.166 451.82 266.856C452.667 267.147 453.498 267.48 454.31 267.856C457.43 269.856 455.48 274.676 453.12 277.516C449.78 281.516 445.46 285.596 440.24 285.416C436.87 285.286 433.86 283.416 431.04 281.556L414.55 270.826C412.897 269.588 411.008 268.7 409 268.216C406.24 267.756 403.5 268.846 400.81 269.576C387.67 273.176 379.38 266.676 368.02 261.996C356.66 257.316 343.2 257.746 332.51 250.716C323.75 244.946 318.51 235.196 310.64 228.246C302.77 221.296 121 29.5089 99.5 31.0088C91.6376 31.5572 48 115.226 48 115.226L30 360.416V523.509L48 591.739L758.73 590.509C771.48 590.509 784.24 590.619 797 590.509C803.87 590.459 809.91 589.289 816.58 588.439C821.33 587.942 826.104 587.709 830.88 587.739Z" fill="#22160E"/>
</g>
<defs>
<filter id="filter0_d_430_2181" x="0" y="0" width="1147.5" height="620.739" filterUnits="userSpaceOnUse" color-interpolation-filters="sRGB">
<feFlood flood-opacity="0" result="BackgroundImageFix"/>
<feColorMatrix in="SourceAlpha" type="matrix" values="0 0 0 0 0 0 0 0 0 0 0 0 0 0 0 0 0 0 127 0" result="hardAlpha"/>
<feOffset dy="-1"/>
<feGaussianBlur stdDeviation="15"/>
<feComposite in2="hardAlpha" operator="out"/>
<feColorMatrix type="matrix" values="0 0 0 0 1 0 0 0 0 0.705882 0 0 0 0 0.203922 0 0 0 0.7 0"/>
<feBlend mode="normal" in2="BackgroundImageFix" result="effect1_dropShadow_430_2181"/>
<feBlend mode="normal" in="SourceGraphic" in2="effect1_dropShadow_430_2181" result="shape"/>
</filter>
</defs>
</svg>
