<svg width="924" height="717" viewBox="0 0 924 717" fill="none" xmlns="http://www.w3.org/2000/svg">
<g filter="url(#filter0_d_430_2179)">
<path d="M72.3248 556.974C52.7765 556.974 24.0762 556.974 31.0761 546.746C38.0761 536.518 63.9059 530.224 68.8068 526.612C70.599 525.293 72.5793 523.52 72.3248 521.304C71.7606 516.362 61.826 517.182 61.6601 512.207C61.5937 510.079 74.3383 504.173 74.3383 504.173C74.3383 504.173 62.3722 501.206 61.6601 499.009C60.948 496.813 66.9058 491.364 72.3248 490.37C72.6103 484.693 73.8534 472.603 77.2147 473.213C80.5759 473.822 83.2329 496.594 90.4903 499.009C99.407 501.99 95.4686 490.211 99.5619 485.712C100.381 484.804 101.609 484.028 101.597 482.809C101.597 480.704 98.3339 480.715 96.7298 479.363C95.1257 478.011 95.4133 475.573 96.4643 473.822C97.5153 472.072 99.1858 470.919 100.502 469.39C102.525 467.072 103.576 464.277 104.04 461.279C104.996 455.098 109.475 452.056 111.488 457.977C112.882 462.077 114.276 466.72 118.048 468.869C119.298 469.601 120.814 469.977 121.699 471.174C123.635 473.701 121.245 477.191 118.989 479.44C123.126 480.992 121.812 490.862 125.076 487.87C141.059 479.44 135.649 468.758 133.37 466.365C132.685 465.634 131.622 465.201 131.291 464.26C131.2 463.846 131.192 463.418 131.268 463.002C131.344 462.585 131.502 462.188 131.733 461.833C133.639 458.044 136.359 454.725 139.698 452.115C140.293 451.742 140.767 451.203 141.059 450.563C141.579 448.901 139.488 447.671 137.74 447.383C127.662 445.677 143.781 432.978 144.378 426.518C144.577 424.446 144.444 422.296 145.175 420.346C146.452 416.933 149.845 419.732 150.16 423.362C150.702 429.62 152.367 435.747 157.388 439.106C160.276 441.034 163.86 441.677 166.825 443.538C169.79 445.4 172.102 449.267 170.332 452.259C168.894 454.675 165.354 455.506 164.546 458.187C160.112 472.764 190.519 484.943 193.507 462.574C193.949 459.261 203.054 449.371 201.528 446.346C198.518 440.406 190.2 450.257 185.775 445.935C185.421 445.649 185.128 445.295 184.913 444.893C184.698 444.491 184.566 444.051 184.525 443.597C184.525 440.428 203.076 432.87 201.848 426.522C200.621 420.174 188.576 430.718 189.076 424.87C189.576 419.022 200.996 414.144 201.848 410.643C198.828 410.377 194.076 413.37 193.076 408.992C192.076 404.614 198.627 402.432 200.076 401.235C202.222 399.451 206.174 392.67 205.82 389.888C205.466 387.107 206.362 383.395 209.139 383.24C211.573 383.107 213 385.855 213.807 388.148C215.069 391.739 215.339 393.379 217.076 397.988C218.813 402.598 225.576 397.748 226.076 403.37C226.576 408.992 223.226 410.162 222.802 410.643C219.184 416.338 228.234 416.46 230.723 416.028C233.601 415.524 250.361 399.326 261.731 386.58C258.031 384.588 257.158 380.029 262.963 371.004C262.538 370.809 262.226 370.454 262.076 369.87C261.347 367.031 265.218 365.887 268.185 363.909C269.105 362.78 270.102 361.601 271.18 360.37C271.961 355.84 273.202 356.757 273.18 352.098C273.18 349.882 274.153 346.857 276.399 347.067C278.073 347.23 278.872 349.113 279.66 350.605C342.542 277.662 445.018 147.948 445.018 147.948C466.96 108.057 514.826 28.8293 530.757 31.0455C546.687 33.2617 565.789 62.2568 573.349 76.4773L582.199 105.288C582.199 105.288 683.68 245.802 722.68 305.5C761.68 365.198 893.576 521.304 893.576 521.304L783.076 687.87L610.076 598.37L131.733 556.974H72.3248Z" fill="#432612"/>
</g>
<defs>
<filter id="filter0_d_430_2179" x="0" y="0" width="923.576" height="716.87" filterUnits="userSpaceOnUse" color-interpolation-filters="sRGB">
<feFlood flood-opacity="0" result="BackgroundImageFix"/>
<feColorMatrix in="SourceAlpha" type="matrix" values="0 0 0 0 0 0 0 0 0 0 0 0 0 0 0 0 0 0 127 0" result="hardAlpha"/>
<feOffset dy="-1"/>
<feGaussianBlur stdDeviation="15"/>
<feComposite in2="hardAlpha" operator="out"/>
<feColorMatrix type="matrix" values="0 0 0 0 1 0 0 0 0 0.705882 0 0 0 0 0.203922 0 0 0 0.7 0"/>
<feBlend mode="normal" in2="BackgroundImageFix" result="effect1_dropShadow_430_2179"/>
<feBlend mode="normal" in="SourceGraphic" in2="effect1_dropShadow_430_2179" result="shape"/>
</filter>
</defs>
</svg>
