<svg width="1082" height="673" viewBox="0 0 1082 673" fill="none" xmlns="http://www.w3.org/2000/svg">
<g filter="url(#filter0_d_430_2180)">
<path d="M668.77 635.698C731.5 635.698 840.97 645.748 880.48 642.808C947.587 637.814 983.083 600.426 1034.5 568.548C1039.44 565.728 1049.75 565.438 1051.5 559.098C1042.93 557.098 1035.26 556.408 1027.2 552.608C1018.73 548.608 1009.54 547.918 1000.3 546.888C978.5 544.438 956.5 543.208 934.68 540.348C913.49 537.568 891.43 534.288 870.78 529.198C850.13 524.108 741.5 474.918 721.17 468.518C716.39 467.018 705.61 467.928 702.17 464.288C700.52 462.518 700.97 458.868 703.36 458.498C702.98 457.098 701.29 456.618 699.94 456.058C698.59 455.498 697.21 453.968 698.05 452.778C698.431 452.343 698.938 452.036 699.5 451.898L709.5 448.378C708.56 446.538 706.34 445.778 704.3 445.498C702.26 445.218 700.09 445.198 698.3 444.178C696.51 443.158 695.35 440.608 696.63 438.988C697.25 438.188 698.31 437.788 698.82 436.908C699.49 435.738 698.89 434.238 698.03 433.208C697.048 432.29 696.151 431.286 695.35 430.208C693.95 427.738 695.11 424.628 694.79 421.798C694.789 421.551 694.737 421.308 694.637 421.082C694.538 420.857 694.392 420.654 694.21 420.488C693.88 420.29 693.491 420.212 693.11 420.268C691.997 420.347 690.948 420.817 690.147 421.593C689.346 422.37 688.845 423.404 688.731 424.514C688.618 425.624 688.899 426.738 689.526 427.661C690.154 428.583 691.086 429.255 692.16 429.558C689.311 431.057 686.647 432.883 684.22 434.998C684.658 438.46 684.742 441.959 684.47 445.438C684.479 446.229 684.238 447.003 683.78 447.648C683.046 448.286 682.09 448.609 681.12 448.548C676.27 448.758 670.35 446.968 669.37 442.218C669.312 441.485 669.108 440.771 668.77 440.118C667.42 438.218 663.1 439.118 663.18 436.788C665.988 437.311 668.827 437.645 671.68 437.788C672.96 437.858 674.68 437.568 674.82 436.298C674.857 435.868 674.748 435.438 674.51 435.078C671.87 430.588 663.63 434.198 660.69 430.178C655.84 423.568 667.99 424.128 671.62 424.278C672.2 421.858 669.8 419.878 667.79 418.418C665.78 416.958 663.67 414.418 664.92 412.278C667.23 412.628 669.17 414.148 671.32 415.078C673.47 416.008 676.32 416.158 677.76 414.278C679.01 412.598 678.38 410.158 677.21 408.428C673.4 402.798 664.49 400.188 664.31 393.428C664.412 391.71 664.724 390.01 665.24 388.368C666.109 384.433 665.831 380.33 664.44 376.548C659.83 379.988 662.44 387.938 658.88 392.438C657.12 394.648 653.76 396.518 654.56 399.228C654.91 400.016 655.339 400.766 655.84 401.468C657.41 404.328 654.73 409.038 651.29 408.568C648.84 408.228 644.22 398.118 642.81 396.098C642.177 395.371 641.798 394.459 641.73 393.498C641.887 392.648 642.199 391.835 642.65 391.098C643.134 389.913 643.222 388.603 642.899 387.365C642.576 386.126 641.861 385.026 640.86 384.228L653.58 381.998C652.191 379.031 649.898 376.581 647.03 374.998C649.16 374.088 648.78 370.768 647.17 369.108C645.56 367.448 643.23 366.618 641.68 364.908C639.68 362.758 639.36 359.658 638.68 356.838C638 354.018 636.42 350.958 633.59 350.308C634.069 351.966 634.117 353.719 633.729 355.401C633.34 357.083 632.528 358.638 631.37 359.918C630.16 361.238 628.61 362.208 627.42 363.528C626.23 364.848 625.42 366.768 626.06 368.428L631.69 370.138C628.664 372.178 626.006 374.718 623.83 377.648C620.98 381.478 628.83 380.838 625.12 384.738C622.676 383.304 620.613 381.303 619.104 378.905C617.596 376.507 616.685 373.781 616.45 370.958C616.461 370.096 616.305 369.24 615.99 368.438C615.763 368.006 615.45 367.624 615.07 367.318C613.47 365.988 611.22 365.808 609.34 364.908C599.86 360.368 617.39 358.278 612.27 354.568C611.64 354.118 610.66 353.648 610.91 352.918C611.16 352.188 612.43 352.458 613.14 352.008C613.85 351.558 613.67 350.188 612.93 349.608C612.123 349.115 611.231 348.776 610.3 348.608C606.64 347.448 604.67 343.608 603.24 340.018C601.88 336.638 600.38 332.578 596.91 331.018C595.98 335.868 594.37 337.198 592.63 341.018C592.04 342.308 590.81 351.018 594.9 349.518C593.217 350.004 591.674 350.885 590.4 352.088C589.24 353.378 588.8 355.508 589.91 356.848C590.69 357.788 592.01 358.138 592.78 359.078C593.95 360.498 593.35 362.778 591.99 364.018C590.582 365.126 588.924 365.871 587.16 366.188C591.96 371.738 579.39 371.738 579.34 367.338C579.412 366.74 579.529 366.148 579.69 365.568C580.05 363.138 577.69 361.278 575.56 360.008C576.36 358.728 577.98 358.298 579.39 357.758C580.8 357.218 582.31 356.188 582.32 354.668C582.33 353.148 580.56 352.018 579.09 351.248C577.62 350.478 576 349.078 576.5 347.498C576.64 347.088 576.91 346.718 577.03 346.298C577.71 343.728 572.54 342.758 572.79 340.108C573.26 335.108 585.34 339.828 580.39 332.528C576.62 326.948 569.91 330.108 570.11 321.358C570.181 318.173 569.62 315.005 568.46 312.038H566.78C566.39 315.218 567.87 319.948 566.6 322.888C565.66 325.068 557.88 328.098 559.5 330.648C560.15 331.648 561.8 331.348 562.77 332.088C565.59 334.268 559.56 336.188 558.7 336.898C558.131 337.313 557.721 337.911 557.539 338.591C557.357 339.272 557.414 339.994 557.7 340.638C558.26 341.638 559.5 342.078 559.87 343.128C560.004 343.686 559.938 344.274 559.684 344.789C559.43 345.304 559.004 345.714 558.48 345.948C557.418 346.39 556.266 346.572 555.12 346.478C553.218 346.606 551.311 346.319 549.53 345.638C545.06 343.518 548.03 338.148 545.2 334.738C546.085 334.293 546.774 333.535 547.132 332.611C547.49 331.688 547.493 330.664 547.14 329.738C546.47 327.818 544.88 326.398 543.68 324.738C540.15 319.958 539.97 313.578 539.94 307.638C537.32 308.318 536.47 311.578 536.32 314.278C536.17 316.978 536 320.138 533.75 321.638C526.38 326.558 539.23 328.458 531.92 333.718C530.647 334.55 529.129 334.922 527.615 334.773C526.102 334.624 524.686 333.962 523.6 332.898C524 333.328 521.24 326.528 521.24 326.598C520.91 324.208 525.35 323.838 525.8 321.458C526.34 318.618 520.99 318.118 520.39 315.288L523.62 312.498C524.035 312.174 524.376 311.765 524.62 311.298C525.2 309.948 523.96 308.468 522.62 307.928C521.28 307.388 519.72 307.368 518.42 306.698C515.69 305.308 515.04 301.768 514.82 298.698C514.6 295.628 514.25 292.158 511.75 290.388C510.75 292.968 511.34 295.838 511.44 298.588C511.54 301.338 510.89 304.528 508.44 305.868L509.6 315.128C509.805 315.931 509.686 316.782 509.27 317.498C508.81 317.963 508.215 318.271 507.57 318.378C504.38 319.258 501.57 321.218 499.75 317.688C498.29 314.838 499.44 308.138 496.94 306.028C496.46 305.638 495.85 305.298 495.69 304.708C495.22 302.958 498.97 301.888 498.1 300.288C494.78 300.048 492.55 296.618 492 293.338C491.45 290.058 492 286.678 491.6 283.338C491.106 279.598 489.341 276.141 486.6 273.548L486.54 282.688C481.34 282.458 478.08 275.218 481.36 271.178L479.28 269.178C482.175 268.578 484.736 266.906 486.45 264.498C481.63 262.198 476.29 259.288 474.93 254.118C473.93 250.428 475.35 246.508 474.93 242.718C474.728 240.965 474.151 239.277 473.238 237.767C472.325 236.257 471.098 234.961 469.64 233.968C467.56 237.698 468.88 242.298 469.52 246.528C469.99 249.648 468.46 260.628 462.77 258.478C461.45 257.968 461.01 256.358 460.77 254.968C461.204 254.96 461.621 254.793 461.94 254.498C462.259 254.203 462.458 253.801 462.5 253.368C462.545 252.497 462.366 251.63 461.98 250.848C461.46 249.528 459.47 246.358 460.63 245.008C461.99 243.418 464.63 245.008 464.94 241.518C464.983 240.155 464.762 238.797 464.29 237.518L463.5 234.858C465.13 234.528 466.09 232.698 466.05 231.028C465.99 228.428 458.32 226.098 457.72 223.628C456.95 220.448 456.72 217.098 455.98 213.888C455.951 213.496 455.839 213.115 455.651 212.77C455.463 212.425 455.203 212.125 454.89 211.888C453.78 211.298 452.56 212.378 451.79 213.358C448.581 217.437 451.61 221.698 448.89 226.118C448.656 226.549 448.352 226.937 447.99 227.268C447.488 227.605 446.934 227.855 446.35 228.008C443.914 228.882 441.894 230.638 440.69 232.928C440.452 233.287 440.356 233.722 440.42 234.148C440.6 234.828 441.42 235.088 442.13 235.088C442.806 235.003 443.493 235.086 444.13 235.328C443.46 237.108 441.89 237.818 440.46 238.908C436.641 241.859 425 239.948 427.5 237.518C428.622 236.427 438.5 224.698 427.5 221.698C428.993 218.303 438.308 216.759 438.5 213.888C438.763 209.964 432.697 207.164 431.57 207.228C429.8 207.328 428.1 206.538 426.34 206.328C423.9 206.038 423.52 207.328 421.99 208.488C421.148 209.232 420.135 209.758 419.041 210.018C417.948 210.278 416.807 210.264 415.72 209.978C409.56 208.428 406.95 199.208 408.1 193.728C408.94 193.118 409.74 194.508 410.56 195.168C411.94 196.268 414.14 194.868 414.49 193.168C414.84 191.468 414.02 189.698 413.3 188.078C411.373 183.741 410.028 179.168 409.3 174.478C409.225 174.217 409.203 173.944 409.233 173.675C409.264 173.406 409.348 173.145 409.48 172.908C410.16 172.028 411.64 172.708 412.65 172.248C413.86 171.698 413.77 169.978 413.49 168.678L410.02 153.298C408.56 146.668 407.07 139.948 403.94 133.928C403.59 133.248 403.04 132.478 402.28 132.568C401.827 132.688 401.432 132.969 401.17 133.358C397.451 137.762 394.644 142.861 392.91 148.358C392.405 149.53 392.348 150.847 392.75 152.058C393.29 153.198 395.07 153.758 395.83 152.758C396.44 153.958 395.58 155.348 394.83 156.458C392.217 160.191 390.174 164.293 388.77 168.628C388.322 169.696 388.204 170.873 388.43 172.008C388.497 172.285 388.618 172.546 388.786 172.777C388.953 173.007 389.165 173.202 389.408 173.351C389.652 173.499 389.922 173.599 390.204 173.643C390.485 173.687 390.773 173.675 391.05 173.608C392.05 175.838 390.7 178.658 388.51 179.738C381.74 141.078 377.58 133.168 375.21 128.408C375.037 128.151 374.927 127.857 374.887 127.55C374.847 127.243 374.879 126.931 374.98 126.638C375.25 126.158 375.85 126.008 376.3 125.688C377.69 124.688 377.3 122.568 376.78 120.948L372.68 108.428C373.68 109.368 375.46 108.708 376.09 107.488C376.596 106.209 376.631 104.791 376.19 103.488C373.35 91.698 363.38 82.928 358.95 71.638C355.215 74.3137 352.43 78.111 351 82.478C350.873 82.7329 350.811 83.0158 350.822 83.3007C350.832 83.5855 350.914 83.8631 351.06 84.108C351.38 84.488 351.97 84.538 352.33 84.888C353.02 85.558 352.45 86.708 351.86 87.458C345.34 95.738 337.6 102.778 331.19 111.218C330.505 111.976 330.03 112.9 329.81 113.898C329.723 114.387 329.813 114.891 330.064 115.32C330.315 115.749 330.711 116.074 331.18 116.238C331.71 116.338 332.36 116.238 332.71 116.608C332.804 116.755 332.865 116.92 332.887 117.093C332.91 117.266 332.894 117.442 332.84 117.608C332.52 119.298 331.4 120.708 330.84 122.318C330.28 123.928 330.36 126.108 331.84 126.888C330.66 129.288 327.3 129.468 324.71 128.888C319.278 127.561 314.525 124.278 311.36 119.668C310.61 118.558 309.95 117.078 310.67 115.948C311.084 115.455 311.554 115.013 312.07 114.628C313.58 113.158 313.37 110.628 312.4 108.758C311.43 106.888 309.86 105.408 308.75 103.618C308.427 103.192 308.274 102.661 308.32 102.128C308.463 101.684 308.718 101.285 309.06 100.968C312.44 97.028 311.29 91.018 309.36 86.198C307.129 80.6381 304.126 75.4202 300.44 70.698C296.34 72.908 293.53 76.898 291.17 80.908C290.22 82.2376 289.697 83.8244 289.67 85.458C289.79 87.078 291.27 88.688 292.85 88.318C287.124 90.8632 282.146 94.8326 278.39 99.848C278.036 100.254 277.797 100.748 277.7 101.278C277.713 101.752 277.886 102.208 278.191 102.571C278.496 102.934 278.915 103.183 279.38 103.278C280.282 103.447 281.21 103.419 282.1 103.198C281.85 103.248 279.6 105.758 278.75 106.148C276.41 107.198 273.8 107.978 271.39 108.938C269.543 109.828 267.538 110.345 265.49 110.458C263.645 110.338 261.84 109.869 260.17 109.078C251.822 105.732 234.4 12.7925 216.5 34.1979C209.899 42.0911 30 300.008 30 396.098C30 492.188 30 596.324 30 635.698H236.02C380.27 635.698 524.52 635.698 668.77 635.698Z" fill="#321F11"/>
</g>
<defs>
<filter id="filter0_d_430_2180" x="0" y="0" width="1081.5" height="672.347" filterUnits="userSpaceOnUse" color-interpolation-filters="sRGB">
<feFlood flood-opacity="0" result="BackgroundImageFix"/>
<feColorMatrix in="SourceAlpha" type="matrix" values="0 0 0 0 0 0 0 0 0 0 0 0 0 0 0 0 0 0 127 0" result="hardAlpha"/>
<feOffset dy="-1"/>
<feGaussianBlur stdDeviation="15"/>
<feComposite in2="hardAlpha" operator="out"/>
<feColorMatrix type="matrix" values="0 0 0 0 1 0 0 0 0 0.705882 0 0 0 0 0.203922 0 0 0 0.7 0"/>
<feBlend mode="normal" in2="BackgroundImageFix" result="effect1_dropShadow_430_2180"/>
<feBlend mode="normal" in="SourceGraphic" in2="effect1_dropShadow_430_2180" result="shape"/>
</filter>
</defs>
</svg>
