<svg width="824" height="625" viewBox="0 0 824 625" fill="none" xmlns="http://www.w3.org/2000/svg">
<g filter="url(#filter0_d_430_2176)">
<path d="M269.861 406.992C268.549 405.748 267.144 404.471 266.569 402.755C266.265 401.62 266.116 400.449 266.124 399.274C265.806 394.384 264.059 389.697 261.101 385.792C257.989 386.83 258.855 391.315 259.138 394.574C259.241 396.666 259.085 398.763 258.675 400.817C256.284 415.971 253.155 420.061 243.632 431.888C235.318 442.222 227.98 453.327 218.774 462.967C202.857 479.638 204.203 494.684 184 505.773C164.457 516.501 170 517.773 142.5 521.273C115 524.773 116.12 523.629 105.525 527.78C96.4651 531.33 35.0058 582.872 30 592.631C40.5259 597.648 64.3377 595.152 64.3377 595.152C250.321 591.337 776.997 595.152 776.997 595.152C776.997 595.152 790.388 388.92 794 279.273C766 211.429 687.128 81.3526 670.478 55.2699C631.558 -5.69749 624.355 66.6762 592 72.7729C559.645 78.8697 513.223 181.107 482.275 221.908C451.327 262.71 387.883 283.842 337.525 334.594C331.653 340.511 325.799 346.601 321.959 354.027C321.642 354.628 315.496 368.152 314.022 367.208C311.159 365.39 305.981 366.471 305.296 363.152C304.893 361.231 306.641 359.636 307.867 358.127C309.093 356.617 309.65 353.839 307.816 353.101C307.082 352.967 306.341 352.881 305.596 352.844C303.881 352.424 303.29 350.322 303.024 348.556L301.516 339.234H299.047C296.904 348.298 302.519 358.41 298.567 366.84C297.47 369.181 295.841 372.337 297.89 373.915C298.884 374.687 300.616 374.858 300.761 376.11C301.336 381.101 289.755 384.454 286.455 381.427C281.595 376.976 288.384 372.397 286.053 367.706C285.024 365.613 282.35 365.133 281.038 363.306C279.135 360.614 278.715 355.914 277.207 352.861C276.898 352.226 276.461 351.515 275.758 351.437C275.055 351.36 274.43 352.012 274.044 352.655C270.847 358.367 275.81 366.136 272.664 371.882C271.858 373.366 270.572 374.558 269.895 376.102C269.218 377.645 269.484 379.849 271.044 380.475C271.545 380.594 272.031 380.77 272.492 380.998C274.481 382.413 270.341 385.063 270.778 387.465C270.922 387.979 271.16 388.462 271.481 388.888C276.075 396.203 270.992 406.4 264.624 410.911C261.84 412.9 259.188 415.068 256.686 417.403M225.117 471.216L218.989 473.566C221.972 467.615 228.572 463.798 233.56 459.631C238.969 455.085 241.618 447.976 246.503 443.019C246.289 443.243 246.143 443.523 246.084 443.827C246.025 444.132 246.054 444.446 246.169 444.734L256.669 432.291C254.826 435.532 253.052 438.817 251.269 442.093L250.129 444.185L246.315 451.226C245.321 453.053 243.126 455.78 243.109 457.795C244.823 457.632 246.315 456.08 247.789 455.274C249.765 454.082 251.965 453.311 254.252 453.01L246.666 462.015C245.621 463.25 244.498 464.587 242.955 465.05C241.412 465.514 239.449 465.119 237.812 465.788C236.175 466.457 235.163 468.275 234.615 470.016C228.369 489.835 230.297 481.91 225.117 471.216ZM323.339 390.097C323.283 390.335 323.215 390.57 323.133 390.801C322.787 392.016 322.18 393.142 321.356 394.1C320.532 395.058 319.509 395.826 318.359 396.349C315.333 398.013 312.916 400.569 310.019 402.438C308.167 403.63 306.59 403.587 304.37 403.905C299.095 404.645 293.974 406.235 289.207 408.613C293.592 403.663 298.73 399.434 304.43 396.083L303.401 397.919C306.101 397.061 308.904 396.203 310.936 394.197C312.479 392.679 313.43 390.672 314.664 388.888C316.984 385.579 320.268 383.067 324.067 381.693C322.357 383.071 321.098 384.928 320.45 387.027C321.153 386.17 322.696 386.581 323.236 387.568C323.611 388.374 323.672 389.291 323.407 390.14L323.339 390.097ZM296.767 469.227C293.467 472.469 285.35 487.048 279.675 484.389C280.155 483.085 279.915 481.688 278.175 481.816C275.672 481.953 273.435 483.308 271.087 484.183C268.738 485.058 265.841 485.367 263.972 483.703C270.77 481.319 277.104 478.686 281.578 473.112C285.761 467.906 290.51 464.287 295.97 460.54C301.602 456.673 307.483 453.183 313.576 450.094C312.875 450.538 312.306 451.164 311.93 451.904C311.761 452.28 311.747 452.709 311.892 453.096C312.036 453.482 312.327 453.797 312.702 453.97C313.02 454.043 313.351 454.043 313.67 453.97L324.47 452.453C317.862 458.173 308.733 460.068 301.61 465.128C299.918 466.384 298.324 467.769 296.844 469.27L296.767 469.227ZM304.481 419.71C303.719 422.008 299.424 424.907 297.547 426.451C296.176 427.585 294.717 428.609 293.184 429.512C292.327 429.992 289.198 430.961 288.804 431.682L292.138 425.516C288.298 426.528 284.99 429.032 282.298 431.948C281.381 432.934 274.627 442.993 274.061 442.839C273.758 442.716 273.494 442.515 273.295 442.255C273.096 441.996 272.97 441.688 272.93 441.364C272.857 440.715 272.748 440.071 272.604 439.434C272.582 439.332 272.539 439.235 272.479 439.15C272.418 439.064 272.341 438.992 272.252 438.937C272.08 438.881 271.894 438.881 271.721 438.937C270.208 439.333 268.818 440.099 267.675 441.167C266.381 442.196 265.104 443.251 263.844 444.314C264.701 437.676 270.444 435.095 275.355 431.45C280.652 427.505 285.924 423.518 290.784 419.058C296.39 413.913 304.79 407.909 312.359 405.817C308.645 409.086 305.292 412.743 302.356 416.725C303.881 416.4 305.004 418.338 304.533 419.753L304.481 419.71Z" fill="#321F11"/>
</g>
<defs>
<filter id="filter0_d_430_2176" x="0" y="0" width="824" height="624.773" filterUnits="userSpaceOnUse" color-interpolation-filters="sRGB">
<feFlood flood-opacity="0" result="BackgroundImageFix"/>
<feColorMatrix in="SourceAlpha" type="matrix" values="0 0 0 0 0 0 0 0 0 0 0 0 0 0 0 0 0 0 127 0" result="hardAlpha"/>
<feOffset dy="-1"/>
<feGaussianBlur stdDeviation="15"/>
<feComposite in2="hardAlpha" operator="out"/>
<feColorMatrix type="matrix" values="0 0 0 0 1 0 0 0 0 0.705882 0 0 0 0 0.203922 0 0 0 0.7 0"/>
<feBlend mode="normal" in2="BackgroundImageFix" result="effect1_dropShadow_430_2176"/>
<feBlend mode="normal" in="SourceGraphic" in2="effect1_dropShadow_430_2176" result="shape"/>
</filter>
</defs>
</svg>
