<svg width="954" height="649" viewBox="0 0 954 649" fill="none" xmlns="http://www.w3.org/2000/svg">
<g filter="url(#filter0_d_430_2116)">
<path d="M196.431 305.996C196.38 288.457 336.94 98.0514 355.966 89.1636H364.237C378.599 63.6633 389.675 31 423.468 31C457.261 31 484.717 66.9058 540.898 156.037C557.372 197.856 584.474 215.441 595.457 231.282L657.746 321.443C664.784 331.598 671.66 342.998 681.68 350.458L703.781 367.011C705.314 368.258 707 369.309 708.799 370.127C710.625 370.77 712.518 371.184 714.442 371.394C740.742 375.525 765.081 389.707 786.734 404.686C793.053 409.062 799.533 413.429 805.574 418.177C807.517 419.78 809.37 421.465 811.124 423.272C813.802 425.908 816.531 428.431 820.308 429.952C824.388 431.583 828.756 432.144 832.98 433.226C844.284 436.149 849.226 444.134 857.97 450.36C865.447 455.674 874.258 464.271 883.044 467.152C888.654 468.985 922 467.152 924 476.5C907 482 887.528 491.089 877.849 494.609C870.009 498.242 861.02 501.249 854.151 506.437C847.013 511.827 840.381 518.077 833.622 523.941C820.054 535.684 806.621 547.661 792.977 559.345C761.011 586.73 737.065 621.301 690.753 619.962C571.723 616.686 452.559 618.378 333.494 618.378L30 619.962C30 598.748 196.481 327.21 196.431 305.996Z" fill="#593315"/>
</g>
<defs>
<filter id="filter0_d_430_2116" x="0" y="0" width="954" height="649" filterUnits="userSpaceOnUse" color-interpolation-filters="sRGB">
<feFlood flood-opacity="0" result="BackgroundImageFix"/>
<feColorMatrix in="SourceAlpha" type="matrix" values="0 0 0 0 0 0 0 0 0 0 0 0 0 0 0 0 0 0 127 0" result="hardAlpha"/>
<feOffset dy="-1"/>
<feGaussianBlur stdDeviation="15"/>
<feComposite in2="hardAlpha" operator="out"/>
<feColorMatrix type="matrix" values="0 0 0 0 1 0 0 0 0 0.705882 0 0 0 0 0.203922 0 0 0 0.7 0"/>
<feBlend mode="normal" in2="BackgroundImageFix" result="effect1_dropShadow_430_2116"/>
<feBlend mode="normal" in="SourceGraphic" in2="effect1_dropShadow_430_2116" result="shape"/>
</filter>
</defs>
</svg>
