<svg width="1459" height="813" viewBox="0 0 1459 813" fill="none" xmlns="http://www.w3.org/2000/svg">
<g filter="url(#filter0_d_430_2184)">
<path fill-rule="evenodd" clip-rule="evenodd" d="M1322.03 598.396C1339.02 594.241 1398.7 579.643 1421.53 613.708C1440.34 641.773 1439.52 664.766 1437.63 717.901C1436.91 738.209 1436.03 762.92 1436.03 794H925.808C924.151 794 923.03 792.651 923.053 790.994C923.136 785.271 923.454 779.6 924.003 774H22.3925C19.6898 774 19.1281 771.072 21.4759 769.733C78.146 737.415 371.96 725.026 436.032 725.026C455.109 725.026 465.31 718.751 476.323 711.977C489.237 704.033 503.266 695.404 534.032 695.404C542.608 695.404 551.361 695.567 559.861 695.725C587.041 696.232 611.629 696.69 619.542 691.61C615.632 693.31 611.672 689.48 609.112 686.07C591.562 662.74 573.552 638.31 568.112 609.65C598.977 618.58 625.05 642.389 637.265 672.043C634.523 662.439 633.446 652.41 634.106 642.391C634.998 628.85 639.041 615.703 645.912 604C660.48 624.167 667.676 648.729 666.292 673.57C672.742 650.62 686.712 627.34 709.532 620.47C702.396 637.245 697.098 654.744 693.732 672.66C694.421 668.778 812.558 662.221 869.746 659.047C887.248 658.075 899.042 657.421 900.012 657.256C905.818 656.288 911.204 656.733 916.709 657.189C919.045 657.382 921.402 657.577 923.822 657.666C924.822 657.696 928.346 657.279 932.413 656.798C939.317 655.982 947.784 654.98 948.112 655.666C945.39 649.988 941.681 644.602 938.02 639.286C936.394 636.926 934.778 634.579 933.262 632.226C941.675 634.958 949.551 639.126 956.542 644.546C955.469 639.52 953.588 634.701 950.972 630.276L962.622 641.776C962.635 637.937 961.862 634.136 960.35 630.607C958.838 627.078 956.62 623.896 953.832 621.256C961.116 626.634 967.108 633.569 971.372 641.556C971.242 639.586 971.112 637.656 970.992 635.656C973.192 639.403 975.398 643.15 977.612 646.896C976.732 645.406 978.532 641.396 979.262 640.156C983.382 649.346 989.592 644.856 991.762 636.856L991.76 636.758C991.74 635.397 991.664 630.348 988.673 620.416C964.017 620.674 959.858 617.812 955.651 614.916C954.315 613.996 952.974 613.074 950.972 612.246C944.417 609.539 934.022 610.088 925.016 610.564C922.602 610.691 920.287 610.814 918.173 610.866C914.383 610.961 911.715 610.148 909.384 609.438C905.566 608.274 902.65 607.385 897.173 611.21C895.143 612.59 892.383 614.06 890.383 612.59L889.923 610.96C888.043 612.52 884.953 611.58 883.693 609.52C883.136 608.446 882.873 607.245 882.929 606.037C882.985 604.829 883.359 603.657 884.013 602.64C885.342 600.605 887.113 598.896 889.193 597.64C891.261 596.398 893.216 594.976 895.033 593.39C893.483 593.31 891.363 592.48 891.823 591C892.003 590.6 892.286 590.255 892.643 590C899.691 579.066 916.964 581.896 931.285 584.243C940.091 585.685 947.781 586.945 951.292 584.71C951.706 584.443 952.541 582.266 953.156 580.661C953.461 579.866 953.712 579.212 953.832 579C955.112 576.73 930.422 565.226 930.422 565.226C930.422 565.226 923.062 560.596 919.232 559.046C918.114 558.618 916.806 558.469 915.491 558.318C913.734 558.118 911.965 557.916 910.622 557.046C908.922 555.936 908.162 553.226 909.622 551.786C908.539 552.015 907.419 552.004 906.341 551.753C905.263 551.503 904.253 551.019 903.382 550.336C903.296 550.26 903.195 550.172 903.082 550.074C901.028 548.288 894.895 542.956 898.173 534.766C900.292 529.473 902.889 529.675 905.465 529.876C907.094 530.003 908.714 530.129 910.202 528.866C911.122 528.086 912.002 526.876 911.512 525.766C911.222 525.111 910.592 524.787 909.953 524.459C909.509 524.231 909.062 524.001 908.722 523.656C907.222 522.156 908.382 519.636 909.622 517.916C918.225 506.053 930.234 511.215 941.489 516.053C944.873 517.507 948.188 518.932 951.322 519.856C962.301 523.128 973.796 524.315 985.212 523.356C987.322 519.636 982.012 516.186 977.852 515.186L955.712 509.706C954.334 509.364 952.83 509.176 951.308 508.986C948.609 508.649 945.85 508.304 943.632 507.076C941.904 506.117 940.746 504.59 939.593 503.069C938.57 501.72 937.551 500.376 936.142 499.436C935.252 498.856 934.19 498.487 933.141 498.123C931.336 497.497 929.57 496.884 928.792 495.226C928.047 493.648 928.598 491.844 929.116 490.146C929.176 489.952 929.235 489.758 929.292 489.566C929.842 487.706 930.002 485.326 928.432 484.176C927.631 483.592 926.586 483.491 925.557 483.39C924.35 483.273 923.166 483.158 922.432 482.266C921.562 481.216 921.832 479.656 922.212 478.356C923.212 474.904 924.658 471.596 926.512 468.516C926.857 467.944 927.22 467.371 927.584 466.795C929.424 463.888 931.312 460.905 931.312 457.566C931.315 456.446 931.111 455.304 930.909 454.17C930.544 452.126 930.183 450.107 931.052 448.286C931.57 447.266 932.422 446.454 933.467 445.986C934.512 445.518 935.685 445.423 936.792 445.716C938.831 446.316 940.19 447.396 941.424 448.376C943.542 450.059 945.292 451.449 949.482 449.616C956.832 446.416 963.422 447.486 968.832 453.416C969.453 454.091 970.224 455.36 971.116 456.826C974.07 461.687 978.336 468.704 982.762 463.326C984.262 461.496 984.322 458.816 983.562 456.566C982.616 453.809 980.637 451.525 978.042 450.196C976.522 449.599 975.042 448.904 973.612 448.116C972.374 447.264 971.45 446.041 970.525 444.818C970.224 444.42 969.923 444.022 969.612 443.636C966.003 439.204 960.873 436.273 955.222 435.416C953.782 435.211 952.219 435.428 950.662 435.644C948.511 435.943 946.373 436.24 944.592 435.416C943.528 434.902 942.63 434.101 941.999 433.102C941.368 432.103 941.029 430.948 941.022 429.766C938.522 430.056 937.022 426.716 937.742 424.296C938.176 422.836 939.055 421.582 939.937 420.326C940.516 419.501 941.096 418.674 941.552 417.786C940.932 416.346 941.822 414.656 943.042 413.666C943.707 413.127 944.458 412.715 945.209 412.303C945.836 411.959 946.464 411.615 947.042 411.196C947.383 411.001 947.636 410.682 947.752 410.306C947.77 409.825 947.614 409.352 947.312 408.976C945.462 405.676 948.132 400.276 952.012 401.166C953.57 401.527 954.718 403.106 955.917 404.756C957.15 406.452 958.437 408.223 960.282 408.826C962.438 409.531 964.658 408.941 966.908 408.343C968.455 407.932 970.017 407.516 971.582 407.516C973.708 407.535 975.804 408.604 977.851 409.648C981.417 411.467 984.835 413.211 988.012 409.196C992.452 403.576 987.262 396.776 981.702 394.906C980.208 394.398 977.958 394.16 975.49 393.898C969.844 393.299 963.054 392.578 961.552 388.236C961.328 387.437 961.263 386.601 961.362 385.776C961.692 380.186 962.262 374.596 963.072 369.056C963.144 367.797 963.563 366.583 964.282 365.546C964.657 365.046 965.211 364.711 965.828 364.61C966.445 364.509 967.077 364.651 967.592 365.006C968.06 365.433 968.243 366.042 968.43 366.657C968.562 367.094 968.695 367.535 968.932 367.916C970.278 370.104 974.156 369.872 977.156 369.693C978.188 369.631 979.116 369.575 979.802 369.626C983.338 369.887 986.101 372.492 988.72 374.961C989.019 375.242 989.316 375.522 989.612 375.796C992.502 378.476 996.492 380.976 1000.16 379.536C1002.84 378.486 1004.4 375.566 1004.67 372.706C1005.47 364.265 1001.19 362.806 995.328 360.809C994.268 360.447 993.155 360.068 992.012 359.626C989.595 358.689 990.119 356.78 990.762 354.441C990.962 353.713 991.174 352.942 991.312 352.146C991.581 351.005 992.059 349.924 992.722 348.956L996.492 342.686C997.122 341.626 997.752 340.256 997.002 339.256C996.768 338.972 996.475 338.743 996.142 338.586C992.413 336.543 987.887 337.638 983.706 338.65C983.446 338.713 983.188 338.775 982.932 338.836C982.763 338.877 982.577 338.923 982.377 338.973C979.354 339.72 973.014 341.287 970.932 339.176C969.182 337.41 969.888 335.092 970.519 333.02C971.024 331.361 971.481 329.86 970.592 328.926C969.547 327.83 967.967 328.165 966.362 328.505C964.234 328.956 962.059 329.416 961.022 326.566C960.766 325.689 960.724 324.763 960.898 323.865C961.071 322.968 961.457 322.125 962.022 321.406C967.242 314.106 978.062 310.376 985.302 317.106C987.264 318.906 989.606 320.241 992.154 321.013C994.702 321.785 997.391 321.974 1000.02 321.566C1000.97 321.488 1001.87 321.141 1002.63 320.566C1003.42 319.762 1003.88 318.691 1003.91 317.566C1004.33 313.036 1001.39 308.756 997.682 306.116C997.165 305.762 996.618 305.307 996.047 304.832C994.504 303.549 992.782 302.116 991.002 302.116C990.466 302.123 989.922 302.179 989.379 302.236C988.178 302.361 986.977 302.486 985.862 302.066C985.08 301.75 984.422 301.189 983.984 300.469C983.546 299.748 983.353 298.906 983.432 298.066C983.443 297.966 983.458 297.864 983.474 297.76C983.549 297.245 983.628 296.708 983.312 296.316C983.047 296.048 982.689 295.89 982.312 295.876C980.929 295.766 979.626 296.305 978.323 296.844C977.732 297.088 977.141 297.332 976.542 297.516C974.622 298.106 971.952 297.716 971.472 295.716C971.404 295.103 971.47 294.483 971.665 293.898C971.86 293.312 972.18 292.776 972.602 292.326C974.792 289.436 977.592 287.065 980.804 285.381C984.015 283.698 987.559 282.743 991.182 282.586C993.081 282.659 994.984 282.545 996.862 282.246C1000.43 281.406 1003.18 278.466 1004.78 275.146C1006.34 271.909 1006.85 268.311 1007.34 264.769L1007.38 264.496C1007.53 263.446 1007.62 262.226 1006.86 261.496C1006.93 261.562 1004.05 262.297 1000.7 263.156C996.366 264.267 991.225 265.584 990.622 265.916C989.132 266.736 986.962 267.366 985.962 265.976C985.222 264.936 985.742 263.506 986.282 262.346L982.592 262.856C982.821 261.051 983.487 259.328 984.533 257.838C985.578 256.349 986.972 255.136 988.592 254.306C991.131 253.02 993.773 252.702 996.239 252.406C1000.46 251.898 1004.17 251.452 1005.96 246.306C1006.64 244.276 1008.55 243.106 1010.44 241.953C1010.96 241.636 1011.47 241.319 1011.96 240.986C1012.21 240.869 1012.42 240.699 1012.6 240.488C1012.77 240.277 1012.89 240.031 1012.96 239.766C1012.96 238.876 1011.81 238.366 1010.96 238.656C1010.17 239.055 1009.43 239.567 1008.78 240.176C1008.45 240.476 1008.03 240.655 1007.58 240.686C1007.14 240.716 1006.69 240.597 1006.32 240.346C1005.34 239.396 1006.44 237.836 1007.44 236.886C1009.61 234.786 1015.06 227.636 1010.9 224.786C1009.33 223.709 1007.41 224.666 1005.52 225.608C1003.41 226.66 1001.34 227.692 999.832 225.856C998.982 224.806 999.272 223.276 999.682 221.996C1002.25 214.176 1006.79 205.576 1010.68 198.306C1011.14 197.449 1011.6 196.394 1012.1 195.263C1013.73 191.542 1015.73 187.006 1019.1 186.016C1021.66 185.495 1022.9 197.504 1023.62 204.542C1023.87 206.947 1024.06 208.771 1024.22 209.316C1025.18 211.23 1026.09 213.143 1026.99 215.049C1029.06 219.416 1031.12 223.744 1033.7 227.956C1034.64 229.251 1035.26 230.743 1035.53 232.316C1035.93 236.709 1033.62 235.69 1031.11 234.586C1029.51 233.88 1027.83 233.14 1026.73 233.756C1023.32 235.676 1024.89 243.646 1025.89 246.356C1026.93 249.154 1028.78 251.578 1031.21 253.319C1033.63 255.059 1036.52 256.037 1039.5 256.126C1040.51 256.033 1041.53 256.138 1042.5 256.436C1043.47 256.943 1044.28 257.712 1044.84 258.656C1045 258.881 1045.17 259.114 1045.34 259.354C1048.03 263.139 1052.02 268.725 1051.45 273.426C1051.41 274.034 1051.15 274.606 1050.72 275.037C1050.29 275.467 1049.72 275.727 1049.11 275.766C1046.27 275.623 1043.6 274.177 1040.88 272.712C1037.73 271.007 1034.53 269.278 1030.97 269.546C1017.44 270.576 1032 278.896 1036.15 280.456C1038.79 281.442 1041.5 282.23 1044.21 283.018C1047.23 283.893 1050.24 284.769 1053.15 285.916C1055.61 286.876 1058.2 287.976 1059.7 290.156C1061.2 292.336 1060.91 295.926 1058.49 296.986C1057.78 297.299 1057 297.355 1056.21 297.411C1055.45 297.465 1054.68 297.519 1053.98 297.816C1053.48 298.077 1053.04 298.453 1052.71 298.914C1052.37 299.375 1052.15 299.909 1052.06 300.471C1051.97 301.033 1052.02 301.608 1052.2 302.149C1052.37 302.69 1052.67 303.183 1053.07 303.586C1053.52 303.978 1054.06 304.244 1054.61 304.509C1055.27 304.833 1055.93 305.156 1056.41 305.706C1057.45 306.901 1057.24 308.55 1057.03 310.222C1056.83 311.769 1056.63 313.337 1057.41 314.586C1058.41 316.176 1060.54 316.526 1062.41 316.726L1076.96 318.266C1081.02 318.69 1085.18 319.155 1088.89 320.79C1089.44 320.444 1090.01 320.131 1090.58 319.818C1091.4 319.366 1092.22 318.914 1092.98 318.364C1093.43 318.106 1093.76 317.688 1093.92 317.194C1093.94 316.56 1093.73 315.939 1093.34 315.445C1090.91 311.107 1094.42 304.008 1099.51 305.178C1101.56 305.651 1103.07 307.727 1104.64 309.897C1106.26 312.127 1107.95 314.455 1110.38 315.248C1113.21 316.175 1116.13 315.399 1119.08 314.613C1121.11 314.072 1123.17 313.526 1125.22 313.526C1128.01 313.55 1130.77 314.955 1133.46 316.328C1138.14 318.72 1142.63 321.013 1146.81 315.734C1152.64 308.346 1145.82 299.407 1138.52 296.948C1136.55 296.281 1133.6 295.967 1130.36 295.622C1122.94 294.835 1114.02 293.888 1112.04 288.18C1111.75 287.129 1111.67 286.03 1111.8 284.946C1112.23 277.597 1112.98 270.248 1114.04 262.965C1114.14 261.31 1114.69 259.713 1115.63 258.351C1116.12 257.694 1116.85 257.252 1117.66 257.12C1118.47 256.988 1119.3 257.174 1119.98 257.641C1120.59 258.202 1120.84 259.002 1121.08 259.811C1121.25 260.386 1121.43 260.965 1121.74 261.467C1123.51 264.343 1128.6 264.038 1132.54 263.802C1133.9 263.72 1135.12 263.647 1136.02 263.715C1140.67 264.057 1144.3 267.482 1147.74 270.727C1148.13 271.098 1148.52 271.465 1148.91 271.826C1152.7 275.349 1157.95 277.321 1162.77 275.428C1166.29 274.048 1168.34 270.209 1168.69 266.449C1169.68 255.993 1164.74 254.523 1157.73 252.433C1155.95 251.904 1154.04 251.334 1152.06 250.568C1148.77 249.292 1149.63 245.828 1150.51 242.26C1150.74 241.308 1150.98 240.348 1151.14 239.42C1151.49 237.92 1152.12 236.498 1152.99 235.227L1157.95 226.984C1158.77 225.591 1159.6 223.79 1158.62 222.475C1158.31 222.101 1157.92 221.8 1157.49 221.594C1152.59 218.908 1146.64 220.348 1141.15 221.677C1140.81 221.76 1140.47 221.842 1140.13 221.923C1139.91 221.977 1139.67 222.037 1139.4 222.102C1135.43 223.084 1127.1 225.144 1124.37 222.37C1122.07 220.048 1123 217 1123.83 214.276C1124.49 212.096 1125.09 210.122 1123.92 208.895C1122.55 207.453 1120.47 207.893 1118.36 208.34C1115.57 208.933 1112.71 209.539 1111.35 205.792C1111.01 204.639 1110.96 203.421 1111.19 202.242C1111.41 201.062 1111.92 199.954 1112.66 199.009C1119.52 189.412 1133.73 184.509 1143.25 193.356C1145.82 195.721 1148.9 197.476 1152.25 198.491C1155.59 199.506 1159.13 199.755 1162.58 199.219C1163.83 199.116 1165.02 198.66 1166.01 197.905C1167.05 196.847 1167.65 195.439 1167.69 193.961C1168.24 188.005 1164.38 182.379 1159.51 178.908C1158.83 178.443 1158.11 177.844 1157.36 177.219C1155.33 175.532 1153.07 173.65 1150.73 173.65C1150.03 173.658 1149.32 173.732 1148.6 173.807C1147.02 173.972 1145.45 174.136 1143.98 173.584C1142.95 173.168 1142.09 172.431 1141.51 171.484C1140.94 170.536 1140.68 169.429 1140.79 168.325C1140.8 168.194 1140.82 168.059 1140.84 167.923C1140.94 167.245 1141.05 166.539 1140.63 166.025C1140.28 165.671 1139.81 165.465 1139.32 165.446C1137.5 165.302 1135.79 166.01 1134.08 166.718C1133.3 167.039 1132.52 167.36 1131.74 167.602C1129.21 168.378 1125.71 167.865 1125.08 165.236C1124.99 164.43 1125.07 163.614 1125.33 162.845C1125.59 162.076 1126.01 161.371 1126.56 160.78C1129.44 156.98 1133.12 153.862 1137.34 151.649C1141.56 149.436 1146.21 148.181 1150.97 147.975C1153.47 148.071 1155.96 147.921 1158.43 147.528C1163.12 146.424 1166.73 142.559 1168.84 138.194C1170.89 133.939 1171.55 129.208 1172.2 124.551L1172.25 124.193C1172.45 122.813 1172.57 121.209 1171.57 120.25C1171.65 120.336 1167.88 121.303 1163.48 122.431C1157.78 123.892 1151.03 125.623 1150.23 126.06C1148.28 127.138 1145.43 127.966 1144.11 126.139C1143.14 124.772 1143.82 122.892 1144.53 121.367L1139.69 122.037C1139.99 119.664 1140.86 117.399 1142.24 115.441C1143.61 113.482 1145.44 111.888 1147.57 110.797C1150.9 109.106 1154.37 108.689 1157.61 108.299C1163.16 107.631 1168.03 107.045 1170.39 100.28C1171.28 97.6114 1173.79 96.0732 1176.27 94.5579C1176.95 94.1402 1177.63 93.7241 1178.27 93.2866C1178.59 93.1319 1178.88 92.9081 1179.1 92.631C1179.33 92.3538 1179.49 92.0301 1179.58 91.6828C1179.58 90.5128 1178.07 89.8423 1176.95 90.2235C1175.91 90.7474 1174.94 91.4205 1174.09 92.2218C1173.65 92.615 1173.1 92.8507 1172.51 92.8912C1171.93 92.9317 1171.35 92.7747 1170.86 92.4453C1169.57 91.1964 1171.02 89.1455 1172.33 87.8966C1175.18 85.1359 1182.34 75.7364 1176.88 71.9897C1174.81 70.573 1172.29 71.8316 1169.8 73.0701C1167.03 74.4521 1164.31 75.809 1162.33 73.3963C1161.22 72.016 1161.6 70.0046 1162.14 68.3219C1165.51 58.0415 1171.48 46.7357 1176.59 37.1784C1177.19 36.051 1177.8 34.6638 1178.45 33.1777C1180.6 28.2862 1183.21 22.3223 1187.65 21.0216C1191.01 20.3358 1192.64 36.1237 1193.59 45.3755C1193.92 48.5374 1194.16 50.9358 1194.37 51.6524C1195.63 54.1679 1196.82 56.6821 1198.01 59.1867C1200.74 64.9284 1203.43 70.6192 1206.83 76.157C1208.06 77.8592 1208.88 79.8198 1209.23 81.8888C1209.76 87.6636 1206.72 86.3235 1203.43 84.8723C1201.32 83.9448 1199.12 82.972 1197.67 83.7819C1193.19 86.306 1195.25 96.7835 1196.57 100.346C1197.93 104.024 1200.36 107.211 1203.55 109.499C1206.73 111.787 1210.53 113.072 1214.45 113.19C1215.78 113.067 1217.11 113.205 1218.39 113.598C1219.67 114.264 1220.73 115.275 1221.46 116.516C1221.67 116.811 1221.89 117.117 1222.11 117.432C1225.66 122.408 1230.89 129.752 1230.15 135.933C1230.09 136.732 1229.75 137.484 1229.19 138.05C1228.62 138.616 1227.87 138.957 1227.07 139.009C1223.34 138.821 1219.83 136.919 1216.26 134.993C1212.12 132.753 1207.91 130.479 1203.24 130.832C1185.47 132.186 1204.6 143.124 1210.05 145.175C1213.51 146.47 1217.07 147.506 1220.64 148.542C1224.6 149.693 1228.56 150.845 1232.38 152.353C1235.61 153.615 1239.01 155.061 1240.98 157.927C1242.96 160.793 1242.57 165.512 1239.4 166.906C1238.46 167.317 1237.43 167.39 1236.4 167.463C1235.39 167.535 1234.39 167.606 1233.47 167.997C1232.81 168.339 1232.23 168.834 1231.79 169.44C1231.36 170.046 1231.07 170.747 1230.95 171.486C1230.83 172.225 1230.89 172.981 1231.12 173.693C1231.35 174.404 1231.75 175.052 1232.27 175.582C1232.87 176.097 1233.58 176.446 1234.29 176.795C1235.16 177.221 1236.03 177.646 1236.66 178.369C1238.03 179.94 1237.75 182.107 1237.47 184.306C1237.21 186.34 1236.95 188.401 1237.98 190.043C1239.29 192.133 1242.09 192.593 1244.54 192.856L1263.66 194.881C1269.57 195.499 1275.64 196.182 1280.89 198.956C1284.96 201.183 1288.29 204.536 1290.49 208.613C1292.69 212.69 1293.67 217.316 1293.31 221.936C1290.01 225.025 1284.63 223.737 1280.82 221.344C1279.79 220.701 1278.79 219.988 1277.79 219.275C1275.08 217.337 1272.36 215.398 1269.12 214.85C1265.85 214.245 1262.53 215.218 1259.36 216.165C1256.95 216.861 1254.46 217.716 1252.79 219.491C1251.13 221.265 1250.75 224.499 1252.65 226.064C1253.8 227.019 1255.29 227.105 1256.75 227.19C1257.14 227.212 1257.53 227.235 1257.91 227.273C1260.48 227.532 1262.89 228.526 1265.3 229.518C1266.08 229.839 1266.86 230.159 1267.64 230.455C1278.85 234.688 1291.51 236.857 1303.33 238.842C1304.26 238.937 1305.15 239.219 1305.96 239.67C1306.74 240.3 1307.28 241.166 1307.52 242.137C1307.76 243.108 1307.67 244.13 1307.27 245.047C1306.77 246.107 1303.85 247.094 1301.22 247.982C1299.38 248.601 1297.69 249.172 1297.05 249.688C1298.37 250.799 1299.24 252.349 1299.5 254.051C1299.76 255.752 1299.39 257.491 1298.47 258.945C1297.55 260.399 1296.13 261.47 1294.48 261.96C1292.84 262.451 1291.06 262.327 1289.5 261.611C1288.23 264.135 1285.06 265.2 1282.25 264.911C1279.46 264.425 1276.77 263.478 1274.29 262.111C1269.23 259.77 1263.95 257.951 1258.52 256.681C1256.24 256.002 1253.83 255.84 1251.48 256.208C1250.31 256.404 1249.21 256.929 1248.32 257.722C1247.43 258.516 1246.79 259.545 1246.46 260.691C1245.99 263.018 1247.89 265.739 1250.26 265.503C1250.57 267.593 1250.37 269.728 1249.68 271.727C1249 273.726 1247.84 275.531 1246.32 276.992C1244.53 278.688 1242.04 281.12 1243.56 283.053C1243.95 283.435 1244.41 283.73 1244.93 283.918C1245.44 284.106 1245.98 284.183 1246.53 284.144C1249.78 284.247 1253.03 283.516 1256.26 282.79C1261.27 281.661 1266.23 280.545 1271.08 282.593C1275.74 284.557 1280.67 286.308 1285.66 288.079C1296.63 291.974 1307.87 295.966 1317.06 302.536C1318.09 303.176 1318.96 304.044 1319.61 305.073C1320.01 306.088 1320.36 307.123 1320.65 308.175C1321.44 310.131 1323.19 311.398 1324.94 312.671C1326.56 313.852 1328.2 315.039 1329.08 316.786C1331.2 321.006 1327.77 326.067 1323.83 328.618C1320.7 330.574 1317.16 331.772 1313.49 332.114C1309.81 332.457 1306.11 331.935 1302.68 330.59C1301.12 329.964 1299.64 329.174 1298.16 328.382C1296.9 327.709 1295.64 327.036 1294.33 326.462C1287.28 323.525 1279.37 323.389 1272.22 326.081C1271.03 326.52 1269.83 327.032 1268.63 327.546C1264.75 329.203 1260.84 330.875 1256.83 330.143C1260.11 330.773 1263.45 331.273 1266.78 331.77C1270.11 332.269 1273.42 332.765 1276.66 333.39C1277.98 333.64 1293.39 339.135 1292.43 340.042C1294.22 338.359 1296.59 336.558 1298.85 337.334C1301.11 338.109 1301.89 341.186 1301.11 343.473C1300.35 345.73 1298.34 347.36 1296.47 348.88L1296.4 348.942L1282.47 360.182C1279.12 362.877 1275.19 365.756 1270.95 365.007C1269.04 364.671 1267.38 363.602 1265.72 362.54C1265.04 362.104 1264.36 361.669 1263.67 361.286C1253.19 355.265 1236.71 360.445 1234.09 373C1231.46 385.695 1239.64 386.728 1248.42 387.836C1252.18 388.311 1256.05 388.799 1259.23 390.221L1309.15 412.491C1310.57 412.915 1311.78 413.853 1312.54 415.12C1312.84 416.288 1312.9 417.505 1312.71 418.696C1312.62 422.876 1315.47 426.505 1318.55 429.344C1319.22 429.968 1319.92 430.577 1320.61 431.186C1323.09 433.353 1325.58 435.527 1327.14 438.389C1329.13 442.057 1328.96 447.381 1325.46 449.642C1323.06 451.189 1319.97 450.902 1316.94 450.622C1313.43 450.297 1310.02 449.98 1307.9 452.534C1306.87 453.82 1306.58 455.843 1306.28 457.977C1305.88 460.859 1305.45 463.943 1303.08 465.681C1298.54 469.02 1290.58 466.509 1286.64 463.367C1282.9 468.888 1275.1 470.019 1268.45 469.178C1266.3 468.905 1264.16 468.482 1262.02 468.058C1257.55 467.174 1253.08 466.291 1248.58 466.798C1241.92 467.547 1234.98 472.832 1235.69 479.497C1239.2 477.979 1242.17 480.822 1245.18 483.706C1246.45 484.918 1247.73 486.137 1249.05 487.043C1252.91 489.673 1257.94 489.673 1262.62 489.673C1282.12 489.581 1301.57 491.316 1320.99 493.051L1336.18 494.366C1341.61 494.852 1347.45 495.536 1351.39 499.361C1356.01 503.897 1356.17 511.193 1355.83 517.661C1355.63 521.447 1355.26 525.496 1352.86 528.415C1348.72 533.476 1340.9 532.779 1334.64 531.044C1334.28 530.946 1333.93 530.846 1333.57 530.746C1327.58 529.072 1321.04 527.241 1315.68 530.255C1314.42 531.165 1313.05 531.911 1311.61 532.477C1309.5 533.047 1307.3 532.225 1305.25 531.458L1305.16 531.425C1295.95 527.98 1286.27 525.971 1276.45 525.47C1269.47 525.062 1261.45 526.022 1257.27 531.635C1251.82 538.971 1263.16 546.99 1269.22 548.305C1271.73 548.82 1274.31 549.029 1276.89 549.237C1281.16 549.583 1285.42 549.927 1289.3 551.657C1290.4 552.147 1291.44 552.742 1292.48 553.336C1294.48 554.479 1296.48 555.619 1298.89 556.009C1301.8 556.478 1304.69 555.623 1307.55 554.777C1308.3 554.557 1309.04 554.337 1309.78 554.142C1316.82 552.416 1324.21 552.779 1331.04 555.186C1337.88 557.593 1343.87 561.94 1348.27 567.696C1349.04 568.541 1349.51 569.619 1349.59 570.759C1349.48 573.546 1345.79 574.387 1343.02 574.387L1305.91 574.571C1303.32 574.398 1300.73 574.798 1298.31 575.741C1296 576.872 1294.14 579.422 1294.69 581.946C1295.42 585.268 1299.23 586.338 1302.66 587.3C1303.13 587.43 1303.59 587.559 1304.03 587.691C1306.98 588.585 1309.72 590.084 1312.06 592.094C1312.97 592.876 1313.4 594.171 1313.82 595.453C1314.48 597.466 1315.13 599.447 1317.64 599.365C1318.14 599.349 1319.68 598.973 1322.03 598.396ZM1081.61 333.553C1081.45 333.517 1081.29 333.484 1081.12 333.456C1078.63 332.996 1076.1 333.736 1073.69 334.456C1071.85 334.986 1069.96 335.636 1068.69 336.986C1067.42 338.336 1067.13 340.796 1068.58 341.986C1069.46 342.713 1070.59 342.778 1071.7 342.843C1072 342.86 1072.29 342.877 1072.58 342.906C1074.54 343.103 1076.38 343.859 1078.21 344.614C1078.8 344.858 1079.4 345.102 1079.99 345.326C1082.12 346.13 1084.32 346.836 1086.56 347.467C1086.49 347.367 1086.42 347.265 1086.36 347.161C1085.53 345.848 1085.08 344.329 1085.07 342.776C1081.79 343.158 1079.82 338.767 1080.77 335.585C1080.98 334.875 1081.27 334.203 1081.61 333.553ZM1099.16 350.313C1101.85 350.813 1104.53 351.266 1107.16 351.706C1107.86 351.779 1108.54 351.993 1109.16 352.336C1109.75 352.815 1110.17 353.474 1110.35 354.213C1110.53 354.952 1110.46 355.729 1110.16 356.426C1109.78 357.233 1107.55 357.983 1105.55 358.659C1104.15 359.13 1102.87 359.564 1102.38 359.956C1103.38 360.802 1104.04 361.981 1104.24 363.275C1104.42 364.465 1104.2 365.68 1103.62 366.727C1110.31 365.854 1116.38 368.131 1121.61 373.867C1122.42 374.754 1123.44 376.423 1124.61 378.35C1128.49 384.74 1134.09 393.965 1139.91 386.895C1141.88 384.489 1141.96 380.966 1140.96 378.008C1139.72 374.383 1137.12 371.381 1133.71 369.634C1131.71 368.848 1129.77 367.935 1127.89 366.9C1126.26 365.779 1125.05 364.171 1123.83 362.563C1123.44 362.04 1123.04 361.517 1122.63 361.01C1117.89 355.183 1111.15 351.33 1103.73 350.204C1102.28 349.996 1100.73 350.117 1099.16 350.313ZM1073.31 365.337C1073.22 365.316 1073.14 365.296 1073.05 365.276C1071.31 364.76 1069.48 364.637 1067.69 364.916C1066.8 365.065 1065.96 365.465 1065.29 366.068C1064.61 366.672 1064.12 367.455 1063.87 368.326C1063.51 370.096 1064.96 372.166 1066.76 371.986C1067 373.577 1066.85 375.2 1066.32 376.721C1065.8 378.241 1064.92 379.615 1063.76 380.726C1062.4 382.016 1060.5 383.866 1061.66 385.336C1061.96 385.627 1062.31 385.851 1062.7 385.994C1063.09 386.137 1063.51 386.196 1063.92 386.166C1066.4 386.245 1068.87 385.689 1071.33 385.136C1071.66 385.061 1071.99 384.987 1072.32 384.913C1072.34 383.562 1072.34 382.255 1072.33 381.054C1072.32 380.447 1072.32 379.867 1072.32 379.323C1072.32 377.85 1072.06 376.349 1071.79 374.859C1071.31 372.171 1070.84 369.516 1071.98 367.123C1072.32 366.451 1072.77 365.848 1073.31 365.337ZM1074.07 421.258C1073.3 421.321 1072.53 421.297 1071.76 421.156C1072.54 421.305 1073.32 421.444 1074.1 421.577C1074.09 421.47 1074.08 421.363 1074.07 421.258ZM1089.9 445.08C1087.68 446.738 1085.18 448.147 1082.51 447.676C1081.06 447.421 1079.79 446.608 1078.53 445.8C1078.01 445.469 1077.5 445.138 1076.97 444.846C1068.99 440.266 1056.45 444.206 1054.45 453.756C1052.63 462.525 1057.6 463.979 1063.53 464.804C1071.76 459.175 1085.62 457.377 1098.61 461.211C1113.03 465.511 1128.13 467.072 1143.13 465.812C1145.9 460.922 1138.92 456.386 1133.46 455.072L1104.37 447.867C1102.56 447.417 1100.59 447.17 1098.59 446.92C1095.59 446.546 1092.54 446.164 1089.9 445.08ZM1065.62 525.092C1065.57 525.096 1065.53 525.101 1065.48 525.106C1060.41 525.676 1055.13 529.696 1055.67 534.766C1058.34 533.612 1060.6 535.774 1062.9 537.968C1063.86 538.89 1064.83 539.817 1065.84 540.506C1068.78 542.506 1072.61 542.506 1076.17 542.506C1083.99 542.47 1091.8 542.819 1099.61 543.35C1100.07 542.293 1100.59 540.956 1101.02 539.833C1101.42 538.787 1101.75 537.927 1101.9 537.648C1103.58 534.664 1084.55 531.635 1084.55 531.635C1084.55 531.635 1073.05 527.759 1065.62 525.092ZM1077.96 585.881C1079.11 586.475 1080.24 586.9 1081.19 587.106C1083.1 587.498 1085.07 587.657 1087.03 587.816C1090.29 588.079 1093.53 588.341 1096.48 589.656C1097.32 590.029 1098.11 590.481 1098.9 590.933C1100.43 591.803 1101.95 592.67 1103.78 592.966C1106 593.323 1108.2 592.673 1110.37 592.03C1110.94 591.862 1111.51 591.695 1112.07 591.546C1114.58 590.933 1117.14 590.667 1119.69 590.744C1110.83 589.363 1107.57 587.121 1104.29 584.864C1102.54 583.655 1100.78 582.442 1098.15 581.355C1092.05 578.835 1086.4 581.666 1080.31 584.717C1079.54 585.105 1078.75 585.497 1077.96 585.881ZM1124.89 591.385C1126.03 591.633 1127.15 591.952 1128.26 592.341C1133.46 594.172 1138.02 597.478 1141.37 601.856C1141.96 602.499 1142.31 603.32 1142.37 604.186C1142.29 606.306 1139.48 606.946 1137.37 606.946L1116.42 607.05C1119.66 611.032 1122.51 615.329 1124.95 619.886L1124.87 618.696C1124.72 616.515 1124.58 614.355 1124.45 612.13C1127.34 617.055 1130.24 621.981 1133.14 626.906C1131.99 624.948 1134.35 619.676 1135.31 618.046C1140.72 630.127 1148.88 624.225 1151.73 613.708L1151.73 613.577C1151.7 611.788 1151.6 605.151 1147.67 592.094C1137.86 592.197 1130.51 591.923 1124.89 591.385ZM1111.1 607.077L1109.12 607.086C1107.15 606.955 1105.18 607.259 1103.34 607.976C1102.87 608.208 1102.42 608.519 1102.02 608.886L1113.16 619.89C1113.26 619.965 1113.35 620.042 1113.45 620.119C1113.46 615.661 1112.66 611.243 1111.1 607.077ZM1103.09 615.533C1102.45 613.765 1101.73 612.027 1100.93 610.323C1100.56 611.062 1100.4 611.881 1100.58 612.696C1100.88 614.05 1101.85 614.912 1103.09 615.533ZM1101.16 418.749C1101.86 419.087 1102.54 419.452 1103.22 419.817C1103.56 419.995 1103.89 420.172 1104.22 420.346C1103.17 419.898 1102.15 419.35 1101.16 418.749ZM1120.2 421.324C1121.09 420.952 1121.94 420.508 1122.76 419.996C1125.76 418.056 1128.37 414.206 1126.76 410.996C1126.09 409.667 1124.85 408.765 1123.61 407.866C1123.57 407.836 1123.52 407.805 1123.48 407.775C1125.95 408.721 1128.48 409.384 1131.01 410.051C1133.36 410.667 1135.71 411.286 1138.06 412.136C1139.86 412.791 1141.49 413.67 1143.12 414.545C1145.77 415.971 1148.39 417.387 1151.71 417.802C1153.24 417.993 1154.78 417.689 1156.32 417.386C1157.95 417.064 1159.58 416.743 1161.19 417.013C1164.32 417.539 1167.57 419.209 1168.6 422.206C1170.1 426.61 1165.76 431.224 1161.16 431.855C1155.35 432.655 1151.17 430.388 1146.73 427.979C1145.47 427.297 1144.19 426.604 1142.85 425.966C1136.39 423.176 1129.47 421.616 1122.44 421.365C1121.71 421.322 1120.96 421.312 1120.2 421.324ZM953.952 554.036C956.702 554.016 959.842 553.846 961.702 551.786C968.653 544.072 956.393 537.825 947.703 533.397C944.43 531.729 941.664 530.319 940.622 529.186C940.261 528.795 939.914 528.387 939.567 527.98C938.469 526.692 937.371 525.404 935.852 524.606C931.642 522.346 926.552 524.836 922.452 527.286C921.662 527.756 920.792 528.326 920.582 529.226C920.312 530.426 921.362 531.536 922.502 532.006C923.022 532.221 923.57 532.354 924.117 532.487C924.766 532.646 925.414 532.803 926.012 533.096C927.186 533.67 928.017 534.679 928.855 535.696C929.552 536.542 930.254 537.394 931.162 538.006C931.691 538.372 932.294 538.66 932.893 538.946C934.081 539.513 935.253 540.073 935.812 541.216C936.171 542.309 936.32 543.459 936.252 544.606C936.542 548.286 939.582 551.276 943.022 552.656C946.462 554.036 950.262 554.036 953.952 554.036ZM988.837 495.257C991.899 497.188 994.902 499.081 998.942 498.526C1002.44 498.046 1005.74 494.536 1004.6 491.186C1003.82 488.906 1001.34 487.636 998.962 487.236C997.68 487.021 996.381 487.009 995.08 486.996C993.965 486.986 992.849 486.975 991.742 486.836C989.219 486.52 987.22 485.444 985.204 484.359C983.967 483.694 982.725 483.025 981.352 482.526C979.569 481.88 977.775 481.409 975.99 480.94C973.799 480.365 971.623 479.794 969.502 478.906C967.633 478.121 965.59 477.705 963.542 477.287C961.052 476.78 958.556 476.271 956.362 475.096C955.398 474.574 954.662 473.854 953.964 473.171C952.431 471.672 951.079 470.35 947.892 471.676C945.142 472.816 943.322 475.566 942.482 478.426C942.294 478.878 942.206 479.364 942.223 479.852C942.24 480.341 942.363 480.82 942.582 481.256C943.152 481.913 943.921 482.366 944.772 482.546C946.955 483.298 948.845 484.593 950.717 485.877C952.608 487.173 954.481 488.458 956.622 489.156C959.145 489.983 962.038 489.812 964.859 489.646C966.442 489.552 968.002 489.46 969.462 489.546C974.814 489.737 980.084 490.924 985.002 493.046C986.339 493.682 987.593 494.472 988.837 495.257ZM603.542 649.29C599.992 642.296 594.72 636.322 588.222 631.93V631.94C590.238 633.299 592.174 637.585 593.858 641.316C594.764 643.322 595.597 645.167 596.332 646.31C599.557 651.488 603.048 656.494 606.792 661.31C607.579 662.319 608.511 663.599 609.558 665.034C614.763 672.172 622.78 683.167 629.632 684L614.952 657L612.502 659L605.002 644.85L603.542 649.29ZM647.512 646.58L645.002 643.35V643.36C645.61 645.294 646.224 649.234 646.928 653.755C648.461 663.584 650.421 676.164 653.682 676.87C653.975 675.638 653.996 672.027 654.019 668.006C654.056 661.748 654.098 654.494 655.182 653.66L652.352 655.84C652.164 644.06 650.274 632.369 646.742 621.13C646.513 629.621 646.77 638.118 647.512 646.58ZM676.892 668.78L675.892 663.84C676.044 664.59 675.511 666.522 674.881 668.808C673.438 674.046 671.481 681.148 676.062 680.18C678.119 679.773 682.248 671.206 685.095 665.299C686.234 662.937 687.167 661 687.682 660.18C687.253 660.121 686.816 660.156 686.402 660.282C685.987 660.408 685.605 660.622 685.282 660.91C688.612 653.121 691.113 645.003 692.742 636.69C685.112 645.94 680.892 657.49 676.892 668.78Z" fill="#22160E"/>
</g>
<defs>
<filter id="filter0_d_430_2184" x="0" y="0" width="1458.57" height="813" filterUnits="userSpaceOnUse" color-interpolation-filters="sRGB">
<feFlood flood-opacity="0" result="BackgroundImageFix"/>
<feColorMatrix in="SourceAlpha" type="matrix" values="0 0 0 0 0 0 0 0 0 0 0 0 0 0 0 0 0 0 127 0" result="hardAlpha"/>
<feOffset dy="-1"/>
<feGaussianBlur stdDeviation="10"/>
<feComposite in2="hardAlpha" operator="out"/>
<feColorMatrix type="matrix" values="0 0 0 0 1 0 0 0 0 0.705882 0 0 0 0 0.203922 0 0 0 0.6 0"/>
<feBlend mode="normal" in2="BackgroundImageFix" result="effect1_dropShadow_430_2184"/>
<feBlend mode="normal" in="SourceGraphic" in2="effect1_dropShadow_430_2184" result="shape"/>
</filter>
</defs>
</svg>
