<svg id="Layer_1" data-name="Layer 1" xmlns="http://www.w3.org/2000/svg" viewBox="0 0 935.81 766.9"><defs><style>.cls-1{fill:#0b0b0b;}</style></defs><path class="cls-1" d="M372.56,627.6s8.27-3.3,22.32-7.43c3.42-3.4,5.54-9.13,8.12-12.88.38-.55.78-1.08,1.17-1.63-7.47,2.35-12.05,4-12.05,4s-32.69-1.58-66.17-2.9c20.81-2.87,35.71-9.4,43.09-21.76-14.9,9.72-52.44,9.11-73.53,6.33,11.22-1,22.22-6.07,30.86-9.89-9.6,2.84-22.33-5.6-33.9-15,2,.47,4,1,6,1.58-8.2-3.34-16-8.25-20.08-16.08,15.91,6.5,30.47,6.57,47.34,7.08-4.7-.69-11-6.71-16.34-10,18.35,6.42,31.49-16.55,31.49-16.55-32.55.56-64.82-23.62-64.82-23.62,25.44,4.29,48.9,2.53,53.13-7.86-6.16,6.69-18.46-9.56-27.83-5.85a26.81,26.81,0,0,0,11.75-13.65c-9.2.81-17.8,4.51-27.28,4.2,8.15-3.74,13-13.22,15.16-21-1.3-.07-2.61-.22-3.92-.39-10.71,1.68-21.58,4.78-32.38,4.27,6.14-.67,11.5-5.18,15-10-26.5,5.47-33.93,0-37.7-2.21l8,.24c14.91.51,27.37,1.12,38.1,1.89a13.06,13.06,0,0,1-1.05-8.42,9.9,9.9,0,0,1,5-6.52q-7.56-.39-14.81-.68a36.64,36.64,0,0,1-9.46-3.85,77.56,77.56,0,0,0,25.41,2.93c-.24.47-.47.9-.71,1.33a13,13,0,0,1,3.42-1.11,9.6,9.6,0,0,1,4-4.95c1.84-1.07,5.05-1.77,7.11-.93.88.36,1.75.77,2.6,1.21a29.38,29.38,0,0,1-1.93-11.27,17.26,17.26,0,0,1-2.1-1.07l-.17-.11a1.29,1.29,0,0,0-.16-.09l-.35-.26a40.55,40.55,0,0,1-3.73-2.89l-1.28-1a26.77,26.77,0,0,1-4.42-5.93c-17.29,1.84-38,1.41-46-5.52,6,0,12.12-.39,17.5-2a77.23,77.23,0,0,1-15.27-1.44c1.36-1.17,2.72-2.4,4.07-3.79-5.6.2-11.2.11-16.8.16l-.34-.13c3.2-.43,5.94-2,8.58-3.76,5.72.53,11.55.87,17.46,1.33a280.73,280.73,0,0,0-31.75-12.8c23.73,4.08,38.65,7.72,61.89,4.09.22-.56.43-1.11.68-1.64-10.92-1.77-20.7-3.85-29.32-8.21,15,.32,25.93-5.33,34.76-11.07-9.72,4.15-25.17,4.88-37.45,3.63A61.7,61.7,0,0,1,254,372a17.52,17.52,0,0,0,6.42-3.85A54.31,54.31,0,0,1,246,369.54a113,113,0,0,0-12-3.42l-.66-.46c7.32.13,14.65,0,22,.1-9.68-1-20.22-3-27.51-6.74a20.27,20.27,0,0,1-1-2.65q3.09,0,6.16-.19c10.19,3.08,20.69.48,32.43.69-4-1.38-7.48-4.29-11-5.94,10.23.51,20-3.23,30.12-3.95a110.5,110.5,0,0,1-13-4.21c17.84-11.47,29.26-23.89,34.1-45.11-10,9.52-21.33,10.69-35.48,13.29,5.58-3.11,9.59-10.48,10.17-16.1-9.78,5.09-26.6,14.09-38.23,12-8.21-1.5-15.83-10.33-21.33-16,4.73-.18,9.54-.14,14.3,0-4.71-1.32-8-4.54-12.24-6.21,10,5.26,26.76-1.93,36.6-5.08-2.41-1.65-5.27-5-7.27-6.69,8.17.09,20.5-1.53,24-9.89-4.45,3.59-12.11,3.52-17.43,2,10.56-9.74,35.4-29.79,28.18-45.46-15.36,8-29.09,16.25-47.42,14.83,8.88-3.45,11.14-14.56,17.53-21-12.49,3.6-29,3.26-32.17-10.8,5.71.18,10.93-1.33,16.41-2.1-5-2.36-10.15-5.2-14.11-8.93,18.87-1.74,37.7-17.6,40.57-36-13.5,8.34-21.07,12.27-37.62,10.51,4.35-2,10.53-4.08,14.26-7.88-6.18,1-12.65-2.16-18.22-4,8.81-1.38,16-6.74,23.65-10.13-14.75,6.18-21.55,2.74-35.26-4,5.25.28,10-1.66,15.16-1.91-4.75-.79-9.14-2.72-13.94-3,7.11-.34,13.95-3.67,20.32-6.12-9.8,3.23-42.51-9.86-26.41-17.76-.57-.7-1.12-1.42-1.67-2.13a145.06,145.06,0,0,0,20-3.95c4.67-1.17,9.45-3.15,14.19-3.82-13.25,1.49-23.16-4.48-34.75-9.66,6.61-.53,13.34-1.52,20-1.78-8.6-3.67-17.81-6.32-25.71-11.42,3.13-1.48,8.09-1.17,11.52-1.58,2.66-.33,5.32-.74,8-1.09-6-.84-12.23-1.19-18.18-2.44A59.92,59.92,0,0,0,211.84,72a18.65,18.65,0,0,0-7.24-2.21,91,91,0,0,1,15.56-1c-3.85-1.67-7.94-2.59-11.94-3.83,0-1.52.13-2.95.19-4.34a32.63,32.63,0,0,0,5.6-.47c-1-3-5.23-6.28-6.94-9.31-1.16-2.06-2-4.21-3-6.33-1.33-4.23-2.41-8.53-3.58-12.78-1.9-6.94-4.43-13.69-6.19-20.66,1.65,4.77-.73,22.24-3.37,34.93A30.56,30.56,0,0,1,179.57,57.4c2.6.54,5.28,1.05,7.92,1.41-.12.24-.24.53-.34.69.11.07.2.2.31.28-3.55,1.91-8.46,2.62-11.87,3.77,4.09.2,9.13.12,12.83.79-2.59,1.29-5.76,2.15-8.53,3.29a17.7,17.7,0,0,0,10.28,1.26c-9.64,4.21-12.27,14.24-30,15.18,2.38.6,11.25,2.86,14.93.43-.38,4.3-9.48,5.16-14.59,5.82,4.37,1.71,7.73,4.51,13.31,4.48-6.51,2.39-8,3.62-15.39,2.12,1.07.87,1.88,2.71,3.32,3.69-5.55.42-11.83,1.26-17.14.51,5.68,9.09,25.66,8.17,39.68,7.86-3.93,2.15-7.81,4.35-12,6.23,4.44-.34,8.93-.61,13.36-.73-1.16,7-26.47,7.1-33.21,8.44,4.34,1.11,8.41,2.74,13.24,3.3-10,5.32-11.81,6-23.58,6.77,3.25,1.15,6.07,2.88,9.84,3.33-8.1.19-15.85,3-23.89,1.92,4,12,20.2,12.9,35.25,12.43-2.32,2.2-6.75,2.91-10.23,4.41,5.2-.54,9.81,1.09,14.51-.07-5.82,6.12-17.86,8.94-26.94,7.51,4.92.27,9.62,2.94,15.41,2.51-5.77,5.05-18,8-26.13,7,16.64,5.33,21.66,1,37-2-1,6.49-5.36,10-12.78,10.1,3,.73,7.08,1.12,10.42,1.79-7.56,4.82-27.75,1.33-36-.48,3.64,3.47,2.75,9.4,8,11.54s-20.36,3.69-15.67,5.63c-5.85,3.13-13.84,3.61-20.1,2.33,4.76,3.52,20,8.29,20,8.29A11.75,11.75,0,0,1,108.64,215c4.09,2.45,13.71,1.13,18.47,3-4.81.48-.72.71-6.17,1.28,4.43.11,7.86,4.08,29.52-2.45-2.82,3.92-12.3,10.3-17.73,10.82,4.91,3.27,15.58,3.11,13.06,3.89,8.62-.68,8.89,3,12.81,5-5.65,9-33.86,18.56-44.45,19.18a36.16,36.16,0,0,1,8.5,5.29c-9.08,2.81-19.54,1.43-28.89,2.21,8.76,10.9,16.49,16.57,30.23,18.92-5.36,3.77-12.17,6.23-18.59,8.09,3.43-.31,16-.66,22.52-1-1.28,5-4.15,10.64-9.4,13.59,6.86-2.74,21.36,9.17,26.71,4.13-.17,4.12-2.48,8.09-4.46,12,4.92-3.19,10.64-4.82,15.67-7.71,6.09-3.5,10.73-9.42,16.44-12.53,0,2.84.47,5.86-.21,8.71,4.32-3.66,8.81-7.23,12.53-11.28-9.65,17-25.69,25.15-48.36,29.81,2.58.4,5.75,2.28,8.62,2.7-30.13,20.56-47.9,16.2-55.56,11.92,7.68,12.26,20.56,16.14,32.84,19.08-7.77,3-18,6.22-26.42,5.87,9.75,5.23,13.34,1.72,25,3.41-3.13,6.42-18.92,15.28-18.92,15.28s16.27,7.51,39.58-.23c9.95-3.64,18.92-5.13,27.05-11.81.08.82.27,1.63.39,2.44-9.72,9.26-20.81,17.29-33.35,17.3A135.53,135.53,0,0,0,157,393.21c-6.89,5.45-20,8.14-31.76,9.35,7.83-.05,15.66.05,23.48-.11-12,2.2-19,6.75-31.66,8-12.28,1.25-27.73.52-37.45-3.63,8.84,5.74,19.78,11.39,34.76,11.07-9.82,5-21.12,7-33.94,8.94,26.4,5.09,41.7,1.2,67.2-3.18a279.23,279.23,0,0,0-31.75,12.8c14.36-1.12,28.28-1.44,41.17-5.8a68.77,68.77,0,0,1-23.43,10.93c-19.69,1.63-44.27,4.27-67.05,6.89-.77-.19-1.56-.39-2.24-.59l1.54.67c-12.38,1.43-24.2,2.86-34.38,4.11a24.89,24.89,0,0,1-3.34-1.76c.41.69.87,1.35,1.34,2-18.36,2.27-30.93,3.91-30.93,3.91s13.16-.22,33.85-.49c9.09,9.13,24.92,13.2,46,14.29-6.11,1.48-13.56,1.41-20,2.39,15.12,6,37.06,8.06,54.32,2.73-10.36,6.5-31.4,6.54-42.19,12.05,13.05.47,22.43,3.87,36.47,2.58,13.74-1.26,25.13-5.4,37.65-8-.1,6-18.33,10.9-26.88,13.28,12.24.74,23.33-1.12,35.31-2.1-15.74,3.21-26.38,10.54-44.49,10.23,6.92,4.21,20.55,2.07,30,1.31-17.74,4.79-42.26,9.75-60.95,4.62,8.92,4.9,24.88,7.26,37.49,7-9.34,4.47-19.47,6.17-29.34,9.66,4.25.94,9.57.83,14.77.69-18.36,3.27-51.11,10.86-70,4.68,8,3.55,16.26,7.53,25.27,9.76,12.34,3,26.78,1.85,39.38,2.22-11.26,2.65-21,3.13-32.95,2.87,21.4,5.19,55.47,15.9,74.05,1-2.56,5.63-11.1,7.06-17.84,10.44,9.71.55,9.52,4.33,10.55,4.5-15.58,12.13-27,3.51-60.7,5.38,0,0,27.38,14.47,37.39,14.3C84.4,594,63.68,578.57,34,577.91c8.84,3.35,9.5,21.38,20.2,20.73C39.63,609.63,39.54,615,16,614c18.14,5.4,39.68,10.47,58.83,5.07l-2,.94c-23.34,3.1-39.73,6.19-39.73,6.19s8.49-.28,23.23-.32c19.6,4.77,45,10.91,64.46,2.56-1.23,3.14-5.2,5.63-9.49,7.29,12.25-1.91,26.5-3.43,37.92-7.28q4.94.28,10,.61a18.59,18.59,0,0,1-5.32,2.62,51.58,51.58,0,0,0,9.39-2.36q7,.46,14.29,1l2,.14v50.71c-4.8-.23-9.67-.31-14.65-.2-35.88.78-149,35-149,35s80.92-9.36,139.23-10.85C85.73,718.64,47.67,735.41,47.67,735.41s126.14-31.16,172.21-24.25,132.74,4.89,132.74,4.89-65.95-7.74-93.25-17.52c-16.51-5.92-34.45-11.35-54-14.57V631.88c2.78.1,5.51.17,8.2.23a111.63,111.63,0,0,0,38.23,6c-10.55,3.67-17.44,6.7-17.44,6.7ZM297.34,418.21c0,.14-.08.28-.13.41-.16.5-.38,1.05-.6,1.6-2.33-.21-4.56-.45-6.58-.72A46.63,46.63,0,0,0,297.34,418.21Zm-253.23,38c12.57-.15,27.07-.31,42.61-.44,1.26.23,2.53.42,3.81.53C78.08,457.94,58.89,458.68,44.11,456.21Z" transform="translate(1.41 -11.1)"/><path class="cls-1" d="M528.05,652.73s6.92-2.57,18.64-5.71c2.91-2.74,4.79-7.46,7-10.5.32-.46.67-.89,1-1.33-6.24,1.79-10.06,3.08-10.06,3.08s-27.07-2-54.8-3.74c17.31-2,29.79-7.07,36.16-17.16-12.54,7.75-43.65,6.47-61.07,3.75,9.32-.63,18.54-4.58,25.78-7.58-8,2.16-18.39-5.09-27.79-13.15,1.65.43,3.3.89,4.95,1.43-6.72-2.93-13.11-7.16-16.31-13.73,13.06,5.7,25.12,6.06,39.09,6.83-3.88-.67-9-5.79-13.34-8.6,15.08,5.7,26.44-13.07,26.44-13.07-27-.2-53.25-20.9-53.25-20.9,21,4.07,40.48,3.09,44.2-5.44-5.25,5.43-15.11-8.29-22.95-5.41a22.28,22.28,0,0,0,10-11.08c-7.65.49-14.84,3.38-22.7,2.93,6.83-2.93,11-10.69,13-17.11-1.08-.08-2.15-.24-3.23-.41-8.92,1.18-18,3.53-26.94,2.89,5.11-.44,9.65-4.06,12.62-8-22.07,4-28.12-.65-31.19-2.59l6.63.36c12.35.73,22.66,1.49,31.54,2.34a10.88,10.88,0,0,1-.7-7,8.21,8.21,0,0,1,4.27-5.3q-6.26-.48-12.26-.86a30.2,30.2,0,0,1-7.76-3.39,64.34,64.34,0,0,0,21,2.95c-.21.38-.41.73-.62,1.09a10.87,10.87,0,0,1,2.86-.86,8,8,0,0,1,3.44-4c1.54-.85,4.22-1.36,5.91-.62.72.31,1.43.67,2.14,1a24,24,0,0,1-1.38-9.38,13.43,13.43,0,0,1-1.71-.93.71.71,0,0,1-.14-.1l-.14-.07-.28-.22a33.72,33.72,0,0,1-3-2.47l-1-.84a22.38,22.38,0,0,1-3.55-5c-14.37,1.18-31.49.4-38-5.51A50.72,50.72,0,0,0,445,468a64.33,64.33,0,0,1-12.63-1.5c1.15-.94,2.3-1.94,3.45-3.06-4.64.05-9.29-.14-13.93-.21l-.27-.11a17.08,17.08,0,0,0,7.18-2.94c4.73.55,9.56.95,14.44,1.45a234.5,234.5,0,0,0-26.05-11.25c19.58,3.86,31.88,7.18,51.22,4.65.19-.46.37-.92.6-1.35-9-1.69-17.08-3.61-24.15-7.4,12.42.57,21.6-3.89,29.05-8.47-8.15,3.24-21,3.53-31.12,2.25a51.24,51.24,0,0,1-7.83-1.64,14.6,14.6,0,0,0,5.4-3.06,45.28,45.28,0,0,1-12,.9,92.33,92.33,0,0,0-9.87-3.08c-.18-.12-.36-.26-.53-.39,6.06.25,12.14.34,18.21.52-8-1-16.7-2.91-22.66-6.14a17.42,17.42,0,0,1-.81-2.21c1.71,0,3.42,0,5.12,0,8.38,2.76,17.13.82,26.86,1.23-3.3-1.23-6.11-3.71-9-5.14,8.47.63,16.68-2.27,25-2.66a93.7,93.7,0,0,1-10.68-3.76c15-9.15,24.75-19.21,29.19-36.69-8.46,7.68-17.9,8.43-29.68,10.29,4.69-2.46,8.16-8.49,8.76-13.14-8.21,4-22.34,11.14-31.94,9.14-6.77-1.41-12.9-8.89-17.34-13.7,3.92-.05,7.9.08,11.85.26-3.88-1.19-6.51-3.92-10-5.4,8.2,4.57,22.22-1.05,30.45-3.47-2-1.41-4.27-4.26-5.89-5.68,6.76.23,17-.86,20.09-7.72-3.76,2.89-10.11,2.68-14.49,1.28,9-7.86,30-24,24.28-37.1C452.41,319,440.86,325.53,425.7,324c7.43-2.68,9.53-11.84,14.95-17.05-10.42,2.73-24.11,2.11-26.44-9.61,4.73.27,9.09-.88,13.64-1.4a45.1,45.1,0,0,1-11.51-7.7c15.68-1.05,31.6-13.82,34.36-29-11.36,6.63-17.71,9.74-31.39,7.94,3.64-1.53,8.8-3.17,12-6.24-5.14.73-10.43-2.05-15-3.67,7.34-1,13.38-5.26,19.81-7.92-12.35,4.83-17.92,1.84-29.14-4,4.35.34,8.35-1.18,12.6-1.28-3.92-.74-7.52-2.43-11.49-2.78,5.9-.14,11.63-2.76,17-4.66-8.19,2.47-35-9-21.53-15.26-.46-.59-.9-1.2-1.35-1.8a120.63,120.63,0,0,0,16.63-2.87c3.89-.87,7.9-2.42,11.84-2.87-11,1-19.11-4.19-28.61-8.72,5.49-.3,11.09-1,16.61-1.07-7.05-3.21-14.64-5.59-21.08-10,2.63-1.16,6.73-.8,9.58-1.07,2.22-.22,4.42-.5,6.64-.74-5-.82-10.12-1.24-15-2.39a50.81,50.81,0,0,0,7.41-.87,15.62,15.62,0,0,0-5.95-2,75.25,75.25,0,0,1,12.91-.47,93.44,93.44,0,0,0-9.82-3.42c.06-1.27.17-2.44.24-3.6a26.2,26.2,0,0,0,4.66-.27c-.78-2.53-4.21-5.31-5.56-7.86-.92-1.73-1.61-3.53-2.36-5.31-1-3.53-1.82-7.12-2.7-10.66-1.44-5.79-3.39-11.44-4.71-17.25,1.27,4-1.06,18.42-3.5,28.88a25.39,25.39,0,0,1-9.66,9.19c2.14.5,4.36,1,6.53,1.33a5.94,5.94,0,0,1-.29.57c.09.06.16.17.25.23-3,1.52-7.06,2-9.92,2.89,3.39.25,7.57.28,10.63.92-2.18,1-4.82,1.66-7.14,2.55a14.71,14.71,0,0,0,8.49,1.26c-8.08,3.29-10.46,11.55-25.14,12,2,.54,9.27,2.6,12.37.66-.41,3.55-8,4.08-12.22,4.52,3.59,1.51,6.32,3.9,10.95,4-5.45,1.85-6.73,2.84-12.8,1.44.87.74,1.5,2.29,2.68,3.13-4.62.24-9.84.8-14.22.07,4.52,7.65,21.1,7.3,32.73,7.32-3.3,1.71-6.57,3.45-10.1,4.92,3.68-.19,7.41-.32,11.09-.33-1.11,5.77-22.09,5.34-27.7,6.32,3.57,1,6.91,2.44,10.91,3-8.43,4.21-9.92,4.75-19.69,5.13,2.67,1,5,2.51,8.09,3-6.72,0-13.2,2.16-19.83,1.11,3,10,16.47,11.11,29,11-2,1.78-5.66,2.27-8.57,3.45,4.31-.34,8.11,1.1,12,.24-4.95,4.95-15,7-22.49,5.67,4.08.32,7.92,2.63,12.73,2.39-4.89,4.07-15.09,6.24-21.8,5.27,13.68,4.75,17.93,1.29,30.74-.88-1,5.36-4.65,8.22-10.8,8.11,2.49.66,5.84,1.07,8.6,1.69-6.36,3.85-23,.54-29.83-1.12,2.94,2.95,2.08,7.85,6.37,9.72s-17,2.65-13.1,4.35c-4.92,2.48-11.55,2.71-16.71,1.52,3.88,3,16.38,7.28,16.38,7.28a9.72,9.72,0,0,1-10.18,4.49c3.35,2.12,11.34,1.22,15.26,2.83-4,.3-.62.58-5.15.94,3.67.18,6.43,3.54,24.52-1.43-2.42,3.19-10.4,8.28-14.92,8.61,4,2.81,12.86,2.89,10.75,3.48,7.16-.38,7.31,2.69,10.51,4.41-4.86,7.31-28.44,14.69-37.23,15a30,30,0,0,1,6.94,4.56c-7.58,2.14-16.22.79-24,1.25,7,9.21,13.33,14.06,24.67,16.29-4.52,3-10.21,4.92-15.57,6.33,2.85-.19,13.28-.23,18.69-.38-1.17,4.13-3.66,8.73-8.07,11.07,5.74-2.13,17.52,8,22.05,4-.22,3.41-2.22,6.65-3.94,9.87,4.14-2.54,8.92-3.78,13.15-6.07,5.12-2.78,9.08-7.59,13.88-10.05,0,2.35.27,4.86-.36,7.21a113.22,113.22,0,0,0,10.62-9.09c-8.34,13.9-21.8,20.32-40.68,23.72,2.13.39,4.71,2,7.09,2.42-25.4,16.43-40,12.45-46.3,8.75,6.12,10.31,16.72,13.79,26.83,16.48-6.5,2.3-15,4.79-22,4.33,8,4.53,11,1.69,20.66,3.33-2.72,5.26-16,12.28-16,12.28s13.34,6.56,32.81.62c8.32-2.82,15.79-3.87,22.66-9.24.05.67.19,1.35.27,2-8.24,7.48-17.6,13.9-28,13.66a112.66,112.66,0,0,0,17.33,1.55c-5.82,4.38-16.74,6.34-26.51,7.1,6.49.13,13,.37,19.46.39-10,1.58-15.88,5.21-26.41,6-10.2.79-23-.13-31-3.77,7.2,4.94,16.16,9.85,28.59,9.89-8.25,3.91-17.66,5.35-28.32,6.71,21.78,4.76,34.54,1.85,55.76-1.26a232.85,232.85,0,0,0-26.58,10c11.93-.64,23.48-.62,34.25-4a57.13,57.13,0,0,1-19.64,8.58c-16.36.95-36.79,2.64-55.72,4.35-.63-.18-1.28-.36-1.84-.54l1.26.59c-10.29.94-20.11,1.88-28.58,2.71a21.21,21.21,0,0,1-2.73-1.53c.33.58.69,1.14,1.07,1.69-15.26,1.5-25.71,2.61-25.71,2.61s10.91.08,28.06.28c7.35,7.76,20.39,11.45,37.84,12.78-5.09,1.1-11.26.9-16.6,1.58,12.41,5.24,30.55,7.43,45,3.36-8.71,5.18-26.16,4.78-35.21,9.14,10.81.64,18.51,3.66,30.17,2.88,11.42-.77,20.94-4,31.38-5.91-.21,4.95-15.42,8.66-22.55,10.46,10.13.86,19.36-.45,29.3-1-13.11,2.34-22.08,8.2-37.08,7.58,5.65,3.62,17,2.13,24.85,1.69-14.8,3.61-35.22,7.23-50.61,2.59,7.3,4.24,20.47,6.53,30.93,6.56-7.82,3.52-16.26,4.72-24.51,7.41,3.51.87,7.91.89,12.23.88-15.28,2.34-42.59,8-58.15,2.45,6.55,3.11,13.32,6.58,20.75,8.61,10.16,2.78,22.15,2.07,32.59,2.64-9.38,2-17.49,2.16-27.37,1.71,17.64,4.73,45.66,14.3,61.36,2.33-2.24,4.61-9.35,5.63-15,8.3,8,.64,7.8,3.77,8.65,3.94-13.16,9.74-22.42,2.35-50.42,3.22,0,0,22.4,12.55,30.7,12.61-17.94,9.32-34.81-3.86-59.43-5,7.26,3,7.44,17.92,16.32,17.6-12.26,8.82-12.44,13.25-31.94,12,14.93,4.84,32.67,9.49,48.65,5.4l-1.64.74c-19.42,2.09-33.06,4.32-33.06,4.32s7.05,0,19.26.21c16.15,4.35,37.09,10,53.38,3.43-1.09,2.58-4.43,4.56-8,5.86,10.19-1.34,22-2.31,31.58-5.27,2.72.22,5.48.46,8.27.7a14.93,14.93,0,0,1-4.46,2.07,43.91,43.91,0,0,0,7.84-1.76q5.82.52,11.82,1.13l1.68.16-1,42c-4-.29-8-.46-12.14-.47-29.76-.08-124.2,26-124.2,26s67.26-6.11,115.62-6.17c-57.87,9.74-89.76,22.86-89.76,22.86s105.18-23.26,143.23-16.59,109.92,6.74,109.92,6.74-54.51-7.76-76.94-16.42A255.83,255.83,0,0,0,388.35,696l1.06-43.16q3.45.2,6.79.35A92.3,92.3,0,0,0,427.76,659c-8.82,2.83-14.59,5.2-14.59,5.2ZM470,477.65l-.12.34c-.14.41-.33.85-.53,1.3-1.93-.22-3.77-.46-5.44-.72A40.33,40.33,0,0,0,470,477.65ZM259.29,504c10.43.13,22.45.3,35.33.51,1,.21,2.09.39,3.15.51C287.42,506.12,271.5,506.34,259.29,504Z" transform="translate(1.41 -11.1)"/><path class="cls-1" d="M848.91,751.13c-67,0-89,2-100-5.63s-14-17.29-17.75-19.6c-3.16-2-7-2.67-10.72-3.25-19.37-3-154.53-3.15-164-3.15s-1.5-12.13-31.5-12.13-31.58.19-70.18-.65c-7.35-.16-15.61-.71-22.86.65-4.43.84-8.59,3.51-12.95,3.86-1-2.73-11.85-11.3-12.24-11l-5.4,4a27.16,27.16,0,0,0-8.6-17.92c-.7,4.2-6.1,6.38-10.14,4.91s-6.64-5.43-8-9.45c-3.88-11.29,1.18-25.66,12.35-29.86-4.86-6.65-15.39-8.2-22-3.24a73.73,73.73,0,0,1,.84-18.65,22,22,0,0,0-8.29,5.78,97.92,97.92,0,0,1-.2-36.4c-7.77,5.34-12.6,14.13-15.06,23.23s-2.69,18.62-2.93,28a33.33,33.33,0,0,0-9-13.83,30.05,30.05,0,0,1-13.4,28.06c-1.13-10.73-2.3-21.37-3.87-32a153.83,153.83,0,0,0-3.94-19.39c-46,20.59-96.66,2.71-144.66,10.86a8.17,8.17,0,0,1-1.18.1c-10.25,43-77.52,27.76-112.93,33.26C12.67,663.63,9.19,684.94,5.63,699.7c-4.8,19.87-4.2,77.71-4.2,77.71h37.9l250.83.1,135.21.12,149.19.14,140,.13,107.75.1H934.41C925.56,778,915.91,751.13,848.91,751.13Z" transform="translate(1.41 -11.1)"/></svg>