<svg id="Layer_1" data-name="Layer 1" xmlns="http://www.w3.org/2000/svg" viewBox="0 0 908.65 770.52"><defs><style>.cls-1{fill:none;}.cls-2{fill:#0b0b0b;}.cls-3{fill:#bc7211;}</style></defs><path class="cls-1" d="M491.14,708.86l-.16.08c-.12,0-.21,0-.33,0,.25,1.06.44,2,.59,2.75.09,0,.21,0,.33-.09,0-.82-.05-1.75-.05-2.77A3.1,3.1,0,0,1,491.14,708.86Z" transform="translate(-12.17 -7.48)"/><path class="cls-1" d="M500,713.07l1.26-.25c.07-.65.15-1.35.24-2.09a20.6,20.6,0,0,0-1.62,1.49C499.94,712.52,500,712.8,500,713.07Z" transform="translate(-12.17 -7.48)"/><path class="cls-1" d="M481.39,704.86a49.55,49.55,0,0,0-1.92,5.56c.68,1.24,1.25,2.42,1.75,3.54a16.89,16.89,0,0,0,2.9.65c0-3.16,0-7-.19-10.89A3.77,3.77,0,0,1,481.39,704.86Z" transform="translate(-12.17 -7.48)"/><path class="cls-1" d="M466.51,698.86c.39.87.82,1.74,1.29,2.59.32-.49.64-1,1-1.42-.56-1.2-1.18-2.38-1.83-3.56C466.8,697.27,466.65,698.07,466.51,698.86Z" transform="translate(-12.17 -7.48)"/><path class="cls-1" d="M652.56,651.27a37.5,37.5,0,0,1,4.87-8.16c-.88-1.84-1.86-3.66-2.89-5.46A94.37,94.37,0,0,0,652.56,651.27Z" transform="translate(-12.17 -7.48)"/><path class="cls-1" d="M725.73,656.49a3.56,3.56,0,0,0,0-4.51C725.7,653.58,725.71,655.08,725.73,656.49Z" transform="translate(-12.17 -7.48)"/><path class="cls-1" d="M677.37,650.5q-1,2.34-1.87,4.88,3-.25,6.08-.44c-.05-2-.11-4.09-.19-6.19A6,6,0,0,1,677.37,650.5Z" transform="translate(-12.17 -7.48)"/><path class="cls-2" d="M822.34,776.72c-.77-13-4.17-34.83-10.08-47.2a71,71,0,0,0-17.89-23.84c3.65-3.48,11.33-9.08,27.56-17.29-17.25-2.17-33.79,3.93-42.53,8-1-.45-2.11-.88-3.2-1.28a140.41,140.41,0,0,1,39-34.68c-29.47,1-49.1,14.25-55.39,19.16-.6.19-1.18.4-1.76.62,2.12-5.79,11.78-31.07,22.76-42.11-23.06,7.17-37.2,22.42-45.23,34.56l-.81-1.15a15.82,15.82,0,0,1,.31,1.93c-1.26,1.95-2.37,3.81-3.32,5.54q-3.22-2.9-6.1-6a237.08,237.08,0,0,1,4.84-44.94c-12.36,8.6-18.25,32.86-20.81,48.17a8.62,8.62,0,0,1-1.3-1.57,17.12,17.12,0,0,1-3,.31c-.66-3.26-1.46-7-2.42-11,2.6-10.73,2.73-22.13,2.35-33.6-8.36-1.28,10.72,7.59,2.26,8.23-.65,5.43,1.89,1.26,1.68,6.73-.57-1.07-4.44,2.33-5.05,1.22a30.83,30.83,0,0,1,2.75,6c0,1.7-28.41-1.14-28.52.54-.12.42-.27.85-.41,1.26a44.3,44.3,0,0,0-18.27,9.08c-1.54-1.22-3.19-2.41-4.93-3.6,6-21.94,20.76-42.93,20.76-42.93-17.42,11.06-33,34.68-33,34.68s.08-17.39-22.62-41.84a61.12,61.12,0,0,1,8.89,42.52s-5.32-25.81-30-29.35c16.43,6.33,25.33,42.58,25.33,42.58-9-21.62-60-32.19-60-32.19s56.37,32.17,54.43,50.94c-9.9-20.21-36.35-23.78-36.35-23.78s20,13.32,25.35,37c-5-9.63-29.26-35.29-60.19-31.72a3.16,3.16,0,0,1-.22.5c.7.61,1.39,1.25,2.14,1.86,26.92,4.1,40,23.88,45.23,34.71-9,2.67-18.1,5.06-27.5,7a61.76,61.76,0,0,0-14.35,2.51c-.57.08-1.13.18-1.7.25a160.69,160.69,0,0,0-16,3.14c2.72-6.56,7-15.67,11.71-20.53-16.33,5.24-25.58,17.09-30.25,25.3-1.44.36-2.88.72-4.33,1.06-3,4.42-9.9,4.58-14.26,1.95a2.72,2.72,0,0,1-.37.13c-.15.05-.3.07-.45.11a12.88,12.88,0,0,1-5.07.62c-4.1.58-8.71,2.49-11.46-1.43a4.83,4.83,0,0,1-.83-3.41c-3.51-1.25-6.1-4.33-6-7.52a17.79,17.79,0,0,1,.27-2.75c-.6.25-1.19.49-1.77.76a5.28,5.28,0,0,1-1.64.59,3,3,0,0,1-3.22-2.83c.06-5.15,5-12.51,7.48-17.2a96.43,96.43,0,0,1,5.48-9.25c-11,7.22-20.86,22.62-20.86,22.62s.05-11.34-14.3-27.29a41,41,0,0,1,5.62,27.74s-3.36-16.84-18.94-19.15c10.38,4.13,16,27.77,16,27.77-5.67-14.09-37.92-21-37.92-21s35.54,20.93,34.4,33.19l0,0C438,712,421.34,709.64,421.34,709.64a43.81,43.81,0,0,1,10.31,11,55.77,55.77,0,0,0-8.13-1.05c-7.72-5.14-17.95-8.7-29.31-5.42,16.05,0,25.62,8.65,30.94,16.26a45.81,45.81,0,0,0-12.52,2.34l7.43,7.28c-4.26.8-8.57,1.62-12.66,2.74-.24-.3-.48-.61-.72-.9-4-4.91-6.95-.48-11.4,2.48a12.09,12.09,0,0,0,4-.34c8.21-1.63,16.47,1.2,22.39,5.73,10,7.62,13.3,20-1.45,24.22a41.09,41.09,0,0,1-10.71,1c-6.2,0-26.88-2.34-30.13,2.89l17.11.16a3.21,3.21,0,0,1,.34-.48l41.83,0H582.46c61.77,0,123.76-.4,185.79-.4H821A4.64,4.64,0,0,0,822.34,776.72ZM467.8,714.24a25,25,0,0,1-1.29-2.15c.14-.66.29-1.32.45-2,.65,1,1.27,2,1.83,3C468.44,713.44,468.12,713.84,467.8,714.24Zm184.76-41.78a66.1,66.1,0,0,1,2-11.34c1,1.49,2,3,2.89,4.54A30.84,30.84,0,0,0,652.56,672.46Zm22.94,3.42c.59-1.4,1.21-2.77,1.87-4.06a6.61,6.61,0,0,0,4-1.46c.08,1.75.14,3.47.19,5.15Q678.53,675.68,675.5,675.88Zm50.23.93c0-1.18,0-2.43,0-3.76A2.6,2.6,0,0,1,725.73,676.81Z" transform="translate(-12.17 -7.48)"/><path class="cls-3" d="M327.17,777.38l52.13.62a1.18,1.18,0,0,1,.11-.19l-36.94-.41Z" transform="translate(-12.17 -7.48)"/><path class="cls-2" d="M421.7,744c-5.92-5.45-14.18-8.84-22.39-6.89a10.15,10.15,0,0,1-4,.41c-2.09,1.67-4.52,3-7.55,2.47-4.52-.7-4.59-3.39-3.55-6.74-1.31,0-2.62,0-3.93-.09-2.57,2.57-5.59,5.35-9.74,4.66-4-.64-4.51-2.92-3.88-5.86a132.57,132.57,0,0,1-40.08-12.21c-59.15,2.76-118,10.63-177.21,12.45q-11.26.35-22.56.39c-2.55.34-5.37-.17-7.83.57-3.65,1.09-5.38,4.48-7.85,7-3,3-8.87,5.09-13.95,7.55-21.08.82-39,2.57-48.9,5.23-12.65,3.46-34,11.81-36.08,24,23.51,2.17,133.19.27,157,.28l75.35.08q41.34,0,82.7.06l15.3,0,36.94.41c3.25-6.29,23.93-3.48,30.13-3.48a34.39,34.39,0,0,0,10.71-1.22C435,768.1,431.68,753.18,421.7,744Z" transform="translate(-12.17 -7.48)"/><path class="cls-2" d="M609.52,725a107.41,107.41,0,0,1,26.71-35c-22.89,1.06-36.39,18.69-36.39,18.69s6.79-27.45,14.65-38.6c-26.23,11.51-34.22,46.36-34.22,46.36s-2.5-20.18,2.42-55.29c-4.88,4.8-7.15,12.57-8.89,19.21a203.74,203.74,0,0,0-4.49,25.47l-2,.13c-.37,0-2.75-11.82-2.91-12.52-2.59-11.17-2.62-23.27-8.36-33.34a45,45,0,0,0-5.28-7c-.06,3.15,0,6.32,0,9.48-.45,5.06-.6,10.17-.74,15.26-.36-.94-.72-1.89-1.11-2.88a20.87,20.87,0,0,1,1.06,3.92c0,1.52-.07,3-.14,4.54-.07.38-.17.75-.26,1.12a26,26,0,0,0-11.55,8.1q-1.46-1.64-3.11-3.21c3.77-19.55,13.12-38.27,13.12-38.27C537,661,527.16,682,527.16,682s.05-15.49-14.3-37.28c8.56,18.65,5.62,37.89,5.62,37.89s-3.35-23-18.94-26.16c10.38,5.64,16,38,16,38-5.66-19.27-37.92-28.69-37.92-28.69s35.63,28.67,34.4,45.4a32.61,32.61,0,0,0-23-21.19s12.62,11.87,16,33c-3.46-9.32-21.21-35.5-43.16-26.86,24.86.1,34.17,28.22,36.25,36h123.7c1.63-2.8,6.12-8.26,18.6-17.17C624.52,712.07,609.52,725,609.52,725Zm-76.1-24.31a80.68,80.68,0,0,1,1.24-10.1c.66,1.33,1.28,2.69,1.83,4A29.52,29.52,0,0,0,533.42,700.7ZM550,713.3a65.34,65.34,0,0,0-2.78-6.83,61.5,61.5,0,0,1,1.91-6.33,3.54,3.54,0,0,0,2.54-1.3c.16,4.69.19,9.2.19,12.89C551.19,712.22,550.56,712.74,550,713.3Zm9-5.43c-.15-.88-.34-1.93-.58-3.14a1.77,1.77,0,0,0,.32,0l.16-.08.38-.08c0,1.15,0,2.22,0,3.14Zm9.49,8s-.26-2.75-.83-7.3a18.23,18.23,0,0,1,1.63-1.69C568.66,712.18,568.43,715.82,568.43,715.82Z" transform="translate(-12.17 -7.48)"/><path class="cls-2" d="M487.07,761.53a95.08,95.08,0,0,1,26.71-30.35,54.59,54.59,0,0,0-36.39,16.2s6.79-23.78,14.66-33.45c-26.24,10-34.22,40.17-34.22,40.17s-2.51-17.48,2.42-47.9c-4.89,4.16-7.15,10.89-8.89,16.64a155.58,155.58,0,0,0-4.5,22.07l-2,.12c-.36,0-2.74-10.25-2.91-10.85-2.59-9.68-2.61-20.17-8.35-28.89a39.86,39.86,0,0,0-5.29-6.09c-.06,2.72,0,5.47,0,8.21-.46,4.38-.61,8.81-.75,13.23l-1.1-2.5a15.38,15.38,0,0,1,1.05,3.39c0,1.32-.07,2.64-.13,3.93-.08.33-.18.66-.26,1a26.24,26.24,0,0,0-11.55,7c-1-1-2-1.87-3.12-2.79,3.77-16.94,13.13-33.16,13.13-33.16-11,8.55-20.87,26.79-20.87,26.79s.06-13.43-14.29-32.31C399,708.15,396,724.82,396,724.82s-3.36-19.92-19-22.66c10.39,4.88,16,32.88,16,32.88-5.67-16.69-37.92-24.86-37.92-24.86S390.8,735,389.57,749.52c-6.25-15.6-23-18.36-23-18.36a51.67,51.67,0,0,1,16,28.57c-3.46-8.07-21.2-30.75-43.15-23.27,24.85.09,34.17,24.45,36.24,31.19H499.42c1.62-2.42,6.11-7.16,18.59-14.88C502.07,750.32,487.07,761.53,487.07,761.53ZM411,740.47a62.63,62.63,0,0,1,1.25-8.76c.65,1.16,1.27,2.33,1.82,3.51A24.49,24.49,0,0,0,411,740.47Zm16.54,10.91a51.59,51.59,0,0,0-2.78-5.92,48.81,48.81,0,0,1,1.92-5.48,3.76,3.76,0,0,0,2.54-1.13c.16,4.07.19,8,.19,11.17C428.74,750.45,428.11,750.9,427.51,751.38Zm9-4.7c-.15-.77-.35-1.67-.59-2.72a1.86,1.86,0,0,0,.33,0l.16-.07c.11,0,.24,0,.37-.07,0,1,0,1.92.05,2.73C436.71,746.63,436.59,746.64,436.5,746.68Zm9.49,6.89s-.26-2.38-.83-6.33a21.82,21.82,0,0,1,1.62-1.47C446.21,750.41,446,753.57,446,753.57Z" transform="translate(-12.17 -7.48)"/><path class="cls-2" d="M289.11,663.13h.13c-.72-2.18-1.61-3.22-3.81-3.46,0,0,.09.18.14.24-.22,0-.44-.11-.67-.13a3.23,3.23,0,0,0,1-2.07c.05-.08.05-.16.11-.23a5.68,5.68,0,0,0,1.84-1.51s0,0,.05,0h0a7.22,7.22,0,0,0,1.31-5.18,2.5,2.5,0,0,0-1.9-2.3c-2.09-.45,2.82-2.54,3.39-3.15,1.82-2,3.44-5.83,1.23-8a8.14,8.14,0,0,0-2.22-1.21,10.43,10.43,0,0,0-.1-1.51,1.31,1.31,0,0,0-.54-1.12l-.09.22c-.88-.78-1.93-.64-3.06-.75.66-.93,1.47-1.76,1.47-3a4.68,4.68,0,0,0-2.58-4,.61.61,0,0,0-.2-.09.91.91,0,0,0,.22-.11c-1.52-.59-3.15-2.88-4.57-3.11a2.46,2.46,0,0,0-.72.15,5.3,5.3,0,0,0-2,.34c-.48.24-1,.45-1.5.66-.93.23-1.71.36-1.9.13-.06-.08-.08-.16-.13-.23a2.93,2.93,0,0,1,.26-1,1.19,1.19,0,0,0,1.13-1,14,14,0,0,1,2.28-.68,14.29,14.29,0,0,0,1.56.27,3.09,3.09,0,0,0,2.49-1.16c0-.06,0-.1,0-.15l0,0a1.56,1.56,0,0,0,.14-.68,2.53,2.53,0,0,0-.22-1.82,1.18,1.18,0,0,0-.39-.41,4.77,4.77,0,0,1-.41-1.1,3.78,3.78,0,0,0,.7-.82l.41-.86a5,5,0,0,0,.71-2.5l-.06.05c0-1.61.23-2.93,2.11-2.65,2.16.35,4.7,0,5.14-2.8a1,1,0,0,0,.08-.15c0-.11-.05-.22-.08-.33a5.12,5.12,0,0,0-.36-1.81c-.06-.27-.12-.53-.16-.78a.33.33,0,0,0-.13,0c-.12-.27-.24-.54-.34-.82a7.23,7.23,0,0,1-.44-2,6.38,6.38,0,0,1,.09-1.22v-.09c2.48-1.18,4.56-3.09,3.93-6.33a11.64,11.64,0,0,0-1.28-3.89.75.75,0,0,0,.2,0,2.58,2.58,0,0,0-3.07-1.53c.35-.1.63-.18-.05,0a1.38,1.38,0,0,1-1.46-.58c-.19-.4-.37-.82-.93-.92h-.16a1.88,1.88,0,0,0-1.14-.2,6.27,6.27,0,0,0-1.51-3.25,9.71,9.71,0,0,0,1.17-1.71v-.09c.29-.66.35-1.31-.34-1.67-4.58-2.39-3.24-2.45-.8-2.66,1.6,1.08,2.8.4,3.85-.78a2.67,2.67,0,0,0,1.73-3.23,57.93,57.93,0,0,1-.41-6.3,2.06,2.06,0,0,0,.3-1.27,1.76,1.76,0,0,0-.62-.87,8.28,8.28,0,0,0-1.7-3.54,2.72,2.72,0,0,1-1.36-2.44c.93-2.15-3.68-1.18-4.11-2.64a1.11,1.11,0,0,1,0-.48,7.81,7.81,0,0,1,1-1.55,11.5,11.5,0,0,0,1.79-5.31,2.73,2.73,0,0,0,.14-.69s-.06.05-.09.08c0-.24,0-.46,0-.69a5.39,5.39,0,0,0-1.78-3.95c.17,0,.3.17.47.22a6.59,6.59,0,0,0-3-2c-.09,0-.12-.1-.15-.16a6.59,6.59,0,0,0,1.17-2.7,2.09,2.09,0,0,0,0-.25,1.7,1.7,0,0,0,.13-.64,2.71,2.71,0,0,1-.13.3c.13-4.66-4.15-7.51-8.17-7.43a2.25,2.25,0,0,0-.84.18c.2-.1.42-.22.69-.34-1.09.13-3.1,1.11-4.93,1.45a3.74,3.74,0,0,0-.77-.3,4.64,4.64,0,0,0-1.55.17,1.85,1.85,0,0,1-.53-.31l-.77-1a3.86,3.86,0,0,1-.3-.89c1.19.71,2.05.47,3.17-.39h0l.07-.07a15.19,15.19,0,0,0,2.92-2.66,20.31,20.31,0,0,1,1.53-1.4c1.39-1.15,2.12-2.13,1.67-4,0-.08-.09-.14-.13-.22.06-1-.25-1.77-1.19-1.61a4.19,4.19,0,0,0,.79-.45.67.67,0,0,1,.16-.12,6.83,6.83,0,0,0,1.39-1,5.24,5.24,0,0,0,2.08-2.43,5.16,5.16,0,0,0-.84-4.84,7.51,7.51,0,0,0-1.85-2.15c1.17-1.35,3-3.08,2.42-4.92-.45-1.45-1.85-3.15-2.77-4.77a15.87,15.87,0,0,1-.59-1.62c1.44-.1,3-.43,3.72-1.79A2,2,0,0,0,276,493c1.19-2.67,1.09-6.35-.22-8.46-.08-.34-.15-.63-.22-.87a1.19,1.19,0,0,0-1.12-.92,5.24,5.24,0,0,0-1.41.17,3.44,3.44,0,0,0-1.27.28c-.2-1,.12-4.48-.5-5.08-.92-.88-3.37-.1-4.79-.82.64-1.09,2-1.71,3.14-2.39l1.18-.25a4.24,4.24,0,0,0,4.34-2.5,2.21,2.21,0,0,0,.13-.66c0-.12,0-.23,0-.35a4.11,4.11,0,0,0-1.19-2.68,26.77,26.77,0,0,0,.89-3.78,7.61,7.61,0,0,0,.2-1,2.5,2.5,0,0,0-.17-.8,2.33,2.33,0,0,0-.33-.88,47,47,0,0,0-2.9-5c-1.72-2.64-3.7,1.49-5.27,2.91a2.61,2.61,0,0,1-.91.44.77.77,0,0,1-.53-.29,3.21,3.21,0,0,1-.23-.38,3.09,3.09,0,0,1,.1-.93c.22-1,0-2.47-1-2.85-.15-.05-.29-.14-.45-.2a3.56,3.56,0,0,0-.9-.77,4.13,4.13,0,0,0-2.1-.91c-.74-.19-1.49,0-2.23,1.15a10.27,10.27,0,0,0-.4,1.08.1.1,0,0,0-.06.05c.23-.24-.15-.63-.75-1.05a3.93,3.93,0,0,0-.34-.44,1.21,1.21,0,0,0-1-.41c-.95-.59-1.87-1.15-1.9-1.48-.25-3.16,1.55-8.45-2.1-10.47a4.39,4.39,0,0,0,.38-1h0a4.17,4.17,0,0,0,.17-1.19c0-.12,0-.22,0-.34a4.73,4.73,0,0,0-.16-.85.38.38,0,0,0-.06-.13,3.4,3.4,0,0,0-3.76-2.42c-1.34.18-1.16-.53-.63-1.52a8.16,8.16,0,0,0,1-1.15,4.15,4.15,0,0,0,.62-2,2,2,0,0,0,.09-1c-1.19-4.73.09-6.08.46-10.73.28-3.68-.34-4.53-1.36-4.37-.89-1.15-2.07,0-2.66,1a3.07,3.07,0,0,1-.63.76,3.81,3.81,0,0,1-.87.31,6.65,6.65,0,0,1-1.07.09,3.74,3.74,0,0,1-.91-.34.87.87,0,0,1-.17-.16c-.1-.45.34-1.16.9-1.91a1.55,1.55,0,0,0,.27-.18,4.61,4.61,0,0,0,1.87-2.38.67.67,0,0,0,.14-.26c.61-2.6.79-5.13,0-7,0-.13,0-.31,0-.46-.28-1.2-1.26-1.65-2.41-1.86a6.62,6.62,0,0,0-1.9-.36,5.7,5.7,0,0,0,2.3-3.3,3.84,3.84,0,0,0-2.11-4.42l-.14-.07a4,4,0,0,1-.73-4.24.28.28,0,0,1,0-.09,5.46,5.46,0,0,0,.45-1.63s0-.05,0-.08a5.14,5.14,0,0,0-.19-2s0,0,0-.06a10.14,10.14,0,0,0-1.75-3.08c-.4-.49-.7-.84-1-1.13-.06-.13-.15-.21-.22-.35a1.07,1.07,0,0,0-1.52-.41l-.36.2c-.28.1-.61.25-1,.43a.79.79,0,0,0-.74-.14h0c-.74-3.7-.46-9.42-2.45-12.4A7.69,7.69,0,0,0,230.1,369a4.91,4.91,0,0,0-.54-.39l-.24-.17-.29-.16c-1.58-1-3.31-1.59-3.42.15,0,.09-.1.14-.1.26a3,3,0,0,1-.16.82,2.06,2.06,0,0,1-3.83-.34,4.46,4.46,0,0,1,.24-.73,2.61,2.61,0,0,0,.87-1.5s.05-.07.08-.1a24,24,0,0,0-1-6.73,2.13,2.13,0,0,1,0,.37,1.86,1.86,0,0,0-1.51-1.39c-.1-2.51-.59-4.9-2.83-6.29a5.11,5.11,0,0,0-3.06-.39s.12.13-.38.05l-1.2-.21c-.42,0-.74-.13-1.72-.26s-1.65-1.51-2.42-2.31c-1.44-1.48-3-.6-3.93.85-.46.66-.06,1.59.24,2.2.78,1.67-1,.91-1.72,1.68a7.87,7.87,0,0,0-1.35,2.88c-.21.56-.63,2-1.19,1.8v0c-.07-.07-.14-.08-.22-.15a2.11,2.11,0,0,1-.15-.19,7.37,7.37,0,0,0-1.27-1.35c-1.16-1.07-2.14-1-3.69-.74a21.08,21.08,0,0,0-5.85,1.71A1.26,1.26,0,0,0,189,360c.49.87,1,1.7,1.46,2.61-2.16.92-5.87,2-4.37,5.18a16.64,16.64,0,0,1,1,2.4,3.22,3.22,0,0,0,.09.8,1.3,1.3,0,0,1-.24.69,2.44,2.44,0,0,1-1.4.63c-1.61.34-3.06.5-3.84,1.37a2.09,2.09,0,0,0-.4.19,1.3,1.3,0,0,0-.41,1.66c.53,1.17,0,2.31-.14,3.45-.91,4.23-1.34,2-5.39,3.88-1.77.82-1.89,1.8-1.41,2.76a2.15,2.15,0,0,0,0,.56.77.77,0,0,0,.67.6,5,5,0,0,0-.38,1.13,8.71,8.71,0,0,0-2.61-.76l.45-.12c-2.23-.33-2.9-.28-2.11.06-2.23.12-4.13,1.13-3.49,3.67.4,1.56,2.15,3,.9,4.8-1.5.63-2.92,2.69-3.55,4.61a.39.39,0,0,0-.06.17c0,.14-.07.26-.1.39a3.56,3.56,0,0,0,.64,3.7,4.76,4.76,0,0,0,1.47,1,5.3,5.3,0,0,1,1.79,2.4,7,7,0,0,0,0,.81,27.32,27.32,0,0,0,1,3.1c0,.29-.08.77-.11,1.32a5.63,5.63,0,0,0-.73,2.74,6.26,6.26,0,0,0,.69,1.81c.1,1.14.34,1.93.88,1.64-.2.11-.44.21-.67.31a4.89,4.89,0,0,0-2.12.45,3.83,3.83,0,0,0-1.09,1.17,2,2,0,0,0-.44,1.65,4.15,4.15,0,0,0,.29,1.44,18.38,18.38,0,0,0-2.07.05c-1.36-.05-2.64.12-3.1,1.33a5,5,0,0,0-.16,1.93c.05.58.14,1.14.21,1.72,0,.18,0,.36,0,.56h0a1.67,1.67,0,0,0-.3-.08,1.59,1.59,0,0,0-1.53-.71c-1.35.17-3.05-.54-4.44-.21a2.85,2.85,0,0,0-2.89,3.05,3.11,3.11,0,0,0-.07,1.06c-.41-.89-3.92-.64-4.31-.52a.53.53,0,0,1,.14.11,4.41,4.41,0,0,0-1.21.43c-1.21.63-3.47,1.59-3.47,3.41a23.67,23.67,0,0,0,.33,2.45c-.82.33-1.86.29-2.55,1a3,3,0,0,0-1,1.74c-.19,2.32-.95,2.7-2.76,3.13a5.74,5.74,0,0,0-3.51,2,.27.27,0,0,1,0-.12,2.06,2.06,0,0,0-.21.42c0,.07-.1.12-.15.19a1.42,1.42,0,0,0,.21,1.66,4.82,4.82,0,0,0,2.4,1.21c1.08.24,1.48.66,1.51,1.16a3.28,3.28,0,0,1-.57,1.41c-.37.53-.84,1-1.16,1.41a4.91,4.91,0,0,0-.87,1.56s0,0,0,.06,0,.08,0,.11a9,9,0,0,0-.27,4.07s0,.08,0,.12c0,.26.07.5.11.76a9.11,9.11,0,0,0,1.41,4,2.6,2.6,0,0,0,1.88.94l.48,0c.28.06.47.08.52,0,0,.11-.2.42-.45,1.24-.44,1.56-1.25,3.6.48,4.68h.05a1.5,1.5,0,0,0,.81.26,3.11,3.11,0,0,0,2.33-.5c4.64-1.64,2.43.38,2.14,3.12a6.67,6.67,0,0,0-.23,1.18c-.09,1,.75,1.82,1.3,2.43a2,2,0,0,0,.94.48,5.39,5.39,0,0,0,3.07,1.12,2.79,2.79,0,0,0,.29,1.61,9,9,0,0,0-2.73-.26,6.2,6.2,0,0,0-3.32,2,2.32,2.32,0,0,0-.3.42,1.2,1.2,0,0,1,0-.19,3.53,3.53,0,0,0-.57.94,3.23,3.23,0,0,0-.13,3.51,16.42,16.42,0,0,0,.9,2.8,3.45,3.45,0,0,0,.15.71,3.66,3.66,0,0,1,.29,1.26c-.17,1.18-1.49,1.65-2.54,2.29,0,0-.09,0-.14.06-1.28.55-1.38,2-.86,3.14.13.2.27.39.42.6a.35.35,0,0,0,.05.08c.2,1.07-1.43,1.16-3.54.93a2.71,2.71,0,0,0-1-.24c-1.89,0-3.74-.89-5.62-.72a2.47,2.47,0,0,0-1.07,0,2.37,2.37,0,0,1,.34.13,4.2,4.2,0,0,0-3.56,5,6.94,6.94,0,0,0,.47,2.41c.23.55,2.12.84,1,1.76s-2.84-.18-4,.73a36.56,36.56,0,0,0-3.19,3.27,3.79,3.79,0,0,0-1.39,3.11c-2.29-.65-4.87-.81-6.68,1-3,2.9-3.09,6-3,10a.84.84,0,0,0,.81.85,4.26,4.26,0,0,1-.33,2.71,7.62,7.62,0,0,0-.41,1.14s0,.06,0,.09c-.31,1.31.12,1.95.88,2.22a2,2,0,0,0,1.09.71,5.65,5.65,0,0,0,4-.67c2-1,1.36,2,.74,3.07a4.71,4.71,0,0,0-.53,2.91c.3,3.42,3.4,2.11,5.21,2.86a3.62,3.62,0,0,0-.13,1.76c-1.1.33-2.33.64-2.87,1.39l-.08,0a.09.09,0,0,0,0,.05l0,0c-1.09,1.61,1.8,3.57.78,4.71a1.06,1.06,0,0,0-.23,1,14.72,14.72,0,0,0-3.77-1.19,4.3,4.3,0,0,0-4,2.6c-.46,1.27.18,2.85-.43,4a6.15,6.15,0,0,0-.64,2.73,1.92,1.92,0,0,0,1.38,1.89,16.44,16.44,0,0,0,1.32,1.32,2.66,2.66,0,0,0,1.2,1.49c2.39,1.42,4.74-1.38,6.24.92.19.4.34.8.52,1.1s.15.33.22.57c0,.07.16.07.31,0a1.65,1.65,0,0,0-.25.15l-.83.3a3.12,3.12,0,0,0-1.65,1.4A1.79,1.79,0,0,0,117,570a5.56,5.56,0,0,0-.34,3.59,1.83,1.83,0,0,0,.9,1.62,6.43,6.43,0,0,0,1.07.49,5.08,5.08,0,0,1,1.71,2.39,3.43,3.43,0,0,0,.11.46c-2.52.8-.78-.22-3.88-.39a1.09,1.09,0,0,0,.17.22,5.32,5.32,0,0,0-5.37,3.59,4.63,4.63,0,0,0,.13,3,7.15,7.15,0,0,0,.8,1.32,17.91,17.91,0,0,0-2.95-.19,4.36,4.36,0,0,0-4.73,3.64c-2.35.44-5,3.16-3.28,5.61a2.26,2.26,0,0,0,1,.72,2,2,0,0,1,1.36,2.5,11.61,11.61,0,0,0-2.17,3.28,2.12,2.12,0,0,0-.44,2.43,2.62,2.62,0,0,0,1.13,1,21.94,21.94,0,0,0,2.5,1.86c.77,1.3,3.23,1.61,3.19,2.72-.06,1.85,1.86,2.52,3.21,2.64,1,.05,5.32-2.32,5.71-1.73l0,0a4.58,4.58,0,0,0-.7.58,3.49,3.49,0,0,0-1.5,3.58,2.42,2.42,0,0,0,2.11,2.24,3.41,3.41,0,0,0-2.33,1.87,2.91,2.91,0,0,0-.23,1.12A2.87,2.87,0,0,0,112,621a1.63,1.63,0,0,0-.38.3,5,5,0,0,0-.37.43,5.84,5.84,0,0,0,.41,6.69c-.15.16-.25.35-.4.51a14.2,14.2,0,0,0-1.4,1.89,2.15,2.15,0,0,0-.18.24c0,.06,0,.14-.06.22a2.76,2.76,0,0,0-.28,1.58c.11.66.31,1.62.94,2a4,4,0,0,0,.42.18l0,0c-1.86,1.42-4.42-.84-6.5,1.05-2.67,2.44-6.29-.21-8.15,4.07a11.85,11.85,0,0,0-.79,4.72c0,1.62,1.85,4.51,1.06,6.07a5.14,5.14,0,0,0-3.12,1.74,2.76,2.76,0,0,0-.94.85,5.53,5.53,0,0,0-.86,2.38,7.56,7.56,0,0,0-.12.79l-.09.87a2.36,2.36,0,0,0,1.13,2.31,10.57,10.57,0,0,0,1.2.57,3.46,3.46,0,0,1-.1.88,1.44,1.44,0,0,1-.12.26c-1.17,2-1.46,4.57,0,6.48s6.7,2.25,8.89.21a4.38,4.38,0,0,1,1.69-.42,6.91,6.91,0,0,0,1.43.08,2,2,0,0,1,.93.42,4.42,4.42,0,0,1,0,1.62c-.66,1.42-2.25,3.24-1.53,4.6.16.87,1.07,1.19,1.94,1.18.12,1.62-.62,3.39.79,4.61a2.29,2.29,0,0,0,2.39.21,17.19,17.19,0,0,1,2,.24,2.39,2.39,0,0,0,3,.82c.49.26.75.54.55.81,0,0,0,0,.06,0a7.77,7.77,0,0,1-3,2.81c-1.06.45-2.17.68-3.21,1.19-2,1.05-1.72,4.09-1.13,5.9a3.64,3.64,0,0,0,1,1.45,14.61,14.61,0,0,0,2.8,3.3,9.36,9.36,0,0,0,1.1,1.36c1.34,1.24,2.55.39,3.37-.8.44.21,1,.44,1.45.71a9.31,9.31,0,0,1,1.79,2.11,2.18,2.18,0,0,0,.85,2.1c1.29,1.36,4-.33,5.55-1.07a19.31,19.31,0,0,1,2.71-.78,5.46,5.46,0,0,0,3.94-1.77,5.31,5.31,0,0,0,1.41-2.71c0-.12.08-.16.1-.26a3.08,3.08,0,0,1,.63-.83,6.23,6.23,0,0,1,3-.17c.41,1.18,1.32,1.42,2.56,2.08.53,1.49.44,3.42,1.18,5a2.29,2.29,0,0,0,1.74,1.86s.08,0,.11,0c1.12.37,2.21-.1,3,.49a8.43,8.43,0,0,0,.67,2.94c.75,1.13.66.92.28,2.47a5.81,5.81,0,0,0-.11,3.15,1.8,1.8,0,0,0,.08.21,2.14,2.14,0,0,0,.16.42,2,2,0,0,0,1.9,1,2.58,2.58,0,0,0,.39,0c1,.1,1.86-.17,3,.45.27.25.53.53.75.7a2.5,2.5,0,0,0,1.38.55,13.48,13.48,0,0,0,3.7.88,1.6,1.6,0,0,0,.66.53c2.72,1.21,7-1.91,7.31-5.08a4.46,4.46,0,0,1,.88-1.27,6.45,6.45,0,0,0,3.1-2.62,2.29,2.29,0,0,0-.21-2.57,6.92,6.92,0,0,0-.76-1.26,10.32,10.32,0,0,0,3.5-.51,3.63,3.63,0,0,1,1.12-.27,1.06,1.06,0,0,1,.63,1c0,.21,0,.41-.06.7-.15,1.48.91,1.93,2,2.33a14.94,14.94,0,0,0,2.45,1.52A1.4,1.4,0,0,0,181,710a9.75,9.75,0,0,0,3-.55.85.85,0,0,0,.19-.06,17.44,17.44,0,0,0,4.55-2.31,6.18,6.18,0,0,0,3.25-3.49,4.13,4.13,0,0,0,0-3.85c.76-.07,1.7,1.55,2.3,2.26a3.69,3.69,0,0,0,2.45,1,2.62,2.62,0,0,1,1.33,1.5,4.51,4.51,0,0,0,.78,1.6c.06,7-.22,14-.42,21.06-.14,4.4-.11,8.8-.11,13.22,0,2.05.06,4,0,6,5-.24,10.12-.33,15.12-.89-.05-.69-.12-1.38-.23-2.06,1.1-7.52.2-15.55.42-23.15q.21-6.91.33-13.81l.15,0c0,.11.11.22.17.37a1.09,1.09,0,0,0,1.25.53c.53-.19,1.31-.72,2.05-1a2.62,2.62,0,0,1,1.88.68,2.81,2.81,0,0,1,.13.61,2.1,2.1,0,0,1-.22,1.08,9.8,9.8,0,0,0-1.1,2.13,1.55,1.55,0,0,0,0,1.16,3.21,3.21,0,0,0,2.19,2c1.62.71,4.09-1.52,5.14.07a1.17,1.17,0,0,0,1.32.58,18.11,18.11,0,0,0,2.35-.68c.79,3.17,3.26,2.83,5.82,1.5a8.81,8.81,0,0,1,1.55-.25c1.69,1.22,3.64.61,5-.89,1.1-.68,1.76-2,1.49-4.48a3.11,3.11,0,0,1,3.49-.18,2.13,2.13,0,0,0,2.42-.55,8.61,8.61,0,0,0,.6-.93c.81-.66,1.21-2,.85-4.65-.09-.61.6-.93,1.56-1.11a14.88,14.88,0,0,1,2.14.32,1,1,0,0,0,1.07-.59,2.66,2.66,0,0,0,2.77-.29,11.85,11.85,0,0,1,.29,2.87c0,.38,0,.67.34.9a3.24,3.24,0,0,0,4-.12c1.4-1,1.87-3.24,2.17-4.86.47-2.58,3.13,1.95,4.15,2.4s-.13,1.88.76,2.73c1.27,1.17,2.66,1.09,4.21.72a11.26,11.26,0,0,0,5.21-3.22,2.77,2.77,0,0,0,.8-1.67,4.71,4.71,0,0,1,1.59-3.69,2.71,2.71,0,0,0,4.1-.23,4.44,4.44,0,0,0,1.31-3.47,2.29,2.29,0,0,0-.32-.87,4.09,4.09,0,0,0-.34-.81c0,.06-.06.09-.09.14a1.41,1.41,0,0,1,.19-2.13c.33-.31.64-.56.95-.85.75-.53,1.69-1.15,2.42-1.77.19-.1.31-.23.49-.31.91-.46.81-1.73.72-2.56-.32-2.7-1.66-4.48-3.9-5.17a40.9,40.9,0,0,1,.4-5.05c.36-1.9,2-2.71,3.26-3.79,1.9-1.64.75-3.93-.47-5.49A7.69,7.69,0,0,1,289.11,663.13Z" transform="translate(-12.17 -7.48)"/><path class="cls-2" d="M552.18,448.29c9,9.07,24.71,13.1,45.62,14.18-6.06,1.47-13.45,1.4-19.81,2.37,15,5.91,36.75,8,53.87,2.71C621.59,474,600.72,474,590,479.5c12.94.46,22.24,3.84,36.16,2.56,13.63-1.25,24.92-5.36,37.35-8-.11,5.92-18.19,10.81-26.66,13.17,12.14.73,23.14-1.11,35-2.08-15.6,3.19-26.16,10.46-44.12,10.15,6.86,4.17,20.38,2.05,29.77,1.29-17.59,4.75-41.9,9.68-60.44,4.58,8.84,4.87,24.67,7.21,37.18,6.95-9.26,4.43-19.31,6.12-29.1,9.58,4.22.93,9.49.82,14.65.68-18.21,3.25-50.69,10.77-69.46,4.64,7.92,3.52,16.12,7.47,25.06,9.68,12.23,3,26.55,1.84,39.05,2.21-11.16,2.62-20.85,3.1-32.68,2.84,21.23,5.15,55,15.77,73.44,1-2.54,5.58-11,7-17.69,10.36,9.63.54,9.44,4.29,10.47,4.46-15.46,12-26.75,3.48-60.2,5.33,0,0,27.15,14.36,37.07,14.18-21.17,11.67-41.73-3.59-71.21-4.25,8.77,3.32,9.42,21.2,20,20.56-14.41,10.9-14.5,16.2-37.85,15.25,18,5.35,39.35,10.39,58.34,5l-2,.93c-23.15,3.07-39.41,6.14-39.41,6.14s8.43-.27,23-.32c19.44,4.74,44.64,10.83,63.92,2.54-1.22,3.12-5.16,5.59-9.41,7.24,12.15-1.9,26.28-3.41,37.61-7.23l9.91.6a18.28,18.28,0,0,1-5.27,2.61,51.74,51.74,0,0,0,9.31-2.34q7,.46,14.17,1l2,.15v104c8.51,1.06,17,2,25.55,2.94V622.37q4.14.14,8.13.22a110.67,110.67,0,0,0,37.92,6c-10.47,3.64-17.3,6.65-17.3,6.65l137-17.09s8.2-3.27,22.13-7.37c3.39-3.37,5.5-9.06,8-12.77.38-.55.78-1.07,1.17-1.62-7.41,2.33-12,4-12,4s-32.42-1.57-65.63-2.87c20.64-2.85,35.41-9.33,42.74-21.58-14.78,9.63-52,9-72.92,6.27,11.13-1,22-6,30.6-9.81-9.52,2.82-22.14-5.55-33.62-14.91,2,.46,4,1,6,1.56-8.13-3.31-15.89-8.17-19.91-15.94,15.78,6.44,30.22,6.51,46.94,7-4.66-.69-10.93-6.66-16.2-9.89,18.2,6.37,31.23-16.41,31.23-16.41-32.28.55-64.29-23.42-64.29-23.42,25.23,4.25,48.5,2.5,52.69-7.8-6.11,6.63-18.3-9.48-27.59-5.8a26.64,26.64,0,0,0,11.65-13.54c-9.13.8-17.65,4.47-27,4.16,8.07-3.71,12.86-13.1,15-20.84-1.29-.07-2.59-.22-3.88-.39-10.63,1.67-21.41,4.74-32.12,4.24,6.09-.67,11.41-5.14,14.85-10-26.28,5.43-33.65,0-37.38-2.19q4.11.11,8,.24c14.78.5,27.14,1.11,37.78,1.87a13,13,0,0,1-1-8.35,9.83,9.83,0,0,1,5-6.47c-5-.25-9.89-.47-14.7-.67a36,36,0,0,1-9.37-3.82,76.83,76.83,0,0,0,25.2,2.91c-.24.46-.47.89-.71,1.32a12.42,12.42,0,0,1,3.4-1.1,9.44,9.44,0,0,1,4-4.91c1.82-1.07,5-1.76,7-.92.87.35,1.73.76,2.58,1.19a29.24,29.24,0,0,1-1.92-11.17,16.8,16.8,0,0,1-2.07-1.06l-.17-.12-.17-.08-.34-.26a41.71,41.71,0,0,1-3.7-2.86l-1.27-1a26.44,26.44,0,0,1-4.39-5.88c-17.14,1.83-37.64,1.4-45.64-5.47,6,0,12-.39,17.35-2a76.73,76.73,0,0,1-15.14-1.44c1.35-1.15,2.69-2.37,4-3.75-5.56.19-11.12.11-16.67.15l-.33-.12a20.45,20.45,0,0,0,8.51-3.73c5.67.52,11.45.86,17.31,1.32A281.41,281.41,0,0,0,751,379.4c23.54,4.05,38.33,7.66,61.39,4.06.21-.55.41-1.1.67-1.63-10.84-1.76-20.53-3.82-29.08-8.14,14.85.32,25.71-5.29,34.47-11-9.64,4.12-25,4.84-37.14,3.6a62.13,62.13,0,0,1-9.41-1.72,17.61,17.61,0,0,0,6.37-3.82,53.8,53.8,0,0,1-14.32,1.42A114.17,114.17,0,0,0,752,358.8c-.23-.14-.44-.29-.66-.45,7.26.12,14.53,0,21.79.09-9.59-1-20-3-27.27-6.68a21.32,21.32,0,0,1-1-2.62q3.06,0,6.12-.19c10.1,3.05,20.51.48,32.16.68-4-1.37-7.42-4.26-10.91-5.89,10.15.51,19.89-3.2,29.87-3.92a110.64,110.64,0,0,1-12.88-4.17c17.7-11.38,29-23.7,33.83-44.73-9.9,9.43-21.16,10.6-35.19,13.17,5.53-3.08,9.51-10.39,10.08-16-9.69,5-26.38,14-37.91,11.86-8.14-1.49-15.7-10.25-21.15-15.88,4.69-.17,9.46-.13,14.18,0-4.1-1.14-7.08-3.73-10.62-5.48,10,3.84,25.5-2.74,34.78-5.71-2.4-1.63-5.23-5-7.21-6.63,8.1.09,20.32-1.52,23.79-9.81-4.41,3.56-12,3.49-17.28,1.95,10.48-9.66,35.11-29.54,27.94-45.08-15.23,7.95-28.85,16.11-47,14.7,8.8-3.42,11-14.44,17.38-20.83-12.38,3.57-28.77,3.23-31.9-10.71,5.67.18,10.84-1.32,16.27-2.08-5-2.34-10.06-5.16-14-8.86,18.7-1.73,37.38-17.46,40.22-35.71-13.39,8.27-20.89,12.17-37.3,10.42,4.31-1.93,10.44-4.05,14.14-7.82-6.13,1-12.54-2.14-18.07-3.94,8.74-1.37,15.84-6.68,23.46-10-14.64,6.14-21.38,2.72-35-3.94,5.22.27,10-1.65,15-1.9-4.71-.78-9.06-2.69-13.82-3,7.05-.34,13.83-3.64,20.15-6.07-9.72,3.2-42.16-9.78-26.19-17.62-.57-.69-1.11-1.4-1.66-2.11A141.29,141.29,0,0,0,746,99.88c4.63-1.16,9.37-3.12,14.07-3.78-13.14,1.48-23-4.44-34.47-9.58,6.56-.52,13.24-1.51,19.83-1.77-8.52-3.64-17.66-6.26-25.5-11.33,3.11-1.46,8-1.15,11.42-1.57,2.65-.32,5.28-.72,7.92-1.07-6-.84-12.13-1.18-18-2.42a60.5,60.5,0,0,0,8.84-1.25,18.63,18.63,0,0,0-7.18-2.2A91.52,91.52,0,0,1,738.34,64c-3.81-1.65-7.87-2.57-11.84-3.79,0-1.52.12-2.92.18-4.31a32.07,32.07,0,0,0,5.56-.47c-1-3-5.18-6.22-6.88-9.23-1.15-2-2-4.17-3-6.28-1.31-4.19-2.39-8.46-3.55-12.67-1.82-6.63-4.2-13.09-5.93-19.73,1.21,5.6-1.06,21.89-3.55,33.88a30.27,30.27,0,0,1-11.27,11.28c2.57.53,5.23,1,7.85,1.39-.12.25-.24.54-.34.7a3.74,3.74,0,0,1,.31.27c-3.52,1.89-8.39,2.6-11.77,3.74,4.06.19,9.06.12,12.73.78-2.58,1.28-5.72,2.14-8.47,3.27,2.75,1.43,6.66,1.78,10.2,1.25-9.56,4.17-12.17,14.12-29.72,15,2.37.59,11.16,2.84,14.81.43-.38,4.26-9.4,5.12-14.47,5.76,4.33,1.7,7.67,4.48,13.21,4.45-6.47,2.37-8,3.59-15.27,2.1,1.06.86,1.87,2.69,3.3,3.66-5.51.42-11.74,1.26-17,.51,5.63,9,25.44,8.1,39.35,7.79-3.9,2.14-7.75,4.32-11.94,6.18,4.41-.33,8.86-.61,13.26-.72-1.16,6.94-26.25,7-32.94,8.37,4.3,1.1,8.34,2.72,13.13,3.27-10,5.28-11.71,6-23.39,6.71,3.23,1.14,6,2.86,9.76,3.3-8,.19-15.72,3-23.68,1.91,3.93,11.88,20,12.8,35,12.33-2.3,2.18-6.69,2.88-10.15,4.37,5.16-.53,9.74,1.08,14.4-.07-5.35,5.63-16,8.43-24.69,7.69,4.17.7,8.31,2.61,13.25,2.25-5.72,5-17.86,7.9-25.91,6.93,16.5,5.29,21.48,1,36.73-1.95-1,6.44-5.31,10-12.67,10,3,.72,7,1.11,10.33,1.77-7.5,4.79-27.52,1.33-35.7-.46,3.6,3.44,2.72,9.32,7.9,11.44s-20.19,3.66-15.54,5.58c-5.8,3.11-13.73,3.58-19.94,2.31,4.73,3.49,19.81,8.22,19.81,8.22a11.64,11.64,0,0,1-12,5.68c4.06,2.42,13.6,1.11,18.32,2.93-4.77.47-.72.7-6.12,1.27,4.39.11,7.79,4,29.28-2.43-2.8,3.88-12.2,10.21-17.59,10.73,4.88,3.24,15.46,3.08,13,3.86,8.55-.67,8.82,3,12.7,4.95-5.59,8.89-33.58,18.41-44.08,19a35.65,35.65,0,0,1,8.44,5.25c-9,2.78-19.38,1.42-28.66,2.19,8.69,10.81,16.36,16.43,30,18.76-5.31,3.73-12.07,6.18-18.43,8,3.4-.31,15.87-.67,22.33-1-1.27,5-4.12,10.54-9.32,13.47,6.81-2.72,21.18,9.1,26.49,4.09-.17,4.09-2.46,8-4.42,11.92,4.87-3.16,10.55-4.78,15.54-7.64,6-3.48,10.64-9.34,16.3-12.43,0,2.82.46,5.81-.21,8.64,4.29-3.63,8.74-7.17,12.43-11.19-9.57,16.88-25.48,24.94-48,29.57,2.56.4,5.7,2.26,8.55,2.68-29.89,20.39-47.5,16.06-55.1,11.82,7.62,12.15,20.39,16,32.56,18.92-7.7,2.94-17.84,6.17-26.19,5.82,9.66,5.19,13.22,1.71,24.8,3.38-3.09,6.37-18.76,15.16-18.76,15.16s16.14,7.44,39.26-.23c9.86-3.62,18.76-5.09,26.82-11.71.08.8.27,1.61.39,2.41-9.64,9.19-20.64,17.15-33.07,17.17a135.7,135.7,0,0,0,20.76,1.34c-6.83,5.4-19.83,8.07-31.49,9.27,7.76,0,15.52.06,23.28-.1-11.92,2.17-18.84,6.69-31.4,8-12.17,1.24-27.5.51-37.14-3.6,8.77,5.69,19.62,11.29,34.48,11-9.75,4.92-21,6.91-33.66,8.86,26.17,5.05,41.35,1.19,66.64-3.15A278,278,0,0,0,635,428.59c14.24-1.11,28-1.43,40.83-5.75a68.06,68.06,0,0,1-23.23,10.84c-19.53,1.62-43.91,4.23-66.5,6.84-.77-.2-1.54-.4-2.22-.6l1.52.68c-12.27,1.41-24,2.82-34.09,4.06a23.36,23.36,0,0,1-3.31-1.74c.41.69.86,1.34,1.33,2-18.21,2.24-30.67,3.88-30.67,3.88S531.66,448.56,552.18,448.29Zm262.7-37.83-.12.41c-.17.5-.38,1-.61,1.58-2.31-.2-4.51-.44-6.52-.71A47,47,0,0,0,814.88,410.46ZM606,447.71c1.26.23,2.52.42,3.78.53-12.34,1.63-31.37,2.36-46-.09C576.21,448,590.59,447.84,606,447.71Z" transform="translate(-12.17 -7.48)"/><path class="cls-2" d="M536,561.73c20.4,4,39.33,3,42.94-5.28-5.09,5.27-14.67-8.06-22.29-5.26a21.6,21.6,0,0,0,9.73-10.76c-7.43.47-14.42,3.28-22,2.84C551,540.42,555,532.88,557,526.65c-1.05-.09-2.1-.24-3.14-.4-8.67,1.15-17.48,3.43-26.17,2.8,5-.42,9.36-3.94,12.26-7.79-21.45,3.89-27.33-.63-30.32-2.52q3.34.16,6.45.35c12,.7,22,1.44,30.65,2.27a10.54,10.54,0,0,1-.68-6.8,8,8,0,0,1,4.15-5.15c-4.06-.31-8-.58-11.92-.84a29.45,29.45,0,0,1-7.54-3.29,62.71,62.71,0,0,0,20.41,2.87q-.3.54-.6,1.05a10.51,10.51,0,0,1,2.78-.83,7.71,7.71,0,0,1,3.34-3.9c1.5-.83,4.1-1.33,5.74-.61.7.31,1.39.65,2.08,1a23.44,23.44,0,0,1-1.34-9.11,14.07,14.07,0,0,1-1.67-.9l-.13-.1-.13-.07-.28-.22a34.54,34.54,0,0,1-2.95-2.4l-1-.82a21.1,21.1,0,0,1-3.45-4.86c-14,1.15-30.6.39-37-5.35a49.62,49.62,0,0,0,14.13-1.27,62.35,62.35,0,0,1-12.27-1.47c1.12-.91,2.24-1.88,3.36-3-4.52,0-9-.14-13.54-.21L508,475a16.55,16.55,0,0,0,7-2.86c4.59.54,9.28.93,14,1.41a230.26,230.26,0,0,0-25.32-10.93c19,3.75,31,7,49.77,4.52a14.05,14.05,0,0,1,.58-1.31c-8.77-1.65-16.6-3.51-23.46-7.19,12.06.55,21-3.78,28.22-8.23-7.91,3.15-20.37,3.43-30.23,2.18a51.26,51.26,0,0,1-7.62-1.58,14.23,14.23,0,0,0,5.25-3,43.45,43.45,0,0,1-11.65.87,94,94,0,0,0-9.59-3c-.18-.12-.35-.25-.52-.38,5.89.24,11.79.33,17.69.51-7.77-1-16.22-2.83-22-6a16.49,16.49,0,0,1-.79-2.15c1.66,0,3.32,0,5,0,8.14,2.68,16.65.79,26.11,1.19-3.21-1.19-5.94-3.6-8.74-5,8.22.62,16.21-2.2,24.33-2.58a90.36,90.36,0,0,1-10.38-3.65c14.6-8.89,24-18.67,28.36-35.65-8.22,7.46-17.39,8.18-28.83,10,4.55-2.39,7.93-8.24,8.5-12.76-8,3.9-21.7,10.82-31,8.88C506,397,500,389.7,495.73,385c3.81,0,7.68.08,11.51.25-3.3-1-5.67-3.18-8.51-4.67,8.08,3.32,20.76-1.71,28.36-3.95-1.92-1.37-4.15-4.14-5.73-5.52,6.58.23,16.54-.84,19.52-7.5-3.65,2.81-9.82,2.6-14.07,1.25,8.7-7.64,29.1-23.3,23.59-36.06-12.53,6.15-23.75,12.51-38.48,11,7.22-2.6,9.26-11.5,14.53-16.56-10.13,2.65-23.43,2.05-25.7-9.34,4.6.26,8.84-.86,13.26-1.36a43.66,43.66,0,0,1-11.18-7.48c15.23-1,30.7-13.43,33.38-28.2-11,6.45-17.21,9.47-30.5,7.72,3.54-1.48,8.56-3.08,11.63-6.06-5,.71-10.14-2-14.59-3.57,7.13-.93,13-5.11,19.25-7.69-12,4.69-17.41,1.78-28.32-3.9,4.23.33,8.11-1.14,12.24-1.24-3.8-.73-7.3-2.37-11.16-2.7,5.73-.14,11.3-2.69,16.49-4.53-8,2.4-34.05-8.79-20.92-14.83-.45-.57-.88-1.16-1.31-1.75a115.86,115.86,0,0,0,16.16-2.79c3.78-.85,7.67-2.34,11.5-2.79-10.7.94-18.57-4.06-27.8-8.46,5.34-.3,10.78-1,16.14-1-6.85-3.13-14.22-5.45-20.48-9.71,2.55-1.13,6.54-.78,9.31-1.05,2.15-.21,4.29-.48,6.45-.71-4.84-.8-9.83-1.21-14.6-2.33a48.1,48.1,0,0,0,7.21-.84,15.2,15.2,0,0,0-5.79-1.93,75.13,75.13,0,0,1,12.55-.46,96,96,0,0,0-9.54-3.32c.05-1.23.16-2.37.23-3.49a26.72,26.72,0,0,0,4.53-.27c-.76-2.46-4.09-5.16-5.41-7.64-.89-1.68-1.56-3.42-2.28-5.15-1-3.43-1.78-6.92-2.63-10.36-1.35-5.42-3.16-10.72-4.43-16.15.87,4.57-1.29,17.76-3.55,27.45a24.69,24.69,0,0,1-9.38,8.93c2.08.49,4.23,1,6.34,1.29a5.66,5.66,0,0,1-.29.56c.09,0,.16.16.25.22-2.89,1.47-6.86,1.95-9.64,2.81,3.3.24,7.36.27,10.33.89-2.12,1-4.69,1.62-6.94,2.48a14.24,14.24,0,0,0,8.25,1.22c-7.85,3.2-10.16,11.22-24.43,11.63,1.91.53,9,2.53,12,.64-.39,3.46-7.74,4-11.87,4.4,3.49,1.46,6.14,3.78,10.64,3.87-5.3,1.8-6.54,2.76-12.44,1.4.84.73,1.46,2.23,2.6,3-4.48.23-9.55.79-13.81.08,4.39,7.42,20.5,7.08,31.8,7.11-3.21,1.66-6.38,3.35-9.82,4.78,3.59-.18,7.21-.32,10.78-.32-1.07,5.61-21.46,5.19-26.92,6.13,3.48,1,6.72,2.38,10.61,2.93-8.19,4.08-9.64,4.6-19.13,5,2.6,1,4.83,2.44,7.86,2.87-6.53,0-12.83,2.11-19.28,1.08,3,9.73,16,10.79,28.15,10.71-1.92,1.72-5.5,2.21-8.33,3.35,4.19-.33,7.88,1.07,11.69.23-4.46,4.46-13.16,6.53-20.21,5.75,3.38.66,6.7,2.29,10.72,2.09-4.74,3.95-14.66,6.06-21.18,5.11,13.29,4.63,17.43,1.26,29.87-.85-1,5.21-4.51,8-10.49,7.88,2.42.65,5.68,1,8.36,1.65-6.19,3.73-22.38.52-29-1.1,2.86,2.87,2,7.63,6.19,9.45s-16.47,2.57-12.73,4.23c-4.78,2.4-11.22,2.63-16.24,1.48,3.77,2.92,15.93,7.06,15.93,7.06a9.47,9.47,0,0,1-9.9,4.37c3.25,2.06,11,1.18,14.83,2.75-3.89.29-.6.56-5,.91,3.56.18,6.24,3.44,23.82-1.39-2.35,3.1-10.11,8.05-14.5,8.37,3.9,2.73,12.49,2.81,10.45,3.39,6.95-.38,7.1,2.61,10.21,4.27-4.72,7.11-27.63,14.29-36.17,14.57a29,29,0,0,1,6.74,4.44c-7.37,2.08-15.76.76-23.31,1.2,6.84,8.95,13,13.67,24,15.84-4.39,2.92-9.93,4.78-15.13,6.15,2.77-.19,12.9-.22,18.16-.37-1.13,4-3.56,8.48-7.84,10.76,5.58-2.07,17,7.81,21.43,3.85-.22,3.32-2.16,6.47-3.83,9.59,4-2.47,8.66-3.67,12.77-5.9,5-2.7,8.83-7.37,13.49-9.76,0,2.29.26,4.72-.35,7A109.65,109.65,0,0,0,467,388.57c-8.1,13.51-21.19,19.74-39.53,23.05,2.07.38,4.58,1.95,6.89,2.35-24.68,16-38.9,12.1-45,8.5,5.95,10,16.24,13.4,26.07,16-6.31,2.24-14.61,4.66-21.39,4.22,7.75,4.4,10.71,1.64,20.08,3.23-2.64,5.11-15.54,11.94-15.54,11.94s13,6.36,31.88.59c8.09-2.74,15.34-3.76,22-9,.05.66.19,1.32.27,2-8,7.26-17.1,13.51-27.2,13.27a110,110,0,0,0,16.83,1.51c-5.65,4.25-16.26,6.16-25.75,6.9,6.3.12,12.6.36,18.9.38-9.72,1.53-15.43,5.06-25.65,5.85-9.92.76-22.34-.13-30.09-3.67,7,4.8,15.7,9.57,27.78,9.61-8,3.8-17.15,5.2-27.52,6.53,21.16,4.62,33.57,1.79,54.18-1.23a228,228,0,0,0-25.82,9.67c11.59-.61,22.81-.6,33.28-3.85a55.41,55.41,0,0,1-19.09,8.34c-15.89.92-35.74,2.56-54.14,4.22-.61-.17-1.24-.35-1.79-.52l1.23.58c-10,.9-19.55,1.81-27.77,2.62a19.63,19.63,0,0,1-2.66-1.48c.32.56.68,1.1,1,1.64-14.83,1.46-25,2.54-25,2.54s10.6.07,27.27.27c7.14,7.53,19.81,11.12,36.77,12.41-5,1.08-11,.88-16.14,1.54,12.06,5.09,29.69,7.22,43.69,3.27-8.46,5-25.41,4.64-34.21,8.87,10.5.63,18,3.56,29.32,2.8,11.09-.74,20.34-3.86,30.48-5.74-.2,4.81-15,8.42-21.91,10.17,9.84.83,18.81-.44,28.48-1-12.74,2.27-21.46,8-36,7.36,5.48,3.52,16.5,2.07,24.15,1.64-14.39,3.51-34.23,7-49.18,2.52,7.08,4.12,19.89,6.34,30.05,6.38-7.6,3.41-15.8,4.58-23.82,7.2,3.41.84,7.69.85,11.89.84-14.85,2.28-41.39,7.74-56.51,2.39,6.37,3,12.95,6.39,20.16,8.36,9.88,2.7,21.53,2,31.67,2.57-9.11,1.91-17,2.1-26.59,1.66,17.13,4.6,44.36,13.9,59.62,2.27-2.18,4.48-9.08,5.47-14.58,8.06,7.82.62,7.58,3.67,8.41,3.83-12.79,9.46-21.78,2.29-49,3.13,0,0,21.77,12.2,29.83,12.25-17.43,9.06-33.82-3.75-57.75-4.87,7.05,2.87,7.23,17.41,15.86,17.09-11.91,8.57-12.09,12.87-31,11.64,14.5,4.7,31.74,9.22,47.27,5.25l-1.6.71c-18.86,2-32.12,4.2-32.12,4.2s6.85-.05,18.72.2c15.69,4.23,36,9.68,51.86,3.33-1.05,2.51-4.3,4.44-7.79,5.7,9.9-1.3,21.41-2.24,30.68-5.12q4,.32,8,.68a14.79,14.79,0,0,1-4.33,2,42.6,42.6,0,0,0,7.61-1.71c3.78.34,7.6.71,11.49,1.1l1.63.15-.74,82.12q10.37.81,20.71,2l.75-82.46c2.24.14,4.44.25,6.6.35a92,92,0,0,0,9.73,3,18.15,18.15,0,0,1,10.18-4c1.93-.12,3.86-.31,5.79-.47l1.22-.14,1.76-.27c2.22-.37,4.44-.79,6.64-1.24,1.59-1.2,3.2-2.36,4.82-3.5,8.49-5.94,18.48-11.53,28.92-14,2-4.58,6.34-7.75,11.25-9.11-5-.37-9.61-.9-13.53-1.52,9.06-.61,18-4.45,25.05-7.36-7.79,2.1-17.87-4.94-27-12.77,1.61.41,3.21.86,4.82,1.38-6.54-2.84-12.74-6.95-15.85-13.34,12.68,5.54,24.41,5.89,38,6.63-3.77-.64-8.75-5.62-13-8.35,14.65,5.54,25.69-12.7,25.69-12.7C561.53,581.84,536,561.73,536,561.73Zm18.92-72.58-.12.33c-.14.4-.32.83-.52,1.27-1.87-.22-3.65-.45-5.28-.71A38.29,38.29,0,0,0,554.93,489.15Zm-204.7,25.6c10.13.12,21.81.28,34.32.49,1,.2,2,.38,3.06.5C377.56,516.81,362.09,517,350.23,514.75Z" transform="translate(-12.17 -7.48)"/><path class="cls-2" d="M671.26,656.31s6.72-17.73-1.53-24.46c0,0,19.56,11.62,17.73,20.79S671.26,656.31,671.26,656.31Z" transform="translate(-12.17 -7.48)"/></svg>