<svg width="874" height="769" viewBox="0 0 874 769" fill="none" xmlns="http://www.w3.org/2000/svg">
<path d="M869.243 541.141C866.931 541.141 864.451 541.779 862.426 540.755C860.03 539.508 859.73 536.518 857.406 535.21C853.477 533 847.714 536.508 843.484 534.338C842.119 533.628 841.16 532.422 839.711 531.854C834.918 529.989 829.084 533.273 824.243 529.928C823.643 529.554 823.192 529.035 822.948 528.44C822.704 527.844 822.679 527.2 822.878 526.593C823.752 524.646 836.991 525.781 839.267 524.007C840.038 523.387 840.554 522.574 840.739 521.687C840.925 520.8 840.77 519.887 840.298 519.08C839.263 517.661 837.611 516.641 835.697 516.242C823.788 513.028 810.669 520.175 798.796 515.278C789.212 511.335 779.974 508.689 770.042 504.299C768.592 503.531 766.952 503.056 765.25 502.91C763.369 502.91 761.656 503.67 759.751 503.863C753.94 504.441 749.807 499.504 745.194 496.483C741.216 493.877 736.173 492.427 732.77 489.315C729.367 486.203 728.936 480.089 733.585 478.467C735.885 481.428 740.426 482.34 744.535 483.019L761.045 485.736C764.31 486.39 767.657 486.71 771.013 486.689C778.992 486.365 779.687 481.509 785.977 479.846C791.224 478.447 796.927 481.874 802.318 479.988C803.313 479.643 804.152 479.035 805.146 478.701C808.369 477.687 811.699 479.714 814.731 481.144C823.704 485.371 834.739 484.003 844.85 482.512C846.396 482.279 848.169 481.914 848.864 480.718C849.069 480.223 849.152 479.697 849.106 479.174C849.061 478.651 848.889 478.141 848.6 477.677C847.483 475.311 845.77 473.18 843.58 471.432C845.33 471.219 846.084 469.242 845.402 467.863C844.532 466.548 843.212 465.488 841.616 464.822C831.216 459.357 823.489 446.573 809.375 450.365C809.1 448.401 808.058 446.571 806.416 445.164C804.18 445.048 801.955 445.505 800.031 446.477C798.107 447.448 796.574 448.888 795.633 450.608C795.046 451.723 794.435 453.163 792.95 453.173C792.159 453.081 791.422 452.783 790.841 452.321C787.774 450.537 783.652 450.497 780.058 451.46C772.87 453.396 769.024 455.758 761.224 455.799C763.081 454.39 764.891 451.936 764.303 449.716C763.644 447.202 759.343 445.742 757.354 447.688C755.785 449.209 756.3 451.875 754.407 453.092C753.113 453.923 751.304 453.68 749.723 453.406C743.996 452.392 737.454 450.872 735.058 446.36C734.22 444.769 734.591 442.305 736.652 442.092C737.431 442.091 738.196 442.266 738.868 442.599C742.928 444.13 747.395 444.724 751.815 444.32C756.234 443.916 760.448 442.528 764.028 440.298C764.557 440.037 765.01 439.68 765.354 439.252C765.698 438.824 765.924 438.336 766.017 437.824C765.915 437.157 765.713 436.503 765.418 435.878C764.687 433.282 767.814 430.88 770.965 430.596C774.116 430.312 777.147 431.427 780.154 432.228C784.599 433.414 786.6 432.654 788.541 431.397C790.357 429.954 792.463 428.797 794.759 427.98C806.74 424.27 819.511 426.865 831.779 426.165C833.098 426.189 834.395 425.871 835.493 425.253C835.758 425.094 835.982 424.89 836.151 424.656C836.32 424.421 836.431 424.16 836.477 423.887C836.523 423.615 836.503 423.338 836.418 423.073C836.334 422.807 836.186 422.559 835.984 422.343C835.421 421.867 834.523 421.766 833.888 421.33C832.69 420.569 832.822 419.059 831.947 418.075C830.222 416.108 826.208 417.284 823.932 415.774C823.249 415.22 822.66 414.589 822.183 413.898C815.15 405.504 796.172 410.796 802.426 396.765C802.868 395.973 803.031 395.089 802.894 394.221C802.402 392.355 799.695 391.737 797.466 391.463L781.891 389.557C780.391 389.454 778.927 389.11 777.578 388.543C774.487 387.053 773.613 383.677 773.157 380.686C772.918 379.085 772.762 377.31 773.864 375.992C775.853 373.63 780.274 374.32 783.209 372.819C796.208 366.199 814.91 372.748 828.509 377.016C832.103 378.152 836.787 379.237 839.459 376.854C842.131 374.472 840.561 370.508 838.177 367.923C837.243 366.909 836.164 365.895 836.116 364.607C836.069 363.32 837.039 362.255 837.518 361.059C837.91 360.031 837.944 358.929 837.617 357.885C837.29 356.841 836.615 355.898 835.673 355.169C834.192 354.304 832.643 353.525 831.036 352.837C828.952 351.692 827.442 349.938 825.453 348.691C819.703 345.102 797.73 342.355 790.865 343.885C794.303 343.115 795.418 338.614 792.638 336.789C791.38 336.06 789.917 335.627 788.397 335.532C781.807 334.704 775.083 335.112 768.7 336.728C767.023 337.154 765.106 337.64 763.621 336.839C761.416 335.653 762.243 332.541 764.387 331.284C766.532 330.027 769.323 329.996 771.899 329.682C774.475 329.368 777.339 328.496 778.297 326.438C779.699 323.396 775.781 320.284 771.971 320.112C768.161 319.939 764.615 321.582 761.021 322.667C754.378 324.646 747.157 324.752 740.438 322.971C737.706 322.241 734.951 321.197 732.123 321.511C730.494 321.826 728.893 322.236 727.331 322.737C718.285 324.907 704.567 313.887 710.438 306.273C711.708 304.641 714.355 304.124 716.632 304.479C718.876 304.964 721.021 305.733 722.994 306.76C733.26 311.216 744.99 312.643 756.324 310.815C757.354 310.643 758.541 310.318 758.852 309.477C758.914 309.105 758.867 308.726 758.717 308.373C758.567 308.02 758.317 307.703 757.99 307.449C755.474 304.986 735.669 301.215 744.643 295.983C749.16 293.347 756.288 299.288 759.487 301.468C760.433 302.22 761.523 302.83 762.71 303.272C763.912 303.562 765.169 303.655 766.412 303.546C771.923 303.364 776.512 306.334 781.232 306.405C787.858 306.496 785.869 303.414 787.654 299.471C790.05 294.047 807.35 296.429 812.502 296.429C815.483 296.559 818.465 296.216 821.296 295.416C833.421 291.259 830.689 278.891 822.494 271.307C817.63 266.796 810.837 263.978 804.092 265.6C802.946 265.965 801.707 266.073 800.497 265.914C798.173 265.417 797.143 263.197 796.005 261.413C791.14 253.809 788.217 267.495 780.43 266.188C770.845 264.616 758.864 254.316 750.801 249.693C750.801 248.02 754.18 248.345 755.498 247.098C755.902 246.61 756.074 246.011 755.978 245.421C755.883 244.83 755.527 244.292 754.982 243.915C753.861 243.188 752.528 242.733 751.125 242.597C744.499 241.471 737.059 240.65 731.284 237.426C726.276 234.638 718.321 230.482 717.866 224.987C717.518 220.82 719.22 214.301 723.748 212.132C729.343 209.466 736.855 213.744 742.187 215.467C745.278 216.481 748.908 217.495 751.772 216.015C753.448 214.965 754.743 213.539 755.51 211.899C756.375 210.782 756.745 209.442 756.552 208.117C756.061 206.475 753.928 205.573 751.951 205.37C749.974 205.167 747.938 205.461 745.961 205.208C745.321 205.152 744.712 204.948 744.2 204.62C742.906 203.657 743.433 201.913 743.301 200.463C743.109 199.385 742.6 198.366 741.822 197.498C741.043 196.63 740.019 195.942 738.844 195.495C736.484 194.626 733.978 194.075 731.416 193.863C729.773 193.762 728.195 193.281 726.851 192.474C725.653 191.572 725.078 189.808 726.204 188.804C727.918 187.243 731.188 188.804 733.465 187.912C736.244 186.797 736.58 182.377 739.659 182.61C740.573 182.755 741.411 183.137 742.055 183.705C747.914 187.943 751.64 193.062 759.487 194.37C767.61 195.729 776.021 193.924 784.168 195.151C786.324 195.475 788.864 195.708 790.434 194.411C792.003 193.113 791.74 190.731 791.128 188.825C790.926 187.901 790.456 187.034 789.763 186.3C788.684 185.286 786.983 185.003 785.653 184.273C779.231 180.633 775.913 172.644 769.12 168.518C770.689 166.349 772.271 164.179 773.84 161.999L753.976 158.593C752.049 158.414 750.206 157.824 748.621 156.88C743.517 153.26 745.649 143.802 741.887 138.935C747.446 139.29 751.688 143.092 756.6 145.292C761.512 147.492 769.467 146.945 770.474 142.322C771.228 138.834 767.346 135.945 763.656 134.282C759.966 132.62 755.629 130.997 754.276 127.652C753.269 125.168 754.276 122.451 754.18 119.815C753.952 112.719 746.356 107.65 739.875 103.199C733.393 98.7484 726.851 92.0472 729.535 85.2953L739.12 87.3229C739.359 81.5037 731.488 77.1849 731.68 71.3454C731.877 69.8177 732.217 68.3057 732.698 66.8239C734.903 57.0001 725.138 48.4335 721.316 38.9646C719.639 34.8283 719.112 30.4284 718.501 26.0792C717.83 21.409 717.031 16.7421 716.105 12.0786C715.494 8.96627 714.775 5.73225 712.51 3.20789C710.246 0.683526 706.053 -0.847315 702.698 0.50104C698.78 2.12312 698.086 6.45205 696.875 9.99021C692.586 22.4904 677.634 32.5878 667.079 41.1747C664.683 43.0908 663.952 47.1054 666.983 48.1294C668.745 48.7275 670.685 47.8962 672.315 47.1156L686.548 40.019C686.975 39.7388 687.465 39.5351 687.988 39.4201C688.512 39.305 689.057 39.2812 689.591 39.3499C690.957 39.6946 691.424 41.0936 691.688 42.2798C692.562 46.1829 693.078 50.9376 689.423 53.4316C688.094 54.2012 686.647 54.815 685.122 55.2564C676.304 58.5006 670.745 65.7999 664.216 71.7509C660.027 75.5473 655.289 78.8819 650.115 81.676C648.924 82.1718 647.941 82.9643 647.299 83.9469C646.796 84.9607 647.467 86.4612 648.773 86.4916L646.041 94.2979C650.833 94.9467 654.979 91.7329 658.489 88.9146C661.999 86.0962 666.744 83.2271 671.285 84.6566C668.433 87.698 664.599 89.9081 661.7 92.838C657.135 97.3494 657.207 103.848 655.901 109.464C655.728 110.606 655.323 111.714 654.703 112.739C653.903 113.739 652.935 114.633 651.828 115.395C647.721 118.612 644.548 122.588 642.555 127.013C641.98 128.09 641.749 129.274 641.884 130.45C642.447 133.177 646.233 134.505 649.492 134.617C652.75 134.728 656.225 134.282 659.148 135.509C663.94 137.536 664.827 142.758 665.138 147.218C655.554 151.375 648.365 158.806 638.541 162.679C635.761 163.784 632.778 164.595 630.334 166.156C627.039 168.255 622.894 174.611 624.14 178.322C625.554 182.488 632.347 183.107 633.725 187.304C627.601 189.852 622.161 193.437 617.742 197.837C616.544 199.054 615.346 200.341 614.232 201.619L611.74 204.407C609.008 207.448 606.193 210.702 605.486 214.494L611.153 219.198C608.182 221.307 603.653 220.425 599.999 221.54C598.813 221.963 597.745 222.591 596.863 223.385C595.982 224.178 595.306 225.118 594.879 226.146C594.453 227.173 594.285 228.264 594.387 229.35C594.489 230.435 594.857 231.491 595.47 232.448C597.459 235.206 601.257 236.504 604.671 238.024C608.086 239.545 611.644 241.623 612.243 244.817C613.789 252.978 595.099 248.73 590.402 251.589C586.305 254.083 586.161 260.074 581.428 261.585C579.032 262.356 576.181 261.585 573.749 262.325C570.754 263.227 569.328 266.036 567.303 268.124C562.81 272.757 550.302 274.582 548.565 280.878C546.169 289.779 559.599 287.153 563.613 282.53C564.811 281.202 565.614 279.641 567.207 278.617C568.801 277.593 571.329 277.41 572.407 278.789C573.485 280.168 572.143 282.216 570.55 283.351C568.956 284.487 566.956 285.541 566.56 287.275C566.45 288.075 566.618 288.885 567.043 289.605C567.469 290.325 568.134 290.925 568.956 291.33C570.636 292.104 572.481 292.586 574.384 292.749C578.062 293.276 582.77 294.777 586.365 294.594C591.157 294.331 595.949 291.553 600.466 290.286C614.34 285.693 630.059 282.865 644.004 287.315C650.426 289.343 656.368 292.922 663.173 293.347C665.15 293.469 667.211 293.347 669.02 294.027C670.829 294.706 672.183 296.642 671.165 298.082C670.714 298.637 670.081 299.067 669.344 299.319C662.97 301.863 655.734 298.487 648.892 297.088C640.158 295.304 631.041 296.835 622.151 297.96C607.607 299.795 591.876 297.96 577.69 300.099C561.277 302.593 579.883 310.055 578.889 315.114C578.589 316.716 577.93 318.358 578.385 319.929C581.596 319.656 584.376 317.8 586.436 315.742C588.497 313.684 590.294 311.332 592.666 309.487C593.799 308.46 595.348 307.834 597.003 307.733C598.645 307.733 600.334 308.95 600.083 310.318C599.766 311.126 599.305 311.889 598.717 312.579C598.286 313.35 598.441 314.536 599.424 314.718C599.835 314.752 600.25 314.689 600.622 314.536C607.307 312.508 616.748 316.178 623.793 316.756C632.79 317.506 642.483 318.287 650.438 322.251C664.419 329.216 636.061 328.82 643.249 336.627C644.344 337.589 645.721 338.289 647.239 338.654C653.229 340.682 659.088 344.048 661.904 349.035C664.719 354.023 663.569 360.826 658.13 363.867C657.07 364.54 655.776 364.897 654.452 364.881C648.461 364.526 646.496 357.876 643.285 354.743C639.691 351.256 634.396 350.799 630.466 347.647C625.099 343.389 624.835 335.603 622.079 330.067C621.301 328.476 620.222 326.732 618.269 326.266C615.586 325.647 613.094 327.837 612.159 330.057C611.225 332.277 611.069 334.771 609.452 336.687C607.69 338.715 604.396 339.932 603.629 342.395C603.162 343.916 603.809 345.558 603.329 347.069C602.738 348.318 601.899 349.474 600.849 350.485C599.683 351.95 598.944 353.629 598.694 355.382C598.444 357.136 598.69 358.915 599.412 360.573C601.664 365.642 604.336 369.818 606.301 374.918C606.601 375.983 607.201 376.971 608.05 377.797C609.092 378.669 610.746 379.125 611.177 380.301C611.608 381.477 610.626 382.613 609.703 383.535L602.742 390.5C602.528 390.881 602.198 391.207 601.786 391.446C601.374 391.684 600.894 391.826 600.397 391.857C599.899 391.888 599.401 391.807 598.952 391.622C598.503 391.437 598.12 391.155 597.842 390.804C596.752 390.804 589.324 386.435 587.862 385.634C583.705 383.373 580.434 380.078 576.936 377.067C574.036 379.389 574.983 383.353 574.983 386.729C575.023 387.328 574.887 387.927 574.587 388.472C573.389 390.348 569.711 389.567 567.818 390.997C567.219 391.553 566.848 392.258 566.762 393.008C566.676 393.757 566.878 394.509 567.339 395.153C571.76 402.118 583.896 403.061 590.869 407.228C593.733 408.931 596.081 411.81 595.326 414.699C594.428 418.177 589.336 419.88 585.25 419.109C581.165 418.339 577.834 415.855 574.731 413.452C569.004 409.022 565.506 404.196 557.299 403.598C555.825 403.497 554.148 403.436 553.058 404.308C549.907 406.822 556.257 412.195 552.95 414.568C549.174 413.605 545.182 413.421 541.305 414.03C541.58 419.424 543.342 424.675 545.091 429.866C545.296 430.742 545.771 431.557 546.469 432.228C548.973 434.256 556.053 434.377 559.396 435.634C563.864 437.147 567.899 439.449 571.233 442.386C574.764 445.614 577.339 449.506 578.745 453.741C579.032 454.633 580.602 465.095 579.284 464.953C571.581 464.079 564.051 462.341 556.892 459.783C553.381 458.526 549.883 457.046 546.109 456.792C540.358 456.407 534.943 458.82 529.911 461.243C529.048 461.648 528.09 462.186 527.994 463.017C528.023 463.421 528.16 463.814 528.397 464.166C528.634 464.517 528.964 464.818 529.36 465.045C540.766 473.713 555.814 480.769 559.935 493.269C551.812 491.819 544.156 486.172 536.237 488.301C534.072 489.003 532.05 489.988 530.246 491.221C523.381 495.408 516.373 499.717 511.64 505.657C505.494 513.362 502.703 526.582 515.989 527.961C521.129 528.478 535.29 528.58 528.461 535.879C526.401 538.089 523.274 539.326 520.243 540.492L500.762 548.004C496.544 549.626 492.088 551.42 489.656 554.756C488.625 556.175 488.026 557.797 487.116 559.267C482.886 566.1 472.954 568.645 463.945 569.831C454.935 571.017 445.159 571.757 438.342 576.867C436.029 578.59 434.172 580.75 431.704 582.311C427.092 585.231 421.006 585.677 415.53 587.187C408.102 589.215 396.505 601.593 408.198 606.257C410.702 607.271 413.661 606.744 416.345 606.145C432.052 602.638 446.668 596.139 462.591 593.25C470.203 591.757 478.077 591.479 485.81 592.429C498.617 594.183 494.855 597.194 485.81 602.029C483.318 603.357 480.514 604.756 479.663 607.098C478.813 609.44 480.586 612.441 483.258 613.749C486.077 614.942 489.31 615.233 492.363 614.57C495.418 614.043 498.354 612.989 501.289 612.208C511.329 609.602 521.656 610.414 531.516 613.019C542.694 615.959 549.404 617.135 561.037 614.033C572.67 610.931 585.166 610.545 597.315 611.519C603.497 612.005 609.643 612.836 615.754 613.779C620.342 614.499 625.542 616.273 630.13 615.168C633.126 614.459 635.821 613.08 638.721 612.127C641.225 611.305 643.872 610.84 646.556 610.748C647.311 610.682 648.074 610.78 648.773 611.032C649.31 611.35 649.764 611.76 650.105 612.234C664.23 631.939 642.061 643.751 609.008 658.462C586.664 668.387 563.817 677.511 538.945 681.84C520.35 685.064 503.673 693.631 485.031 696.915C475.446 698.608 469.648 699.531 462.83 693.519C456.013 687.507 452.239 677.998 451.173 669.958C446.313 674.16 442.547 679.178 440.121 684.687C437.694 690.196 436.659 696.075 437.084 701.944C433.861 698.734 429.919 696.096 425.486 694.182C421.053 692.268 416.215 691.116 411.253 690.792C415.741 695.315 419.75 700.162 423.234 705.279C415.571 703.659 407.473 704.459 400.458 707.53L407.887 716.765C400.458 718.529 392.851 720.365 386.609 724.197C380.367 728.029 375.682 734.335 376.641 740.843C375.982 736.383 308.817 738.349 302.012 738.684C278.781 739.829 254.089 746.45 231.098 745.243C227.12 745.04 223.418 743.51 219.764 742.151C188.326 730.571 68.5672 729.289 36.0742 738.552C23.4225 742.212 2.04872 751.032 0 763.897C23.5063 766.198 133.191 764.181 156.949 764.201L232.296 764.282C296.992 764.343 361.732 764.387 426.517 764.414H570.286C632.059 764.414 694.048 763.907 756.073 763.907H808.788C809.088 763.907 810.466 763.319 810.166 763.37C809.399 746.906 805.997 719.168 800.09 703.464C792.997 684.598 780.561 665.315 758.96 657.712C757.415 657.317 756.018 656.586 754.911 655.593C751.137 651.375 763.369 640.771 758.78 638.358C758.078 638.057 757.28 637.954 756.504 638.064C751.73 638.41 747.166 639.878 743.325 642.302L741.564 632.387L737.119 637.537C737.478 628.595 738.712 619.694 740.809 610.925C734.167 620.42 730.29 631.116 729.499 642.13C727.239 638.027 724.95 633.928 722.634 629.832C723.366 633.798 723.076 637.852 721.784 641.714C718.751 638.43 715.927 635.012 713.325 631.474C719.762 640.199 693.879 646.693 694.731 625.479C694.863 621.961 695.018 618.382 696.384 615.067C697.75 611.752 700.565 608.67 704.495 607.555C709.12 606.227 714.236 607.838 718.297 610.13C722.359 612.421 725.893 615.401 730.278 617.287C732.267 618.159 734.639 618.777 736.688 618.037C739.012 617.196 740.102 614.813 739.887 612.684C739.493 610.567 738.579 608.543 737.203 606.744C738.401 603.702 742.69 602.293 746.464 602.486C750.238 602.678 753.736 604.087 757.343 605.03C767.323 607.646 776.656 605.233 786.66 604.848C797.442 604.442 808.453 604.28 819.271 604.604C819.999 604.671 820.735 604.602 821.428 604.402C822.118 604.115 822.678 603.645 823.021 603.063C828.281 594.953 810.897 594.183 806.644 592.733C803.684 591.719 801.348 588.485 803.301 586.366C806.38 583.031 816.48 582.017 821.044 582.017C824.711 582.017 828.233 583.132 831.827 583.822C835.421 584.511 839.423 584.673 842.49 582.98C842.877 582.783 843.208 582.516 843.461 582.199C843.706 581.714 843.737 581.169 843.545 580.666C843.353 580.163 842.953 579.735 842.418 579.462C841.307 578.949 840.084 578.632 838.824 578.529C834.798 577.881 830.294 575.64 830.437 572.163C830.437 571.21 830.845 570.196 830.33 569.355C827.538 564.701 820.745 568.746 822.35 561.589C823.956 554.431 832.702 552.84 839.794 553.478C846.161 554.068 852.577 554.166 858.964 553.773C862.091 553.706 865.176 553.142 868.057 552.11C872.454 550.214 878.277 540.968 869.243 541.141ZM581.153 540.299L581.956 540.836C585.19 542.377 586.257 545.824 588.593 548.257C590.067 549.778 592.103 550.974 592.954 552.799C593.805 554.624 592.367 557.331 590.091 556.966C589.629 556.87 589.188 556.713 588.785 556.5L576.277 550.701C573.617 549.474 570.598 547.74 570.646 545.175C570.745 544.007 571.341 542.909 572.323 542.083C573.445 541.111 574.87 540.427 576.433 540.111C577.996 539.795 579.632 539.861 581.153 540.299ZM539.592 509.794C541.544 506.641 546.564 506.175 550.782 506.114C553.178 506.114 555.73 506.114 557.85 507.036C559.016 507.664 560.101 508.395 561.085 509.216C563.008 510.622 565.148 511.798 567.447 512.714C570.73 514.011 574.803 515.177 575.833 518.127C576.107 519.056 576.022 520.034 575.591 520.919C575.16 521.804 574.405 522.549 573.437 523.044C569.843 524.798 555.801 521.858 551.584 521.017C548.194 520.368 544.707 519.567 542.084 517.641C539.46 515.714 537.986 512.399 539.592 509.794ZM593.805 594.598C583.202 593.331 572.479 594.73 561.84 593.96C553.453 593.351 546.588 589.063 538.405 588.667C538.108 588.676 537.814 588.605 537.567 588.465C537.375 588.306 537.259 588.093 537.243 587.867C537.135 586.449 537.695 585.053 538.801 583.984C540.341 582.477 541.441 580.685 542.012 578.753C542.311 577.546 541.532 576.137 542.239 574.991C544.324 571.575 545.498 574.991 548.637 576.005C554.352 577.891 561.073 575.488 566.848 577.252C571.796 578.773 576.061 581.551 580.793 583.538C589.647 587.248 608.17 587.998 613.357 595.825C608.313 597.893 599.208 595.237 593.805 594.598ZM650.45 252.877C647.251 251.194 644.148 249.085 640.41 248.669C637.223 248.314 633.521 249.136 631.089 247.351C628.992 245.8 629.004 243.093 628.058 240.873C627.165 239.209 626.081 237.624 624.823 236.139C623.805 234.709 618.581 226.305 622.607 225.352C623.529 225.139 624.44 225.717 625.17 226.254C631.808 231.019 638.924 233.422 647.095 235.297C656.488 237.426 659.184 240.498 660.202 245.628C660.705 248.112 660.813 251.072 661.101 254.651C657.638 255.898 653.649 254.559 650.45 252.877ZM673.106 227.623C673.021 227.88 672.857 228.113 672.63 228.298C672.404 228.484 672.123 228.615 671.816 228.678C671.51 228.741 671.189 228.734 670.887 228.657C670.585 228.58 670.313 228.437 670.098 228.241C657.842 221.966 639.248 221.489 632.958 208.634C632.234 207.418 631.907 206.06 632.011 204.701C632.085 204.024 632.431 203.389 632.992 202.902C633.552 202.415 634.293 202.105 635.091 202.024C636.164 202.145 637.193 202.459 638.11 202.947C642.543 204.66 648.892 204.032 653.685 205.491C662.467 208.127 669.703 212.588 673.585 219.624C673.681 219.776 673.764 219.938 673.848 220.09C674.693 221.247 675.079 222.601 674.95 223.956C674.82 225.311 674.183 226.596 673.13 227.623H673.106ZM674.088 113.996C673.257 114.759 672.492 115.572 671.8 116.429C670.91 117.566 669.833 118.591 668.601 119.471C666.336 120.941 662.347 121.001 661.269 118.771C660.911 117.78 660.911 116.721 661.269 115.73C663.066 108.44 673.908 76.0596 686.823 91.6924C696.911 103.929 682.091 106.97 674.088 113.996Z" fill="#0B0B0B"/>
<path d="M414.591 764.489C408.321 764.489 387.264 761.616 384.347 768.157L242.565 766.482C243.805 764.746 242.157 762.41 239.955 761.591C237.753 760.772 235.245 760.919 232.839 760.772C224.556 760.258 217.323 755.943 209.507 753.497C192.534 748.13 173.402 751.541 156.516 757.08C151.018 758.608 145.185 761.958 139.352 762.276C134.978 762.496 129.247 760.686 124.77 760.051C122.455 759.854 120.209 759.272 118.165 758.339C117.163 757.85 116.354 757.127 115.836 756.259C115.318 755.39 115.114 754.413 115.248 753.448C115.729 751.358 118.165 750.086 120.104 748.717C122.044 747.348 123.677 744.878 122.364 743.215C121.052 741.552 117.975 741.772 116.036 743.007C114.096 744.242 113.119 746.125 111.661 747.727C106.776 753.302 90.4294 756.468 93.3459 745.734C95.4603 738.141 110.684 735.94 116.152 730.353C118.617 727.834 120.352 724.448 123.997 723.36C126.958 722.467 130.428 723.396 133.345 722.467C139.105 720.645 139.28 713.42 144.267 710.412C149.983 706.964 172.731 712.087 170.85 702.245C170.121 698.394 165.79 695.887 161.634 694.053C157.478 692.219 152.856 690.654 150.435 687.329C149.689 686.174 149.24 684.901 149.117 683.592C148.993 682.283 149.197 680.967 149.716 679.728C150.235 678.489 151.058 677.354 152.131 676.398C153.204 675.441 154.504 674.684 155.947 674.173C160.395 672.829 165.907 673.892 169.523 671.349L162.626 665.676C163.486 661.104 166.913 657.179 170.238 653.511L173.271 650.149C174.627 648.608 176.085 647.056 177.543 645.588C182.921 640.282 189.542 635.958 196.996 632.885C195.319 627.824 187.051 627.078 185.33 622.053C183.814 617.578 188.859 609.912 192.869 607.381C195.844 605.499 199.475 604.52 202.858 603.188C214.815 598.517 223.565 589.555 235.23 584.543C234.851 579.163 233.772 572.867 227.939 570.421C224.381 568.942 220.152 569.48 216.186 569.345C212.22 569.211 207.612 567.609 206.926 564.32C206.762 562.903 207.044 561.474 207.743 560.176C210.169 554.839 214.031 550.044 219.03 546.164C220.377 545.246 221.556 544.167 222.529 542.961C223.284 541.725 223.777 540.389 223.988 539.012C225.577 532.239 225.489 524.402 231.045 518.961C234.574 515.428 239.24 512.762 242.711 509.094C237.184 507.371 231.41 510.831 227.137 514.23C222.865 517.628 217.819 521.504 211.986 520.722L215.311 511.307C213.722 511.271 212.905 509.461 213.518 508.239C214.299 507.054 215.495 506.098 216.944 505.5C223.242 502.13 229.009 498.109 234.108 493.53C242.055 486.354 248.821 477.551 259.553 473.638C261.409 473.106 263.17 472.366 264.788 471.438C269.236 468.43 268.609 462.696 267.544 457.989C267.224 456.558 266.655 454.871 264.992 454.455C264.342 454.372 263.678 454.401 263.042 454.54C262.405 454.679 261.809 454.924 261.289 455.262L243.965 463.821C241.982 464.762 239.62 465.765 237.476 465.043C233.787 463.808 234.676 458.967 237.593 456.656C250.44 446.3 268.638 434.123 273.858 419.048C275.331 414.781 276.177 409.561 280.945 407.604C285.028 405.978 290.132 407.824 292.888 410.869C295.644 413.913 296.519 417.813 297.263 421.567C298.391 427.191 299.363 432.819 300.179 438.451C300.923 443.696 301.565 449.002 303.606 453.991C308.258 465.41 320.142 475.741 317.459 487.588C316.874 489.376 316.459 491.199 316.22 493.041C315.986 500.084 325.567 505.292 325.275 512.31L313.609 509.865C310.343 518.007 318.305 526.089 326.194 531.456C334.083 536.824 343.328 542.937 343.605 551.495C343.722 554.674 342.497 557.951 343.722 560.946C345.369 564.981 350.648 566.937 355.139 568.942C359.631 570.947 364.355 574.432 363.437 578.637C362.212 584.213 352.529 584.873 346.55 582.22C340.572 579.567 335.41 574.982 328.644 574.554C333.223 580.422 330.627 591.83 336.839 596.194C338.769 597.333 341.011 598.044 343.357 598.261L367.534 602.369C365.624 604.997 363.699 607.614 361.789 610.23C370.057 615.206 374.096 624.84 381.912 629.23C383.531 630.11 385.602 630.452 386.914 631.675C387.758 632.56 388.329 633.605 388.576 634.719C389.32 637.018 389.641 639.891 387.731 641.456C385.82 643.021 382.729 642.74 380.104 642.348C370.188 640.869 372.387 643.094 362.5 641.456C352.949 639.879 350.772 638.976 343.641 633.866C342.857 633.181 341.837 632.719 340.725 632.545C336.977 632.264 336.569 637.595 333.186 638.94C330.415 640.016 326.434 638.133 324.349 640.015C322.978 641.226 323.678 643.353 325.136 644.441C326.771 645.415 328.693 645.994 330.692 646.116C333.81 646.372 336.861 647.037 339.733 648.085C341.163 648.623 342.409 649.453 343.357 650.5C386.389 660.435 372.215 656.343 372.448 657.643C372.609 659.391 371.967 661.494 373.542 662.656C374.166 663.052 374.907 663.297 375.686 663.365C378.092 663.67 380.571 663.316 382.977 663.56C385.383 663.805 387.978 664.893 388.576 666.874C388.811 668.472 388.361 670.088 387.308 671.434C386.374 673.413 384.798 675.132 382.758 676.398C379.273 678.183 374.855 676.96 371.092 675.738C364.603 673.659 350.022 667.849 343.722 669C337.421 670.151 333.392 672.955 334.941 679.728C336.49 686.5 342.205 686.402 348.3 689.765C355.329 693.652 364.384 694.643 372.448 696C374.156 696.164 389.449 697.53 390.814 698.406C391.477 698.861 391.91 699.51 392.026 700.222C392.143 700.934 391.934 701.657 391.441 702.245C389.837 703.749 372.055 702.541 372.055 704.558C381.868 710.134 363.889 726.123 375.554 728.018C385.033 729.595 388.591 713.09 394.511 722.259C395.896 724.411 397.151 727.089 399.979 727.688C401.452 727.88 402.959 727.749 404.354 727.309C412.564 725.353 420.832 728.751 426.752 734.192C436.727 743.337 440.051 758.253 425.294 763.266C421.849 764.231 418.218 764.646 414.591 764.489Z" fill="#0B0B0B"/>
</svg>
