<svg id="Layer_1" data-name="Layer 1" xmlns="http://www.w3.org/2000/svg" viewBox="0 0 810.21 763.39"><defs><style>.cls-1{fill:#0b0b0b;}</style></defs><path class="cls-1" d="M842.06,767.46c-.77-15.58-4.17-41.82-10.07-56.67-4-10.11-9.76-20.35-17.9-28.63,3.65-4.17,11.34-10.9,27.56-20.76-17.24-2.61-33.79,4.71-42.53,9.61-1-.54-2.11-1.06-3.2-1.54a153.84,153.84,0,0,1,39-41.64,87.74,87.74,0,0,0-55.39,23c-.6.23-1.18.47-1.76.74,2.12-7,11.78-37.31,22.76-50.57-23.06,8.62-37.2,26.93-45.22,41.51-.28-.47-.54-.93-.82-1.39a20.19,20.19,0,0,1,.31,2.32c-1.26,2.34-2.36,4.58-3.32,6.65q-3.22-3.48-6.09-7.16a338.38,338.38,0,0,1,4.83-54c-12.36,10.32-18.25,39.45-20.81,57.83a10.5,10.5,0,0,1-1.3-1.89,14.42,14.42,0,0,1-3,.38c-.66-3.92-1.45-8.36-2.42-13.26,3.3-16.33,2.63-34,2-51.42,4.67-4.54,9.11-12,12.74-23.22,17.35,15.57,13.37,19.19,36,28.2,5.55,2.09,9.71-4.28,8.78-9-1.45-6.66-2.77-13-4.49-19.19,5.53,3.31,11.11,6.36,16.42,10.13s11.54-2.52,10.19-8C802,550,800,540.48,797,531.28a1.54,1.54,0,0,0,.74.34c5.61,2.7,11.65-1.83,10.14-8a227.41,227.41,0,0,0-5.87-22c4.42.6,9-4.13,7.49-8.72-3.29-9.35-6.26-18.66-9.88-27.76,1.73.6,3.24,1.38,5.07,2.08,5,1.78,9.56-3.83,8.22-8.47a121.44,121.44,0,0,0-20.07-39.38,7.15,7.15,0,0,0,4.6-8.5,166.6,166.6,0,0,0-13.6-31c4.9,1.19,10.34-2.34,8.51-8.31-1.86-6.38-3.5-12.72-5.53-19a7,7,0,0,0,9.11-8.31c-3.2-12.92-8.59-24.38-15-35.35,4.19-.31,7.28-4.66,6.43-9.13-3.58-17.4-11.26-32.74-20.4-47.46,3.72-1.24,6.76-5.13,5-8.85-3.62-8.54-6.65-17.14-10-25.45a5.76,5.76,0,0,0,1.13.39c5.17.75,11.05-3.55,9-9.33-7.4-20.18-17.53-38.57-29.51-56a8,8,0,0,0,1.15-9c-3.67-6.85-9.93-16-12.07-23.45,5,1.05,14.78-1.42,12.87-7.12-4.47-13-12.89-23.93-20.63-33.74a5.51,5.51,0,0,1,.93-.06c4.48-.65,11.71-4.25,10.61-8.89-.87-3.31-1.88-6.52-2.89-9.7a33.58,33.58,0,0,1-3.86-10,44.31,44.31,0,0,0-2.15-6.66,105.67,105.67,0,0,0-12.34-22.11c-.25-.5-.69-.62-1-1a36.92,36.92,0,0,1-1.18-3.62C704.2,7.4,694.8,1,686.29,9.67a15.08,15.08,0,0,0-1.53,1.75C673.44,25.74,667,41.71,658.33,56.82a47.3,47.3,0,0,0-.65,14.33c.52,4,7.58,6.58,11,6.89-1.65,5.79-7.1,11.77-9.08,18.48-.63,2.38,4.19,4.58,5.61,6.26-8,18.11-17.83,37-20.95,57-.76,5.32,3.41,9.33,7.93,8.66.08,1.06.1,2.1.21,3.14a108.8,108.8,0,0,0-4.78,31,6.53,6.53,0,0,0,1.31,3.79c-13.29,20-20.83,43.07-20.45,68.11.11,3.78,3.79,6.84,7.44,7-2.36,13.42-3.37,27.51,1.59,38a20.87,20.87,0,0,0,3.44,5,89.94,89.94,0,0,0-17.29,42.07c-.7,5.28,3.07,9.86,8.7,8.51l.34-.09c-5.45,14.47-10,28.95-11.06,44.74-.17,3.55,2.52,6.05,5.77,6.64a123.75,123.75,0,0,0-10.64,29,7,7,0,0,0,6.89,8.68h3.83c-4.76,10.86-6.26,21.27-7.38,34.16-.33,3.7,2,5.69,4.87,6.2-.91,3.55-1.92,7.14-2.9,10.81a6.35,6.35,0,0,0,1.45,6.07c-.57,4.21-.26,8.59,2,14.7A7.75,7.75,0,0,0,632,541a167.93,167.93,0,0,0,2,17.37c1,6.59,10.2,6.19,13.13,1.45.55-.87,1.29-1.81,1.86-2.79,0,.39.06.84.06,1.14.47,5.81,8.29,10.11,12.58,5,7.1-8.42,10.28,34.2,32.21-13.68-1,11.68,1.57,21.62,6,28.18-.11,4.37-.08,8.79,0,13.2-.72,6.81-1,13.7-1.18,20.56-.57-1.27-1.14-2.55-1.75-3.89a24.74,24.74,0,0,1,1.67,5.29c-.05,2-.11,4.09-.21,6.11-.12.51-.28,1-.41,1.52a41.68,41.68,0,0,0-18.28,10.9c-1.54-1.47-3.19-2.9-4.93-4.32,6-26.34,20.77-51.56,20.77-51.56-17.43,13.29-33,41.65-33,41.65s.08-20.88-22.62-50.24c13.54,25.13,8.89,51.05,8.89,51.05s-5.31-31-30-35.23C635.12,590.3,644,633.83,644,633.83c-9-26-60-38.65-60-38.65s56.37,38.62,54.42,61.17c-9.9-24.27-36.35-28.56-36.35-28.56a80.15,80.15,0,0,1,25.35,44.43c-5-11.6-29.39-42.56-60.44-38.06-.82-3.44-1.68-6.86-2.76-10.2a1.05,1.05,0,0,0,.47.22,4.48,4.48,0,0,0,6.41-5.21c-1.14-5-2.18-9.77-3.71-14.33,2.8.38,5.72-2.7,4.73-5.69-2.08-6.1-4-12.17-6.24-18.11,1.09.39,2.05.9,3.2,1.36,3.14,1.15,6-2.51,5.2-5.53A80.16,80.16,0,0,0,561.6,551a4.68,4.68,0,0,0,2.91-5.54,110.19,110.19,0,0,0-8.59-20.25c3.1.77,6.53-1.52,5.37-5.42-1.17-4.16-2.21-8.3-3.49-12.41a4.45,4.45,0,0,0,5.76-5.42,87.9,87.9,0,0,0-9.49-23.06c2.64-.2,4.6-3,4.06-5.95-2.26-11.35-7.12-21.36-12.89-31,2.35-.81,4.27-3.35,3.18-5.78-2.28-5.57-4.2-11.18-6.33-16.6a3.72,3.72,0,0,0,.71.26c3.27.49,7-2.32,5.71-6.09a166.58,166.58,0,0,0-18.65-36.53,5.33,5.33,0,0,0,.72-5.89,71.33,71.33,0,0,1-5.1-14.06c3.19.68,6.81-2.16,5.61-5.88-2.83-8.47-5.62-15.61-10.51-22a3.24,3.24,0,0,1,.58,0,4.7,4.7,0,0,0,4.18-5.79c-.55-2.17-1.19-4.26-1.82-6.33a22.17,22.17,0,0,1-2.44-6.51,28.77,28.77,0,0,0-1.37-4.34A69.68,69.68,0,0,0,511.92,292c-.16-.32-.44-.4-.61-.66a21,21,0,0,1-.74-2.36c-5-6.71-10.91-10.87-16.28-5.22a8.75,8.75,0,0,0-1,1.14c-7.16,9.34-11.24,19.75-16.7,29.61a31.32,31.32,0,0,0-.41,9.35,5,5,0,0,0,4.4,4.49c-1.1,4-2.08,8.07-3.22,12.06a4.58,4.58,0,0,0,1,4.08,151.41,151.41,0,0,0-10.72,37.19c-.48,3.47,2.16,6.08,5,5.65.05.69.07,1.37.14,2.05a72.63,72.63,0,0,0-3,20.25,4.36,4.36,0,0,0,.83,2.47,79.25,79.25,0,0,0-12.92,44.43,5,5,0,0,0,4.7,4.57c-1.49,8.76-2.13,17.95,1,24.82a13.83,13.83,0,0,0,2.18,3.24,59.77,59.77,0,0,0-10.93,27.45c-.44,3.45,1.94,6.43,5.5,5.55l.21-.06c-3.44,9.44-6.29,18.89-7,29.19a4.23,4.23,0,0,0,3.64,4.33,82.54,82.54,0,0,0-6.72,18.93,4.56,4.56,0,0,0,4.35,5.66h2.42c-3,7.08-4,13.87-4.66,22.28a3.52,3.52,0,0,0,3.08,4c-.58,2.31-1.21,4.66-1.83,7a4.24,4.24,0,0,0,.91,4,19.62,19.62,0,0,0,1.25,9.59,4.91,4.91,0,0,0,4.09,3.2c.19,3.72.65,7.44,1.24,11.33.63,4.3,6.45,4,8.3,1,.34-.57.81-1.18,1.17-1.82,0,.25,0,.54,0,.74.3,3.79,5.24,6.59,7.95,3.27,4.49-5.5,6.5,22.31,20.36-8.93-.6,7.63,1,14.11,3.77,18.38-.07,2.86,0,5.74,0,8.62-.45,4.44-.6,8.93-.74,13.41-.36-.83-.72-1.66-1.11-2.54a16.56,16.56,0,0,1,1.06,3.45c0,1.33-.07,2.67-.14,4-.07.33-.17.66-.26,1A26.26,26.26,0,0,0,490,689.24c-1-1-2-1.89-3.11-2.82,3.77-17.18,13.12-33.63,13.12-33.63C489,661.46,479.18,680,479.18,680s.05-13.62-14.3-32.77c8.56,16.39,5.62,33.3,5.62,33.3s-3.36-20.21-18.94-23c10.38,5,16,33.35,16,33.35-5.67-16.93-37.92-25.21-37.92-25.21s35.54,25.14,34.4,39.85l0,0c-6.28-15.77-22.95-18.56-22.95-18.56a49.68,49.68,0,0,1,10.32,13.15,46,46,0,0,0-8.14-1.25c-7.71-6.17-17.94-10.45-29.31-6.52,16.06.06,25.62,10.39,30.94,19.54a38.79,38.79,0,0,0-12.52,2.8l7.43,8.74c-4.26,1-8.57,2-12.66,3.29-.24-.36-.47-.73-.71-1.08-5.92-8.67-9.48,6.94-19,5.45-11.67-1.79,6.31-16.92-3.5-22.19,0-1.91,17.78-.77,19.39-2.19a2.28,2.28,0,0,0,.58-1.92,2.6,2.6,0,0,0-1.21-1.71c-1.37-.83-16.66-2.13-18.37-2.28-8.06-1.28-17.12-2.22-24.14-5.9-6.1-3.18-11.81-3.09-13.36-9.49s2.48-9.06,8.78-10.15,20.88,4.41,27.37,6.37c3.76,1.16,8.18,2.31,11.66.63a11.51,11.51,0,0,0,4.55-4.7,5.36,5.36,0,0,0,1.27-4.31c-.6-1.88-3.19-2.91-5.6-3.14s-4.88.11-7.29-.18a5.08,5.08,0,0,1-2.14-.67c-1.58-1.1-.94-3.09-1.1-4.75-.16-.89,7.2.89-5-1.61a4.27,4.27,0,0,0,0-.88,2.32,2.32,0,0,0-.35-.9,3.63,3.63,0,0,0-.37-.83c0,.06-.06.09-.09.14a1.39,1.39,0,0,1,.2-2.2c.36-.32.69-.58,1-.88.82-.55,1.84-1.19,2.64-1.83.2-.09.34-.23.52-.31,1-.47.89-1.78.79-2.64a7.26,7.26,0,0,0-.94-2.86A33.75,33.75,0,0,1,412,650c2.62.38,5.72.64,7.63-.84s1.59-4.2.84-6.37a6,6,0,0,0-1.66-2.88c-1.31-1.16-3.38-1.48-5-2.31-5.95-3.16-9.71-9.19-14.8-14a6.8,6.8,0,0,0,1.38-1.21s0,0,.05,0h0a7.21,7.21,0,0,0,1.43-5.34,2.66,2.66,0,0,0-2.08-2.38c-2.28-.46,3.08-2.61,3.7-3.25,2-2.07,3.75-6,1.34-8.3a8.83,8.83,0,0,0-2.42-1.25,11.09,11.09,0,0,0-.1-1.56,1.36,1.36,0,0,0-.6-1.15c0,.07-.06.15-.1.23-.95-.81-2.11-.66-3.33-.78.71-1,1.6-1.82,1.6-3.14a4.84,4.84,0,0,0-2.82-4.18l-.21-.09a1,1,0,0,0,.24-.11,6.87,6.87,0,0,1-1.8-1.15c0-.07.05-.14.07-.22a5.22,5.22,0,0,0-1.5-4.71,1.6,1.6,0,0,0,.11-.57,2.5,2.5,0,0,0-.24-1.88,1.23,1.23,0,0,0-.42-.43,4.79,4.79,0,0,1-.46-1.13,3.33,3.33,0,0,0,.77-.85c.13-.26.29-.56.45-.89a4.89,4.89,0,0,0,.77-2.57s-.05.05-.07.05c0-1.66.26-3,2.3-2.73,2.36.36,5.14,0,5.62-2.89,0-.06.06-.09.08-.15s-.05-.24-.08-.35a5,5,0,0,0-.4-1.86c-.07-.28-.13-.55-.17-.81a.3.3,0,0,0-.15,0c-.12-.29-.26-.57-.36-.85a7.18,7.18,0,0,1-.49-2.07,6.93,6.93,0,0,1,.1-1.27v-.1c2.7-1.21,5-3.18,4.28-6.52a11.16,11.16,0,0,0-1.39-4h.22a2.86,2.86,0,0,0-3.35-1.57c.38-.1.68-.18-.05,0a1.58,1.58,0,0,1-1.6-.6c-.2-.41-.39-.85-1-1a1.21,1.21,0,0,1-.19,0,2.1,2.1,0,0,0-1.24-.21,6.29,6.29,0,0,0-1.65-3.35,10.1,10.1,0,0,0,1.29-1.76v-.1c.31-.68.38-1.34-.37-1.72-5-2.46-3.54-2.53-.89-2.74,1.75,1.11,3.06.41,4.21-.81a2.74,2.74,0,0,0,1.89-3.33,54.6,54.6,0,0,1-.45-6.5,2,2,0,0,0,.32-1.31,1.81,1.81,0,0,0-.67-.9,8.31,8.31,0,0,0-1.86-3.65,2.76,2.76,0,0,1-1.48-2.52c1-2.22-4-1.21-4.48-2.72a1,1,0,0,1,0-.49,8.28,8.28,0,0,1,1.07-1.6,11.49,11.49,0,0,0,2-5.49,2.8,2.8,0,0,0,.14-.7s-.06,0-.1.08c0-.25,0-.48,0-.71a5.44,5.44,0,0,0-1.94-4.08c.18.05.32.18.51.23a7.15,7.15,0,0,0-3.29-2.05.26.26,0,0,1-.16-.18,6.5,6.5,0,0,0,1.28-2.77,2.25,2.25,0,0,0,0-.26,1.87,1.87,0,0,0,.14-.67,1.83,1.83,0,0,1-.14.32c.14-4.81-4.53-7.75-8.91-7.67a2.42,2.42,0,0,0-.91.19,6.51,6.51,0,0,1,.74-.35c-1.19.13-3.38,1.14-5.37,1.49a4.17,4.17,0,0,0-.84-.31,5.27,5.27,0,0,0-1.69.18,2.19,2.19,0,0,1-.58-.33c-.29-.34-.57-.67-.83-1a3.14,3.14,0,0,1-.33-.91c1.29.73,2.23.48,3.45-.4l0,0a.23.23,0,0,0,.07-.07,16.44,16.44,0,0,0,3.19-2.74c.54-.5,1.07-1,1.66-1.45,1.52-1.19,2.32-2.19,1.82-4.1,0-.08-.09-.15-.14-.23.07-1.06-.27-1.83-1.29-1.66a5,5,0,0,0,.86-.47.63.63,0,0,1,.18-.12,7.88,7.88,0,0,0,1.51-1,5.51,5.51,0,0,0,2.26-2.5,5.07,5.07,0,0,0-.91-5,8,8,0,0,0-2-2.22c1.27-1.39,3.23-3.17,2.63-5.07-.49-1.5-2-3.25-3-4.93a15.81,15.81,0,0,1-.64-1.67c1.57-.1,3.31-.44,4.06-1.85a2,2,0,0,0,.24-1.58c1.29-2.76,1.19-6.56-.24-8.73-.09-.35-.17-.65-.24-.89a1.29,1.29,0,0,0-1.23-.95,6.32,6.32,0,0,0-1.54.17,3.84,3.84,0,0,0-1.38.29c-.22-1,.14-4.63-.55-5.24-1-.91-3.67-.11-5.22-.85.7-1.12,2.16-1.76,3.42-2.47l1.29-.25c1.81.21,4.12-.85,4.73-2.59a1.76,1.76,0,0,0,.14-.68,2,2,0,0,0,0-.35,4.16,4.16,0,0,0-1.3-2.77,26.46,26.46,0,0,0,1-3.9,7.26,7.26,0,0,0,.22-1.05,2.77,2.77,0,0,0-.18-.83,2.26,2.26,0,0,0-.37-.9,45.07,45.07,0,0,0-3.16-5.13c-1.87-2.72-4,1.53-5.75,3a2.55,2.55,0,0,1-1,.45.77.77,0,0,1-.57-.3,2.2,2.2,0,0,1-.26-.39,3.45,3.45,0,0,1,.12-1c.24-1,0-2.55-1.11-2.94-.16,0-.32-.14-.48-.2a4.51,4.51,0,0,0-1-.8,4.65,4.65,0,0,0-2.29-.94,2.21,2.21,0,0,0-2.43,1.19,8.54,8.54,0,0,0-.44,1.11.14.14,0,0,0-.07.06c.26-.25-.16-.66-.81-1.09a4.11,4.11,0,0,0-.38-.45,1.35,1.35,0,0,0-1.05-.43c-1-.6-2-1.18-2.08-1.52-.27-3.26,1.7-8.72-2.28-10.81a4.24,4.24,0,0,0,.41-1v0a4.09,4.09,0,0,0,.19-1.23c0-.11,0-.22,0-.35a4.32,4.32,0,0,0-.17-.87.42.42,0,0,0-.06-.14,3.73,3.73,0,0,0-4.11-2.49c-1.45.19-1.26-.54-.69-1.57a9.18,9.18,0,0,0,1.09-1.18,4.27,4.27,0,0,0,.68-2.07,2.23,2.23,0,0,0,.09-1c-1.3-4.88.09-6.27.5-11.07.31-3.8-.37-4.68-1.48-4.5-1-1.19-2.26,0-2.91,1a3.29,3.29,0,0,1-.68.78,4.37,4.37,0,0,1-.95.31,6.89,6.89,0,0,1-1.17.1,4.05,4.05,0,0,1-1-.35,1.6,1.6,0,0,1-.19-.16c-.1-.47.37-1.2,1-2a1.13,1.13,0,0,0,.29-.18,4.79,4.79,0,0,0,2-2.46.49.49,0,0,0,.15-.27c.67-2.68.87-5.29,0-7.18,0-.14,0-.33-.05-.48-.3-1.24-1.38-1.71-2.62-1.92a7.43,7.43,0,0,0-2.08-.37,5.89,5.89,0,0,0,2.51-3.41,3.9,3.9,0,0,0-2.3-4.56.52.52,0,0,1-.15-.07c-.92-1.22-1.6-2.56-.8-4.37a.2.2,0,0,1,0-.1,5.44,5.44,0,0,0,.48-1.68s0-.05,0-.08a5,5,0,0,0-.2-2.06s0,0,0-.07a10.35,10.35,0,0,0-1.91-3.17c-.43-.5-.76-.87-1-1.17-.07-.13-.17-.21-.24-.35a1.21,1.21,0,0,0-1.67-.43l-.38.2c-.31.11-.67.27-1.09.45a.92.92,0,0,0-.82-.15s0,0,0,0c-.8-3.82-.5-9.73-2.67-12.8a8.08,8.08,0,0,0-1.5-1.3,5.79,5.79,0,0,0-.6-.41l-.25-.17-.32-.17c-1.72-1-3.61-1.63-3.73.16,0,.09-.1.15-.1.27a3.17,3.17,0,0,1-.18.85,2.31,2.31,0,0,1-4.18-.35,4.86,4.86,0,0,1,.26-.76,2.61,2.61,0,0,0,.95-1.54c.05,0,.05-.08.09-.11a23.77,23.77,0,0,0-1.13-6.94c0,.15,0,.25,0,.38a2,2,0,0,0-1.65-1.43c-.12-2.6-.65-5.06-3.09-6.5a6,6,0,0,0-3.34-.4s.13.14-.42.05l-1.3-.21c-.46-.05-.81-.13-1.88-.27s-1.79-1.56-2.64-2.39c-1.57-1.51-3.22-.61-4.28.88-.5.68-.07,1.65.25,2.28.86,1.71-1.07.93-1.87,1.73a8,8,0,0,0-1.47,3c-.22.58-.69,2.07-1.3,1.86v0c-.08-.06-.15-.08-.23-.15a1.81,1.81,0,0,1-.17-.19,7.62,7.62,0,0,0-1.38-1.4c-1.27-1.1-2.34-1-4-.76a24,24,0,0,0-6.38,1.77,1.24,1.24,0,0,0-.44,1.68c.53.9,1.1,1.75,1.58,2.69-2.35.94-6.4,2.1-4.76,5.34a16.45,16.45,0,0,1,1.08,2.47,4,4,0,0,0,.1.83,1.33,1.33,0,0,1-.25.72,2.71,2.71,0,0,1-1.54.64c-1.74.36-3.32.52-4.17,1.41a3.07,3.07,0,0,0-.45.2,1.31,1.31,0,0,0-.44,1.72c.58,1.2,0,2.38-.15,3.56-1,4.36-1.47,2-5.89,4-1.92.84-2.06,1.86-1.53,2.84a3,3,0,0,0,0,.59.84.84,0,0,0,.74.62,4.29,4.29,0,0,0-.42,1.16,9.86,9.86,0,0,0-2.85-.79c.17,0,.34-.07.5-.12-2.44-.34-3.17-.29-2.3.06-2.44.13-4.51,1.16-3.81,3.79.44,1.61,2.34,3.13,1,4.95-1.63.65-3.18,2.78-3.88,4.75a.47.47,0,0,0-.06.19c0,.14-.08.26-.11.39a3.51,3.51,0,0,0,.7,3.82,5.17,5.17,0,0,0,1.6,1,5.67,5.67,0,0,1,2,2.47,5.42,5.42,0,0,0,0,.83,27.3,27.3,0,0,0,1.07,3.2c0,.3-.08.8-.11,1.36a5.56,5.56,0,0,0-.8,2.83,5.91,5.91,0,0,0,.75,1.87c.11,1.18.37,2,1,1.69a7,7,0,0,1-.73.32,5.54,5.54,0,0,0-2.31.46,4,4,0,0,0-1.2,1.21,2,2,0,0,0-.47,1.7,4,4,0,0,0,.31,1.49,21.75,21.75,0,0,0-2.25.05c-1.49-.05-2.88.12-3.39,1.38a4.76,4.76,0,0,0-.16,2c0,.6.14,1.18.22,1.77,0,.19,0,.38,0,.58h0l-.33-.08a1.78,1.78,0,0,0-1.66-.73c-1.48.18-3.33-.55-4.85-.21a3,3,0,0,0-3.15,3.15,3.27,3.27,0,0,0-.08,1.09c-.44-.93-4.27-.66-4.7-.54a1.11,1.11,0,0,1,.16.11,5.36,5.36,0,0,0-1.33.45c-1.31.65-3.77,1.64-3.77,3.52a24.37,24.37,0,0,0,.35,2.52c-.9.35-2,.3-2.78,1.05a3,3,0,0,0-1,1.8c-.21,2.38-1,2.77-3,3.22a6.32,6.32,0,0,0-3.82,2.06.27.27,0,0,1,0-.12,2.39,2.39,0,0,0-.24.44,2,2,0,0,1-.16.19,1.41,1.41,0,0,0,.23,1.71,5.34,5.34,0,0,0,2.62,1.25c1.18.25,1.61.68,1.65,1.19a3.33,3.33,0,0,1-.63,1.46,18.54,18.54,0,0,1-1.26,1.46,5,5,0,0,0-.95,1.6s0,0,0,.06a.42.42,0,0,1,0,.12,8.77,8.77,0,0,0-.29,4.2s0,.08,0,.12c0,.27.08.52.12.79a8.94,8.94,0,0,0,1.54,4.16,2.9,2.9,0,0,0,2.05,1,4.55,4.55,0,0,0,.53-.05c.3.07.51.09.56,0,0,.12-.22.44-.49,1.28-.48,1.61-1.37,3.72.53,4.83a.06.06,0,0,1,.05,0,1.87,1.87,0,0,0,.88.26,3.58,3.58,0,0,0,2.54-.51c5.07-1.69,2.65.39,2.34,3.22a6,6,0,0,0-.25,1.21c-.1,1,.81,1.87,1.41,2.5a2.12,2.12,0,0,0,1,.5,6.1,6.1,0,0,0,3.34,1.16,2.84,2.84,0,0,0,.32,1.65,10.64,10.64,0,0,0-3-.26A6.9,6.9,0,0,0,242,444a2.52,2.52,0,0,0-.33.44.67.67,0,0,1,0-.2,3.93,3.93,0,0,0-.63,1,3.21,3.21,0,0,0-.14,3.62,15.56,15.56,0,0,0,1,2.89,3,3,0,0,0,.16.73,3.86,3.86,0,0,1,.32,1.3c-.19,1.22-1.63,1.7-2.77,2.37a1.66,1.66,0,0,0-.16.06c-1.39.57-1.5,2-.94,3.24.14.2.3.4.47.61a.14.14,0,0,0,.05.09c.22,1.1-1.56,1.19-3.86,1a3,3,0,0,0-1.07-.25c-2.06,0-4.08-.92-6.13-.75a2.73,2.73,0,0,0-1.17.05,1.49,1.49,0,0,1,.37.14,3.92,3.92,0,0,0-.86.19,5,5,0,0,0-3,4.93,7.18,7.18,0,0,0,.51,2.49c.26.57,2.32.86,1.06,1.81s-3.11-.18-4.39.76a36.9,36.9,0,0,0-3.49,3.37,3.81,3.81,0,0,0-1.51,3.2c-2.5-.66-5.31-.83-7.28,1-3.23,3-3.37,6.16-3.23,10.34a.9.9,0,0,0,.88.88,4.24,4.24,0,0,1-.35,2.78,6.71,6.71,0,0,0-.45,1.18s0,.07,0,.1c-.34,1.35.13,2,.95,2.29a2.27,2.27,0,0,0,1.19.73,6.49,6.49,0,0,0,4.4-.69c2.19-1,1.49,2.11.81,3.17a4.73,4.73,0,0,0-.59,3c.33,3.53,3.71,2.18,5.69,2.95a3.62,3.62,0,0,0-.14,1.82c-1.2.33-2.55.65-3.13,1.43l-.08.05a.06.06,0,0,0,0,.05l0,0c-1.19,1.66,2,3.68.85,4.86a1.07,1.07,0,0,0-.25,1,16.52,16.52,0,0,0-4.12-1.23,4.7,4.7,0,0,0-4.34,2.68c-.51,1.31.19,2.94-.47,4.14a6,6,0,0,0-.7,2.81,2,2,0,0,0,1.5,1.95,17,17,0,0,0,1.44,1.36,2.78,2.78,0,0,0,1.31,1.54c2.61,1.47,5.17-1.42,6.81,1,.2.42.37.83.56,1.14s.17.34.24.58c0,.07.18.07.34,0l-.27.15-.91.31a3.41,3.41,0,0,0-1.8,1.44,1.75,1.75,0,0,0-.12,1.79,5.41,5.41,0,0,0-.37,3.7,1.84,1.84,0,0,0,1,1.67,7,7,0,0,0,1.16.51,5.19,5.19,0,0,1,1.87,2.47,2.49,2.49,0,0,0,.12.47c-2.75.82-.85-.23-4.24-.41a2,2,0,0,0,.19.24,5.79,5.79,0,0,0-5.85,3.7,4.56,4.56,0,0,0,.14,3.15,8.17,8.17,0,0,0,.86,1.36,19.8,19.8,0,0,0-3.21-.2,4.72,4.72,0,0,0-5.16,3.75c-2.56.46-5.44,3.27-3.57,5.79a2.51,2.51,0,0,0,1,.75c1.43.6,1.76,1.56,1.48,2.58a11.91,11.91,0,0,0-2.36,3.38,2.11,2.11,0,0,0-.48,2.51,2.88,2.88,0,0,0,1.23,1,26.6,26.6,0,0,0,2.73,1.92c.84,1.34,3.52,1.66,3.47,2.81-.06,1.9,2,2.59,3.51,2.72,1.05,0,5.8-2.39,6.22-1.79l0,0a5.8,5.8,0,0,0-.75.6,3.52,3.52,0,0,0-1.64,3.69,2.58,2.58,0,0,0,2.3,2.32,3.69,3.69,0,0,0-2.54,1.92,2.9,2.9,0,0,0-.25,1.16,3.3,3.3,0,0,0-2.35.76,2.2,2.2,0,0,0-.41.31,5.92,5.92,0,0,0-.41.45,5.74,5.74,0,0,0,.46,6.9c-.17.16-.27.36-.44.53a15.09,15.09,0,0,0-1.53,2,2,2,0,0,0-.19.24,1.25,1.25,0,0,0-.07.23,2.72,2.72,0,0,0-.3,1.63c.11.68.33,1.67,1,2a2.79,2.79,0,0,0,.45.18s0,0,0,.05c-2,1.46-4.81-.87-7.09,1.08-2.91,2.52-6.86-.21-8.89,4.2a11.94,11.94,0,0,0-.86,4.87c0,1.67,2,4.65,1.16,6.26a5.62,5.62,0,0,0-3.4,1.8,2.72,2.72,0,0,0-1,.88,5.33,5.33,0,0,0-.94,2.45c-.07.28-.1.55-.14.81l-.09.9a2.41,2.41,0,0,0,1.23,2.39,13.45,13.45,0,0,0,1.31.59,3.29,3.29,0,0,1-.11.9,2.12,2.12,0,0,1-.13.27c-1.27,2.11-1.6,4.71,0,6.69s7.31,2.32,9.69.21a4.93,4.93,0,0,1,1.84-.43,8.31,8.31,0,0,0,1.57.08,2.23,2.23,0,0,1,1,.43,4.32,4.32,0,0,1,0,1.68c-.72,1.46-2.45,3.34-1.67,4.75.18.89,1.17,1.22,2.11,1.21.14,1.67-.66,3.5.87,4.76a2.66,2.66,0,0,0,2.6.22,16.26,16.26,0,0,1,2.23.24,2.7,2.7,0,0,0,3.25.85c.54.27.82.55.6.83l.06,0a8.27,8.27,0,0,1-3.21,2.9c-1.15.47-2.37.7-3.5,1.23-1.68.82-1.89,2.85-1.6,4.59l-2,2.12c-3.32,3.47-6.75,7.18-7.61,11.5l6.9,5.37c-3.62,2.41-9.13,1.4-13.58,2.67A11.48,11.48,0,0,0,184,682.2a8.67,8.67,0,0,0-2.42,3.15A7.21,7.21,0,0,0,181,689a7.67,7.67,0,0,0,1.32,3.54c2.42,3.14,7,4.62,11.2,6.36s8.49,4.1,9.22,7.75c1.88,9.31-20.87,4.46-26.59,7.72-5,2.85-5.16,9.68-10.92,11.41-2.92.88-6.39,0-9.35.84-3.64,1-5.38,4.23-7.84,6.62-2,2-5.41,3.48-9,5-30.27.28-57.92,2.2-71.13,5.76-12.65,3.46-34,11.81-36.07,24,23.5,2.17,133.19.27,156.94.28l75.35.08,98,.08,54.05.6a3.89,3.89,0,0,1,.35-.58l41.82,0H602.18C664,768.45,725.94,768,788,768h52.71C841,768,842.36,767.41,842.06,767.46Zm-96.61-120c0-1.41,0-2.91,0-4.51A3.57,3.57,0,0,1,745.45,647.49Zm-44.34-7.74c.08,2.1.14,4.17.19,6.19-2,.12-4,.27-6.08.44q.88-2.53,1.87-4.88A6,6,0,0,0,701.11,639.75Zm-26.85-11.1c1,1.8,2,3.62,2.89,5.46a37.48,37.48,0,0,0-4.86,8.16A94.34,94.34,0,0,1,674.26,628.65ZM519.62,703.22a18.86,18.86,0,0,1,1.63-1.49c-.09.74-.17,1.44-.25,2.09l-1.26.25C519.7,703.8,519.66,703.52,519.62,703.22Zm-8.92-3.28.16-.08a3.1,3.1,0,0,0,.38-.07c0,1,0,2,.05,2.77-.12,0-.24.05-.33.09-.15-.77-.34-1.69-.58-2.75A3.11,3.11,0,0,0,510.7,699.94Zm-9.59-4.08a3.77,3.77,0,0,0,2.54-1.14c.15,3.93.19,7.73.19,10.89a17.11,17.11,0,0,1-2.9-.65c-.5-1.12-1.07-2.3-1.75-3.54A51.64,51.64,0,0,1,501.11,695.86ZM488.51,691c-.34.45-.67.93-1,1.42-.47-.85-.89-1.72-1.29-2.59.14-.79.29-1.59.45-2.39C487.34,688.65,488,689.83,488.51,691Zm98.39-4a52.2,52.2,0,0,0-14.35,3l-1.71.3a138,138,0,0,0-16,3.76c2.72-7.88,7-18.81,11.71-24.65-16.32,6.3-25.58,20.53-30.24,30.38-1.52.46-3,.91-4.56,1.34a218.29,218.29,0,0,1,3-39.56c-8.15,7-11.86,27.46-13.36,39.29-.51,0-1.21.05-2.06.12-.48-3.14-1.12-7-1.95-11.32,2.09-10.65,1.66-22.16,1.24-33.54,3-3,5.76-7.85,8.06-15.15,11,10.16,8.45,12.52,22.78,18.4,3.51,1.36,6.14-2.79,5.55-5.88-.92-4.34-1.75-8.48-2.84-12.52,3.5,2.16,7,4.15,10.38,6.61s7.29-1.64,6.44-5.19c-.48-1.92-.92-3.83-1.37-5.74,28,4.26,41.5,28.71,46.81,42A280.15,280.15,0,0,1,586.9,687Z" transform="translate(-31.9 -5.61)"/></svg>