<svg width="933" height="778" viewBox="0 0 933 778" fill="none" xmlns="http://www.w3.org/2000/svg">
<path d="M330.781 454.639C332.546 455.689 334.29 456.739 336.034 457.789C344.607 462.967 353.716 468.733 357.561 477.975C359.662 482.911 360.03 488.592 363.129 492.951C366.229 497.309 373.919 499.021 376.483 494.326C376.903 498.716 383.764 499.577 386.811 496.353C389.857 493.129 390.036 488.288 390.047 483.877V465.067C390.047 460.804 390.047 456.456 388.691 452.412C384.762 440.66 371.429 435.483 359.862 431.02C352.812 428.299 345.71 423.952 340.72 418.417C345.195 414.731 352.329 418.648 356.479 421.82C359.379 424.057 363.045 426.871 366.26 425.107C367.139 424.579 367.89 423.861 368.456 423.006C370.284 420.423 371.198 416.317 368.624 414.468C367.387 413.799 366.007 413.439 364.6 413.418C355.628 412.189 347.128 403.189 340.531 397.413C335.719 393.212 329.184 391.721 323.08 389.788C320.411 388.948 280.603 372.239 300.281 366.358C303.212 365.486 306.301 366.82 309.043 368.196C318.138 372.736 326.882 377.946 335.204 383.781C338.009 385.755 342.369 387.593 344.344 384.831C348.451 390.094 353.956 394.097 360.23 396.384L360.671 391.311C361.553 391.701 362.507 391.902 363.471 391.902C364.435 391.902 365.389 391.701 366.271 391.311C367.321 386.764 363.308 382.773 359.662 379.864C344.071 367.419 328.144 354.795 309.621 347.496C306.291 346.194 302.12 343.022 304.105 340.05L315.4 341.006C316.243 341.143 317.106 341.081 317.921 340.827C320.075 339.945 320.117 336.626 318.541 334.904C316.965 333.182 314.496 332.667 312.237 332.194C296.895 329.042 281.89 324.428 267.428 318.416C261.576 315.979 237.559 292.906 250.902 283.969C254.674 281.438 259.685 282.026 264.087 283.16C277.076 286.549 289.397 305.232 296.352 309.34C303.307 313.448 309.043 305.612 309.043 305.612C313.529 309.928 321.188 314.171 325.118 309.34C328.27 305.517 317.595 276.479 314.275 272.782C310.689 268.735 306.689 265.074 302.34 261.86C305.618 263.099 307.593 257.47 305.377 254.771C303.16 252.072 299.346 251.4 296.352 249.583C293.357 247.766 291.277 244.878 288.661 242.599C283.408 238.041 277.041 236.594 270.811 233.537C264.581 230.481 258.487 225.031 258.445 218.078L279.227 223.823C281.065 224.338 283.061 224.873 284.848 224.149C289.481 222.332 287.999 215.337 285.173 211.231C280.341 204.191 274.053 198.271 266.735 193.871C261.271 190.542 255.136 188.137 249.862 184.377C244.588 180.617 240.049 175.062 239.681 168.624C239.558 167.549 239.725 166.461 240.164 165.473C241.635 162.522 246.058 162.701 248.895 164.423C251.732 166.145 254.012 168.781 257.153 169.79C260.294 170.798 264.739 168.666 264.087 165.442C265.525 167.12 267.557 168.176 269.758 168.387C271.958 168.599 274.154 167.95 275.886 166.576C278.187 171.648 286.907 169.517 288.661 164.223C290.416 158.93 287.411 153.259 283.849 148.974C282.126 146.874 280.13 144.91 277.546 144.049C271.841 142.127 264.203 146.023 260.221 141.518C257.952 138.945 258.424 135.059 257.993 131.646C256.439 119.558 243.285 115.063 238.294 104.918C233.993 95.8307 230.872 86.2309 229.007 76.3521C230.877 79.3662 233.104 82.6534 236.571 83.42C240.038 84.1867 244.157 80.1854 242.108 77.2868C243.495 78.7781 245.743 76.4361 246.027 74.4197C247.151 66.2911 240.585 59.2126 233.966 54.3711C227.347 49.5297 219.73 44.9192 216.84 37.2107C214.907 32.0751 215.485 26.3935 215.79 20.9219C216.095 15.4503 215.958 9.57956 212.911 5.02164C209.864 0.463713 202.878 -1.82575 198.738 1.76598C196.574 3.65636 173.702 6.56545 172.725 9.2645C169.188 19.0981 163.156 27.8449 155.221 34.6481C152.174 37.2527 148.918 42.3882 152.364 44.4046C155.274 46.0955 159.214 42.3042 162.166 43.974L142.099 67.8979C138.548 72.1618 134.745 77.6019 136.73 82.7899C139.716 82.5399 142.569 81.4473 144.957 79.6393C144.351 80.8038 144.232 82.1611 144.626 83.4132C145.02 84.6654 145.894 85.7102 147.058 86.3186C147.66 86.5656 148.305 86.6915 148.956 86.689C149.607 86.6864 150.251 86.5556 150.851 86.3039C151.451 86.0522 151.996 85.6846 152.454 85.2222C152.912 84.7598 153.274 84.2116 153.519 83.6091C156.114 89.0072 152.805 95.6235 148.025 99.2362C143.244 102.849 137.361 104.424 131.929 106.997C125.162 110.216 119.245 114.979 114.657 120.902C113.606 122.257 112.555 123.843 112.787 125.555C113.07 127.928 115.76 129.409 118.155 129.251C120.551 129.094 122.652 127.739 124.753 126.479C121.402 129.629 124.68 135.805 129.176 136.582C133.673 137.359 137.949 134.628 141.563 131.793C145.177 128.957 148.802 125.744 153.33 125.156C153.012 132.682 150.511 139.954 146.133 146.086C149.6 144.71 154.223 143.608 156.524 146.538C159.088 149.794 156.104 154.425 153.11 157.292C150.115 160.159 146.69 164.213 148.56 167.931C155.547 181.857 123.345 226.501 113.648 234.199C102.69 242.842 90.6498 251.16 84.8293 263.784C83.369 266.934 82.3499 270.568 83.3374 273.918C84.325 277.268 87.9392 280.009 91.2697 278.959C94.6002 277.909 97.8781 273.414 100.725 275.556C102.585 276.964 101.913 279.841 102.238 282.152C102.858 286.437 107.586 289.146 111.925 289.041C116.264 288.936 120.235 286.752 123.997 284.599C125.762 283.549 127.8 282.498 129.744 283.16C131.687 283.822 132.738 285.849 133.557 287.728C137.949 297.779 154.57 319.308 137.256 318.185C126.119 317.492 112.808 304.857 101.807 315.958C99.7588 318.059 98.8657 321.461 100.379 323.961C93.3271 327.89 86.812 332.712 80.9946 338.307C76.5819 342.508 72.495 349.618 76.5504 354.175L79.3976 353.272C74.5972 361.153 70.3224 369.341 66.601 377.784C76.0354 375.272 85.2264 371.923 94.0643 367.776C95.5651 369.556 97.4154 371.01 99.5009 372.047C101.586 373.084 103.863 373.682 106.189 373.804C108.353 373.898 120.981 373.184 119.09 378.666C117.535 383.151 105.989 376.482 102.827 376.293C99.1704 376.083 95.199 377.522 93.3709 380.693C91.5428 383.865 92.8771 388.717 96.3967 389.715C93.9803 391.195 93.0557 394.388 93.5075 397.182C94.1301 399.96 95.3768 402.56 97.1532 404.785C107.693 419.591 122.522 430.808 139.641 436.922C140.985 437.405 142.488 437.972 143.097 439.253C143.706 440.534 143.286 441.774 143.318 443.065C143.622 455.132 163.28 450.154 169.279 455.668C178.083 463.828 164.404 473.091 155.862 471.81C149.968 470.928 144.82 467.441 140.103 463.797C131.582 457.296 123.703 449.797 114.657 443.979C105.611 438.161 94.9994 433.95 84.2725 434.863C83.2219 434.958 81.8876 435.977 82.6545 436.67C78.7042 436.785 74.964 435.105 71.2552 433.74C67.5465 432.374 63.4281 431.314 59.6984 432.689C55.9686 434.065 53.3105 438.728 55.3803 442.141C56.4939 443.927 58.5322 444.851 60.5073 445.66L100.578 462.463C99.002 462.469 97.4718 462.995 96.2255 463.96C94.9792 464.925 94.0865 466.274 93.6861 467.798C93.3789 469.326 93.5789 470.913 94.2558 472.318C94.9327 473.722 96.0496 474.868 97.4369 475.58C93.974 476.556 90.9714 478.732 88.9658 481.718C86.9602 484.704 86.0824 488.306 86.4893 491.879C87.1152 495.426 88.9832 498.634 91.7589 500.929C94.5347 503.225 98.0371 504.458 101.639 504.408C110.16 504.041 117.546 496.385 125.993 497.593C134.44 498.8 139.157 508.693 138.485 517.211C145.545 516.969 152.143 523.365 152.143 530.433C152.143 536.871 147.478 542.426 146.543 548.79C145.818 553.716 147.352 558.652 148.876 563.388C149.084 564.236 149.455 565.035 149.968 565.741C150.966 566.917 152.616 567.253 154.045 567.841C161.063 570.624 163.5 579.394 163.048 586.955C162.418 596.869 163.595 591.858 163.048 601.772C160.088 655.493 86.4893 637.932 48.878 643.781C11.2667 649.629 7.788 670.941 4.22638 685.696C-0.574987 705.566 0.0238705 763.412 0.0238705 763.412H37.92L288.756 763.506L423.961 763.632L573.15 763.769L713.177 763.895L820.919 764C841.175 764 912.755 764 933 764C924.154 764 914.5 737.132 847.5 737.132C780.5 737.132 758.5 739.132 747.5 731.5C736.5 723.868 733.468 714.206 729.749 711.896C726.597 709.9 722.752 709.228 719.032 708.651C699.665 705.692 564.5 705.5 555 705.5C545.5 705.5 553.5 693.37 523.5 693.37C493.5 693.37 491.92 693.56 453.326 692.719C445.971 692.561 437.713 692.005 430.464 693.37C426.03 694.21 421.87 696.878 417.51 697.235C416.543 694.504 405.659 685.927 405.27 686.211L399.87 690.254C399.373 683.408 396.302 677.003 391.276 672.327C390.572 676.528 385.172 678.712 381.137 677.242C377.103 675.772 374.497 671.812 373.1 667.79C369.223 656.5 374.287 642.133 385.455 637.932C380.591 631.285 370.064 629.73 363.476 634.687C362.962 628.46 363.245 622.192 364.317 616.036C361.141 617.295 358.303 619.276 356.027 621.822C353.685 609.808 353.618 597.461 355.828 585.422C348.053 590.757 343.22 599.547 340.762 608.653C338.303 617.758 338.072 627.273 337.83 636.693C336.047 631.404 332.962 626.647 328.858 622.862C329.394 628.317 328.429 633.814 326.066 638.76C323.703 643.706 320.033 647.912 315.452 650.924C314.328 640.19 313.151 629.552 311.586 618.945C309.883 606.52 306.683 594.348 302.057 582.691C299.955 577.44 279.025 608.954 272.217 600.197C265.409 591.44 259.466 586.544 259.466 559.44C259.466 532.335 251.594 494.732 264.518 498.664C266.693 499.325 268.395 500.985 270.181 502.392C277.251 507.927 286.413 509.828 294.723 513.262C303.034 516.696 311.386 522.882 312.489 531.798C312.794 534.276 312.489 536.892 313.54 539.149C314.591 541.407 316.419 542.92 318.289 544.401L337.305 559.44C338.62 558.481 339.678 557.213 340.384 555.747C341.089 554.281 341.421 552.663 341.35 551.038C344.071 553.359 345.321 556.919 346.813 560.164C348.305 563.409 350.438 566.781 353.863 567.82C357.288 568.86 361.785 565.888 360.829 562.443C363.455 564.932 368.036 561.95 368.771 558.41C369.507 554.871 368.078 551.269 367.805 547.656C367.616 545.094 368.015 542.468 367.426 539.958C366.681 536.807 364.453 534.203 362.247 531.819C351.634 520.439 339.517 510.56 326.232 502.455C320.621 499.021 314.191 495.04 313.193 488.529C312.647 484.906 313.971 481.083 312.826 477.596C311.218 472.66 305.324 470.455 300.123 470.529C294.923 470.602 289.838 472.261 284.648 472.104C280.156 471.885 275.83 470.339 272.217 467.662C268.603 464.985 265.866 461.297 264.35 457.065C263.541 454.681 263.184 451.929 264.413 449.713C267.165 444.83 276.705 448.8 281.013 448.033C291.803 446.101 298.348 441.858 310.104 445.166C321.504 448.369 330.003 452.517 335.141 463.072C336.906 466.716 338.828 470.539 342.211 472.766C345.595 474.992 350.911 474.866 353.001 471.348C357.064 476.094 361.851 480.17 367.185 483.425C368.727 484.195 370.085 485.287 371.167 486.628C371.834 487.828 372.333 489.115 372.648 490.451C374.224 495.429 377.901 499.956 382.902 501.52C385.003 502.182 387.63 502.192 389.206 500.638C390.656 499.231 390.876 497.015 391.013 494.999C391.77 483.278 392.064 470.087 383.963 461.549" fill="#0B0B0B"/>
<path d="M541.21 655.847C538.881 655.847 536.383 656.486 534.344 655.462C531.931 654.216 531.629 651.227 529.289 649.92C525.331 647.711 519.527 651.217 515.268 649.049C513.893 648.339 512.928 647.133 511.468 646.566C506.641 644.702 500.765 647.985 495.891 644.641C495.286 644.268 494.831 643.749 494.586 643.154C494.34 642.558 494.315 641.914 494.515 641.307C495.396 639.362 508.729 640.497 511.021 638.723C511.797 638.103 512.317 637.291 512.503 636.404C512.69 635.518 512.534 634.605 512.059 633.799C511.017 632.38 509.353 631.361 507.425 630.962C495.432 627.75 482.22 634.893 470.263 629.999C460.61 626.058 451.308 623.413 441.305 619.026C439.845 618.258 438.193 617.783 436.479 617.638C434.584 617.638 432.859 618.398 430.941 618.59C425.089 619.168 420.926 614.233 416.281 611.214C412.275 608.61 407.195 607.161 403.769 604.05C400.342 600.939 399.907 594.829 404.589 593.208C406.906 596.167 411.479 597.079 415.617 597.758L432.244 600.473C435.532 601.127 438.903 601.447 442.282 601.426C450.318 601.101 451.018 596.248 457.353 594.586C462.637 593.188 468.381 596.613 473.81 594.728C474.812 594.384 475.656 593.776 476.658 593.441C479.903 592.428 483.258 594.455 486.31 595.883C495.348 600.108 506.46 598.741 516.644 597.251C518.2 597.018 519.986 596.653 520.686 595.458C520.892 594.963 520.975 594.438 520.93 593.915C520.884 593.392 520.711 592.882 520.42 592.418C519.294 590.054 517.569 587.924 515.365 586.176C517.126 585.964 517.887 583.988 517.199 582.61C516.324 581.296 514.994 580.236 513.386 579.57C502.913 574.108 495.13 561.331 480.917 565.121C480.64 563.158 479.591 561.329 477.937 559.923C475.685 559.807 473.444 560.264 471.506 561.235C469.569 562.206 468.025 563.645 467.078 565.364C466.486 566.479 465.871 567.917 464.375 567.928C463.579 567.836 462.837 567.538 462.251 567.076C459.162 565.293 455.012 565.253 451.392 566.215C444.153 568.151 440.28 570.511 432.425 570.552C434.295 569.143 436.117 566.691 435.526 564.472C434.862 561.96 430.53 560.5 428.527 562.446C426.947 563.966 427.466 566.631 425.559 567.847C424.256 568.677 422.434 568.434 420.841 568.161C415.074 567.147 408.486 565.628 406.073 561.119C405.228 559.528 405.603 557.066 407.678 556.853C408.462 556.852 409.233 557.027 409.91 557.359C413.999 558.89 418.498 559.483 422.948 559.079C427.399 558.675 431.643 557.288 435.248 555.059C435.78 554.799 436.237 554.442 436.583 554.014C436.93 553.586 437.158 553.099 437.251 552.587C437.148 551.92 436.945 551.266 436.648 550.642C435.912 548.048 439.061 545.646 442.234 545.362C445.408 545.079 448.46 546.193 451.489 546.994C455.965 548.179 457.98 547.419 459.935 546.163C461.764 544.721 463.884 543.565 466.197 542.748C478.263 539.04 491.125 541.634 503.48 540.935C504.808 540.959 506.114 540.64 507.22 540.023C507.487 539.863 507.712 539.66 507.883 539.426C508.053 539.191 508.164 538.93 508.211 538.658C508.257 538.386 508.237 538.109 508.152 537.843C508.066 537.578 507.918 537.33 507.715 537.115C507.148 536.638 506.243 536.537 505.603 536.101C504.397 535.341 504.53 533.832 503.649 532.849C501.911 530.883 497.869 532.058 495.577 530.549C494.889 529.996 494.296 529.365 493.815 528.674C486.733 520.285 467.62 525.574 473.919 511.55C474.364 510.758 474.527 509.875 474.389 509.007C473.895 507.143 471.168 506.525 468.924 506.251L453.238 504.346C451.727 504.243 450.253 503.899 448.894 503.333C445.781 501.843 444.901 498.469 444.442 495.48C444.201 493.879 444.044 492.106 445.154 490.789C447.157 488.428 451.609 489.117 454.565 487.617C467.657 481.001 486.491 487.546 500.186 491.812C503.806 492.947 508.523 494.031 511.214 491.65C513.905 489.269 512.324 485.307 509.923 482.723C508.982 481.71 507.896 480.697 507.848 479.41C507.8 478.123 508.777 477.059 509.259 475.864C509.654 474.836 509.689 473.735 509.359 472.691C509.03 471.647 508.35 470.705 507.401 469.977C505.909 469.112 504.349 468.333 502.732 467.646C500.632 466.501 499.112 464.748 497.109 463.502C491.318 459.915 469.189 457.169 462.275 458.699C465.738 457.929 466.86 453.43 464.061 451.606C462.794 450.878 461.321 450.445 459.79 450.35C453.153 449.523 446.381 449.931 439.954 451.546C438.264 451.971 436.334 452.457 434.838 451.657C432.618 450.471 433.45 447.361 435.61 446.104C437.77 444.848 440.581 444.818 443.175 444.503C445.769 444.189 448.653 443.318 449.618 441.261C451.03 438.221 447.085 435.111 443.248 434.938C439.411 434.766 435.839 436.408 432.22 437.492C425.53 439.47 418.258 439.577 411.491 437.796C408.74 437.066 405.965 436.023 403.117 436.337C401.477 436.652 399.864 437.062 398.291 437.563C389.181 439.731 375.366 428.717 381.278 421.108C382.557 419.476 385.223 418.959 387.516 419.314C389.776 419.799 391.936 420.567 393.923 421.594C404.262 426.048 416.076 427.474 427.49 425.647C428.527 425.475 429.722 425.15 430.036 424.309C430.098 423.938 430.051 423.559 429.9 423.206C429.748 422.853 429.497 422.536 429.167 422.283C426.633 419.821 406.688 416.051 415.726 410.823C420.274 408.189 427.454 414.126 430.675 416.305C431.627 417.056 432.725 417.666 433.921 418.108C435.132 418.397 436.397 418.49 437.649 418.382C443.199 418.199 447.821 421.168 452.574 421.239C459.247 421.33 457.244 418.25 459.042 414.309C461.455 408.888 478.878 411.269 484.066 411.269C487.068 411.399 490.072 411.055 492.922 410.256C505.133 406.101 502.382 393.74 494.129 386.16C489.23 381.651 482.389 378.835 475.596 380.456C474.442 380.821 473.195 380.929 471.976 380.77C469.635 380.273 468.598 378.054 467.452 376.271C462.553 368.672 459.609 382.351 451.766 381.044C442.113 379.473 430.048 369.178 421.927 364.558C421.927 362.886 425.33 363.21 426.657 361.964C427.065 361.477 427.237 360.878 427.141 360.288C427.045 359.698 426.687 359.16 426.138 358.782C425.009 358.057 423.666 357.601 422.253 357.465C415.581 356.341 408.088 355.52 402.272 352.298C397.229 349.511 389.217 345.357 388.759 339.865C388.409 335.701 390.122 329.185 394.683 327.017C400.318 324.352 407.883 328.628 413.252 330.351C416.365 331.364 420.021 332.377 422.905 330.898C424.593 329.849 425.897 328.424 426.669 326.784C427.541 325.668 427.913 324.329 427.719 323.005C427.224 321.363 425.077 320.461 423.086 320.259C421.095 320.056 419.044 320.35 417.053 320.097C416.409 320.041 415.795 319.837 415.279 319.509C413.976 318.546 414.507 316.803 414.374 315.354C414.181 314.278 413.669 313.259 412.884 312.391C412.1 311.524 411.069 310.835 409.886 310.39C407.509 309.521 404.985 308.97 402.405 308.758C400.751 308.657 399.161 308.177 397.808 307.37C396.601 306.468 396.022 304.705 397.156 303.702C398.882 302.142 402.176 303.702 404.468 302.81C407.268 301.696 407.605 297.278 410.706 297.511C411.627 297.656 412.471 298.038 413.12 298.605C419.02 302.841 422.772 307.958 430.675 309.265C438.856 310.623 447.326 308.819 455.531 310.045C457.702 310.369 460.26 310.602 461.841 309.305C463.422 308.008 463.156 305.627 462.541 303.722C462.337 302.799 461.864 301.932 461.165 301.199C460.079 300.186 458.366 299.902 457.027 299.173C450.559 295.535 447.217 287.551 440.376 283.427C441.957 281.259 443.549 279.09 445.13 276.912L425.125 273.507C423.184 273.328 421.328 272.739 419.732 271.795C414.592 268.178 416.739 258.724 412.951 253.86C418.549 254.215 422.82 258.015 427.767 260.213C432.714 262.412 440.726 261.865 441.739 257.245C442.5 253.759 438.59 250.871 434.874 249.209C431.158 247.548 426.79 245.927 425.427 242.583C424.413 240.1 425.427 237.385 425.33 234.75C425.101 227.658 417.451 222.591 410.923 218.143C404.396 213.695 397.808 206.997 400.511 200.249L410.163 202.276C410.405 196.46 402.477 192.143 402.671 186.307C402.869 184.78 403.212 183.269 403.696 181.788C405.916 171.969 396.083 163.407 392.234 153.944C390.544 149.81 390.014 145.412 389.398 141.065C388.723 136.397 387.918 131.733 386.985 127.072C386.37 123.961 385.646 120.729 383.365 118.206C381.085 115.683 376.862 114.153 373.483 115.501C369.538 117.122 368.838 121.449 367.62 124.985C363.3 137.478 348.242 147.57 337.612 156.152C335.199 158.068 334.463 162.08 337.516 163.103C339.289 163.701 341.244 162.87 342.885 162.09L357.219 154.997C357.649 154.717 358.143 154.514 358.669 154.399C359.196 154.284 359.745 154.26 360.284 154.329C361.659 154.673 362.13 156.071 362.395 157.257C363.276 161.158 363.795 165.91 360.115 168.403C358.775 169.172 357.318 169.785 355.783 170.227C346.903 173.469 341.304 180.764 334.728 186.712C330.509 190.506 325.738 193.839 320.527 196.632C319.328 197.127 318.338 197.919 317.691 198.902C317.185 199.915 317.86 201.414 319.175 201.445L316.425 209.247C321.251 209.895 325.426 206.683 328.961 203.866C332.496 201.05 337.274 198.182 341.847 199.611C338.975 202.651 335.114 204.859 332.194 207.788C327.597 212.297 327.67 218.792 326.355 224.405C326.181 225.546 325.772 226.654 325.148 227.678C324.343 228.677 323.367 229.571 322.252 230.333C318.117 233.548 314.921 237.522 312.913 241.944C312.335 243.02 312.102 244.204 312.238 245.379C312.805 248.105 316.618 249.432 319.9 249.544C323.181 249.655 326.68 249.209 329.624 250.435C334.451 252.462 335.344 257.68 335.657 262.139C326.005 266.293 318.765 273.72 308.871 277.591C306.072 278.695 303.068 279.506 300.606 281.066C297.288 283.163 293.114 289.517 294.368 293.225C295.792 297.39 302.633 298.008 304.021 302.202C297.854 304.749 292.375 308.332 287.925 312.73C286.719 313.946 285.512 315.233 284.39 316.51L281.88 319.296C279.129 322.336 276.294 325.588 275.582 329.378L281.289 334.079C278.297 336.187 273.736 335.305 270.056 336.42C268.862 336.843 267.786 337.471 266.898 338.264C266.01 339.056 265.33 339.996 264.9 341.023C264.471 342.05 264.302 343.141 264.404 344.226C264.506 345.311 264.878 346.365 265.495 347.323C267.498 350.079 271.323 351.376 274.761 352.895C278.2 354.415 281.784 356.493 282.387 359.684C283.943 367.841 265.121 363.595 260.391 366.453C256.265 368.945 256.12 374.934 251.354 376.443C248.941 377.213 246.069 376.443 243.62 377.183C240.603 378.085 239.167 380.892 237.128 382.979C232.604 387.609 220.007 389.433 218.258 395.726C215.844 404.622 229.37 401.998 233.412 397.377C234.619 396.05 235.427 394.489 237.032 393.466C238.636 392.443 241.182 392.26 242.268 393.638C243.354 395.016 242.003 397.063 240.398 398.198C238.793 399.333 236.778 400.386 236.38 402.119C236.269 402.919 236.438 403.728 236.867 404.448C237.295 405.168 237.965 405.767 238.793 406.172C240.485 406.946 242.343 407.428 244.259 407.591C247.963 408.118 252.705 409.617 256.325 409.435C261.151 409.171 265.978 406.395 270.526 405.128C284.498 400.538 300.329 397.712 314.373 402.16C320.841 404.186 326.825 407.763 333.679 408.189C335.669 408.31 337.745 408.189 339.567 408.867C341.389 409.546 342.752 411.482 341.726 412.92C341.273 413.475 340.635 413.905 339.892 414.157C333.473 416.7 326.186 413.326 319.296 411.927C310.5 410.144 301.318 411.674 292.365 412.799C277.718 414.633 261.875 412.799 247.589 414.937C231.059 417.429 249.797 424.887 248.796 429.943C248.494 431.544 247.831 433.185 248.289 434.756C251.523 434.482 254.322 432.628 256.397 430.571C258.473 428.514 260.282 426.164 262.671 424.319C263.812 423.293 265.372 422.667 267.039 422.567C268.692 422.567 270.394 423.782 270.14 425.15C269.821 425.958 269.357 426.72 268.765 427.41C268.33 428.18 268.487 429.366 269.477 429.548C269.891 429.582 270.309 429.519 270.683 429.365C277.416 427.339 286.924 431.007 294.018 431.585C303.08 432.334 312.841 433.115 320.853 437.076C334.933 444.037 306.374 443.642 313.613 451.444C314.715 452.407 316.102 453.106 317.631 453.471C323.664 455.497 329.564 458.861 332.4 463.846C335.235 468.832 334.077 475.631 328.599 478.67C327.532 479.343 326.229 479.699 324.895 479.684C318.862 479.329 316.883 472.682 313.649 469.551C310.03 466.065 304.697 465.609 300.739 462.458C295.334 458.203 295.068 450.421 292.293 444.888C291.509 443.298 290.423 441.555 288.456 441.089C285.753 440.471 283.244 442.659 282.303 444.878C281.361 447.097 281.204 449.59 279.576 451.505C277.802 453.532 274.484 454.747 273.712 457.21C273.241 458.729 273.893 460.371 273.41 461.881C272.814 463.13 271.97 464.284 270.912 465.295C269.737 466.759 268.993 468.437 268.742 470.19C268.49 471.943 268.738 473.721 269.465 475.377C271.733 480.443 274.424 484.618 276.402 489.715C276.705 490.779 277.309 491.766 278.164 492.592C279.214 493.464 280.879 493.92 281.313 495.095C281.748 496.27 280.758 497.405 279.829 498.327L272.819 505.288C272.603 505.669 272.27 505.996 271.855 506.234C271.44 506.472 270.958 506.614 270.456 506.645C269.955 506.675 269.453 506.594 269.001 506.41C268.55 506.225 268.164 505.943 267.884 505.592C266.786 505.592 259.305 501.225 257.833 500.425C253.646 498.165 250.352 494.872 246.829 491.863C243.909 494.183 244.862 498.145 244.862 501.519C244.903 502.119 244.766 502.717 244.464 503.262C243.258 505.136 239.553 504.356 237.647 505.785C237.044 506.341 236.67 507.046 236.583 507.795C236.496 508.543 236.7 509.296 237.164 509.939C241.617 516.9 253.839 517.843 260.862 522.007C263.745 523.709 266.11 526.587 265.35 529.475C264.445 532.95 259.317 534.652 255.203 533.882C251.088 533.112 247.734 530.63 244.609 528.228C238.842 523.801 235.318 518.977 227.053 518.38C225.569 518.278 223.88 518.217 222.782 519.089C219.609 521.602 226.004 526.972 222.673 529.343C218.871 528.381 214.85 528.197 210.946 528.806C211.223 534.196 212.997 539.445 214.758 544.633C214.965 545.509 215.444 546.323 216.146 546.994C218.668 549.02 225.798 549.142 229.165 550.398C233.665 551.91 237.729 554.211 241.086 557.147C244.642 560.373 247.235 564.263 248.651 568.495C248.941 569.387 250.521 579.843 249.194 579.702C241.437 578.828 233.853 577.09 226.643 574.534C223.108 573.278 219.585 571.798 215.784 571.545C209.992 571.16 204.539 573.571 199.471 575.993C198.602 576.398 197.637 576.935 197.541 577.766C197.569 578.17 197.708 578.563 197.947 578.914C198.185 579.266 198.517 579.566 198.916 579.793C210.403 588.456 225.557 595.508 229.708 608.002C221.527 606.553 213.817 600.909 205.842 603.037C203.661 603.738 201.626 604.723 199.809 605.955C192.895 610.14 185.837 614.446 181.071 620.384C174.881 628.084 172.07 641.297 185.451 642.675C190.627 643.192 204.889 643.293 198.011 650.589C195.936 652.797 192.787 654.034 189.734 655.199L170.115 662.707C165.868 664.328 161.379 666.122 158.93 669.455C157.892 670.874 157.289 672.495 156.372 673.964C152.113 680.794 142.11 683.337 133.037 684.522C123.963 685.708 114.118 686.448 107.252 691.554C104.924 693.277 103.054 695.435 100.568 696.995C95.9227 699.914 89.7933 700.359 84.2792 701.869C76.7984 703.896 65.1188 716.268 76.895 720.928C79.4167 721.942 82.3969 721.415 85.0997 720.817C100.918 717.311 115.638 710.816 131.673 707.929C139.339 706.437 147.269 706.158 155.057 707.108C167.955 708.861 164.167 711.87 155.057 716.703C152.547 718.031 149.724 719.429 148.867 721.77C148.011 724.11 149.796 727.109 152.487 728.416C155.326 729.609 158.582 729.9 161.657 729.237C164.734 728.71 167.69 727.657 170.646 726.876C180.757 724.272 191.158 725.083 201.088 727.687C212.345 730.625 219.102 731.801 230.818 728.7C242.534 725.6 255.118 725.215 267.353 726.187C273.579 726.674 279.769 727.505 285.922 728.447C290.543 729.166 295.78 730.939 300.401 729.835C303.418 729.126 306.132 727.748 309.052 726.795C311.574 725.974 314.241 725.509 316.943 725.417C317.704 725.352 318.472 725.449 319.175 725.701C319.717 726.019 320.174 726.428 320.517 726.903C300.401 747.044 294 768 358 778C426.381 778 365.207 746.383 365.46 740.14C365.593 736.624 365.749 733.047 367.125 729.734C368.5 726.42 371.336 723.34 375.293 722.225C379.951 720.898 385.103 722.509 389.193 724.799C393.283 727.089 396.843 730.068 401.259 731.953C405.215 733.674 411.53 733.181 410.936 727.353C410.539 725.236 409.619 723.214 408.233 721.415C409.439 718.375 413.759 716.967 417.56 717.159C421.36 717.352 424.884 718.76 428.515 719.702C438.566 722.317 447.965 719.905 458.04 719.52C468.9 719.115 479.988 718.953 490.883 719.277C491.616 719.343 492.358 719.274 493.055 719.074C493.75 718.788 494.314 718.318 494.66 717.737C499.957 709.631 482.449 708.861 478.166 707.412C475.186 706.398 472.833 703.166 474.8 701.049C477.901 697.715 488.072 696.702 492.669 696.702C496.361 696.702 499.908 697.816 503.528 698.505C507.148 699.194 511.178 699.356 514.267 697.664C514.656 697.467 514.99 697.201 515.244 696.884C515.492 696.398 515.522 695.854 515.329 695.351C515.136 694.848 514.733 694.421 514.194 694.148C513.075 693.635 511.844 693.318 510.575 693.216C506.52 692.568 501.984 690.328 502.129 686.853C502.129 685.9 502.539 684.887 502.02 684.046C499.209 679.395 492.367 683.438 493.984 676.285C495.601 669.131 504.409 667.54 511.552 668.179C517.963 668.768 524.425 668.866 530.857 668.473C534.007 668.406 537.114 667.842 540.015 666.811C544.443 664.916 550.307 655.675 541.21 655.847ZM251.076 655.006L251.885 655.543C255.143 657.084 256.216 660.529 258.569 662.96C260.053 664.48 262.104 665.676 262.961 667.5C263.818 669.324 262.37 672.029 260.077 671.664C259.612 671.569 259.168 671.411 258.762 671.198L246.166 665.402C243.487 664.176 240.446 662.444 240.495 659.88C240.594 658.712 241.195 657.615 242.184 656.79C243.314 655.818 244.749 655.134 246.323 654.819C247.897 654.503 249.545 654.568 251.076 655.006ZM209.22 624.518C211.187 621.366 216.242 620.9 220.49 620.84C222.903 620.84 225.473 620.84 227.608 621.762C228.783 622.389 229.875 623.12 230.866 623.94C232.802 625.345 234.958 626.521 237.273 627.436C240.579 628.733 244.682 629.898 245.719 632.847C245.995 633.775 245.909 634.753 245.475 635.637C245.04 636.521 244.28 637.266 243.306 637.761C239.686 639.514 225.545 636.575 221.298 635.734C217.883 635.086 214.372 634.285 211.73 632.36C209.087 630.435 207.603 627.122 209.22 624.518ZM263.818 709.276C253.14 708.01 242.341 709.408 231.626 708.638C223.18 708.03 216.266 703.744 208.026 703.349C207.726 703.358 207.43 703.287 207.181 703.146C206.988 702.988 206.872 702.775 206.855 702.548C206.747 701.131 207.311 699.736 208.424 698.667C209.975 697.162 211.083 695.371 211.657 693.439C211.959 692.233 211.175 690.825 211.887 689.68C213.986 686.265 215.169 689.68 218.33 690.693C224.085 692.578 230.854 690.176 236.67 691.939C241.653 693.459 245.948 696.236 250.714 698.222C259.631 701.93 278.285 702.68 283.509 710.502C278.429 712.569 269.259 709.914 263.818 709.276ZM320.865 367.74C317.643 366.058 314.518 363.95 310.754 363.535C307.544 363.18 303.816 364.001 301.367 362.217C299.255 360.667 299.267 357.962 298.314 355.743C297.415 354.08 296.323 352.495 295.056 351.011C294.03 349.582 288.77 341.182 292.824 340.23C293.753 340.017 294.67 340.595 295.406 341.132C302.09 345.894 309.258 348.295 317.486 350.17C326.946 352.298 329.661 355.368 330.686 360.495C331.193 362.977 331.302 365.936 331.591 369.513C328.104 370.759 324.086 369.422 320.865 367.74ZM343.681 342.499C343.596 342.756 343.431 342.989 343.202 343.175C342.974 343.36 342.691 343.491 342.383 343.554C342.074 343.617 341.751 343.61 341.447 343.533C341.143 343.456 340.869 343.313 340.653 343.118C328.309 336.846 309.583 336.369 303.249 323.521C302.52 322.306 302.19 320.948 302.296 319.59C302.37 318.913 302.718 318.279 303.283 317.792C303.847 317.305 304.593 316.995 305.396 316.915C306.477 317.035 307.514 317.35 308.437 317.837C312.901 319.549 319.296 318.921 324.123 320.38C332.967 323.015 340.254 327.473 344.164 334.505C344.26 334.657 344.345 334.819 344.429 334.971C345.28 336.127 345.668 337.481 345.538 338.835C345.408 340.189 344.766 341.473 343.705 342.499H343.681ZM344.67 228.934C343.833 229.697 343.063 230.51 342.366 231.366C341.47 232.503 340.385 233.526 339.144 234.406C336.864 235.875 332.846 235.936 331.76 233.707C331.4 232.716 331.4 231.658 331.76 230.667C333.57 223.382 344.489 191.018 357.496 206.643C367.656 218.873 352.73 221.912 344.67 228.934Z" fill="#0B0B0B"/>
</svg>
