<svg width="1191" height="537" viewBox="0 0 1191 537" fill="none" xmlns="http://www.w3.org/2000/svg">
<g filter="url(#filter0_d_430_2043)">
<path d="M973.095 489C937.614 485.592 929.557 476.811 927.5 464.5C925.443 452.189 935.316 445.468 941.628 442.262C967.378 429.163 1019.27 429.421 1040 418C1035.5 410 1025.5 403.273 1010.5 403.273C995.504 403.273 982.786 403.273 973.095 401.84C950.911 398.493 929.085 393.127 907.894 385.81C882.292 376.965 866 358.852 830.943 358.852C795.885 358.852 788.422 352.502 777.648 343.853C760.439 330.024 755.371 306.345 739.568 291.03C725.613 277.567 707.945 271.381 688 272.35C666.402 273.381 559.552 273.381 545.233 253.794C535.874 241.032 529.905 225.373 517.27 215.816C507.839 208.693 495.651 205.776 486.5 198.291C415.784 140.622 440.15 33 322.5 33C240.5 33 209.294 149.587 197 185C183.055 225.04 32 328 32 328C32 328 133 417.336 133 506.074C133 505.899 133 506.249 133 506.074C415.259 506.074 876.798 506.074 1159.06 506.074C1143.46 495.837 1116.5 497 1091.54 496.144C1066.58 495.288 1028.61 494.347 973.095 489Z" fill="#321F11"/>
</g>
<defs>
<filter id="filter0_d_430_2043" x="0.791946" y="0.751678" width="1189.47" height="535.54" filterUnits="userSpaceOnUse" color-interpolation-filters="sRGB">
<feFlood flood-opacity="0" result="BackgroundImageFix"/>
<feColorMatrix in="SourceAlpha" type="matrix" values="0 0 0 0 0 0 0 0 0 0 0 0 0 0 0 0 0 0 127 0" result="hardAlpha"/>
<feOffset dy="-1.04027"/>
<feGaussianBlur stdDeviation="15.604"/>
<feComposite in2="hardAlpha" operator="out"/>
<feColorMatrix type="matrix" values="0 0 0 0 1 0 0 0 0 0.705882 0 0 0 0 0.203922 0 0 0 0.7 0"/>
<feBlend mode="normal" in2="BackgroundImageFix" result="effect1_dropShadow_430_2043"/>
<feBlend mode="normal" in="SourceGraphic" in2="effect1_dropShadow_430_2043" result="shape"/>
</filter>
</defs>
</svg>
