<svg width="1424" height="385" viewBox="0 0 1424 385" fill="none" xmlns="http://www.w3.org/2000/svg">
<g filter="url(#filter0_d_430_2044)">
<path d="M891.004 326.112C881.577 325.873 869.693 324.367 867.459 317.562C865.685 312.169 866.509 307.255 870.615 302.621C880.795 291.193 882.331 262.456 867.738 251.921C858.06 244.949 826.458 241.458 813.554 242.57C814.504 240.18 815.467 237.791 816.417 235.401C813.111 237.256 809.141 238.341 805.008 238.518L808.778 222.487L795.162 236.648C787.31 231.929 781.548 225.561 778.628 218.373C777.702 225.374 778.045 232.436 779.647 239.37C773.413 238.241 767.507 236.277 762.219 233.573C764.996 237.803 768.896 241.57 773.684 244.648C757.248 244.648 740.825 245.354 724.346 245.354C724.696 245.354 721.456 225.136 720.855 223.245C718.565 215.973 714.306 209.344 706.583 204.461C694.95 197.085 684.616 198.04 670.274 198.04H576.344C581.581 198.04 572.155 169.355 570.87 166.934C567.157 159.078 560.634 152.123 552.003 146.82C516.533 125.313 468.214 130.197 426.32 131.661L434.573 120.004C430.083 120.277 425.758 121.393 422.004 123.246C425.922 119.165 428.808 114.589 430.523 109.74C424.866 111.013 419.517 112.945 414.673 115.464C415.863 110.453 418.317 105.655 421.907 101.324C415.303 105.032 409.562 109.521 404.911 114.612C402.202 100.129 393.432 81.8228 383.964 68.9814C353.979 28.4445 278.003 6.799 211.503 89.299C145.003 171.799 56.4226 182.379 39.0035 218.373C9.98977 278.325 80.5035 293.573 80.5035 354.299C81.2296 354.299 81.8999 354.216 82.6401 354.174H1392.5C1382.45 352.741 1001.53 342.17 991.503 340.799C950.627 334.959 932.601 327.195 891.004 326.112Z" fill="#22160E"/>
</g>
<defs>
<filter id="filter0_d_430_2044" x="0.791962" y="0.751678" width="1422.92" height="383.715" filterUnits="userSpaceOnUse" color-interpolation-filters="sRGB">
<feFlood flood-opacity="0" result="BackgroundImageFix"/>
<feColorMatrix in="SourceAlpha" type="matrix" values="0 0 0 0 0 0 0 0 0 0 0 0 0 0 0 0 0 0 127 0" result="hardAlpha"/>
<feOffset dy="-1.04027"/>
<feGaussianBlur stdDeviation="15.604"/>
<feComposite in2="hardAlpha" operator="out"/>
<feColorMatrix type="matrix" values="0 0 0 0 1 0 0 0 0 0.705882 0 0 0 0 0.203922 0 0 0 0.7 0"/>
<feBlend mode="normal" in2="BackgroundImageFix" result="effect1_dropShadow_430_2044"/>
<feBlend mode="normal" in="SourceGraphic" in2="effect1_dropShadow_430_2044" result="shape"/>
</filter>
</defs>
</svg>
