<svg width="729" height="536" viewBox="0 0 729 536" fill="none" xmlns="http://www.w3.org/2000/svg">
<g filter="url(#filter0_d_430_2038)">
<path d="M291.1 454.287L699 506.5C638.939 430.622 637.72 326.6 571 207.977C551.764 173.777 538.5 31 470 31C401.5 31 385.357 185.239 377.5 222.5C372.78 245.006 374.069 258.241 355 274.5C339.105 287.992 293.553 280.252 275.5 289C225.418 313.299 239.989 349.5 172 349.5C119.164 349.5 35.311 358.429 30.2412 378.109C29.9749 379.143 30.861 380.041 31.9269 380.094C145.178 385.654 205.133 399.334 258.28 431.387C268.53 439.965 279.512 447.627 291.1 454.287Z" fill="#432612"/>
</g>
<defs>
<filter id="filter0_d_430_2038" x="0.193398" y="0" width="728.807" height="535.5" filterUnits="userSpaceOnUse" color-interpolation-filters="sRGB">
<feFlood flood-opacity="0" result="BackgroundImageFix"/>
<feColorMatrix in="SourceAlpha" type="matrix" values="0 0 0 0 0 0 0 0 0 0 0 0 0 0 0 0 0 0 127 0" result="hardAlpha"/>
<feOffset dy="-1"/>
<feGaussianBlur stdDeviation="15"/>
<feComposite in2="hardAlpha" operator="out"/>
<feColorMatrix type="matrix" values="0 0 0 0 1 0 0 0 0 0.705882 0 0 0 0 0.203922 0 0 0 0.7 0"/>
<feBlend mode="normal" in2="BackgroundImageFix" result="effect1_dropShadow_430_2038"/>
<feBlend mode="normal" in="SourceGraphic" in2="effect1_dropShadow_430_2038" result="shape"/>
</filter>
</defs>
</svg>
