<svg width="652" height="406" viewBox="0 0 652 406" fill="none" xmlns="http://www.w3.org/2000/svg">
<g filter="url(#filter0_d_430_2036)">
<path d="M49.34 376.5H30C30 358 52.34 345.5 73.34 345.5C85.85 344.89 113.94 339.26 121.84 329C137.761 308.323 157.155 317.644 178.857 310.215C197.077 303.985 215.84 274 221.14 253.465C226.44 232.929 234.84 207 242.84 146C250.84 85 270.84 31 317.34 31C363.84 31 400.857 147.4 433.34 208C465.823 268.6 621.84 368.125 621.84 368.125L221.839 374.5L49.34 376.5Z" fill="#87581E"/>
</g>
<defs>
<filter id="filter0_d_430_2036" x="0" y="0" width="651.84" height="405.5" filterUnits="userSpaceOnUse" color-interpolation-filters="sRGB">
<feFlood flood-opacity="0" result="BackgroundImageFix"/>
<feColorMatrix in="SourceAlpha" type="matrix" values="0 0 0 0 0 0 0 0 0 0 0 0 0 0 0 0 0 0 127 0" result="hardAlpha"/>
<feOffset dy="-1"/>
<feGaussianBlur stdDeviation="15"/>
<feComposite in2="hardAlpha" operator="out"/>
<feColorMatrix type="matrix" values="0 0 0 0 1 0 0 0 0 0.705882 0 0 0 0 0.203922 0 0 0 0.7 0"/>
<feBlend mode="normal" in2="BackgroundImageFix" result="effect1_dropShadow_430_2036"/>
<feBlend mode="normal" in="SourceGraphic" in2="effect1_dropShadow_430_2036" result="shape"/>
</filter>
</defs>
</svg>
