<svg width="769" height="347" viewBox="0 0 769 347" fill="none" xmlns="http://www.w3.org/2000/svg">
<g filter="url(#filter0_d_430_2039)">
<path d="M533 31C459.482 31 456.108 108.238 418.837 148.538C393.61 175.881 339.31 146.591 318.578 171.89C294.471 201.493 272.304 205 234.5 205C209.5 205 95.5 195 77.5 223.5C107 226.5 174.5 232 164.5 253.5C154.5 275 84.7448 295.91 30 318H35.3169C72.6852 318 109.903 318 147.372 318H739C732.15 290.64 713 266.472 693.028 246.5C673.056 226.528 638.835 195.226 631.5 162.898C618 103.398 583 31 533 31Z" fill="#321F11"/>
</g>
<defs>
<filter id="filter0_d_430_2039" x="0" y="0" width="769" height="347" filterUnits="userSpaceOnUse" color-interpolation-filters="sRGB">
<feFlood flood-opacity="0" result="BackgroundImageFix"/>
<feColorMatrix in="SourceAlpha" type="matrix" values="0 0 0 0 0 0 0 0 0 0 0 0 0 0 0 0 0 0 127 0" result="hardAlpha"/>
<feOffset dy="-1"/>
<feGaussianBlur stdDeviation="15"/>
<feComposite in2="hardAlpha" operator="out"/>
<feColorMatrix type="matrix" values="0 0 0 0 1 0 0 0 0 0.705882 0 0 0 0 0.203922 0 0 0 0.7 0"/>
<feBlend mode="normal" in2="BackgroundImageFix" result="effect1_dropShadow_430_2039"/>
<feBlend mode="normal" in="SourceGraphic" in2="effect1_dropShadow_430_2039" result="shape"/>
</filter>
</defs>
</svg>
