<svg width="1240" height="367" viewBox="0 0 1240 367" fill="none" xmlns="http://www.w3.org/2000/svg">
<g filter="url(#filter0_d_430_2045)">
<path d="M879.5 147.607C829.265 147.607 843.282 188.437 811 188.437C761.669 188.437 747.483 188.437 695.5 188.437C609.5 188.437 620.27 226.667 621.92 205.847C623.57 185.027 619.39 211.097 620.27 212.577C618.057 208.837 615.85 205.094 613.65 201.347C613.77 203.307 613.897 205.27 614.03 207.237C609.766 199.25 603.774 192.315 596.49 186.937C599.278 189.576 601.497 192.758 603.008 196.288C604.52 199.817 605.293 203.618 605.28 207.457L593.63 195.957C596.246 200.381 598.127 205.201 599.2 210.227C592.209 204.807 584.333 200.639 575.92 197.907C580.85 205.567 586.84 213.157 590.77 221.357C576.77 226.107 559.71 226.707 544.96 226.667C534.15 226.667 522.07 226.137 514.03 233.367C511.49 235.657 509.32 238.737 506.03 239.547C503.03 240.267 500.03 238.937 497.38 237.357C490.54 233.237 487.24 227.017 481.64 221.847C476.64 217.237 469.05 211.967 462.76 209.347C454.56 205.927 445.49 206.687 436.83 207.017C431.21 207.227 418.72 208.807 414.89 203.437C412.26 199.767 413.04 192.717 412.89 188.437C412.777 187.584 412.923 186.716 413.31 185.947C414.05 184.797 415.65 184.617 416.76 183.807C418.85 182.277 418.57 179.127 418.07 176.577L415.72 165.047C414.85 160.607 413.03 151.877 411.33 147.597C409.04 141.827 402.33 141.657 402.97 135.197C403.12 133.627 410.62 133.347 417.28 133.407C417.805 133.406 418.314 133.23 418.727 132.906C419.14 132.581 419.433 132.128 419.558 131.619C419.683 131.109 419.635 130.572 419.419 130.093C419.204 129.614 418.834 129.221 418.37 128.977L410.1 124.727C406.98 123.127 400 119.427 396.58 119.437C393.16 119.447 383.32 123.937 380.22 125.327L371.31 129.327C370.822 129.543 370.422 129.919 370.177 130.393C369.932 130.867 369.856 131.41 369.963 131.933C370.069 132.456 370.351 132.927 370.761 133.268C371.172 133.609 371.686 133.799 372.22 133.807C379.4 133.937 387.76 134.287 389.07 135.207C394.53 139.057 383.45 144.207 381.8 147.607C379.8 151.667 377.63 160.237 376.67 164.607C376.05 167.497 375.42 170.387 374.8 173.277C374.39 175.177 374 177.277 374.95 178.947C375.635 179.916 376.445 180.791 377.36 181.547C380.36 184.607 381.26 191.107 378.74 194.767C378.334 195.332 377.811 195.803 377.207 196.148C376.604 196.493 375.932 196.704 375.24 196.767C364.72 197.877 356.59 208.087 356.72 218.407C357.084 218.355 357.455 218.391 357.803 218.511C358.151 218.631 358.465 218.832 358.72 219.097C364.52 224.667 371.79 228.887 378.91 232.527C381.84 234.055 384.867 235.391 387.97 236.527C392.193 237.938 396.585 238.778 401.03 239.027C405.63 239.397 410.23 239.577 414.81 240.127C419.149 240.66 423.458 241.414 427.72 242.387C444.649 246.238 460.587 253.585 474.51 263.957C475.069 264.304 475.474 264.852 475.64 265.489C475.805 266.126 475.719 266.802 475.4 267.377C475.064 267.948 474.516 268.363 473.875 268.532C473.235 268.7 472.553 268.609 471.98 268.277C457.233 257.186 440.12 249.656 421.98 246.277C417.741 245.481 413.461 244.924 409.16 244.607C404.45 244.247 399.73 244.067 395.04 243.387C387.29 242.277 380.15 238.957 373.34 235.217C366.93 231.707 360.47 227.707 355.18 222.607C354.794 222.259 354.536 221.79 354.45 221.277C353.378 221.554 352.351 221.981 351.4 222.547C342.87 227.717 334.04 239.547 332.14 249.377C329.79 261.597 338.82 274.617 350.52 277.957C351.73 278.087 352.93 278.217 354.14 278.397C356.969 278.84 359.77 279.444 362.53 280.207C373.25 283.087 383.89 287.697 395.2 286.707C395.862 286.71 396.496 286.974 396.965 287.442C397.433 287.911 397.697 288.545 397.7 289.207C397.685 289.865 397.416 290.492 396.951 290.958C396.485 291.424 395.858 291.692 395.2 291.707C388.45 292.297 381.71 290.977 375.2 289.167C369.37 287.537 363.65 285.527 357.75 284.167C356.99 284.001 356.23 283.851 355.47 283.717C357.07 288.457 363.71 299.827 356.72 312.5C349.73 325.173 221 319.5 184.5 319.5C148 319.5 89.0001 319.5 68.0001 319.5C47.0001 319.5 30 337.5 30 337.5H1210C1210 337.5 1210 236.5 1210 134.5C1210 89.5669 1196 31 1151 31C1106 31 1091.8 68.5 1076.5 68.5C1022.5 68.5 1042 102.5 976 102.5C910 102.5 934.226 147.607 879.5 147.607Z" fill="#22160E"/>
</g>
<defs>
<filter id="filter0_d_430_2045" x="0" y="0" width="1240" height="366.5" filterUnits="userSpaceOnUse" color-interpolation-filters="sRGB">
<feFlood flood-opacity="0" result="BackgroundImageFix"/>
<feColorMatrix in="SourceAlpha" type="matrix" values="0 0 0 0 0 0 0 0 0 0 0 0 0 0 0 0 0 0 127 0" result="hardAlpha"/>
<feOffset dy="-1"/>
<feGaussianBlur stdDeviation="15"/>
<feComposite in2="hardAlpha" operator="out"/>
<feColorMatrix type="matrix" values="0 0 0 0 1 0 0 0 0 0.705882 0 0 0 0 0.203922 0 0 0 0.7 0"/>
<feBlend mode="normal" in2="BackgroundImageFix" result="effect1_dropShadow_430_2045"/>
<feBlend mode="normal" in="SourceGraphic" in2="effect1_dropShadow_430_2045" result="shape"/>
</filter>
</defs>
</svg>
