<svg id="Layer_1" data-name="Layer 1" xmlns="http://www.w3.org/2000/svg" viewBox="0 0 1180 306.5"><defs><style>.cls-1{fill:#22160e;}</style></defs><path class="cls-1" d="M1151,31c-45,0-59.2,37.5-74.5,37.5-54,0-34.5,34-100.5,34s-41.77,45.11-96.5,45.11c-50.23,0-36.22,40.83-68.5,40.83H695.5c-56.58,0-71.27,16.54-74.23,21.93a29.38,29.38,0,0,0,.65-4.52c1.65-20.82-2.53,5.25-1.65,6.73l-6.62-11.23q.18,2.94.38,5.89a60.85,60.85,0,0,0-17.54-20.3,28.1,28.1,0,0,1,8.79,20.52L593.63,196a47.27,47.27,0,0,1,5.57,14.27,76.59,76.59,0,0,0-23.28-12.32c4.93,7.66,10.92,15.25,14.85,23.45-14,4.75-31.06,5.35-45.81,5.31-10.81,0-22.89-.53-30.93,6.7-2.54,2.29-4.71,5.37-8,6.18-3,.72-6-.61-8.65-2.19-6.84-4.12-10.14-10.34-15.74-15.51-5-4.61-12.59-9.88-18.88-12.5-8.2-3.42-17.27-2.66-25.93-2.33-4.7.17-9.44.73-14.13.06-2.09-.29-4.55-.76-6.27-2.11-2-1.58-1.79-3.79-3.09-5.83a7.51,7.51,0,0,0-3.77-2.61A57.25,57.25,0,0,0,389,192.29a20.19,20.19,0,0,0-10.49,2.52c-3,1.8-5.81,2.09-9,3.4a20.51,20.51,0,0,0-5.8,4.06,22.32,22.32,0,0,0-7,16.14,2.2,2.2,0,0,1,1.08.1,2.24,2.24,0,0,1,.92.59c5.8,5.57,13.07,9.79,20.19,13.43a78.62,78.62,0,0,0,9.06,4A50.14,50.14,0,0,0,401,239c4.6.37,9.2.55,13.78,1.1A125.65,125.65,0,0,1,474.51,264a2.54,2.54,0,0,1,1.13,1.53,2.59,2.59,0,0,1-.24,1.89,2.52,2.52,0,0,1-3.42.9,119.68,119.68,0,0,0-50-22,113,113,0,0,0-12.82-1.67c-4.71-.36-9.43-.54-14.12-1.22-7.75-1.11-14.89-4.43-21.7-8.17-6.41-3.51-12.87-7.51-18.16-12.61a2.32,2.32,0,0,1-.73-1.33,11.32,11.32,0,0,0-3.05,1.27c-8.53,5.17-17.36,17-19.26,26.83-2.35,12.22,6.68,25.24,18.38,28.58,1.21.13,2.41.26,3.62.44a72.86,72.86,0,0,1,8.39,1.81c10.72,2.88,21.36,7.49,32.67,6.5a2.49,2.49,0,0,1,2.5,2.5A2.58,2.58,0,0,1,397,291a2.61,2.61,0,0,1-1.75.75c-6.75.59-13.49-.73-20-2.54-5.83-1.63-11.55-3.64-17.45-5q-1.14-.26-2.28-.45c1.6,4.74,8.24,16.11,1.25,28.78s-135.72,7-172.22,7H68c-21,0-38,18-38,18H1210v-203C1210,89.57,1196,31,1151,31Z" transform="translate(-30 -31)"/><path class="cls-1" d="M1151,31c-45,0-59.2,37.5-74.5,37.5-54,0-34.5,34-100.5,34s-41.77,45.11-96.5,45.11c-50.23,0-36.22,40.83-68.5,40.83H695.5c-56.58,0-71.27,16.54-74.23,21.93a29.38,29.38,0,0,0,.65-4.52c1.65-20.82-2.53,5.25-1.65,6.73l-6.62-11.23q.18,2.94.38,5.89a60.85,60.85,0,0,0-17.54-20.3,28.1,28.1,0,0,1,8.79,20.52L593.63,196a47.27,47.27,0,0,1,5.57,14.27,76.59,76.59,0,0,0-23.28-12.32c4.93,7.66,10.92,15.25,14.85,23.45-14,4.75-31.06,5.35-45.81,5.31-10.81,0-22.89-.53-30.93,6.7-2.54,2.29-4.71,5.37-8,6.18-3,.72-6-.61-8.65-2.19-6.84-4.12-10.14-10.34-15.74-15.51-5-4.61-12.59-9.88-18.88-12.5-8.2-3.42-17.27-2.66-25.93-2.33-4.7.17-9.44.73-14.13.06-2.09-.29-4.55-.76-6.27-2.11-2-1.58-1.79-3.79-3.09-5.83a7.51,7.51,0,0,0-3.77-2.61A57.25,57.25,0,0,0,389,192.29a20.19,20.19,0,0,0-10.49,2.52c-3,1.8-5.81,2.09-9,3.4a20.51,20.51,0,0,0-5.8,4.06,22.32,22.32,0,0,0-7,16.14,2.2,2.2,0,0,1,1.08.1,2.24,2.24,0,0,1,.92.59c5.8,5.57,13.07,9.79,20.19,13.43a78.62,78.62,0,0,0,9.06,4A50.14,50.14,0,0,0,401,239c4.6.37,9.2.55,13.78,1.1A125.65,125.65,0,0,1,474.51,264a2.54,2.54,0,0,1,1.13,1.53,2.59,2.59,0,0,1-.24,1.89,2.52,2.52,0,0,1-3.42.9,119.68,119.68,0,0,0-50-22,113,113,0,0,0-12.82-1.67c-4.71-.36-9.43-.54-14.12-1.22-7.75-1.11-14.89-4.43-21.7-8.17-6.41-3.51-12.87-7.51-18.16-12.61a2.32,2.32,0,0,1-.73-1.33,11.32,11.32,0,0,0-3.05,1.27c-8.53,5.17-17.36,17-19.26,26.83-2.35,12.22,6.68,25.24,18.38,28.58,1.21.13,2.41.26,3.62.44a72.86,72.86,0,0,1,8.39,1.81c10.72,2.88,21.36,7.49,32.67,6.5a2.49,2.49,0,0,1,2.5,2.5A2.58,2.58,0,0,1,397,291a2.61,2.61,0,0,1-1.75.75c-6.75.59-13.49-.73-20-2.54-5.83-1.63-11.55-3.64-17.45-5q-1.14-.26-2.28-.45c1.6,4.74,8.24,16.11,1.25,28.78s-135.72,7-172.22,7H68c-21,0-38,18-38,18H1210v-203C1210,89.57,1196,31,1151,31Z" transform="translate(-30 -31)"/><path class="cls-1" d="M386.25,152.61l2.11,5.61,1.69,12.49.21,1-.76,18.89-.76,1.14-1,.46s-7.08,1.73-7,1.78.55.25.55.25l1.43-.25s1.56,0,.81.84l-.47.46s-.34.51.55.13,2.87-1,3.37.08l-.21.43s0,.42.68-.05,3.33-2.36,3.33-2.36a2.76,2.76,0,0,0,0-1.94l1.82-21.51-1-12.23,1.1-3.75a12,12,0,0,0,3.46,2.11,1.73,1.73,0,0,0,1.22,1.73c1.35.5,14.17,4,14.17,4l-9.82,17.42a1.38,1.38,0,0,0-.47,1.22A94.14,94.14,0,0,1,400,191.75l.3-.76.28-.69c.05-.14.14-.58.35-.56a.13.13,0,0,1,.11.09,1.73,1.73,0,0,1,0,.68v1.54l.3-.76.27-.7c.08-.19.14-.5.37-.55a.32.32,0,0,1,.27.07c.18.17.11.41.11.62s0,.57,0,.86l0,.92.82-3.21s.25-8.81.38-8.81.47.55.68.46.08-.59,0-.8a6.84,6.84,0,0,0-.47-1L415,162.69s1-2.15-1.13-2.57a13.37,13.37,0,0,1-3.8-1.43s5-.05,7.2-2l-.79-.62s2.7-1,3.43-2.47l-.51-.51,2.37-2.75a13.32,13.32,0,0,1-2.93-2.68,19.72,19.72,0,0,1-1.73-2.49c-1.36-2.19-2.72-4.38-3.91-6.67a4.07,4.07,0,0,0,1.2.76,32.19,32.19,0,0,0-6.42-6.67l1.38-.07a17.38,17.38,0,0,0-4.87-2.44l1.08-.66a16.22,16.22,0,0,0-9.05-3l2.87-1.24s-4.5-.62-6.53.84l1.46-1.46s-8.82,2.08-12.37,8.83c0,0-4.95,2.64-4.72-.34s6.52-4.66,7.93-6.35,3.6-7.71,3-10.74l.62.45s-2.54-8-8.89-8.61c0,0-5.19-.94-6.89.74,0,0-1.48,1.08-1.56,2.3s-.19,2.34-.19,2.34l-1.52,5.19a13.85,13.85,0,0,0,4.38,5.12l-1.64-4,2.91-3.76s2.91-1.64,3.58-2.82c0,0,3,2.57,2.79,5.06s-1.35,5.65-5.91,8.22-9.53,9-7.55,13.88a13.68,13.68,0,0,0,6.54,6.87s.51,2.11,2.07,2.53,9.32,2.91,9.32,2.91" transform="translate(-30 -31)"/><path class="cls-1" d="M386.25,152.61l2.11,5.61,1.69,12.49.21,1-.76,18.89-.76,1.14-1,.46s-7.08,1.73-7,1.78.55.25.55.25l1.43-.25s1.56,0,.81.84l-.47.46s-.34.51.55.13,2.87-1,3.37.08l-.21.43s0,.42.68-.05,3.33-2.36,3.33-2.36a2.76,2.76,0,0,0,0-1.94l1.82-21.51-1-12.23,1.1-3.75a12,12,0,0,0,3.46,2.11,1.73,1.73,0,0,0,1.22,1.73c1.35.5,14.17,4,14.17,4l-9.82,17.42a1.38,1.38,0,0,0-.47,1.22A94.14,94.14,0,0,1,400,191.75l.3-.76.28-.69c.05-.14.14-.58.35-.56a.13.13,0,0,1,.11.09,1.73,1.73,0,0,1,0,.68v1.54l.3-.76.27-.7c.08-.19.14-.5.37-.55a.32.32,0,0,1,.27.07c.18.17.11.41.11.62s0,.57,0,.86l0,.92.82-3.21s.25-8.81.38-8.81.47.55.68.46.08-.59,0-.8a6.84,6.84,0,0,0-.47-1L415,162.69s1-2.15-1.13-2.57a13.37,13.37,0,0,1-3.8-1.43s5-.05,7.2-2l-.79-.62s2.7-1,3.43-2.47l-.51-.51,2.37-2.75a13.32,13.32,0,0,1-2.93-2.68,19.72,19.72,0,0,1-1.73-2.49c-1.36-2.19-2.72-4.38-3.91-6.67a4.07,4.07,0,0,0,1.2.76,32.19,32.19,0,0,0-6.42-6.67l1.38-.07a17.38,17.38,0,0,0-4.87-2.44l1.08-.66a16.22,16.22,0,0,0-9.05-3l2.87-1.24s-4.5-.62-6.53.84l1.46-1.46s-8.82,2.08-12.37,8.83c0,0-4.95,2.64-4.72-.34s6.52-4.66,7.93-6.35,3.6-7.71,3-10.74l.62.45s-2.54-8-8.89-8.61c0,0-5.19-.94-6.89.74,0,0-1.48,1.08-1.56,2.3s-.19,2.34-.19,2.34l-1.52,5.19a13.85,13.85,0,0,0,4.38,5.12l-1.64-4,2.91-3.76s2.91-1.64,3.58-2.82c0,0,3,2.57,2.79,5.06s-1.35,5.65-5.91,8.22-9.53,9-7.55,13.88a13.68,13.68,0,0,0,6.54,6.87s.51,2.11,2.07,2.53,9.32,2.91,9.32,2.91" transform="translate(-30 -31)"/></svg>