<svg width="954" height="565" viewBox="0 0 954 565" fill="none" xmlns="http://www.w3.org/2000/svg">
<path d="M823.946 68.6187C814.301 60.1935 799.638 60.5326 787.451 64.6017C793.681 57.4285 791.153 45.3125 783.762 39.3392C776.372 33.3659 765.789 32.7138 756.652 35.2831C754.797 36.0097 752.794 36.2782 750.813 36.0656C748.806 35.6353 747.242 34.1354 745.599 32.8573C742.347 30.2891 738.586 28.4423 734.566 27.4394C730.546 26.4366 726.359 26.3006 722.282 27.0405C713.276 28.736 705.69 34.5528 698.261 39.9261C693.399 43.4475 689.71 48.6904 682.815 46.9688C680.697 46.4041 678.78 45.2568 677.28 43.657C675.78 42.0572 674.758 40.0689 674.331 37.9176C673.588 33.8093 675.1 29.5446 674.331 25.4624C672.688 17.1677 662.6 13.6072 654.141 13.9463C654.35 10.5814 651.964 7.58174 649.332 5.48197C637.601 -3.92137 618.051 -0.8304 609.696 11.7161C602.918 21.9541 603.792 35.1918 601.393 47.2949C599.595 43.1605 597.653 38.8566 594.133 36.0526C590.614 33.2485 585.01 32.5182 581.79 35.7005C578.532 29.036 572.667 23.2974 565.329 21.9802C557.991 20.6629 549.688 24.9016 547.837 32.0748C537.528 28.749 524.768 27.9665 517.286 35.8048C508.358 45.169 512.177 60.676 507.524 72.753C496.093 58.185 463.404 61.7194 463.665 84.0996C463.756 92.2378 472.645 97.533 480.726 98.5372C487.582 99.3719 506.911 95.7853 510.469 103.976C518.446 122.378 478.784 137.989 466.819 129.656C461.606 126.017 459.533 119.418 456.105 114.005C450.696 105.58 440.465 99.7762 430.637 101.798C420.81 103.819 413.367 115.153 417.199 124.4C412.692 121.371 407.338 119.857 401.912 120.077C396.487 120.297 391.273 122.241 387.026 125.626C387.104 119.77 383.337 114.292 378.332 111.279C373.328 108.267 367.267 107.367 361.389 107.497C353.785 107.808 346.351 109.84 339.644 113.438C332.937 117.036 327.132 122.108 322.665 128.273C320.293 131.599 318.312 135.238 315.444 138.159C308.08 145.684 295.294 147.288 286.77 141.159C284.789 139.711 283.016 137.898 280.735 136.972C279.111 136.349 277.343 136.203 275.639 136.552C273.934 136.901 272.365 137.73 271.116 138.941C266.111 130.477 255.228 126.33 245.622 128.377C236.016 130.425 228.04 138.055 224.612 147.262C216.075 170.229 231.337 195.244 254.863 199.431C267.675 201.7 280.931 198.583 292.818 193.275C302.841 212.968 327.748 221.407 349.619 218.355C371.49 215.303 390.923 203.069 408.91 190.236C411.829 203.082 423.599 212.695 436.437 215.616C449.276 218.537 462.831 215.681 474.887 210.399C479.996 208.156 484.923 205.495 489.837 202.835C500.472 197.07 516.517 183.924 529.512 186.571C531.149 186.965 532.746 187.511 534.282 188.201C547.89 193.679 562.592 192.114 575.821 197.031C589.05 201.948 602.436 208.769 613.619 217.703C631.488 232.127 644.574 253.738 648.315 276.392C637.903 286.742 629.505 298.939 623.551 312.362C611.286 340.024 609.852 371.899 595.254 398.44C588.869 410.095 580.364 420.454 570.177 428.984C549.076 446.539 521.47 453.242 495.194 458.655C464.238 465.006 434.222 474.188 403.775 482.835C400.701 475.101 396.1 468.068 390.245 462.156C384.391 456.244 377.404 451.576 369.704 448.43C371.312 454.238 372.919 460.046 374.527 465.854C372.44 461.504 369.158 457.84 365.064 455.29C369.116 465.111 371.44 475.56 371.933 486.174C369.621 482.505 366.444 479.461 362.68 477.309C358.916 475.158 354.682 473.965 350.349 473.836C354.222 480.766 358.455 487.487 363.031 493.973C361.2 491.961 358.868 490.472 356.273 489.658C353.679 488.845 350.914 488.736 348.264 489.343C350.264 492.443 352.802 495.159 355.758 497.364C352.368 496.006 348.685 495.547 345.066 496.031C341.447 496.516 338.014 497.927 335.099 500.129C336.051 499.398 342.112 504.537 342.385 505.346C344.158 510.68 338.866 510.249 334.826 512.193C330.725 514.106 327.127 516.952 324.319 520.502C321.511 524.052 319.57 528.209 318.651 532.643C312.707 528.117 303.61 531.612 297.054 528.039C290.263 524.348 289.233 515.179 289.116 507.445C284.621 514.59 282.516 522.982 283.107 531.404C281.148 530.074 279.554 528.272 278.474 526.163C277.395 524.055 276.863 521.708 276.929 519.34C275.05 521.628 273.683 524.293 272.918 527.154C272.154 530.016 272.011 533.008 272.498 535.929C272.042 533.321 220.949 534.625 217.104 534.625C202.906 534.486 188.712 534.373 174.523 534.286L158.882 534.169C155.389 534.169 146.93 535.838 144.662 534.051C143.806 533.229 143.151 532.22 142.746 531.104C140.072 525.196 136.754 519.602 132.854 514.423C133.851 516.918 134.301 519.599 134.173 522.283C134.045 524.968 133.341 527.593 132.111 529.982C128.229 525.82 125.69 520.584 124.825 514.958C124.395 518.961 123.86 523.07 121.931 526.604C120.002 530.139 116.366 533.021 112.338 532.917C111.103 532.814 109.903 532.449 108.819 531.847C107.735 531.244 106.792 530.418 106.052 529.422C105.312 528.426 104.793 527.284 104.528 526.072C104.264 524.86 104.26 523.605 104.518 522.392C102.655 523.915 101.143 525.823 100.087 527.987C97.8318 520.761 100.699 512.506 105.561 506.937C98.0082 512.56 92.1977 520.206 88.7994 528.991C81.5005 512.453 72.2986 494.195 55.0809 488.978C62.1407 499.441 68.5482 510.33 74.2667 521.583C72.6809 518.697 70.2896 516.336 67.3848 514.788C67.4631 516.575 69.783 525.222 68.1668 526.526C66.7853 527.674 60.9331 524.152 61.0243 523.748L60.4248 526.8C53.4135 524.259 47.6001 519.196 44.1194 512.597C45.9371 516.857 47.0719 521.377 47.4822 525.991C47.5557 526.335 47.5589 526.69 47.4917 527.035C47.4245 527.381 47.2883 527.708 47.0912 528C46.4395 528.704 45.3055 528.508 44.3932 528.234C36.4382 525.724 29.6101 520.511 25.0901 513.497L30.1732 527.843C34.331 539.581 21.8316 536.725 13.5682 539.451C7.97666 541.29 2.24182 559.235 0 564.674C53.8123 564.674 107.629 564.726 161.45 564.83C231.885 564.909 302.319 564.965 372.754 565H529.16C596.362 565 663.786 564.335 731.275 564.335H952.455C952.781 564.335 954.28 563.591 953.954 563.644C953.12 542.463 958.317 491.692 863.634 482.835C768.952 473.978 758.053 417.511 734.566 407.729C732.881 407.221 731.358 406.281 730.147 405.003C726.055 399.578 739.362 385.936 734.357 382.766C733.599 382.375 732.734 382.242 731.894 382.388C726.701 382.833 721.735 384.721 717.557 387.84C716.918 383.588 716.253 379.336 715.654 375.085L710.818 381.71C711.211 370.208 712.549 358.757 714.82 347.475C707.592 359.688 703.379 373.449 702.529 387.618C700.052 382.34 697.563 377.067 695.061 371.798C695.844 376.901 695.529 382.112 694.135 387.083C690.823 382.815 687.739 378.374 684.894 373.78C684.025 378.415 683.122 383.049 682.183 387.683C682.095 388.739 681.633 389.729 680.88 390.474C679.25 391.778 676.97 390.318 675.445 388.844C666.647 380.041 650.531 386.284 649.801 373.086C648.628 350.262 657.465 323.839 669.352 304.654C680.3 286.865 695.576 272.049 706.185 254.038C718.554 233.04 723.598 211.977 716.612 188.58C716.06 187.02 715.826 185.366 715.922 183.715C716.239 181.94 716.899 180.243 717.864 178.72C729.529 157.279 741.324 135.681 757.082 117.031C755.779 114.122 753.368 111.41 750.409 110.627C741.285 128.573 730.936 146.767 714.566 158.439C709.652 161.935 699.173 155.101 694.898 152.271C686.283 146.558 679.414 138.629 672.74 130.738C670.399 128.203 668.421 125.354 666.862 122.274C663.838 115.57 664.894 106.936 667.931 100.389C670.629 94.5593 678.997 94.0507 684.38 96.8808C689.085 99.3458 692.03 105.176 690.427 110.249C689.489 113.236 687.208 115.583 685.396 118.139C683.585 120.696 682.138 123.943 683.154 126.917C685.865 134.846 704.452 134.742 711.177 134.312C721.474 133.712 731.288 129.59 737.245 120.878C740.308 116.431 743.253 110.445 748.649 110.445C749.235 110.439 749.818 110.513 750.383 110.666L750.409 113.366L753.231 116.759C752.136 117.968 754.37 118.468 757.134 117.044L757.33 117.487C758.881 121.113 759.428 125.13 761.24 128.625C765.45 136.672 775.46 139.946 784.544 139.92C806.936 139.92 828.103 122.587 832.652 100.65C834.985 89.3034 832.692 76.2483 823.946 68.6187ZM565.72 183.324C557.203 183.574 548.782 181.481 541.373 177.272C545.935 173.552 549.839 169.091 552.921 164.074C557.408 165.82 561.985 167.326 566.632 168.586C565.179 173.36 564.867 178.407 565.72 183.324ZM627.539 122.548C628.517 120.057 630.954 119.144 634.056 116.509C637.158 113.875 638.735 109.988 640.39 106.076C639.7 104.145 639.087 102.163 638.566 100.402C638.407 99.9862 638.375 99.5321 638.475 99.098C638.598 98.8188 638.78 98.5696 639.009 98.3676C640.888 96.5244 643.099 95.055 645.526 94.0377C645.597 94.8936 645.222 95.9581 645.526 96.8246C649.723 93.6162 657.426 93.3725 662.196 95.3158C660.06 103.025 659.35 112.771 658.721 120.746C656.558 117.47 654.493 114.748 653.893 113.94C652.342 111.811 650.956 109.565 649.749 107.223C648.063 104.096 645.836 95.1655 645.057 91.6986C642.451 93.9679 637.938 94.6641 636.517 97.9637C637.378 100.461 642.447 110.98 643.779 113.262C644.47 114.383 651.025 126.107 652.459 125.872C644.488 125.302 634.795 124.865 627.252 127.047C626.98 125.529 627.078 123.967 627.539 122.495V122.548ZM685.24 154.331C698.156 170.242 707.176 190.119 706.641 210.608C706.107 231.097 694.637 251.86 675.842 260.011C672.154 261.615 667.735 262.62 664.242 260.689C661.492 259.137 660.019 256.098 658.664 253.242C651.925 239.052 644.105 224.889 632.114 214.755C624.176 208.051 614.805 203.487 605.329 199.431C597.613 196.118 583.341 193.94 581.869 183.976C581.591 180.853 581.811 177.705 582.52 174.651C584.28 164.66 598.617 170.908 605.825 168.821C609.513 167.751 612.863 164.908 616.447 163.604C621.882 161.452 628.269 164.908 633.952 163.813C636.448 163.226 638.804 162.153 640.886 160.657C642.864 159.436 644.589 157.846 645.969 155.974C646.652 155.035 647.138 153.968 647.398 152.836C647.658 151.704 647.686 150.531 647.481 149.388C645.786 141.824 639.882 138.655 633.743 135.042L632.661 134.351C642.293 133.112 652.043 132.447 661.127 135.564C670.903 138.915 678.749 146.323 685.24 154.331Z" fill="#0B0B0B"/>
</svg>
