<svg width="978" height="741" viewBox="0 0 978 741" fill="none" xmlns="http://www.w3.org/2000/svg">
<mask id="mask0_2002_1356" style="mask-type:alpha" maskUnits="userSpaceOnUse" x="0" y="0" width="978" height="741">
<rect width="978" height="741" fill="#D9D9D9"/>
</mask>
<g mask="url(#mask0_2002_1356)">
<path d="M903.488 715.899C902.701 716.075 901.95 716.387 901.27 716.82C899.581 717.804 897.586 718.121 895.676 717.711C893.766 717.3 892.077 716.191 890.941 714.601C889.75 715.853 888.409 716.952 886.948 717.875C886.495 718.21 885.947 718.393 885.384 718.396C884.13 718.252 883.764 716.632 883.775 715.378C883.815 709.843 885.068 704.384 887.447 699.386C884.119 699.841 881.9 703.004 880.935 706.178C879.97 709.352 879.937 712.748 878.938 715.91C875.636 713.134 873.553 709.174 873.136 704.88C873.291 707.31 872.934 709.746 872.09 712.03C871.245 714.314 869.931 716.396 868.233 718.141C862.886 723.146 862.608 713.314 861.754 709.529C861.103 711.216 860.453 712.896 859.802 714.568C858.227 709.027 856.319 703.587 854.089 698.277L855.309 704.491C855.896 706.852 856.128 709.287 855.997 711.716C855.921 712.931 855.578 714.115 854.991 715.181C854.404 716.248 853.588 717.172 852.602 717.886C852.365 718.068 852.092 718.197 851.801 718.264C851.51 718.331 851.208 718.335 850.916 718.274C850.15 718.03 849.806 717.164 849.607 716.376C848.956 713.835 848.584 711.23 848.497 708.608C847.362 710.28 845.986 711.776 844.415 713.047C843.996 713.447 843.479 713.73 842.917 713.868C841.142 714.19 840 712.037 839.589 710.262C838.355 704.789 838.283 699.118 839.378 693.616L832.988 699.009C831.951 692.195 832.329 685.241 834.098 678.579C830.768 683.857 827.724 689.31 824.979 694.914C823.581 697.877 822.327 700.996 820.153 703.448C814.606 709.718 803.79 706.777 797.567 703.004C785.364 695.658 782.49 678.002 788.581 665.152C781.368 667.306 775.148 671.939 771.02 678.235C771.706 668.275 774.658 658.604 779.65 649.959C768.735 657.907 760.46 668.953 755.899 681.664C754.912 675.136 755.289 668.474 757.008 662.1C749.995 670.838 744.937 680.98 742.176 691.84C738.692 681.099 733.987 670.792 728.154 661.123C730.906 666.671 732.407 672.755 732.551 678.947C732.695 685.139 731.478 691.287 728.986 696.956C727.186 692.841 724.631 689.1 721.453 685.926C724.094 688.778 722.94 693.827 719.811 696.135C716.683 698.443 713.555 711.127 709.827 709.984C703.67 708.087 699.776 702.705 700.819 696.29C699.643 697.278 694.418 700.729 694.218 702.172C694.686 698.76 695.78 695.464 697.447 692.451L686.409 706.655C684.923 694.442 688.188 682.126 695.527 672.254C685.789 679.354 677.412 688.155 670.8 698.232C673.296 689.001 678.59 680.771 685.954 674.673C674.182 681.889 665.601 693.322 661.958 706.644C655.668 705.368 646.86 703.315 641.89 699.187C638.107 696.068 633.348 686.492 635.633 681.509C631.34 690.853 637.375 702.694 632.649 711.827C631.085 707.099 629.498 702.316 626.791 698.133C624.085 693.949 620.08 690.364 615.232 689.255C618.826 695.181 620.668 703.437 618.471 710.14C611.116 709.574 599.335 705.324 592.423 702.194C579.766 696.435 567.197 691.874 558.288 691.297C536.867 689.909 515.5 688.999 494.09 688.256C493.075 688.33 492.067 688.048 491.239 687.457C490.58 686.667 490.226 685.667 490.24 684.638C489.115 671.767 490.834 658.806 495.277 646.675C485.494 657.403 478.385 670.294 474.532 684.294C472.875 676.104 471.218 667.911 469.562 659.714C468.824 666.698 468.524 673.721 468.663 680.743C465.697 669.376 460.409 658.747 453.132 649.527C458.502 659.77 461.026 671.267 460.443 682.818C454.519 676.981 451.878 668.392 445.733 662.766C439.953 657.494 432.143 655.885 424.566 655.397C419.873 655.397 415.225 653.81 410.533 653.843C406.561 653.843 401.081 655.885 397.475 653.211C396.49 652.315 395.86 651.093 395.7 649.771C394.803 645.43 395.189 640.923 396.81 636.798C392.188 640.657 388.191 645.209 384.962 650.292C384.477 645.789 385.096 641.236 386.766 637.026C388.436 632.817 391.107 629.078 394.547 626.134C389.854 629.041 380.735 640.094 375.577 640.26C370.03 640.427 367.046 631.383 364.683 627.443C360.711 620.896 364.195 620.008 369.209 615.658C374.606 610.805 380.44 606.462 386.637 602.685C399.35 595.206 494.903 547.36 508.97 543.087C544.47 532.301 581.966 528.861 616.878 516.31C626.817 512.744 636.669 508.937 646.431 504.891C655.849 500.984 664.902 496.268 674.82 493.915C679.723 492.806 684.804 492.872 689.874 492.806C705.893 492.661 721.257 489.698 737.132 489.066C746.007 488.722 755.104 488.289 762.98 484.305C759.819 485.903 775.738 492.917 777.136 493.105C784.99 494.148 793.299 491.896 800.432 488.666C806.523 485.892 812.802 481.575 814.022 475.006C814.434 471.831 814.08 468.605 812.991 465.595C811.704 461.4 809.862 457.228 806.656 454.243C805.555 453.426 804.633 452.391 803.949 451.202C803.584 450.102 803.456 448.937 803.572 447.784C803.705 442.513 803.173 437.097 800.943 432.326C798.713 427.554 794.553 423.448 789.405 422.338C784.258 421.228 778.733 423.048 773.797 425.201C766.442 428.419 759.375 432.259 751.831 435.089C745.453 437.486 738.397 439.128 731.863 437.197C726.482 435.599 722.455 431.815 719.15 427.443C718.628 426.744 710.053 414.703 714.912 414.803C724.585 415.025 735.213 409.443 737.099 399.944C738.208 394.395 736.134 388.58 733.272 383.642C728.834 376.018 721.801 369.216 713.059 368.184C715.034 365.886 714.757 362.224 713.059 359.75C711.163 357.348 708.493 355.677 705.504 355.022C700.153 353.561 694.465 353.952 689.363 356.132C685.869 357.63 680.888 361.68 676.827 360.87C672.767 360.06 672.213 354.545 670.249 351.26C665.541 343.338 658.011 337.49 649.171 334.892C644.019 333.317 638.517 333.294 633.352 334.825C629.147 336.32 625.503 339.07 622.912 342.704C620.217 346.255 619.951 353.624 617.432 356.298C611.242 362.89 600.148 359.727 595.611 371.502C589.621 367.784 580.735 370.103 577.318 376.273C575.09 367.646 570.491 359.814 564.043 353.666C557.595 347.519 549.554 343.3 540.832 341.487C532.11 339.675 523.056 340.342 514.693 343.413C506.331 346.484 498.995 351.835 493.517 358.862C491.717 361.458 489.714 363.907 487.526 366.186C485.407 367.955 483.152 369.554 480.781 370.969C475.234 374.653 470.242 379.469 467.813 385.639C465.383 391.81 466.038 399.478 470.642 404.238C474.547 408.267 480.371 409.576 485.596 411.64C490.821 413.704 496.235 417.5 496.689 423.093C493.994 427.398 489.567 430.017 487.082 434.534C485.418 437.586 484.742 441.381 486.173 444.521C486.95 446.089 488.102 447.441 489.526 448.457C490.95 449.474 492.603 450.123 494.338 450.348C497.8 450.728 501.301 450.188 504.488 448.783C511.93 445.79 518.139 440.365 522.105 433.391C522.669 434.841 523.547 436.149 524.674 437.221C525.802 438.293 527.152 439.103 528.628 439.594C535.14 441.814 544.159 438.562 550.527 435.843C551.074 435.607 551.629 435.396 552.191 435.211C552.287 435.768 552.413 436.32 552.568 436.864C552.923 438.884 555.896 441.792 557.15 443.378C560.443 447.544 564.198 451.323 568.343 454.642C573.641 459.058 579.25 463.086 585.128 466.694C587.929 468.469 590.902 469.956 594.003 471.133C597.907 472.475 598.54 471.61 598.096 475.96C597.253 484.094 594.058 491.873 589.964 498.887C586.525 504.768 582.199 513.169 575.044 514.157C519.751 521.749 465.839 537.259 333.432 603.062C330.974 604.049 328.666 605.375 326.576 607.002C326.51 606.813 326.465 606.614 326.388 606.425C325.422 603.884 323.448 601.875 321.54 599.933C284.232 561.603 259.471 513.175 235.253 465.457C233.545 462.127 231.803 458.61 231.493 454.848C231.182 451.086 232.369 447.168 233.567 443.473C235.786 436.482 237.195 428.081 240.678 421.711C244.483 414.764 249.919 408.783 254.612 402.446C268.299 383.904 277.345 362.35 280.992 339.591C281.924 333.765 282.557 327.673 285.63 322.646C287.848 319.106 291.01 316.354 294.272 313.768C315.238 297.211 340.754 284.749 354.654 261.922C355.494 260.258 356.621 258.756 357.982 257.483C359.802 256.04 362.187 255.596 364.461 255.152C392.286 249.758 418.923 239.431 443.115 224.657C451.734 229.951 461.685 231.127 471.747 230.139C478.182 229.445 484.486 227.846 490.473 225.39C493.491 224.18 496.597 221.927 499.681 221.084C502.765 220.241 503.064 220.884 506.104 222.194C519.893 228.075 535.136 227.576 549.491 224.236C556.791 222.549 563.769 219.009 571.013 217.455C577.014 216.179 579.022 225.112 582.972 229.163C593.289 239.738 608.01 245.587 622.776 246.086C637.541 246.585 652.273 241.947 664.743 234.012C663.367 234.889 676.191 243.578 677.467 244.066C682.961 245.99 688.704 247.111 694.518 247.396C705.07 247.84 715.544 245.412 724.826 240.371C730.084 237.608 735.098 234.079 738.493 229.196C743.496 222.027 744.461 212.65 743.064 204.016C742.11 198.057 739.98 192.065 735.764 187.748C728.631 180.435 716.716 179.458 707.231 183.253C708.773 179.103 706.765 174.242 703.337 171.457C699.909 168.672 695.372 167.606 690.968 167.318C682.275 166.757 673.612 168.789 666.074 173.155C664.823 174.029 663.414 174.65 661.925 174.986C660.773 175.092 659.611 174.967 658.508 174.62C655.441 173.934 652.647 172.354 650.476 170.081C649.412 168.93 648.68 167.512 648.358 165.978C648.035 164.444 648.135 162.852 648.646 161.37C658.719 161.569 670.6 154.045 669.923 142.981C669.646 138.443 667.239 134.315 664.543 130.652C660.106 124.56 653.449 118.734 645.939 119.766C646.471 115.86 644.652 111.909 641.945 109.057C639.097 106.318 635.784 104.109 632.161 102.532C625.505 99.2694 618.416 96.5173 611.005 96.14C598.802 95.5186 587.209 101.334 576.759 107.692C572.754 110.134 568.228 112.775 563.691 111.632C559.764 110.644 555.925 105.118 557.6 101.001C558.898 97.8601 563.769 96.5617 566.353 94.5753C573.442 89.1931 579.266 79.4941 575.617 70.4832C572.632 63.1146 564.323 59.2195 556.402 58.4094C548.482 57.5993 540.538 59.1418 532.595 59.1529C529.545 59.1529 526.117 58.7534 524.242 56.3564C520.581 51.6955 525.873 45.5588 528.236 40.1211C532.285 30.8105 525.196 18.5591 515.101 17.4383C515.8 12.6665 513.182 7.8392 509.343 4.90953C505.505 1.97985 500.657 0.714755 495.865 0.215378C487.657 -0.547904 479.388 0.72464 471.789 3.92035C464.191 7.11606 457.497 12.1364 452.3 18.5369C448.562 23.2311 445.644 28.6022 441.584 32.9634C437.523 37.3246 431.599 40.7314 425.686 39.7327C418.309 38.5342 413.705 31.4097 409.046 25.5504C403.388 18.3705 396.2 12.1116 387.558 9.15978C374.9 4.83185 361 8.05005 348.231 12.034C335.196 16.1066 322.283 21.1448 310.69 28.4579C304.98 31.9996 299.701 36.1929 294.959 40.9534C291.753 44.216 287.083 53.9816 282.191 54.1591C280.471 54.2257 278.985 53.0494 277.576 52.095C268.701 45.9693 257.119 44.8707 246.669 47.301C236.219 49.7313 226.7 55.3465 218.136 61.7274C208.573 68.9407 198.866 79.816 201.828 91.4792C203.226 96.9723 207.298 101.411 211.813 104.874C218.804 110.198 227.007 113.702 235.686 115.072C244.406 116.47 252.859 113.563 261.201 115.915C264.106 116.597 266.904 117.668 269.522 119.1C276.877 123.539 279.672 133.815 276.444 141.783C275.417 144.523 273.66 146.931 271.365 148.746C269.07 150.561 266.323 151.714 263.42 152.081C256.232 152.925 254.945 149.962 256.243 143.592C256.414 142.541 256.356 141.466 256.075 140.44C255.794 139.414 255.295 138.46 254.612 137.644C253.235 136.02 251.52 134.717 249.586 133.826C246.426 132.246 242.999 131.268 239.48 130.941C232.646 130.32 227.277 126.092 220.432 124.604C206.432 121.564 195.505 127.812 183.712 134.137C177.559 137.494 172.135 142.042 167.754 147.515C163.374 152.989 160.125 159.279 158.197 166.019C156.245 173.022 155.801 180.59 157.964 187.526C160.127 194.462 165.108 200.698 171.853 203.417C177.5 205.692 183.868 205.404 189.869 204.316C193.752 203.606 197.901 202.374 200.187 199.156C200.762 198.022 201.575 197.027 202.572 196.237C204.446 195.127 207.009 196.581 207.83 198.557C210.049 203.672 208.307 212.572 207.564 217.866C206.692 224.749 204.276 231.346 200.497 237.164C199.034 239.354 198.278 241.942 198.334 244.576C198.39 247.21 199.253 249.763 200.808 251.89C204.241 256.98 207.332 262.292 210.06 267.792C216.654 280.598 223.935 293.037 231.87 305.057C235.852 311.083 240.068 317.142 242.054 324.1C243.829 330.303 243.729 336.906 242.864 343.309C240.401 361.442 230.916 374.714 219.811 389.263C207.586 405.306 197.436 422.831 189.603 441.42C188.749 443.084 188.311 444.931 188.327 446.802C188.549 449.155 190.402 467.565 191.911 469.396C213.643 495.796 270.154 553.458 227.965 585.307C217.171 593.463 203.903 597.714 192.787 605.404C175.037 617.677 59.5 617.704 0 700.087C0 782.207 0 741.09 0 741.09H194.529L298.132 741.19L440.896 741.323L598.425 741.467L746.281 741.6L860.046 741.711H978.392C977.738 741.711 915.825 719.95 914.05 718.873C910.799 717.053 907.005 715.145 903.488 715.899ZM574.555 451.368C573.819 451.209 573.133 450.87 572.559 450.381C566.406 445.85 561.074 440.299 556.795 433.968C560.381 433.384 564.049 433.531 567.578 434.401C571.627 435.411 576.264 437.275 579.636 434.811C580.346 434.29 580.945 433.613 581.666 433.136C581.866 440.071 583.586 452.567 574.567 451.368H574.555ZM749.247 468.858C751.449 469.199 753.687 469.247 755.903 469.002C755.736 471.924 756.147 474.85 757.112 477.613L757.267 478.046C753.665 479.299 749.999 480.358 746.285 481.22L737.998 483.284C737.31 483.451 731.874 484.982 733.205 482.563C733.684 482.019 734.219 481.528 734.803 481.098L736.766 479.167C738.375 477.613 739.983 476.06 741.625 474.551C743.267 473.041 744.698 471.754 746.34 470.489C747.017 469.979 748.326 468.713 749.258 468.858H749.247ZM725.784 468.381L727.636 466.561C727.783 466.381 727.974 466.243 728.191 466.161C728.491 466.105 728.801 466.143 729.078 466.272C732.874 467.513 736.918 467.795 740.849 467.093C741.881 466.756 742.999 466.804 743.999 467.226C736.234 471.432 729.844 477.991 722.145 482.385C721.674 482.674 721.176 482.916 720.658 483.107C718.273 483.883 710.519 486.436 710.674 481.764C710.674 480.843 712.327 479.789 712.893 479.278C714.368 478.024 715.932 476.87 717.463 475.694C720.382 473.422 723.164 470.98 725.795 468.381H725.784ZM704.373 464.774C708.81 466.149 713.374 467.075 717.996 467.537C713.481 471.099 708.999 474.761 704.362 478.035C703.175 478.879 696.452 483.872 695.187 483.251L690.251 480.843C695.387 476.359 700.867 470.844 704.373 464.774ZM649.537 414.481C649.704 414.182 650.169 413.372 650.769 412.262C651.456 412.728 652.166 413.183 652.887 413.582C657.203 415.99 662.151 416.856 667.098 417.422C662.71 421.52 659.141 426.416 656.582 431.848C656.182 432.703 653.487 445.853 654.363 445.409C646.362 449.346 637.995 452.487 629.38 454.786C625.819 455.752 622.103 456.573 618.453 455.974L623.234 444.288C626.041 437.397 633.152 436.176 638.166 431.105C642.881 426.311 646.209 420.296 649.537 414.481ZM629.968 420.03C630.722 414.87 631.366 409.654 631.654 404.427C633.148 404.034 634.698 403.906 636.236 404.05C640.296 404.46 643.591 406.891 646.897 409.421C645.499 411.818 644.024 414.182 642.559 416.545C640.818 419.331 637.09 428.564 634.172 429.862C627.705 432.681 629.502 423.137 629.957 419.985L629.968 420.03ZM587.413 458.87C586.182 454.62 586.947 448.883 586.77 444.444C586.77 443.39 586.914 436.742 586.681 433.025H586.77C591.207 434.046 598.684 434.245 602.678 431.982C604.132 431.133 605.382 429.976 606.341 428.592C607.299 427.207 607.942 425.629 608.225 423.969C608.724 420.973 607.992 417.877 608.48 414.87C608.535 414.312 608.729 413.778 609.045 413.316C609.844 412.273 611.375 412.273 612.684 412.284C614.792 412.284 626.784 408 626.873 406.192C626.429 415.258 625.664 424.091 624.898 425.257C620.173 432.427 615.958 439.922 612.285 447.684C609.356 453.854 607.226 462.754 602.644 467.848C597.896 465.517 589.022 464.474 587.413 458.859V458.87ZM613.616 473.519C615.413 468.824 616.6 465.939 621.315 464.441C624.643 463.409 627.971 462.488 631.211 461.456C639.486 458.848 647.784 456.151 655.816 452.867C658.3 456.656 661.99 459.495 666.289 460.923C671.835 462.843 677.682 462.399 683.473 462.033C685.891 461.878 688.298 461.733 690.672 461.778C691.249 464.108 689.885 466.427 688.454 468.369C681.04 478.626 671.063 486.754 659.521 491.94C648.483 496.889 637.079 500.929 625.641 504.868C620.095 506.788 614.426 508.641 608.857 510.639C606.549 511.46 604.93 512.858 602.877 513.791C602.289 514.046 596.365 514.9 596.609 514.479C604.63 502.016 608.302 487.346 613.605 473.507L613.616 473.519ZM550.711 196.437C550.796 196.356 550.905 196.305 551.022 196.293C552.597 196.171 553.94 204.949 553.917 205.603C553.818 208.932 553.485 210.486 550.589 212.262C543.179 216.701 531.364 217.721 522.955 218.332C518.817 218.631 512.749 219.042 509.399 216.201C511.44 214.215 515.633 214.126 518.362 213.371C530.239 210.108 541.28 204.342 550.745 196.459L550.711 196.437ZM520.154 193.03C527.268 192.983 532.453 190.504 538.597 186.916L543.989 189.268C543.989 193.03 541.458 195.33 540.439 196.459C532.909 203.867 523.923 205.152 514.291 209.487C517.033 203.893 519.197 198.793 520.154 193.03ZM512.816 191.843C512.066 197.676 509.847 203.223 506.368 207.965C502.889 212.706 498.264 216.486 492.926 218.95C487.587 221.415 481.711 222.483 475.847 222.054C469.983 221.626 464.324 219.715 459.4 216.501C463.627 207.346 472.834 202.074 481.853 197.635C488.505 194.462 494.792 190.574 500.602 186.039C504.123 188.939 508.308 190.922 512.782 191.809L512.816 191.843ZM496.752 181.855C497.107 182.355 497.495 182.832 497.861 183.298C495.133 184.882 492.257 186.197 489.275 187.226C487.389 185.939 485.259 184.041 485.814 181.833C486.002 181.229 486.287 180.659 486.657 180.146C489.018 176.376 491.098 172.437 492.881 168.361C492.617 173.144 493.968 177.878 496.719 181.8L496.752 181.855ZM476.262 146.089C481.498 149.529 484.993 154.478 490.285 157.73C488.41 165.176 485.847 172.667 481.343 178.604C476.429 185.14 472.094 189.453 464.151 191.461C462.828 183.893 461.5 176.321 460.169 168.745C459.765 167.11 459.709 165.409 460.002 163.751C460.679 161.033 460.986 160.748 463.127 158.939C467.761 155.014 471.742 150.377 474.92 145.201L476.262 146.089ZM442.027 124.582C442.56 124.371 443.137 124.161 443.614 123.905C448.495 121.564 454.829 117.935 458.501 121.908C459.744 123.251 460.177 125.137 460.72 126.902C462.146 131.615 464.684 135.915 468.12 139.441C465.665 143.593 462.899 147.551 459.844 151.282C457.425 154.234 454.119 157.308 450.359 156.664C445.921 155.888 444.035 150.517 443.336 146.022C442.227 138.914 441.777 131.718 441.994 124.527L442.027 124.582ZM382.832 131.762L398.274 130.32C395.168 140.54 386.892 149.263 376.542 152.159C380.042 145.857 382.174 138.888 382.799 131.707L382.832 131.762ZM381.013 160.615C392.414 153.524 400.89 142.572 404.897 129.754L425.054 127.889C427.595 127.656 430.168 127.412 432.709 127.024C432.861 134.327 434.014 141.574 436.137 148.563C438.167 154.9 440.054 161.242 449.752 162.631C452.017 174.245 452.537 180.487 454.056 198.142C446.66 203.667 437.763 211.522 431.677 218.465C430.304 220.297 428.68 221.926 426.851 223.303C425.428 224.174 423.909 224.877 422.325 225.401C403.255 232.547 384.119 239.705 364.294 244.266C358.027 245.72 343.882 255.579 337.703 253.826C338.734 243.447 337.987 242.99 338.102 226.779C338.502 219.144 334.697 211.607 334.996 209.199C335.237 208.007 335.712 206.875 336.394 205.87C340.255 199.344 344.219 192.893 348.286 186.516C351.16 181.999 354.144 177.472 358.104 173.898C364.683 168.05 373.413 165.154 380.979 160.537L381.013 160.615ZM355.974 136.101C361.504 134.432 367.186 133.316 372.936 132.772C372.279 139.928 370.567 146.947 367.855 153.602C365.714 158.839 362.109 164.432 356.485 165.065C350.605 165.72 345.713 160.56 342.839 155.377C340.763 151.633 339.171 147.639 338.102 143.492C344.049 141.028 349.806 138.01 355.941 136.024L355.974 136.101ZM313.63 176.506C317.069 169.337 316.803 160.693 313.752 153.346C312.782 151.045 311.57 148.854 310.135 146.81C316.995 147.916 324.009 147.592 330.736 145.856C332.612 155.564 338.069 164.211 346.023 170.081C347.051 170.655 347.882 171.525 348.408 172.578C348.963 174.109 348.076 175.763 347.199 177.139C340.705 187.389 333.471 197.15 325.556 206.347C324.994 207.135 324.227 207.753 323.337 208.133C322.308 208.336 321.241 208.212 320.286 207.778C311.344 204.542 303.754 198.384 298.742 190.3C305.088 187.337 310.635 182.832 313.63 176.506ZM220.776 225.738C221.161 234.871 217.762 247.54 215.174 256.307L208.191 247.781C206.481 245.694 205.859 242.92 206.513 240.302V240.302C210.809 226.042 215.759 209.5 214.253 194.684L215.174 194.351C225.491 190.444 233.645 182.454 241.399 174.908L241.532 175.075C235.579 185.01 229.618 194.935 223.65 204.849C222.275 206.903 219.726 212.454 218.997 214.815C218.276 217.645 220.654 222.798 220.776 225.738ZM231.027 283.806C225.214 275.694 223.65 268.909 223.65 268.909C223.65 268.909 226.939 247.246 228.359 241.342C229.583 236.183 229.532 227.492 228.359 222.32C227.871 220.178 226.462 217.505 226.706 215.319C226.985 213.657 227.544 212.055 228.359 210.58C233.795 199.276 240.122 192.841 246.564 182.047C251.201 187.596 254.457 189.335 261.113 192.087C267.769 194.839 274.969 195.227 282.035 194.573C286.188 194.201 290.283 193.349 294.238 192.031C296.949 199.163 301.353 205.529 307.069 210.58C312.786 215.631 319.644 219.217 327.053 221.028C328.573 235.377 330.071 250.092 326.51 264.086C302.547 279.023 280.36 295.358 261.268 316.143C249.875 306.672 239.715 295.808 231.027 283.806Z" fill="#0B0B0B"/>
</g>
</svg>
